<svg width="25" height="25" viewBox="0 0 25 25" fill="none" xmlns="http://www.w3.org/2000/svg">
<path fillRule="evenodd" clipRule="evenodd" d="M2.8125 24.13H8.2238L8.22539 24.13C8.22539 24.13 8.60707 24.1307 8.96024 23.9857C8.96024 23.9857 9.31499 23.84 9.58683 23.5695L24.1198 9.03651C24.1198 9.03651 24.3919 8.76861 24.5422 8.40956C24.5422 8.40956 24.6925 8.05052 24.6925 7.66127C24.6925 7.66127 24.6925 7.27202 24.5422 6.91298C24.5422 6.91298 24.3919 6.55393 24.1145 6.2808L18.719 0.885245C18.719 0.885245 18.4511 0.61317 18.092 0.462836C18.092 0.462836 17.733 0.3125 17.3438 0.3125C17.3438 0.3125 16.9545 0.3125 16.5955 0.462834C16.5955 0.462834 16.2364 0.613169 15.9633 0.89051L1.43726 15.4165C1.43726 15.4165 1.16506 15.69 1.01936 16.0448C1.01936 16.0448 0.873665 16.3995 0.875009 16.783L0.875003 22.1925C0.875003 22.1925 0.875003 22.9951 1.44248 23.5625C1.44248 23.5625 2.00996 24.13 2.8125 24.13ZM22.7498 7.66649L8.22374 22.1925H2.8125L2.8125 16.7813L17.3437 2.25L17.349 2.25526L22.755 7.66127L22.7498 7.66649Z" fill="white"/>
<path d="M19.5645 12.2209C19.7462 12.4026 19.9931 12.5051 20.25 12.5051C20.5069 12.5051 20.7533 12.4031 20.935 12.2214C21.1167 12.0397 21.2187 11.7933 21.2187 11.5364C21.2187 11.2794 21.1167 11.033 20.935 10.8514L14.1539 4.07023C13.9721 3.88844 13.7257 3.78638 13.4687 3.78638C13.2118 3.78638 12.9654 3.88844 12.7837 4.07012C12.6021 4.25179 12.5 4.4982 12.5 4.75513C12.5 5.01205 12.6021 5.25846 12.7837 5.44014L19.5645 12.2209Z" fill="white"/>
</svg>
