<svg width="15" height="15" viewBox="0 0 15 15" fill="none" xmlns="http://www.w3.org/2000/svg">
<path fillRule="evenodd" clipRule="evenodd" d="M1.875 14.7514H5.01705L5.01797 14.7514C5.01797 14.7514 5.23959 14.7518 5.44466 14.6676C5.44466 14.6676 5.65064 14.583 5.80848 14.4259L14.247 5.98743C14.247 5.98743 14.4049 5.83187 14.4922 5.6234C14.4922 5.6234 14.5795 5.41492 14.5795 5.1889C14.5795 5.1889 14.5795 4.96289 14.4922 4.75441C14.4922 4.75441 14.4049 4.54593 14.2439 4.38734L11.111 1.25444C11.111 1.25444 10.9555 1.09646 10.747 1.00917C10.747 1.00917 10.5385 0.921875 10.3125 0.921875C10.3125 0.921875 10.0865 0.921875 9.87801 1.00917C9.87801 1.00917 9.66953 1.09646 9.51094 1.25749L1.07647 9.69194C1.07647 9.69194 0.918424 9.85077 0.833824 10.0567C0.833824 10.0567 0.749225 10.2627 0.750005 10.4854L0.750002 13.6264C0.750002 13.6264 0.750002 14.0924 1.07951 14.4219C1.07951 14.4219 1.40901 14.7514 1.875 14.7514ZM13.4515 5.19194L5.01701 13.6264H1.875L1.875 10.4844L10.3125 2.04687L10.3155 2.04993L13.4545 5.1889L13.4515 5.19194Z" fill="#1C1C1C"/>
<path d="M11.602 7.83642C11.7074 7.94191 11.8508 8.00146 12 8.00146C12.1492 8.00146 12.2923 7.9422 12.3977 7.83671C12.5032 7.73122 12.5625 7.58815 12.5625 7.43896C12.5625 7.28978 12.5032 7.14671 12.3977 7.04122L8.46031 3.10378C8.35476 2.99823 8.21168 2.93896 8.0625 2.93896C7.91331 2.93896 7.77024 2.99823 7.66475 3.10372C7.55926 3.20921 7.5 3.35228 7.5 3.50146C7.5 3.65065 7.55926 3.79372 7.66475 3.89921L11.602 7.83642Z" fill="#1C1C1C"/>
</svg>
