<svg width="38" height="42" viewBox="0 0 38 42" fill="none" xmlns="http://www.w3.org/2000/svg">
<path d="M25.0566 1.05005V13.4406C25.0566 14.3647 23.9645 14.8267 23.2925 14.2177L19.6173 10.8365C19.4241 10.6546 19.1687 10.5533 18.9033 10.5533C18.6379 10.5533 18.3825 10.6546 18.1893 10.8365L14.5141 14.1967C13.8421 14.8267 12.75 14.3437 12.75 13.4406V1.05005C12.75 0.462022 13.212 0 13.8001 0H24.0065C24.5946 0 25.0566 0.462022 25.0566 1.05005Z" fill="#ED1C24"/>
<path d="M29.3594 0.126058C28.7504 0.0420539 28.2044 0.567079 28.2044 1.17611V13.8187C28.2044 15.4148 27.2593 16.8639 25.7892 17.5149C24.3192 18.1449 22.6181 17.8719 21.442 16.7799L19.6149 15.0998C19.4217 14.9179 19.1663 14.8165 18.9009 14.8165C18.6355 14.8165 18.3801 14.9179 18.1869 15.0998L16.3598 16.7799C15.6038 17.4939 14.6167 17.8509 13.6297 17.8509C13.0731 17.8529 12.5223 17.7385 12.0126 17.5149C10.5425 16.8639 9.59746 15.4148 9.59746 13.8187V1.17611C9.59746 0.567079 9.05144 0.0420539 8.44241 0.126058C2.56212 0.861093 0 4.83028 0 10.5006V31.5016C0 37.8019 3.15015 42.0021 10.5005 42.0021H27.3013C34.6517 42.0021 37.8018 37.8019 37.8018 31.5016V10.5006C37.8018 4.83028 35.2397 0.861093 29.3594 0.126058ZM30.4515 35.1768H12.6006C11.7396 35.1768 11.0255 34.4627 11.0255 33.6017C11.0255 32.7406 11.7396 32.0266 12.6006 32.0266H30.4515C31.3125 32.0266 32.0265 32.7406 32.0265 33.6017C32.0265 34.4627 31.3125 35.1768 30.4515 35.1768ZM30.4515 26.7763H21.526C20.665 26.7763 19.951 26.0623 19.951 25.2013C19.951 24.3402 20.665 23.6262 21.526 23.6262H30.4515C31.3125 23.6262 32.0265 24.3402 32.0265 25.2013C32.0265 26.0623 31.3125 26.7763 30.4515 26.7763Z" fill="#ED1C24"/>
</svg>
