<svg width="34" height="34" viewBox="0 0 34 34" fill="none" xmlns="http://www.w3.org/2000/svg">
<rect width="34" height="34" rx="10" fill="white" fill-opacity="0.7"/>
<path d="M23.957 11.087H21.5483L20.3657 9.31307C20.3028 9.21608 20.2164 9.13654 20.1146 9.08182C20.0127 9.0271 19.8987 8.99897 19.7831 9.00003H14.2179C14.1023 8.99897 13.9883 9.0271 13.8864 9.08182C13.7846 9.13654 13.6982 9.21608 13.6353 9.31307L12.4527 11.087H10.044C9.49119 11.0893 8.9617 11.3099 8.57081 11.7008C8.17993 12.0916 7.95932 12.6211 7.95703 13.1739V22.913C7.95932 23.4658 8.17993 23.9953 8.57081 24.3862C8.9617 24.7771 9.49119 24.9977 10.044 25H23.957C24.5098 24.9977 25.0393 24.7771 25.4302 24.3862C25.8211 23.9953 26.0417 23.4658 26.044 22.913V13.1739C26.0417 12.6211 25.8211 12.0916 25.4302 11.7008C25.0393 11.3099 24.5098 11.0893 23.957 11.087ZM20.1309 17.6957C20.1309 18.3148 19.9473 18.92 19.6033 19.4348C19.2594 19.9496 18.7705 20.3509 18.1985 20.5878C17.6264 20.8247 16.997 20.8867 16.3898 20.7659C15.7825 20.6452 15.2247 20.347 14.7869 19.9092C14.3491 19.4714 14.051 18.9136 13.9302 18.3064C13.8094 17.6991 13.8714 17.0697 14.1084 16.4977C14.3453 15.9257 14.7465 15.4368 15.2613 15.0928C15.7761 14.7488 16.3814 14.5652 17.0005 14.5652C17.8307 14.5652 18.627 14.895 19.214 15.4821C19.8011 16.0692 20.1309 16.8654 20.1309 17.6957Z" fill="#8530C1"/>
</svg>
