<svg width="26" height="26" viewBox="0 0 26 26" fill="none" xmlns="http://www.w3.org/2000/svg">
<path d="M13 2.4375C10.9109 2.4375 8.86879 3.05698 7.13179 4.2176C5.3948 5.37822 4.04098 7.02786 3.24153 8.95791C2.44208 10.8879 2.2329 13.0117 2.64046 15.0606C3.04802 17.1096 4.054 18.9916 5.53119 20.4688C7.00838 21.946 8.89044 22.952 10.9394 23.3595C12.9883 23.7671 15.1121 23.5579 17.0421 22.7585C18.9721 21.959 20.6218 20.6052 21.7824 18.8682C22.943 17.1312 23.5625 15.0891 23.5625 13C23.5571 10.2003 22.4426 7.5168 20.4629 5.53711C18.4832 3.55742 15.7997 2.44287 13 2.4375ZM18.0273 11.1516L12.0758 16.8391C11.9219 16.9838 11.7183 17.0638 11.507 17.0625C11.4038 17.064 11.3013 17.045 11.2054 17.0066C11.1095 16.9683 11.0222 16.9113 10.9484 16.8391L7.97266 13.9953C7.89012 13.9233 7.823 13.8353 7.77532 13.7367C7.72764 13.6381 7.7004 13.5309 7.69522 13.4215C7.69004 13.3121 7.70704 13.2027 7.7452 13.1001C7.78335 12.9974 7.84187 12.9035 7.91724 12.824C7.99261 12.7445 8.08328 12.6811 8.18378 12.6375C8.28429 12.594 8.39256 12.5712 8.50209 12.5706C8.61163 12.5699 8.72016 12.5915 8.82116 12.6338C8.92217 12.6762 9.01356 12.7386 9.08985 12.8172L11.507 15.1227L16.9102 9.97344C17.0681 9.8356 17.2733 9.76418 17.4827 9.77409C17.6921 9.78399 17.8896 9.87447 18.0339 10.0266C18.1781 10.1787 18.258 10.3807 18.2568 10.5904C18.2556 10.8 18.1734 11.0011 18.0273 11.1516Z" fill="#2BB457"/>
</svg>
