<svg width="17" height="17" viewBox="0 0 17 17" fill="none" xmlns="http://www.w3.org/2000/svg">
<path d="M8.5 0C6.81886 0 5.17547 0.498516 3.77766 1.43251C2.37984 2.3665 1.29037 3.69402 0.647028 5.24719C0.00368289 6.80036 -0.164645 8.50943 0.163329 10.1583C0.491303 11.8071 1.30085 13.3217 2.4896 14.5104C3.67834 15.6992 5.1929 16.5087 6.84174 16.8367C8.49057 17.1646 10.1996 16.9963 11.7528 16.353C13.306 15.7096 14.6335 14.6202 15.5675 13.2223C16.5015 11.8245 17 10.1811 17 8.5C16.9957 6.24699 16.0988 4.08749 14.5056 2.49436C12.9125 0.901241 10.753 0.00432027 8.5 0ZM12.5457 7.0125L7.75625 11.5894C7.63243 11.7059 7.46855 11.7703 7.29856 11.7692C7.21547 11.7704 7.13297 11.7551 7.05582 11.7243C6.97867 11.6934 6.90839 11.6476 6.84904 11.5894L4.45433 9.30096C4.38791 9.24301 4.33389 9.17223 4.29552 9.09287C4.25716 9.01351 4.23523 8.92722 4.23106 8.83917C4.2269 8.75112 4.24058 8.66314 4.27128 8.58051C4.30199 8.49789 4.34908 8.42233 4.40973 8.35836C4.47039 8.2944 4.54335 8.24337 4.62423 8.20832C4.70511 8.17328 4.79224 8.15495 4.88038 8.15444C4.96853 8.15392 5.05587 8.17124 5.13715 8.20534C5.21843 8.23944 5.29198 8.28963 5.35337 8.35288L7.29856 10.2082L11.6466 6.06442C11.7738 5.9535 11.9389 5.89602 12.1074 5.904C12.2759 5.91197 12.4348 5.98478 12.5509 6.10721C12.667 6.22963 12.7313 6.3922 12.7303 6.56091C12.7293 6.72963 12.6632 6.89143 12.5457 7.0125Z" fill="#8530C1"/>
</svg>
