<svg width="128" height="128" viewBox="0 0 128 128" fill="none" xmlns="http://www.w3.org/2000/svg">
<path d="M78.506 46.8801L55.626 69.8134L46.826 61.0134C46.3479 60.4551 45.7596 60.0017 45.0979 59.6815C44.4362 59.3614 43.7155 59.1815 42.981 59.1532C42.2465 59.1248 41.514 59.2486 40.8296 59.5167C40.1452 59.7848 39.5237 60.1915 39.0039 60.7113C38.4841 61.231 38.0774 61.8526 37.8093 62.537C37.5412 63.2214 37.4174 63.9539 37.4458 64.6884C37.4742 65.4229 37.654 66.1436 37.9742 66.8053C38.2943 67.4669 38.7477 68.0553 39.306 68.5334L51.8394 81.1201C52.3377 81.6144 52.9287 82.0054 53.5785 82.2709C54.2283 82.5363 54.9241 82.6708 55.626 82.6667C57.0252 82.6609 58.366 82.1054 59.3594 81.1201L86.026 54.4534C86.5259 53.9576 86.9227 53.3677 87.1935 52.7178C87.4642 52.0679 87.6036 51.3708 87.6036 50.6667C87.6036 49.9627 87.4642 49.2656 87.1935 48.6157C86.9227 47.9658 86.5259 47.3759 86.026 46.8801C85.0268 45.8867 83.675 45.3292 82.266 45.3292C80.8571 45.3292 79.5053 45.8867 78.506 46.8801ZM63.9994 10.6667C53.451 10.6667 43.1396 13.7947 34.369 19.655C25.5983 25.5154 18.7625 33.8449 14.7258 43.5903C10.6891 53.3357 9.63295 64.0592 11.6908 74.4049C13.7487 84.7505 18.8282 94.2536 26.287 101.712C33.7458 109.171 43.2489 114.251 53.5946 116.309C63.9402 118.367 74.6638 117.31 84.4092 113.274C94.1546 109.237 102.484 102.401 108.344 93.6305C114.205 84.8599 117.333 74.5484 117.333 64.0001C117.333 56.9962 115.953 50.061 113.273 43.5903C110.593 37.1196 106.664 31.2402 101.712 26.2877C96.7593 21.3353 90.8799 17.4068 84.4092 14.7265C77.9385 12.0463 71.0032 10.6667 63.9994 10.6667ZM63.9994 106.667C55.5607 106.667 47.3115 104.164 40.295 99.4761C33.2785 94.7878 27.8099 88.1242 24.5805 80.3279C21.3512 72.5316 20.5062 63.9527 22.1525 55.6762C23.7988 47.3997 27.8624 39.7972 33.8295 33.8302C39.7965 27.8632 47.399 23.7995 55.6755 22.1532C63.952 20.5069 72.5309 21.3519 80.3272 24.5812C88.1235 27.8106 94.7871 33.2793 99.4754 40.2957C104.164 47.3122 106.666 55.5614 106.666 64.0001C106.666 75.316 102.171 86.1684 94.1693 94.17C86.1677 102.172 75.3153 106.667 63.9994 106.667Z" fill="#8530C1"/>
</svg>
