<svg width="14" height="15" viewBox="0 0 14 15" fill="none" xmlns="http://www.w3.org/2000/svg">
<path d="M13.1875 2.375H0.8125C0.50184 2.375 0.25 2.62684 0.25 2.9375C0.25 3.24816 0.50184 3.5 0.8125 3.5H13.1875C13.4982 3.5 13.75 3.24816 13.75 2.9375C13.75 2.62684 13.4982 2.375 13.1875 2.375Z" fill="#ED1C24"/>
<path d="M4.1875 1.25H9.8125C10.1232 1.25 10.375 0.99816 10.375 0.6875C10.375 0.37684 10.1232 0.125 9.8125 0.125H4.1875C3.87684 0.125 3.625 0.37684 3.625 0.6875C3.625 0.99816 3.87684 1.25 4.1875 1.25Z" fill="#ED1C24"/>
<path d="M2.5 13.625V2.9375C2.5 2.62684 2.24816 2.375 1.9375 2.375C1.62684 2.375 1.375 2.62684 1.375 2.9375V13.625C1.375 14.091 1.70451 14.4205 1.70451 14.4205C2.03401 14.75 2.5 14.75 2.5 14.75H11.5C11.966 14.75 12.2955 14.4205 12.2955 14.4205C12.625 14.091 12.625 13.625 12.625 13.625V2.9375C12.625 2.62684 12.3732 2.375 12.0625 2.375C11.7518 2.375 11.5 2.62684 11.5 2.9375V13.625H2.5Z" fill="#ED1C24"/>
</svg>
