<svg width="120" height="120" viewBox="0 0 120 120" fill="none" xmlns="http://www.w3.org/2000/svg">
<g clip-path="url(#clip0_1165_79885)">
<rect width="120" height="120" rx="60" fill="#D9F7FF"/>
<path d="M68.828 120.184C72.8995 118.925 69.2537 111.969 69.2537 111.969L63.502 117.521C63.502 117.521 64.761 121.443 68.8325 120.184H68.828Z" fill="#C26753"/>
<path d="M61.2559 113.3L63.4977 117.516L69.2494 111.968L66.4596 105.084L61.2559 113.3Z" fill="#D43444"/>
<path d="M31.9004 104.419C31.8823 108.934 41.7418 106.493 41.7418 106.493L38.7074 98.9839C38.7074 98.9839 31.4566 99.4594 31.9004 104.419Z" fill="#C26753"/>
<path d="M48.7686 98.9845C48.7686 98.9845 41.2959 99.691 38.7054 98.9845C36.1148 98.278 41.7398 106.493 41.7398 106.493L51.5086 104.569L52.6907 98.1421L48.7686 98.9845Z" fill="#D43444"/>
<path d="M25.78 128.322C29.7881 132.516 34.9556 128.322 34.9556 128.322C39.3532 125.265 35.4493 119.985 30.1821 121.293C30.1821 121.293 21.7356 123.395 25.78 128.322Z" fill="#D43444"/>
<path d="M47.5863 119.935L34.9551 128.323C32.9805 126.153 32.2604 122.97 30.1816 121.294L39.9641 116.557L47.5863 119.935Z" fill="#718B95"/>
<mask id="mask0_1165_79885" style="mask-type:luminance" maskUnits="userSpaceOnUse" x="30" y="116" width="18" height="13">
<path d="M47.5863 119.935L34.9551 128.323C32.9805 126.153 32.2604 122.97 30.1816 121.294L39.9641 116.557L47.5863 119.935Z" fill="white"/>
</mask>
<g mask="url(#mask0_1165_79885)">
<path d="M30.7708 119.885C30.7708 119.885 32.9311 121.824 33.6739 123.395C34.4166 124.967 36.2871 127.358 37.2744 127.865C38.2617 128.372 33.8188 130.741 33.8188 130.741L27.6504 120.085L30.7663 119.885H30.7708Z" fill="#E5C8D3"/>
</g>
<path d="M66.4585 105.085L62.3145 115.148L58.5419 123.807C54.9912 124.845 45.3265 121.009 39.9688 116.557C39.9688 116.557 44.2622 114.26 46.4089 110.71C47.7404 106.416 49.3708 101.013 50.6253 99.7588C51.8844 98.4997 66.1188 97.9065 66.463 105.089L66.4585 105.085Z" fill="#FBC48F"/>
<mask id="mask1_1165_79885" style="mask-type:luminance" maskUnits="userSpaceOnUse" x="39" y="98" width="28" height="26">
<path d="M66.4585 105.085L62.3145 115.148L58.5419 123.807C54.9912 124.845 45.3265 121.009 39.9688 116.557C39.9688 116.557 44.2622 114.26 46.4089 110.71C47.7404 106.416 49.3708 101.013 50.6253 99.7588C51.8844 98.4997 66.1188 97.9065 66.463 105.089L66.4585 105.085Z" fill="white"/>
</mask>
<g mask="url(#mask1_1165_79885)">
<path d="M53.5772 114.559C55.2031 115.411 59.7185 111.484 58.944 110.257C58.165 109.161 56.0229 111.081 55.7602 110.9C55.4975 110.719 55.9459 108.645 54.3154 108.568C52.6896 108.495 53.2964 114.102 53.5772 114.564V114.559Z" fill="#D43444"/>
<path d="M54.5068 101.013C54.5068 101.013 54.7287 105.415 58.5421 105.565C62.3554 105.714 63.9813 101.829 64.1308 100.755C64.2802 99.6818 65.7204 106.489 58.5421 106.231C53.7686 105.972 53.6191 100.384 53.6191 100.384L54.5068 101.013Z" fill="#D5925A"/>
</g>
<path d="M29.8258 78.0742C29.8258 78.0742 27.8285 96.353 53.2857 101.385C54.0737 101.539 54.8889 101.521 55.6135 101.788C59.06 103.065 60.5772 103.065 63.6478 102.263C81.5371 101.588 88.8876 88.8757 88.8876 88.8757C88.8876 88.8757 95.9165 80.4383 90.9618 67.4901C86.0026 54.5373 69.2546 50.7919 65.3054 52.1461C61.3607 53.5047 30.2787 43.215 29.8303 78.0742H29.8258Z" fill="#C26753"/>
<path d="M95.9745 84.5774C95.105 84.5774 93.9365 84.2558 93.7734 84.2105L93.8912 84.043C94.4211 84.1924 95.9111 84.5366 96.4546 84.3328C96.5723 84.2875 96.6357 84.2196 96.6448 84.12L96.9346 84.1336C96.9165 84.2921 96.7988 84.4144 96.5995 84.4868C96.4319 84.5502 96.2145 84.5729 95.97 84.5729L95.9745 84.5774Z" fill="#3B0006"/>
<path d="M93.5699 95.5874C92.0029 95.5874 88.6696 95.0167 87.8906 94.8809L87.9631 94.6907C91.1469 95.2523 93.973 95.5421 94.1315 95.3338C94.0545 94.8582 91.8308 92.6209 90.9839 91.8012L91.2239 91.688C91.5409 91.996 94.3217 94.6997 94.4213 95.3066C94.4304 95.3745 94.3942 95.4379 94.3172 95.4832C94.1949 95.5557 93.9322 95.5829 93.5744 95.5829L93.5699 95.5874Z" fill="#3B0006"/>
<path d="M82.4745 99.1109L82.4609 98.9252C85.1239 98.8482 88.0813 98.6218 88.2127 98.3953C88.2127 98.3953 88.1946 98.3727 88.113 98.341C86.7996 97.7975 84.4763 96.6472 84.4537 96.6381L84.6303 96.4932C84.6529 96.5068 86.9672 97.648 88.2716 98.1915C88.5025 98.2866 88.5206 98.3863 88.4935 98.4497C88.3033 98.898 84.2227 99.0656 82.4745 99.12V99.1109Z" fill="#3B0006"/>
<path d="M76.8176 66.752C76.8176 66.752 64.7797 67.9794 65.3142 52.2549C65.3277 51.9107 65.6266 51.1815 65.9165 50.9868C73.8557 45.3845 82.9951 55.1987 87.3836 59.071C88.0222 59.6371 88.9325 61.2992 89.399 62.0148C92.2703 66.4078 94.1363 73.7809 94.1363 73.7809C94.1363 73.7809 95.9886 80.2211 96.5049 81.4756C97.0212 82.7301 97.4696 85.1304 91.9216 82.5444C91.9216 82.5444 91.2876 89.8043 94.7296 93.9845C94.7296 93.9845 88.9053 94.8903 86.2287 92.2907L85.3728 93.1784C85.3728 93.1784 86.736 96.4166 87.2523 97.1638C87.7686 97.9111 86.8809 98.2055 85.8845 98.133C84.8837 98.0605 80.7261 98.0198 80.0875 97.3721C80.0875 97.3721 84.313 94.3242 84.8384 93.6992C85.3637 93.0742 90.1417 88.7717 91.9216 82.5489C93.475 76.8153 91.5819 69.9766 91.0656 69.1976C91.0656 69.1976 89.476 69.2339 88.7332 68.6814C87.9905 68.1288 86.4778 67.2774 85.4769 67.4993C84.476 67.7212 78.5205 65.1307 74.7479 62.2095C70.9753 59.2883 76.8222 66.7611 76.8222 66.7611L76.8176 66.752Z" fill="#4E1319"/>
<path d="M65.3002 52.1461C65.3002 52.1461 64.6073 48.3327 54.0503 49.1027C43.4934 49.8726 34.8658 54.8906 31.7499 58.1651C25.8306 64.3833 24.9429 73.1649 24.2499 74.1522C23.557 75.1395 20.5 79.0842 20.5 79.0842C20.5 79.0842 25.8306 79.8722 27.2119 79.0842C28.5932 78.2962 27.2119 86.7789 25.4365 88.2598C23.6612 89.7408 22.8732 89.999 23.5616 90.4609C24.25 90.9229 29.8115 91.3169 31.3242 88.5542C32.8368 85.7916 30.6675 94.8676 30.6675 94.8676C30.6675 94.8676 29.2861 95.9545 31.7544 96.3485C34.2226 96.7425 40.0921 97.1864 40.6809 96.7924C38.3032 95.1076 34.7888 92.9609 31.9808 87.7752C31.9808 87.7752 31.0841 77.0326 31.3287 74.9991C31.5732 72.9656 33.4935 67.3045 33.5705 66.8606C33.6475 66.4168 38.1583 66.9738 42.266 65.0853C42.266 65.0853 49.4806 65.0853 51.333 63.6043C53.1853 62.1234 57.1073 59.8679 57.3655 59.9042C57.6236 59.9404 57.4787 63.2329 53.1491 65.6016C53.1491 65.6016 57.5874 66.6025 62.3246 61.3851C65.9161 56.5029 65.3092 52.1461 65.3092 52.1461H65.3002Z" fill="#4E1319"/>
<path d="M65.3373 58.02C65.3373 58.02 62.9822 66.2129 54.3184 67.1458C58.6933 65.8913 62.5384 63.2736 65.3373 58.02Z" fill="#3B0006"/>
<path d="M41.6689 56.9468C32.3348 61.6886 29.0921 69.9222 27.5703 79.1386C27.5703 79.1386 27.4616 61.1542 41.6689 56.9468Z" fill="#3B0006"/>
<path d="M30.748 74.4828C32.9853 60.4974 50.9878 56.6841 50.9878 56.6841C38.8141 60.6243 32.6774 66.7791 30.748 74.4828Z" fill="#3B0006"/>
<path d="M53.135 58.02C53.135 58.02 51.2827 58.3914 46.251 63.5725C41.2194 68.7536 33.0039 68.7083 33.0039 68.7083C33.0039 68.7083 40.5763 67.7935 43.4884 65.3252C46.4005 62.8569 49.607 59.2066 53.135 58.0246V58.02Z" fill="#3B0006"/>
<path d="M44.1816 66.0867C50.6942 66.603 55.504 62.459 55.504 62.459C51.9805 64.6329 48.2577 66.0232 44.1816 66.0867Z" fill="#3B0006"/>
<path d="M60.1093 55.3931C58.9137 60.1439 57.0749 63.7172 54.3485 65.6783L53.1348 65.6058C56.0061 64.3513 58.2253 60.5334 60.1093 55.3931Z" fill="#3B0006"/>
<path d="M76.8535 58.645C76.8535 58.645 80.7756 62.9022 81.7357 65.6015L76.8535 58.645Z" fill="#3B0006"/>
<path d="M71.8984 56.0186C71.8984 56.0186 72.5189 61.9379 75.4808 64.9723C72.8224 61.9741 72.3015 60.7921 71.8984 56.0186Z" fill="#3B0006"/>
<path d="M80.0742 58.02C80.0742 58.02 89.3268 63.423 91.1022 72.2273C91.1022 72.2273 88.806 63.9393 80.6313 58.9077L80.0742 58.02Z" fill="#3B0006"/>
<path d="M78.299 66.0864C76.4467 65.1262 75.4141 63.8672 75.4141 63.8672L78.299 66.0864Z" fill="#3B0006"/>
<path d="M89.6984 70.4523C88.6613 70.4523 86.6641 69.0483 86.6641 69.0483L89.6984 70.4523Z" fill="#3B0006"/>
<path d="M66.1602 57.6489C66.1602 57.6489 68.085 64.8273 74.3756 68.1561C71.1058 65.7512 68.3974 62.1824 66.1602 57.6489Z" fill="#3B0006"/>
<path d="M47.1298 66.5346C43.0628 67.2728 37.533 69.6369 36.9805 76.9783C36.9805 88.9211 50.3498 88.2599 50.3498 88.2599C50.3498 88.2599 60.4131 88.1784 61.6993 77.9158C61.5499 73.0019 58.9005 70.0581 56.3371 68.3598C53.6333 66.5618 50.3272 65.9549 47.1298 66.5346Z" fill="#EEDAED"/>
<path d="M59.7797 75.2617C59.4808 70.3252 54.4944 68.1558 50.6448 68.3777C50.6448 68.3777 42.0081 69.7002 42.2572 77.0053C42.5018 84.3105 47.5335 85.5967 50.3957 85.5967C58.4391 85.5967 59.9971 78.7943 59.7797 75.2617ZM56.863 74.7907C56.7408 76.8151 55.1375 77.5035 54.6212 77.6032C54.1004 77.7028 51.7363 77.5307 51.7091 74.7907C51.6819 72.0507 54.0506 71.7337 54.0506 71.7337C55.3594 71.4846 56.9853 72.7663 56.863 74.7907Z" fill="#2F1110"/>
<path d="M79.8518 67.6399C79.8518 67.6399 70.4543 67.418 69.3447 76.9831C68.2351 86.5482 77.3745 89.954 81.2965 89.6958C85.2186 89.4377 91.2149 86.0636 90.9522 78.147C90.694 70.2304 83.4025 67.5493 79.8518 67.6399Z" fill="#EFD9EB"/>
<path d="M86.1779 77.2408C85.5846 68.749 79.0358 69.2291 79.0358 69.2291C79.0358 69.2291 71.1192 69.2562 70.6753 77.6212C70.2315 85.9907 77.668 87.1003 78.2975 87.0595C78.9271 87.0233 86.7712 85.728 86.1779 77.2362V77.2408ZM77.2966 76.2987C77.2242 77.0053 76.8166 78.2235 75.1907 77.8522C73.5603 77.4853 73.5603 75.633 74.1173 74.6683C74.6744 73.6991 75.7568 73.7218 75.7568 73.7218C77.2876 74.1747 77.3736 75.5968 77.2966 76.2987Z" fill="#2F1110"/>
<path d="M61.4232 88.2692C65.2682 91.213 68.1169 91.4304 70.4041 90.1125C70.4041 90.1125 71.1966 89.5056 71.7129 89.8906C72.4783 90.4658 69.8606 93.9259 67.5418 95.4431C65.4947 96.7836 63.0763 97.1505 61.7221 96.4938C60.368 95.8371 58.9232 94.1116 60.1143 90.1669C60.1143 88.4911 60.4676 87.368 61.4277 88.2738L61.4232 88.2692Z" fill="#B43B45"/>
<mask id="mask2_1165_79885" style="mask-type:luminance" maskUnits="userSpaceOnUse" x="59" y="87" width="13" height="10">
<path d="M61.4232 88.2692C65.2682 91.213 68.1169 91.4304 70.4041 90.1125C70.4041 90.1125 71.1966 89.5056 71.7129 89.8906C72.4783 90.4658 69.8606 93.9259 67.5418 95.4431C65.4947 96.7836 63.0763 97.1505 61.7221 96.4938C60.368 95.8371 58.9232 94.1116 60.1143 90.1669C60.1143 88.4911 60.4676 87.368 61.4277 88.2738L61.4232 88.2692Z" fill="white"/>
</mask>
<g mask="url(#mask2_1165_79885)">
<path d="M69.7647 89.8636C69.7647 89.8636 70.4079 92.6987 67.6679 92.9704C64.9278 93.2421 59.3301 89.6144 59.3301 89.6144L60.7839 86.1362L69.7647 89.859V89.8636Z" fill="#EEDAED"/>
<path d="M58.2441 94.0569C58.2441 94.0569 59.7976 92.7752 62.1435 94.2562C64.485 95.7371 61.8718 98.7715 61.8718 98.7715L58.2441 94.0614V94.0569Z" fill="#CF515C"/>
</g>
<path d="M66.8268 86.6567L66.6275 87.2002H66.2064C66.2064 87.2002 65.9618 87.8524 66.2064 87.9475C66.4509 88.0426 68.4029 87.9475 68.4029 87.9475L68.3621 87.8025C68.2897 87.5444 68.0859 87.3587 67.8322 87.2863C67.5198 87.1957 67.1801 86.9783 66.8223 86.6613L66.8268 86.6567Z" fill="#CF5421"/>
<path d="M30.5655 27.4543C30.8925 26.5954 32.1075 26.5954 32.4345 27.4543L34.236 32.1853C34.3375 32.4519 34.5481 32.6625 34.8147 32.764L39.5457 34.5655C40.4046 34.8925 40.4046 36.1075 39.5457 36.4345L34.8147 38.236C34.5481 38.3375 34.3375 38.5481 34.236 38.8147L32.4345 43.5457C32.1075 44.4046 30.8925 44.4046 30.5655 43.5457L28.764 38.8147C28.6625 38.5481 28.4519 38.3375 28.1853 38.236L23.4543 36.4345C22.5954 36.1075 22.5954 34.8925 23.4543 34.5655L28.1853 32.764C28.4519 32.6625 28.6625 32.4519 28.764 32.1853L30.5655 27.4543Z" fill="white"/>
<path d="M96.5995 39.0518C96.7396 38.6838 97.2604 38.6838 97.4005 39.0518L98.1726 41.0794C98.2161 41.1937 98.3063 41.2839 98.4206 41.3274L100.448 42.0995C100.816 42.2396 100.816 42.7604 100.448 42.9005L98.4206 43.6726C98.3063 43.7161 98.2161 43.8063 98.1726 43.9206L97.4005 45.9482C97.2604 46.3162 96.7396 46.3162 96.5995 45.9482L95.8274 43.9206C95.7839 43.8063 95.6937 43.7161 95.5794 43.6726L93.5518 42.9005C93.1838 42.7604 93.1838 42.2396 93.5518 42.0995L95.5794 41.3274C95.6937 41.2839 95.7839 41.1937 95.8274 41.0794L96.5995 39.0518Z" fill="white"/>
<path d="M119.099 37.0518C119.24 36.6838 119.76 36.6838 119.901 37.0518L120.673 39.0794C120.716 39.1937 120.806 39.2839 120.921 39.3274L122.948 40.0995C123.316 40.2396 123.316 40.7604 122.948 40.9005L120.921 41.6726C120.806 41.7161 120.716 41.8063 120.673 41.9206L119.901 43.9482C119.76 44.3162 119.24 44.3162 119.099 43.9482L118.327 41.9206C118.284 41.8063 118.194 41.7161 118.079 41.6726L116.052 40.9005C115.684 40.7604 115.684 40.2396 116.052 40.0995L118.079 39.3274C118.194 39.2839 118.284 39.1937 118.327 39.0794L119.099 37.0518Z" fill="white"/>
</g>
<defs>
<clipPath id="clip0_1165_79885">
<rect width="120" height="120" rx="60" fill="white"/>
</clipPath>
</defs>
</svg>
