<svg width="3" height="19" viewBox="0 0 3 19" fill="none" xmlns="http://www.w3.org/2000/svg">
<path d="M3 9.5C3 10.3284 2.32837 11 1.5 11C0.671631 11 0 10.3284 0 9.5C0 8.67163 0.671631 8 1.5 8C2.32837 8 3 8.67163 3 9.5Z" fill="#1C1C1C"/>
<path d="M3 1.5C3 2.32837 2.32837 3 1.5 3C0.671631 3 0 2.32837 0 1.5C0 0.671631 0.671631 0 1.5 0C2.32837 0 3 0.671631 3 1.5Z" fill="#1C1C1C"/>
<path d="M3 17.5C3 18.3284 2.32837 19 1.5 19C0.671631 19 0 18.3284 0 17.5C0 16.6716 0.671631 16 1.5 16C2.32837 16 3 16.6716 3 17.5Z" fill="#1C1C1C"/>
</svg>
