<svg width="233" height="220" viewBox="0 0 233 220" fill="none" xmlns="http://www.w3.org/2000/svg">
<circle opacity="0.1" cx="5.28874" cy="5.28874" r="5.28874" transform="matrix(1 0 0 -1 169.242 98.3711)" fill="#8530C1"/>
<circle opacity="0.2" cx="3.17324" cy="3.17324" r="3.17324" transform="matrix(1 0 0 -1 80.3867 215.781)" fill="#8530C1"/>
<mask id="mask0_721_9841" style="mask-type:alpha" maskUnits="userSpaceOnUse" x="26" y="21" width="101" height="101">
<rect x="22.2148" y="47.1934" width="84.6198" height="84.6198" rx="16" transform="rotate(-20.959 22.2148 47.1934)" fill="#FFC467"/>
</mask>
<g mask="url(#mask0_721_9841)">
<rect x="22.2148" y="47.1934" width="84.6198" height="84.6198" rx="16" transform="rotate(-20.959 22.2148 47.1934)" fill="#FBC70D"/>
<path opacity="0.15" d="M48.3982 70.514C47.6691 60.5997 55.1153 51.9715 65.0297 51.2425L130.397 46.4358C140.311 45.7068 148.939 53.153 149.668 63.0673L157.351 167.549C157.692 172.182 152.865 175.428 148.703 173.365L105.288 151.85L65.4868 179.484C61.6711 182.134 56.4217 179.629 56.081 174.996L48.3982 70.514Z" fill="#E7D4F4"/>
<path opacity="0.15" d="M32.2308 38.4029C31.0835 35.5454 33.4597 32.5175 36.508 32.9526L46.3686 34.3601C49.4169 34.7953 50.851 38.3671 48.95 40.7894L42.8008 48.6252C40.8998 51.0475 37.0895 50.5036 35.9421 47.6462L32.2308 38.4029Z" fill="#E7D4F4"/>
</g>
<path opacity="0.1" d="M93.9913 83.3886C95.4372 73.5532 104.583 66.7522 114.418 68.1982L179.265 77.7316C189.1 79.1775 195.901 88.3229 194.455 98.1583L179.217 201.808C178.541 206.404 173.124 208.522 169.511 205.603L131.818 175.155L86.9569 193.466C82.6561 195.222 78.0776 191.634 78.7533 187.039L93.9913 83.3886Z" fill="#8530C1"/>
<path d="M53.695 69.4515C52.966 59.5372 60.4122 50.909 70.3265 50.18L135.694 45.3733C145.608 44.6443 154.236 52.0904 154.965 62.0048L162.648 166.487C162.989 171.12 158.162 174.365 154 172.303L110.585 150.788L70.7837 178.422C66.968 181.071 61.7186 178.566 61.3779 173.933L53.695 69.4515Z" fill="#8530C1"/>
<path d="M33.262 35.2076C32.1147 32.3501 34.4909 29.3222 37.5392 29.7573L47.3998 31.1648C50.4481 31.5999 51.8823 35.1718 49.9813 37.5941L43.8321 45.4299C41.9311 47.8522 38.1207 47.3083 36.9734 44.4509L33.262 35.2076Z" fill="#2BB457"/>
<path d="M8.35936 157.995C7.08404 154.819 9.72536 151.453 13.1137 151.936C16.5021 152.42 18.0963 156.39 15.9832 159.083C13.8702 161.776 9.63469 161.171 8.35936 157.995Z" fill="#2BB457"/>
<path d="M200.302 133.274C197.822 127.098 202.958 120.553 209.547 121.493C216.136 122.434 219.236 130.154 215.127 135.39C211.018 140.626 202.782 139.451 200.302 133.274Z" fill="#2BB457"/>
<path d="M149.208 204.355C147.049 202.16 148.075 198.45 151.055 197.677L160.697 195.177C163.677 194.403 166.377 197.147 165.556 200.115L162.901 209.715C162.08 212.683 158.355 213.649 156.195 211.454L149.208 204.355Z" fill="#FBC70D"/>
<path d="M86.8906 73.8867L123.812 71.1718" stroke="white" strokeWidth="3"/>
<path opacity="0.3" d="M186.969 40.8126C183.964 48.4191 179.187 28.0717 171.58 25.067C163.974 22.0623 144.965 23.3469 147.97 15.7404C150.974 8.13387 173.143 7.48768 180.749 10.4924C188.356 13.4971 189.974 33.206 186.969 40.8126Z" fill="#8530C1"/>
</svg>
