<svg width="50" height="50" viewBox="0 0 50 50" fill="none" xmlns="http://www.w3.org/2000/svg">
<path d="M34.9955 25.9258L34.9975 25.9225C35.3329 25.381 35.3362 24.717 34.9952 24.1896C34.6601 23.6653 34.0498 23.3795 33.4415 23.4308L16.265 23.4308L16.2506 23.4308L16.2363 23.4324C15.3924 23.5302 14.75 24.2217 14.75 25.048C14.75 25.8892 15.3904 26.5867 16.2424 26.6641L16.2537 26.6652L16.265 26.6652L33.4374 26.6652C34.0506 26.7361 34.6614 26.447 34.9954 25.9258L34.9955 25.9258ZM32.5904 18.2341L32.5906 18.2337C32.9303 17.7068 32.9307 17.0391 32.5906 16.5132C32.2542 15.9898 31.6477 15.7032 31.0367 15.7563L16.265 15.7563L16.254 15.7563L16.243 15.7572C15.3902 15.8328 14.75 16.5325 14.75 17.3718C14.75 18.2131 15.3904 18.9106 16.2424 18.988L16.2537 18.989L16.265 18.989L31.0363 18.989C31.6488 19.0439 32.2547 18.7529 32.5904 18.2341ZM27.1647 31.7537L27.1648 31.7536L27.1628 31.7505C26.8277 31.2289 26.2375 30.9386 25.6054 31.0097L16.265 31.0097L16.2537 31.0097L16.2424 31.0107C15.3904 31.0881 14.75 31.7856 14.75 32.6269C14.75 33.4531 15.3924 34.1447 16.2363 34.2425L16.2506 34.2441L16.265 34.2441L25.6093 34.2441C26.2369 34.2954 26.8263 34.0085 27.1623 33.4859C27.5036 32.9585 27.5007 32.294 27.1647 31.7537Z" fill="#8530C1" stroke="white" strokeWidth="0.5"/>
<rect x="1" y="1" width="48" height="48" rx="9" stroke="#8530C1" strokeWidth="2"/>
</svg>
