<svg width="17" height="18" viewBox="0 0 17 18" fill="none" xmlns="http://www.w3.org/2000/svg">
<path fillRule="evenodd" clipRule="evenodd" d="M8.5 0.875C8.5 0.875 10.1526 0.875 11.6628 1.51376C11.6628 1.51376 13.121 2.13053 14.2452 3.25476C14.2452 3.25476 15.3695 4.37899 15.9862 5.83719C15.9862 5.83719 16.625 7.34739 16.625 9C16.625 9 16.625 10.6526 15.9862 12.1628C15.9862 12.1628 15.3695 13.621 14.2452 14.7452C14.2452 14.7452 13.121 15.8695 11.6628 16.4862C11.6628 16.4862 10.1526 17.125 8.5 17.125C8.5 17.125 6.84739 17.125 5.33719 16.4862C5.33719 16.4862 3.87899 15.8695 2.75476 14.7452C2.75476 14.7452 1.63053 13.621 1.01376 12.1628C1.01376 12.1628 0.375 10.6526 0.375 9C0.375 9 0.375 7.34739 1.01376 5.83719C1.01376 5.83719 1.63053 4.37899 2.75476 3.25476C2.75476 3.25476 3.87899 2.13053 5.33719 1.51376C5.33719 1.51376 6.84739 0.875 8.5 0.875ZM8.5 2.125C8.5 2.125 7.10087 2.125 5.82413 2.66501C5.82413 2.66501 4.59047 3.18681 3.63864 4.13864C3.63864 4.13864 2.68681 5.09047 2.16502 6.32413C2.16502 6.32413 1.625 7.60087 1.625 9C1.625 9 1.625 10.3991 2.16502 11.6759C2.16502 11.6759 2.68681 12.9095 3.63864 13.8614C3.63864 13.8614 4.59047 14.8132 5.82413 15.335C5.82413 15.335 7.10087 15.875 8.5 15.875C8.5 15.875 9.89913 15.875 11.1759 15.335C11.1759 15.335 12.4095 14.8132 13.3614 13.8614C13.3614 13.8614 14.3132 12.9095 14.835 11.6759C14.835 11.6759 15.375 10.3991 15.375 9C15.375 9 15.375 7.60087 14.835 6.32413C14.835 6.32413 14.3132 5.09047 13.3614 4.13864C13.3614 4.13864 12.4095 3.18681 11.1759 2.66501C11.1759 2.66501 9.89913 2.125 8.5 2.125Z" fill="white"/>
<path d="M6.625 9C6.625 9.51773 6.20523 9.9375 5.6875 9.9375C5.16977 9.9375 4.75 9.51773 4.75 9C4.75 8.48227 5.16977 8.0625 5.6875 8.0625C6.20523 8.0625 6.625 8.48227 6.625 9Z" fill="white"/>
<path d="M12.25 9C12.25 9.51773 11.8302 9.9375 11.3125 9.9375C10.7948 9.9375 10.375 9.51773 10.375 9C10.375 8.48227 10.7948 8.0625 11.3125 8.0625C11.8302 8.0625 12.25 8.48227 12.25 9Z" fill="white"/>
<path d="M6.77546 11.6044C6.67298 11.5363 6.5527 11.5 6.42969 11.5L6.42619 11.5C6.21807 11.5012 6.02419 11.6059 5.90905 11.7792C5.84099 11.8817 5.80469 12.002 5.80469 12.125L5.8047 12.1285C5.80586 12.3366 5.91055 12.5305 6.08391 12.6456C7.18181 13.3747 8.5 13.3749 8.5 13.3749C9.81808 13.3749 10.9161 12.6456 10.9161 12.6456C11.0905 12.5298 11.1953 12.3344 11.1953 12.125L11.1953 12.1205C11.1944 11.999 11.1582 11.8804 11.091 11.7792C10.9751 11.6048 10.7797 11.5 10.5703 11.5L10.5658 11.5C10.4443 11.5009 10.3257 11.5372 10.2245 11.6044C9.44082 12.1249 8.5 12.1249 8.5 12.1249C7.55923 12.1249 6.77546 11.6044 6.77546 11.6044Z" fill="white"/>
<path d="M9.82582 5.95083C10.375 5.40165 10.375 4.625 10.375 4.625C10.375 4.27982 10.0952 4 9.75 4C9.40482 4 9.125 4.27982 9.125 4.625C9.125 4.88388 8.94194 5.06694 8.94194 5.06694C8.75888 5.25 8.5 5.25 8.5 5.25C8.24112 5.25 8.05806 5.06694 8.05806 5.06694C7.875 4.88388 7.875 4.625 7.875 4.625C7.875 4.31628 8.01015 3.80948 8.01015 3.80948C8.28878 2.7646 8.98787 1.89065 8.98787 1.89065C9.07653 1.77983 9.125 1.64192 9.125 1.5L9.12498 1.4955C9.12363 1.30722 9.03746 1.12958 8.89043 1.01196C8.77961 0.923301 8.64192 0.875 8.5 0.875L8.4955 0.875016C8.30722 0.876371 8.12958 0.962537 8.01196 1.10957C7.14868 2.18866 6.80235 3.4874 6.80235 3.4874C6.625 4.15247 6.625 4.625 6.625 4.625C6.625 5.40165 7.17418 5.95082 7.17418 5.95082C7.72335 6.5 8.5 6.5 8.5 6.5C9.27665 6.5 9.82582 5.95083 9.82582 5.95083Z" fill="white"/>
</svg>
