<svg width="678" height="1708" viewBox="0 0 678 1708" fill="none" xmlns="http://www.w3.org/2000/svg">
<g opacity="0.2">
<path d="M611.534 611.533C484.925 738.142 405.985 888.386 380.669 1028.91C355.352 1169.44 383.67 1300.15 471.416 1387.9C559.162 1475.64 689.872 1503.96 830.402 1478.65C970.928 1453.33 1121.17 1374.39 1247.78 1247.78C1374.39 1121.17 1453.33 970.927 1478.65 830.401C1503.96 689.871 1475.65 559.161 1387.9 471.415C1300.15 383.669 1169.44 355.351 1028.91 380.668C888.387 405.984 738.143 484.924 611.534 611.533Z" stroke="#8530C1" strokeWidth="2"/>
<path d="M535.597 535.596C408.987 662.205 330.047 812.449 304.731 952.975C279.415 1093.51 307.733 1224.21 395.479 1311.96C483.225 1399.71 613.934 1428.03 754.465 1402.71C894.991 1377.39 1045.24 1298.45 1171.84 1171.84C1298.45 1045.23 1377.39 894.99 1402.71 754.464C1428.03 613.933 1399.71 483.224 1311.96 395.478C1224.22 307.732 1093.51 279.414 952.976 304.73C812.45 330.046 662.206 408.987 535.597 535.596Z" stroke="#8530C1" strokeWidth="2"/>
<path d="M459.659 459.658C333.05 586.267 254.11 736.511 228.794 877.037C203.477 1017.57 231.795 1148.28 319.541 1236.02C407.287 1323.77 537.997 1352.09 678.527 1326.77C819.053 1301.46 969.298 1222.51 1095.91 1095.91C1222.52 969.297 1301.46 819.052 1326.77 678.526C1352.09 537.996 1323.77 407.286 1236.02 319.54C1148.28 231.794 1017.57 203.476 877.038 228.793C736.512 254.109 586.268 333.049 459.659 459.658Z" stroke="#8530C1" strokeWidth="2"/>
</g>
</svg>
