<svg width="678" height="1708" viewBox="0 0 678 1708" fill="none" xmlns="http://www.w3.org/2000/svg">
<g opacity="0.2">
<path d="M611.537 611.536C484.928 738.145 405.988 888.389 380.672 1028.92C355.355 1169.45 383.673 1300.15 471.419 1387.9C559.165 1475.65 689.875 1503.97 830.405 1478.65C970.931 1453.33 1121.18 1374.39 1247.78 1247.78C1374.39 1121.17 1453.33 970.93 1478.65 830.404C1503.97 689.874 1475.65 559.164 1387.9 471.418C1300.16 383.672 1169.45 355.354 1028.92 380.67C888.39 405.986 738.146 484.927 611.537 611.536Z" stroke="#8530C1" strokeWidth="2"/>
<path d="M535.596 535.596C408.987 662.205 330.046 812.45 304.73 952.976C279.414 1093.51 307.732 1224.22 395.478 1311.96C483.224 1399.71 613.933 1428.03 754.464 1402.71C894.99 1377.39 1045.23 1298.45 1171.84 1171.84C1298.45 1045.23 1377.39 894.99 1402.71 754.465C1428.03 613.934 1399.71 483.225 1311.96 395.478C1224.21 307.732 1093.51 279.414 952.975 304.731C812.449 330.047 662.205 408.987 535.596 535.596Z" stroke="#8530C1" strokeWidth="2"/>
<path d="M459.656 459.656C333.047 586.265 254.107 736.509 228.791 877.035C203.474 1017.57 231.792 1148.28 319.538 1236.02C407.285 1323.77 537.994 1352.09 678.524 1326.77C819.05 1301.45 969.295 1222.51 1095.9 1095.9C1222.51 969.294 1301.45 819.05 1326.77 678.524C1352.09 537.994 1323.77 407.284 1236.02 319.538C1148.28 231.792 1017.57 203.474 877.035 228.791C736.51 254.106 586.265 333.047 459.656 459.656Z" stroke="#8530C1" strokeWidth="2"/>
</g>
</svg>
