<svg width="18" height="18" viewBox="0 0 18 18" fill="none" xmlns="http://www.w3.org/2000/svg">
<path d="M8.25026 1.5V8.625C8.25026 9.03921 8.58605 9.375 9.00026 9.375C9.41448 9.375 9.75026 9.03921 9.75026 8.625V1.5C9.75026 1.08579 9.41448 0.75 9.00026 0.75C8.58605 0.75 8.25026 1.08579 8.25026 1.5Z" fill="#ED1C24"/>
<path d="M4.90899 2.71001C5.0757 2.60151 5.19284 2.431 5.234 2.2364C5.2448 2.18536 5.25024 2.13334 5.25024 2.08118C5.25024 2.07235 5.25009 2.06352 5.24978 2.05469C5.24496 1.91854 5.20316 1.78627 5.12885 1.67209C5.02035 1.50537 4.85007 1.38858 4.65546 1.34741C4.60443 1.33662 4.55241 1.33118 4.50024 1.33118C4.49141 1.33118 4.48258 1.33133 4.47376 1.33164C4.33761 1.33646 4.20534 1.37826 4.09115 1.45257C1.58648 3.08265 0.554251 5.88694 0.554251 5.88694C-0.478014 8.69132 0.37211 11.5562 0.37211 11.5562C1.22223 14.421 3.61708 16.2084 3.61708 16.2084C6.01192 17.9958 9.00024 17.9958 9.00024 17.9958C11.9886 17.9958 14.3834 16.2084 14.3834 16.2084C16.7783 14.421 17.6284 11.5562 17.6284 11.5562C18.4785 8.69131 17.4462 5.88694 17.4462 5.88694C16.414 3.08257 13.9093 1.45257 13.9093 1.45257C13.7876 1.37335 13.6455 1.33118 13.5002 1.33118L13.4897 1.33125C13.4411 1.33193 13.3926 1.33735 13.345 1.34741C13.1504 1.38858 12.9801 1.50537 12.8716 1.67209C12.7924 1.79382 12.7502 1.93594 12.7502 2.08118L12.7503 2.0917C12.751 2.14034 12.7564 2.1888 12.7665 2.2364C12.8076 2.431 12.9244 2.60128 13.0912 2.70978C15.1783 4.06811 16.0386 6.40509 16.0386 6.40509C16.8988 8.74207 16.1904 11.1294 16.1904 11.1294C15.4819 13.5168 13.4862 15.0063 13.4862 15.0063C11.4905 16.4958 9.00024 16.4958 9.00024 16.4958C6.50997 16.4958 4.51427 15.0063 4.51427 15.0063C2.51857 13.5168 1.81013 11.1294 1.81013 11.1294C1.1017 8.74207 1.96192 6.40509 1.96192 6.40509C2.82207 4.06831 4.90899 2.71001 4.90899 2.71001Z" fill="#ED1C24"/>
</svg>
