<svg width="12" height="23" viewBox="0 0 12 23" fill="none" xmlns="http://www.w3.org/2000/svg">
<path d="M9.58579 11.4961L0.292893 20.789C0.105357 20.9765 0 21.2309 0 21.4961C0 21.7613 0.105357 22.0157 0.292893 22.2032C0.48043 22.3907 0.734784 22.4961 1 22.4961C1.26522 22.4961 1.51957 22.3907 1.70711 22.2032L11.7071 12.2032C12.0976 11.8127 12.0976 11.1795 11.7071 10.789L1.70711 0.788987C1.51957 0.601451 1.26522 0.496094 1 0.496094C0.734784 0.496094 0.48043 0.601451 0.292893 0.788987C0.105357 0.976523 0 1.23088 0 1.49609C0 1.76131 0.105357 2.01566 0.292893 2.2032L9.58579 11.4961Z" fill="#1C1C1C"/>
</svg>
