<svg width="24" height="24" viewBox="0 0 24 24" fill="none" xmlns="http://www.w3.org/2000/svg">
<path d="M9.46037 10.479C9.22603 10.2447 8.84616 10.2447 8.61182 10.479L1.69915 17.3917C1.46487 17.626 1.46487 18.0059 1.69915 18.2402C1.81632 18.3573 1.96987 18.416 2.12343 18.416C2.27698 18.416 2.43053 18.3573 2.5477 18.2402L9.0361 11.7518L9.04181 11.7575L9.89035 10.909L9.46037 10.479ZM22.3602 5.95912C22.3601 5.94011 22.3592 5.9211 22.3573 5.9021C22.3564 5.89293 22.3547 5.88395 22.3534 5.87488C22.3519 5.86461 22.3507 5.85429 22.3487 5.84406C22.3466 5.83379 22.3438 5.82381 22.3413 5.81373C22.339 5.80485 22.3371 5.79592 22.3344 5.78714C22.3315 5.77725 22.3278 5.76774 22.3243 5.75814C22.3211 5.74926 22.3182 5.74043 22.3146 5.7317C22.3109 5.72267 22.3065 5.71403 22.3023 5.7052C22.2981 5.69627 22.2942 5.68725 22.2895 5.67851C22.2849 5.66997 22.2797 5.66186 22.2748 5.6536C22.2697 5.64506 22.2648 5.63646 22.2593 5.62811C22.2531 5.61894 22.2463 5.6103 22.2397 5.60147C22.2346 5.59466 22.2299 5.5876 22.2244 5.58093C22.1993 5.5503 22.1712 5.52222 22.1406 5.49712C22.1337 5.4915 22.1265 5.48661 22.1195 5.48133C22.1109 5.4749 22.1024 5.46822 22.0934 5.46227C22.0849 5.45656 22.0761 5.45162 22.0674 5.44638C22.0593 5.44158 22.0514 5.43654 22.0431 5.43208C22.0342 5.42723 22.0249 5.42315 22.0158 5.41888C22.0072 5.41485 21.9988 5.41058 21.99 5.40693C21.981 5.40323 21.9718 5.40021 21.9626 5.39694C21.9533 5.39358 21.9441 5.38998 21.9346 5.3871C21.9253 5.38432 21.9159 5.38226 21.9066 5.37995C21.897 5.3775 21.8875 5.37486 21.8777 5.3729C21.8667 5.37074 21.8556 5.36944 21.8446 5.36786C21.8363 5.3667 21.8281 5.36507 21.8196 5.3643C21.7998 5.36234 21.7799 5.36133 21.7601 5.36133H18.3929C18.0615 5.36133 17.7929 5.62994 17.7929 5.96133C17.7929 6.29267 18.0615 6.56133 18.3929 6.56133H20.3118L12.9272 13.9459L12.0787 14.7944L12.5029 15.2187C12.7373 15.453 13.1172 15.453 13.3515 15.2187L21.1603 7.40983V9.32877C21.1603 9.66012 21.429 9.92877 21.7603 9.92877C22.0917 9.92877 22.3603 9.66012 22.3603 9.32877V5.96133C22.3603 5.96051 22.3602 5.95989 22.3602 5.95912Z" fill="#17B569"/>
<path d="M9.88953 10.9073L9.04102 11.7559L12.0779 14.7927L12.9264 13.9441L9.88953 10.9073Z" fill="#17B569"/>
</svg>
