<svg width="15" height="15" viewBox="0 0 15 15" fill="none" xmlns="http://www.w3.org/2000/svg">
<path d="M13.6875 2.375H1.3125C1.00184 2.375 0.75 2.62684 0.75 2.9375C0.75 3.24816 1.00184 3.5 1.3125 3.5H13.6875C13.9982 3.5 14.25 3.24816 14.25 2.9375C14.25 2.62684 13.9982 2.375 13.6875 2.375Z" fill="#ED1C24"/>
<path d="M4.6875 1.25H10.3125C10.6232 1.25 10.875 0.99816 10.875 0.6875C10.875 0.37684 10.6232 0.125 10.3125 0.125H4.6875C4.37684 0.125 4.125 0.37684 4.125 0.6875C4.125 0.99816 4.37684 1.25 4.6875 1.25Z" fill="#ED1C24"/>
<path d="M3 13.625V2.9375C3 2.62684 2.74816 2.375 2.4375 2.375C2.12684 2.375 1.875 2.62684 1.875 2.9375V13.625C1.875 14.091 2.20451 14.4205 2.20451 14.4205C2.53401 14.75 3 14.75 3 14.75H12C12.466 14.75 12.7955 14.4205 12.7955 14.4205C13.125 14.091 13.125 13.625 13.125 13.625V2.9375C13.125 2.62684 12.8732 2.375 12.5625 2.375C12.2518 2.375 12 2.62684 12 2.9375V13.625H3Z" fill="#ED1C24"/>
</svg>
