<svg width="161" height="217" viewBox="0 0 161 217" fill="none" xmlns="http://www.w3.org/2000/svg">
<path d="M125.262 201.746L82.872 180.949C82.0469 180.546 81.1408 180.337 80.2227 180.337C79.3045 180.337 78.3985 180.546 77.5733 180.949L35.0512 201.746C34.685 201.927 34.2788 202.011 33.8711 201.99C33.4634 201.97 33.0676 201.845 32.7214 201.629C32.3751 201.413 32.0898 201.112 31.8925 200.754C31.6951 200.397 31.5923 199.995 31.5938 199.587V85.9297H128.812V199.587C128.822 200.008 128.721 200.425 128.519 200.794C128.317 201.164 128.021 201.474 127.661 201.693C127.301 201.912 126.89 202.032 126.468 202.041C126.047 202.051 125.631 201.949 125.262 201.746Z" fill="#6A269A"/>
<path d="M109.96 215.758L82.8042 202.511C81.979 202.108 81.073 201.899 80.1548 201.899C79.2367 201.899 78.3306 202.108 77.5055 202.511L50.3363 215.758C49.9701 215.938 49.5639 216.022 49.1562 216.002C48.7485 215.981 48.3528 215.857 48.0065 215.641C47.6602 215.425 47.3749 215.123 47.1776 214.766C46.9803 214.409 46.8775 214.007 46.8789 213.599V76.2031H113.391V213.599C113.39 214.003 113.287 214.401 113.091 214.755C112.895 215.109 112.613 215.408 112.27 215.624C111.928 215.839 111.536 215.964 111.133 215.988C110.729 216.011 110.325 215.932 109.96 215.758Z" fill="#8530C1"/>
<path d="M80.1695 160.339C124.446 160.339 160.339 124.446 160.339 80.1695C160.339 35.8931 124.446 0 80.1695 0C35.8931 0 0 35.8931 0 80.1695C0 124.446 35.8931 160.339 80.1695 160.339Z" fill="#FBC70D"/>
<g style="mix-blend-mode:multiply" opacity="0.5">
<path d="M80.1691 149.096C118.234 149.096 149.092 118.238 149.092 80.173C149.092 42.1079 118.234 11.25 80.1691 11.25C42.104 11.25 11.2461 42.1079 11.2461 80.173C11.2461 118.238 42.104 149.096 80.1691 149.096Z" fill="#FFB13B"/>
</g>
<g style="mix-blend-mode:multiply" opacity="0.5">
<path d="M80.1684 145.766C116.397 145.766 145.766 116.397 145.766 80.1683C145.766 43.9396 116.397 14.5703 80.1684 14.5703C43.9396 14.5703 14.5703 43.9396 14.5703 80.1683C14.5703 116.397 43.9396 145.766 80.1684 145.766Z" fill="#FF9831"/>
</g>
<path d="M84.5908 28.6158L97.162 35.981C97.8594 36.3875 98.6078 36.6993 99.3875 36.9083L113.482 40.5909C114.991 40.9811 116.367 41.7679 117.469 42.8697C118.571 43.9715 119.358 45.3481 119.748 46.8566L123.43 60.938C123.632 61.7137 123.94 62.4581 124.344 63.1502L131.71 75.7214C132.503 77.0656 132.922 78.598 132.922 80.159C132.922 81.72 132.503 83.2525 131.71 84.5967L124.344 97.1679C123.942 97.8611 123.635 98.6052 123.43 99.3801L119.748 113.475C119.356 114.984 118.569 116.361 117.467 117.465C116.366 118.568 114.99 119.359 113.482 119.754L99.3875 123.436C98.6064 123.635 97.8572 123.942 97.162 124.35L84.5908 131.715C83.2467 132.502 81.7173 132.917 80.1598 132.917C78.6022 132.917 77.0728 132.502 75.7287 131.715L63.1575 124.35C62.4671 123.943 61.7222 123.635 60.9453 123.436L46.8375 119.767C45.3311 119.368 43.9574 118.577 42.8567 117.474C41.7559 116.371 40.9675 114.995 40.5718 113.488L36.8892 99.3536C36.6847 98.5787 36.3773 97.8347 35.9752 97.1414L28.557 84.61C27.7701 83.2634 27.3555 81.7319 27.3555 80.1723C27.3555 78.6127 27.7701 77.0812 28.557 75.7346L35.9222 63.1634C36.3267 62.4713 36.6342 61.727 36.8362 60.9512L40.5188 46.8566C40.9128 45.35 41.7009 43.9754 42.8021 42.8742C43.9033 41.773 45.2778 40.9849 46.7845 40.5909L60.8923 36.9083C61.6678 36.6992 62.4118 36.3874 63.1046 35.981L75.6758 28.6158C77.026 27.8188 78.5653 27.3984 80.1333 27.3984C81.7012 27.3984 83.2405 27.8188 84.5908 28.6158Z" fill="#FBC70D"/>
<g style="mix-blend-mode:multiply" opacity="0.5">
<path d="M84.0392 56.3717L89.4968 67.0751C89.7311 67.533 90.0705 67.929 90.4873 68.2306C90.904 68.5323 91.3862 68.7309 91.8945 68.8104L103.817 70.7179C104.621 70.8381 105.376 71.181 105.996 71.7078C106.615 72.2346 107.075 72.9243 107.323 73.699C107.571 74.4736 107.598 75.3022 107.399 76.091C107.201 76.8799 106.786 77.5975 106.201 78.1626L97.7098 86.6935C97.3453 87.0554 97.0723 87.4988 96.9133 87.9872C96.7544 88.4756 96.7141 88.9948 96.7958 89.5019L98.6504 101.424C98.7738 102.217 98.6761 103.028 98.3679 103.769C98.0598 104.509 97.5532 105.151 96.9039 105.622C96.2546 106.093 95.4879 106.376 94.6882 106.439C93.8884 106.503 93.0867 106.344 92.3714 105.981L81.6415 100.55C81.1845 100.315 80.6782 100.192 80.1645 100.192C79.6507 100.192 79.1444 100.315 78.6875 100.55L67.9576 105.981C67.2335 106.353 66.4197 106.515 65.6083 106.448C64.7969 106.382 64.0204 106.089 63.3668 105.604C62.7132 105.118 62.2087 104.46 61.9103 103.702C61.6119 102.945 61.5316 102.119 61.6786 101.318L63.5464 89.3959C63.6249 88.8889 63.583 88.3706 63.4243 87.8827C63.2655 87.3949 62.9942 86.9512 62.6324 86.5876L54.1412 78.1626C53.5751 77.5942 53.1769 76.8805 52.9904 76.1002C52.804 75.32 52.8365 74.5034 53.0844 73.7404C53.3324 72.9775 53.7861 72.2977 54.3956 71.7761C55.0051 71.2545 55.7467 70.9113 56.5388 70.7842L68.4609 68.8766C68.9692 68.7972 69.4514 68.5985 69.8682 68.2969C70.2849 67.9953 70.6243 67.5993 70.8586 67.1413L76.2501 56.3717C76.6092 55.6456 77.1642 55.0343 77.8524 54.607C78.5406 54.1796 79.3345 53.9531 80.1446 53.9531C80.9547 53.9531 81.7486 54.1796 82.4368 54.607C83.125 55.0343 83.68 55.6456 84.0392 56.3717Z" fill="#FF9831"/>
</g>
</svg>
