<svg width="325" height="182" viewBox="0 0 325 182" fill="none" xmlns="http://www.w3.org/2000/svg">
<g opacity="0.85">
<path d="M62.8272 72.9766H51.6602V84.1436H62.8272V72.9766Z" fill="#8530C1"/>
<path d="M246.96 135.211H235.793V146.378H246.96V135.211Z" fill="#8530C1"/>
<path d="M44.99 161.729L37.0938 169.625L44.99 177.521L52.8863 169.625L44.99 161.729Z" fill="#8530C1"/>
<path d="M297.998 41.1818L290.102 49.0781L297.998 56.9744L305.894 49.0781L297.998 41.1818Z" fill="#8530C1"/>
<path d="M271.781 78.9609H268.773V86.5919H271.781V78.9609Z" fill="#8530C1"/>
<path d="M271.781 101.586H268.773V109.217H271.781V101.586Z" fill="#8530C1"/>
<path d="M257.941 85.2393L256.438 87.8438L263.046 91.6593L264.55 89.0548L257.941 85.2393Z" fill="#8530C1"/>
<path d="M277.504 96.5128L276 99.1172L282.609 102.933L284.112 100.328L277.504 96.5128Z" fill="#8530C1"/>
<path d="M264.491 97.0361L257.852 100.852L259.355 103.468L265.994 99.6525L264.491 97.0361Z" fill="#8530C1"/>
<path d="M282.632 85.247L276.023 89.0625L277.527 91.667L284.136 87.8515L282.632 85.247Z" fill="#8530C1"/>
<path d="M289.738 151.18H286.73V158.811H289.738V151.18Z" fill="#8530C1"/>
<path d="M289.738 173.805H286.73V181.436H289.738V173.805Z" fill="#8530C1"/>
<path d="M275.89 157.458L274.387 160.062L280.995 163.878L282.499 161.274L275.89 157.458Z" fill="#8530C1"/>
<path d="M295.457 168.732L293.953 171.336L300.562 175.151L302.065 172.547L295.457 168.732Z" fill="#8530C1"/>
<path d="M282.522 169.52L275.883 173.336L277.386 175.952L284.025 172.137L282.522 169.52Z" fill="#8530C1"/>
<path d="M300.581 157.466L293.973 161.281L295.476 163.886L302.085 160.07L300.581 157.466Z" fill="#8530C1"/>
<path d="M70.9878 115.367H67.9805V122.998H70.9878V115.367Z" fill="#8530C1"/>
<path d="M70.9878 137.992H67.9805V145.623H70.9878V137.992Z" fill="#8530C1"/>
<path d="M57.1404 121.646L55.6367 124.25L62.2454 128.065L63.749 125.461L57.1404 121.646Z" fill="#8530C1"/>
<path d="M76.7341 132.935L75.2305 135.539L81.8391 139.355L83.3428 136.75L76.7341 132.935Z" fill="#8530C1"/>
<path d="M62.2532 132.966L55.6445 136.781L57.1482 139.386L63.7568 135.57L62.2532 132.966Z" fill="#8530C1"/>
<path d="M82.3851 122.177L75.7461 125.992L77.2498 128.609L83.8887 124.793L82.3851 122.177Z" fill="#8530C1"/>
<path d="M15.3433 30.5859H12.3359V38.2169H15.3433V30.5859Z" fill="#8530C1"/>
<path d="M15.3433 53.2031H12.3359V60.8341H15.3433V53.2031Z" fill="#8530C1"/>
<path d="M1.50368 36.8487L0 39.4531L6.60864 43.2686L8.11232 40.6642L1.50368 36.8487Z" fill="#8530C1"/>
<path d="M21.0974 48.1534L19.5938 50.7578L26.2024 54.5733L27.7061 51.9689L21.0974 48.1534Z" fill="#8530C1"/>
<path d="M6.60864 48.1533L0 51.9688L1.50368 54.5732L8.11231 50.7577L6.60864 48.1533Z" fill="#8530C1"/>
<path d="M26.4007 37.122L19.7617 40.9375L21.2654 43.5539L27.9044 39.7384L26.4007 37.122Z" fill="#8530C1"/>
<path d="M60.9329 18.8189C59.0989 18.8189 57.3061 18.2751 55.7812 17.2562C54.2563 16.2373 53.0678 14.7891 52.366 13.0947C51.6642 11.4003 51.4805 9.5359 51.8383 7.73716C52.1961 5.93843 53.0793 4.28618 54.3761 2.98937C55.6729 1.69255 57.3251 0.809406 59.1239 0.451615C60.9226 0.093824 62.7871 0.277455 64.4814 0.979287C66.1758 1.68112 67.624 2.86963 68.6429 4.39452C69.6618 5.91942 70.2056 7.71221 70.2056 9.54618C70.2056 12.0055 69.2287 14.364 67.4897 16.103C65.7507 17.842 63.3922 18.8189 60.9329 18.8189ZM60.9329 3.30695C59.6963 3.30695 58.4874 3.67365 57.4592 4.36069C56.431 5.04772 55.6296 6.02422 55.1564 7.16671C54.6831 8.3092 54.5593 9.56637 54.8006 10.7792C55.0418 11.9921 55.6373 13.1062 56.5117 13.9806C57.3862 14.855 58.5002 15.4505 59.7131 15.6918C60.926 15.933 62.1831 15.8092 63.3256 15.336C64.4681 14.8627 65.4446 14.0613 66.1316 13.0331C66.8187 12.0049 67.1854 10.7961 67.1854 9.55943C67.1819 7.90224 66.522 6.31394 65.3502 5.14213C64.1784 3.97032 62.5901 3.31045 60.9329 3.30695Z" fill="#8530C1"/>
<path d="M315.273 110.061C313.439 110.061 311.646 109.517 310.121 108.498C308.596 107.479 307.408 106.031 306.706 104.337C306.004 102.643 305.82 100.778 306.178 98.9793C306.536 97.1806 307.419 95.5284 308.716 94.2316C310.013 92.9347 311.665 92.0516 313.464 91.6938C315.262 91.336 317.127 91.5196 318.821 92.2215C320.516 92.9233 321.964 94.1118 322.983 95.6367C324.002 97.1616 324.546 98.9544 324.546 100.788C324.546 103.248 323.569 105.606 321.83 107.345C320.091 109.084 317.732 110.061 315.273 110.061ZM315.273 94.5491C314.036 94.5491 312.827 94.9158 311.799 95.6029C310.771 96.2899 309.969 97.2664 309.496 98.4089C309.023 99.5514 308.899 100.809 309.14 102.021C309.382 103.234 309.977 104.348 310.852 105.223C311.726 106.097 312.84 106.693 314.053 106.934C315.266 107.175 316.523 107.051 317.665 106.578C318.808 106.105 319.784 105.304 320.471 104.275C321.159 103.247 321.525 102.038 321.525 100.802C321.508 99.1536 320.842 97.5789 319.672 96.4185C318.501 95.2581 316.921 94.6055 315.273 94.6021V94.5491Z" fill="#8530C1"/>
<path d="M250.363 26.608C248.529 26.608 246.736 26.0642 245.211 25.0453C243.686 24.0263 242.498 22.5781 241.796 20.8838C241.094 19.1894 240.91 17.325 241.268 15.5262C241.626 13.7275 242.509 12.0752 243.806 10.7784C245.103 9.48161 246.755 8.59847 248.554 8.24068C250.352 7.88289 252.217 8.06652 253.911 8.76835C255.605 9.47018 257.054 10.6587 258.073 12.1836C259.092 13.7085 259.635 15.5013 259.635 17.3352C259.635 19.7945 258.658 22.1531 256.919 23.8921C255.18 25.631 252.822 26.608 250.363 26.608ZM250.363 11.096C249.125 11.096 247.916 11.4631 246.888 12.1507C245.859 12.8383 245.058 13.8156 244.585 14.9588C244.112 16.1021 243.989 17.36 244.231 18.5732C244.474 19.7864 245.07 20.9005 245.946 21.7744C246.822 22.6482 247.937 23.2427 249.151 23.4824C250.365 23.7222 251.622 23.5965 252.765 23.1212C253.907 22.646 254.882 21.8425 255.568 20.8125C256.253 19.7826 256.618 18.5724 256.615 17.3352C256.615 15.6758 255.957 14.0841 254.785 12.9094C253.612 11.7347 252.022 11.073 250.363 11.0695V11.096Z" fill="#8530C1"/>
<path d="M9.27275 141.85C7.43877 141.85 5.64598 141.306 4.12109 140.287C2.59619 139.269 1.40768 137.82 0.70585 136.126C0.0040178 134.432 -0.179614 132.567 0.178177 130.768C0.535968 128.97 1.41911 127.317 2.71593 126.021C4.01274 124.724 5.66499 123.841 7.46372 123.483C9.26246 123.125 11.1269 123.309 12.8213 124.011C14.5156 124.712 15.9638 125.901 16.9827 127.426C18.0017 128.951 18.5455 130.743 18.5455 132.577C18.5455 135.037 17.5685 137.395 15.8296 139.134C14.0906 140.873 11.732 141.85 9.27275 141.85ZM9.27275 126.338C8.03612 126.338 6.82727 126.705 5.79906 127.392C4.77084 128.079 3.96945 129.055 3.49621 130.198C3.02298 131.34 2.89916 132.598 3.14041 133.81C3.38166 135.023 3.97715 136.137 4.85158 137.012C5.726 137.886 6.84009 138.482 8.05295 138.723C9.26581 138.964 10.523 138.84 11.6655 138.367C12.808 137.894 13.7845 137.093 14.4715 136.064C15.1585 135.036 15.5252 133.827 15.5252 132.591C15.5217 130.933 14.8619 129.345 13.69 128.173C12.5182 127.002 10.9299 126.342 9.27275 126.338Z" fill="#8530C1"/>
</g>
</svg>
