<svg width="12" height="12" viewBox="0 0 12 12" fill="none" xmlns="http://www.w3.org/2000/svg">
<path d="M10.0759 6.00002C9.97945 8.23394 8.29211 10.0607 5.99947 10.0768C3.79253 10.0929 1.90164 8.20715 1.92306 6.00002C1.96592 0.723243 9.85625 0.755386 10.0759 6.00002C10.1294 7.23216 12.0525 7.23751 11.9989 6.00002C11.8596 2.73217 9.36879 0.0161025 5.99947 3.11024e-05C2.74799 -0.0106832 -0.0106822 2.74824 3.10995e-05 6.00002C0.0107444 9.26251 2.72656 12 5.99947 12C9.27237 12 11.8596 9.25715 11.9989 6.00002C12.0525 4.76252 10.1294 4.76788 10.0759 6.00002Z" fill="#2BB457"/>
</svg>
