<svg width="20" height="20" viewBox="0 0 20 20" fill="none" xmlns="http://www.w3.org/2000/svg">
<path d="M16.7931 10C16.6324 13.7232 13.8202 16.7679 9.99911 16.7947C6.32089 16.8214 3.1694 13.6786 3.20511 10C3.27653 1.20541 16.4271 1.25898 16.7931 10C16.8824 12.0536 20.0874 12.0625 19.9982 10C19.766 4.55361 15.6147 0.0268375 9.99911 5.18373e-05C4.57998 -0.0178053 -0.0178036 4.5804 5.18325e-05 10C0.0179073 15.4375 4.54427 20 9.99911 20C15.454 20 19.766 15.4286 19.9982 10C20.0874 7.93753 16.8824 7.94646 16.7931 10Z" fill="#FBC70D"/>
</svg>
