<svg width="13" height="13" viewBox="0 0 13 13" fill="none" xmlns="http://www.w3.org/2000/svg">
<path d="M9.0623 8.38664L13 6.25367L8.8532 4.52793C8.74717 4.48521 8.66765 4.39124 8.64703 4.28018L7.76643 0L4.78885 3.28061C4.71228 3.36605 4.59447 3.41161 4.48256 3.39452L0 2.88193L2.30607 6.63527C2.36498 6.73209 2.37381 6.8517 2.32374 6.95422L0.432941 10.9183L4.83598 9.95575C4.86248 9.95005 4.88899 9.94721 4.9155 9.94721C5.00385 9.94721 5.08926 9.97853 5.157 10.0383L8.47327 13L8.88854 8.65433C8.90032 8.54326 8.96806 8.44359 9.06819 8.38664H9.0623Z" fill="#8530C1"/>
</svg>
