<svg width="23" height="23" viewBox="0 0 23 23" fill="none" xmlns="http://www.w3.org/2000/svg">
<path fillRule="evenodd" clipRule="evenodd" d="M13.2074 16.709C13.2074 16.709 13.206 16.7104 13.2053 16.7123L11.4046 21.5985C11.4046 21.5985 11.241 22.0394 10.8548 22.3079C10.8548 22.3079 10.4687 22.5765 9.99839 22.5765C9.99839 22.5765 9.52805 22.5765 9.14193 22.3079C9.14193 22.3079 8.7558 22.0394 8.59153 21.5968L6.79151 16.7124L6.79066 16.7107L6.78935 16.709C6.78935 16.709 6.78789 16.7076 6.78592 16.7068L1.8999 14.9062C1.8999 14.9062 1.45896 14.7426 1.19042 14.3564C1.19042 14.3564 0.921875 13.9703 0.921875 13.5C0.921875 13.5 0.921875 13.0296 1.19042 12.6435C1.19042 12.6435 1.45896 12.2574 1.90154 12.0931L6.78596 10.2931C6.78596 10.2931 6.78789 10.2924 6.78935 10.2909C6.78935 10.2909 6.7908 10.2895 6.79153 10.2875L8.59214 5.40148C8.59214 5.40148 8.7558 4.96055 9.14193 4.69201C9.14193 4.69201 9.52806 4.42346 9.99839 4.42346C9.99839 4.42346 10.4687 4.42346 10.8548 4.69201C10.8548 4.69201 11.241 4.96055 11.4052 5.40313L13.2053 10.2875L13.2058 10.2887L13.2074 10.2909C13.2074 10.2909 13.2089 10.2924 13.2109 10.2931L18.0969 12.0937C18.0969 12.0937 18.5378 12.2574 18.8064 12.6435C18.8064 12.6435 19.0749 13.0296 19.0749 13.5C19.0749 13.5 19.0749 13.9703 18.8064 14.3564C18.8064 14.3564 18.5378 14.7426 18.0952 14.9068L13.2108 16.7068L13.2094 16.7075L13.2074 16.709ZM11.7985 16.1918C11.7985 16.1918 11.9131 15.882 12.1468 15.6484C12.1468 15.6484 12.3812 15.414 12.6922 15.2993L17.5749 13.5L12.6922 11.7006C12.6922 11.7006 12.3812 11.586 12.1468 11.3516C12.1468 11.3516 11.9124 11.1172 11.7978 10.8062L9.99839 5.92346L8.199 10.8062C8.199 10.8062 8.0844 11.1172 7.85001 11.3516C7.85001 11.3516 7.61561 11.586 7.30456 11.7006L2.42188 13.5L7.3046 15.2994C7.3046 15.2994 7.61561 15.414 7.85001 15.6484C7.85001 15.6484 8.0844 15.8828 8.19901 16.1938L9.99839 21.0765L11.7985 16.1918Z" fill="white"/>
<path d="M15.2484 1.5V6C15.2484 6.41421 15.5842 6.75 15.9984 6.75C16.4126 6.75 16.7484 6.41421 16.7484 6V1.5C16.7484 1.08579 16.4126 0.75 15.9984 0.75C15.5842 0.75 15.2484 1.08579 15.2484 1.5Z" fill="white"/>
<path d="M18.2484 3H13.7484C13.3342 3 12.9984 3.33579 12.9984 3.75C12.9984 4.16421 13.3342 4.5 13.7484 4.5H18.2484C18.6626 4.5 18.9984 4.16421 18.9984 3.75C18.9984 3.33579 18.6626 3 18.2484 3Z" fill="white"/>
<path d="M19.7484 6.75V9.75C19.7484 10.1642 20.0842 10.5 20.4984 10.5C20.9126 10.5 21.2484 10.1642 21.2484 9.75V6.75C21.2484 6.33579 20.9126 6 20.4984 6C20.0842 6 19.7484 6.33579 19.7484 6.75Z" fill="white"/>
<path d="M21.9984 7.5H18.9984C18.5842 7.5 18.2484 7.83579 18.2484 8.25C18.2484 8.66421 18.5842 9 18.9984 9H21.9984C22.4126 9 22.7484 8.66421 22.7484 8.25C22.7484 7.83579 22.4126 7.5 21.9984 7.5Z" fill="white"/>
</svg>
