<svg width="62" height="62" viewBox="0 0 62 62" fill="none" xmlns="http://www.w3.org/2000/svg">
<rect width="62" height="62" rx="8" fill="#447ADC" fill-opacity="0.1"/>
<path d="M15.5625 22.5V34.375C15.5625 35.0308 16.0942 35.5625 16.75 35.5625C17.4058 35.5625 17.9375 35.0308 17.9375 34.375V22.5C17.9375 21.8442 17.4058 21.3125 16.75 21.3125C16.0942 21.3125 15.5625 21.8442 15.5625 22.5Z" fill="#447ADC"/>
<path d="M36.6639 41.7507C39.3139 43.1864 40.96 45.7111 40.96 45.7111C41.132 45.9749 41.4017 46.1596 41.7099 46.2246C41.7904 46.2415 41.8725 46.2501 41.9547 46.2501C41.969 46.2501 41.9833 46.2498 41.9977 46.2493C42.2132 46.2415 42.4226 46.1751 42.6033 46.0573C42.9395 45.8381 43.1422 45.4639 43.1422 45.0626C43.1422 45.0428 43.1417 45.0231 43.1407 45.0034C43.1303 44.7935 43.0643 44.5901 42.9495 44.414C40.9746 41.385 37.7953 39.6625 37.7953 39.6625C34.616 37.94 31 37.94 31 37.94C27.3841 37.94 24.2048 39.6625 24.2048 39.6625C21.0257 41.3849 19.0508 44.4136 19.0508 44.4136C18.925 44.6066 18.8578 44.8323 18.8578 45.0626L18.8578 45.0641C18.8583 45.4649 19.061 45.8384 19.3968 46.0573C19.5897 46.1831 19.815 46.2501 20.0453 46.2501L20.061 46.25C20.138 46.2489 20.2148 46.2404 20.2901 46.2246C20.5983 46.1596 20.8681 45.9749 21.0401 45.7111C22.6862 43.1864 25.3361 41.7507 25.3361 41.7507C27.9861 40.315 31 40.315 31 40.315C34.014 40.315 36.6639 41.7507 36.6639 41.7507Z" fill="#447ADC"/>
<path fillRule="evenodd" clipRule="evenodd" d="M31.3755 16.6234L45.6255 21.3734C45.9243 21.473 46.1713 21.6872 46.3121 21.9689C46.453 22.2506 46.4762 22.5767 46.3766 22.8755C46.2584 23.2301 45.9801 23.5084 45.6255 23.6266L31.3755 28.3766C31.1318 28.4578 30.8682 28.4578 30.6245 28.3766L16.3745 23.6266C16.0757 23.527 15.8287 23.3128 15.6879 23.0311C15.547 22.7494 15.5238 22.4233 15.6234 22.1245C15.7416 21.7699 16.0199 21.4916 16.3745 21.3734L30.6245 16.6234C30.8682 16.5422 31.1318 16.5422 31.3755 16.6234ZM20.5052 22.5L31 19.0017L41.4948 22.5L31 25.9983L20.5052 22.5Z" fill="#447ADC"/>
<path d="M25.7453 26.0036C25.7612 25.9862 25.7766 25.9684 25.7914 25.9501C25.9632 25.7385 26.057 25.4742 26.057 25.2016C26.057 24.8685 25.9171 24.5508 25.6715 24.3258C25.6541 24.3099 25.6363 24.2945 25.618 24.2797C25.4064 24.1079 25.1421 24.0141 24.8695 24.0141C24.5364 24.0141 24.2187 24.154 23.9937 24.3996C22.0866 26.4827 21.6265 29.2702 21.6265 29.2702C21.167 32.0575 22.3052 34.6429 22.3052 34.6429C23.4433 37.2284 25.8092 38.7719 25.8092 38.7719C28.1751 40.3154 31 40.315 31 40.315C33.8249 40.315 36.1908 38.7719 36.1908 38.7719C38.5567 37.2284 39.6948 34.6429 39.6948 34.6429C40.8329 32.0575 40.3735 29.2702 40.3735 29.2702C39.914 26.483 38.0062 24.3996 38.0062 24.3996C37.9945 24.3868 37.9825 24.3742 37.9701 24.3619C37.7474 24.1392 37.4454 24.0141 37.1305 24.0141C36.8336 24.0141 36.5474 24.1253 36.3285 24.3258C36.3156 24.3376 36.3031 24.3496 36.2908 24.3619C36.0808 24.5718 35.9572 24.8528 35.9441 25.1494L35.944 25.152C35.9433 25.1685 35.943 25.1851 35.943 25.2016C35.943 25.4985 36.0542 25.7846 36.2547 26.0036C37.6855 27.5661 38.0301 29.6565 38.0301 29.6565C38.3747 31.747 37.5211 33.6861 37.5211 33.6861C36.6675 35.6252 34.8931 36.7828 34.8931 36.7828C33.1186 37.9404 31 37.94 31 37.94C28.8814 37.94 27.1069 36.7828 27.1069 36.7828C25.3325 35.6252 24.4789 33.6861 24.4789 33.6861C23.6253 31.747 23.9699 29.6565 23.9699 29.6565C24.3145 27.5661 25.7453 26.0036 25.7453 26.0036Z" fill="#447ADC"/>
</svg>
