<svg width="14" height="14" viewBox="0 0 14 14" fill="none" xmlns="http://www.w3.org/2000/svg">
<path d="M9.55509 4.16308C9.66058 4.26857 9.80394 4.32812 9.95312 4.32812C10.1023 4.32812 10.2454 4.26886 10.3509 4.16337C10.4564 4.05788 10.5156 3.91481 10.5156 3.76562C10.5156 3.61644 10.4564 3.47337 10.3509 3.36788L7.39775 0.414752C7.29226 0.309263 7.14918 0.25 7 0.25C6.85082 0.25 6.70774 0.309263 6.60225 0.414752L3.64934 3.36767C3.54385 3.47316 3.48438 3.61644 3.48438 3.76562C3.48438 3.77464 3.48459 3.78364 3.48502 3.79265C3.49174 3.93232 3.55025 4.06449 3.64913 4.16337C3.75462 4.26886 3.89769 4.32812 4.04688 4.32812C4.19606 4.32812 4.33913 4.26886 4.44462 4.16337L7 1.60799L9.55509 4.16308Z" fill="#1C1C1C"/>
<path d="M7.5625 8.6875V0.8125C7.5625 0.50184 7.31066 0.25 7 0.25C6.68934 0.25 6.4375 0.50184 6.4375 0.8125V8.6875C6.4375 8.99816 6.68934 9.25 7 9.25C7.31066 9.25 7.5625 8.99816 7.5625 8.6875Z" fill="#1C1C1C"/>
<path d="M1.375 12.625V8.6875C1.375 8.37684 1.12316 8.125 0.8125 8.125C0.50184 8.125 0.25 8.37684 0.25 8.6875V12.625C0.25 13.091 0.579505 13.4205 0.579505 13.4205C0.90901 13.75 1.375 13.75 1.375 13.75H12.625C13.091 13.75 13.4205 13.4205 13.4205 13.4205C13.75 13.091 13.75 12.625 13.75 12.625V8.6875C13.75 8.37684 13.4982 8.125 13.1875 8.125C12.8768 8.125 12.625 8.37684 12.625 8.6875V12.625H1.375Z" fill="#1C1C1C"/>
</svg>
