<svg width="24" height="24" viewBox="0 0 24 24" fill="none" xmlns="http://www.w3.org/2000/svg">
<g clip-path="url(#clip0_43_4593)">
<path d="M0.811563 4.46387C0.281475 4.46387 -0.148438 4.89366 -0.148438 5.42387V18.5759C-0.148438 19.1061 0.281691 19.5359 0.811563 19.5359H22.8916C23.4216 19.5359 23.8516 19.1061 23.8516 18.5759V5.42387C23.8516 4.89368 23.4214 4.46387 22.8916 4.46387H0.811563ZM14.1856 8.95561C14.7697 8.95561 15.2378 9.08464 15.5363 9.20461L15.3323 10.4879L15.1973 10.4196C14.9192 10.2996 14.562 10.1842 14.0693 10.1924C13.4795 10.1924 13.2068 10.4555 13.2068 10.7016C13.2034 10.979 13.5254 11.1619 14.0521 11.4359C14.9213 11.8585 15.323 12.371 15.3173 13.0446C15.3056 14.2738 14.2776 15.0681 12.6938 15.0681C12.0181 15.0607 11.3672 14.9176 11.0153 14.7524L11.2268 13.4264L11.4211 13.5209C11.9159 13.742 12.2363 13.8314 12.8393 13.8314C13.2723 13.8314 13.7371 13.6501 13.7408 13.2531C13.7436 12.9939 13.5465 12.8091 12.9601 12.5189C12.3886 12.2356 11.6309 11.761 11.6393 10.9101C11.6483 9.75906 12.6968 8.95561 14.1856 8.95561ZM1.97405 9.14387H4.40631C4.73383 9.15625 4.99827 9.26171 5.08956 9.61712L5.61382 12.3231C5.61389 12.3234 5.61372 12.3243 5.61382 12.3246L5.77131 13.1354L7.24805 9.14387H8.84556L6.47105 14.9864L4.87505 14.9879L3.60456 10.2734C4.36051 10.6738 5.0041 11.1372 5.37682 11.7749C5.28072 11.5731 5.1541 11.3453 4.99207 11.1209C4.80339 10.8595 4.39589 10.5219 4.22556 10.3784C3.63204 9.87803 2.826 9.47394 1.95531 9.26012L1.97405 9.14387ZM9.48082 9.15061H11.0431L10.0658 14.9841H8.50356L9.48082 9.15061ZM18.3046 9.15061H19.4881L20.7271 14.9841H19.3066C19.3066 14.9841 19.1656 14.3139 19.1198 14.1096C18.8965 14.1096 17.335 14.1074 17.1593 14.1074C17.0999 14.2653 16.8368 14.9841 16.8368 14.9841H15.2296L17.5028 9.63512C17.6638 9.25501 17.9381 9.15061 18.3046 9.15061ZM18.4208 10.7196C18.3439 10.9366 18.2101 11.287 18.2191 11.2716C18.2191 11.2716 17.7382 12.5542 17.6123 12.8871L18.8761 12.8864C18.7587 12.3301 18.6412 11.7739 18.5236 11.2177L18.4208 10.7197V10.7196Z" fill="#FBC70D"/>
</g>
<defs>
<clipPath id="clip0_43_4593">
<rect width="24" height="24" fill="white"/>
</clipPath>
</defs>
</svg>
