<svg width="31" height="15" viewBox="0 0 31 15" fill="none" xmlns="http://www.w3.org/2000/svg">
<path d="M29.0557 9.53233C27.4095 9.21936 26.1659 10.5613 25.289 11.8903C25.018 12.3019 24.8067 12.9322 24.3164 12.3105C24.0175 11.9332 23.9697 11.0372 23.858 10.5656C23.5392 9.22793 23.1884 7.89458 22.8137 6.5741C22.3474 4.93635 21.7056 3.3672 19.8641 3.44009C17.9389 3.51297 16.8707 5.35651 15.8822 6.88707C15.1767 7.98033 14.4711 9.07359 13.7656 10.1626C13.2993 10.8828 12.6416 12.422 11.8524 12.8121C9.65214 13.9011 9.42494 8.89352 9.36515 7.48729C9.28942 5.71664 9.37312 3.78307 8.80313 2.09388C8.29293 0.580464 6.95764 -0.624265 5.4948 0.353238C4.74943 0.850564 4.15951 1.75947 3.61343 2.47973C2.93183 3.38007 2.318 4.32756 1.73605 5.29648C1.5248 4.6491 1.59654 4.01459 1.47298 3.19143C1.45305 3.04994 1.36934 2.40256 1.11026 2.41114C-1.01824 2.4583 0.440618 6.41118 1.15809 7.27293C1.45703 7.63735 2.0629 7.68022 2.32597 7.22577C2.9996 6.06391 3.71707 4.94064 4.51425 3.8731C4.88495 3.37578 5.51074 2.26537 6.04486 1.99956C7.17687 1.42935 7.3363 2.67266 7.46784 3.33719C7.85846 5.32221 7.65119 7.40155 7.83455 9.41229C7.99 11.1058 8.42845 13.3866 9.7757 14.4842C11.1429 15.5988 12.6615 14.7328 13.658 13.5367C15.2962 11.5731 16.5558 9.16362 18.0067 7.03713C18.4013 6.45405 18.9952 5.43797 19.7685 5.43368C20.8566 5.42939 20.9842 7.00283 21.1915 7.77883C21.5422 9.10789 21.8451 10.4498 22.156 11.7917C22.4988 13.2751 23.308 15.4059 25.1216 14.8914C25.9068 14.6685 26.3333 13.9825 26.7479 13.2923C27.0627 12.7692 27.3776 12.169 27.8599 11.7917C28.3661 11.3973 29.4384 11.2558 29.5978 12.1947C29.7453 13.0522 30.8653 12.9579 30.9769 12.1304C31.1563 10.7799 30.2674 9.76384 29.0597 9.53662L29.0557 9.53233Z" fill="#447ADC"/>
</svg>
