<svg width="24" height="34" viewBox="0 0 24 34" fill="none" xmlns="http://www.w3.org/2000/svg">
<path d="M23.3592 32.4099C22.7229 31.8499 22.0606 31.5908 21.298 31.2992C20.5006 30.9938 19.9036 30.6976 20.0604 29.661C20.1389 29.1473 20.6444 28.5271 20.945 28.1754C22.1695 26.7315 24.0259 25.4774 23.9997 23.2838C23.9779 21.6779 22.8101 20.5672 21.4113 20.2433C19.3458 19.762 17.2149 20.3729 15.1189 19.9101C14.1951 19.7065 11.5282 19.2344 11.4411 17.9849C11.367 16.9205 12.7658 15.9857 13.4107 15.435C14.6483 14.3798 15.7464 12.9637 15.3237 11.1588C14.8705 9.22438 13.158 8.16461 11.4498 7.75736C9.32763 7.24829 7.10525 7.02153 4.93515 6.77162C4.95694 5.80903 5.7326 4.83255 5.90255 3.88847C6.0507 3.06934 5.88076 2.24559 5.44064 1.55141C4.21179 -0.350636 2.08963 -0.216428 0.26379 0.440727C-0.13711 0.58419 -0.063031 1.19507 0.364015 1.21821C1.24425 1.27374 2.18114 1.34779 3.00909 1.69487C4.40788 2.28261 4.43839 3.37478 3.88933 4.63819C3.42306 5.70259 3.00037 6.6513 3.37513 7.82677C3.46664 8.10907 3.67145 8.396 3.96776 8.45616C6.27294 8.91432 8.66092 9.1272 10.9399 9.71031C12.0511 9.99261 13.9075 10.8164 13.4979 12.4176C13.2669 13.32 12.2952 13.9448 11.6677 14.5094C10.5739 15.4997 9.45836 16.976 9.75468 18.6189C10.0902 20.4932 12.3562 21.2522 13.8465 21.7057C15.8553 22.3166 17.7727 22.15 19.8208 22.1685C20.9102 22.1777 22.5356 22.349 21.8863 24.052C21.4854 25.0979 20.4744 25.806 19.7728 26.5973C18.7575 27.7358 17.7683 29.4111 18.2956 31.0308C18.9405 33.0115 20.8056 32.6459 22.0867 33.7659C22.9757 34.5433 24.2612 33.2013 23.3635 32.4099H23.3592Z" fill="#F93649"/>
</svg>
