<svg width="100" height="100" viewBox="0 0 100 100" fill="none" xmlns="http://www.w3.org/2000/svg">
<path d="M73.3 0C90.3 0 100 9.6 100 26.65V73.35C100 90.3 90.35 100 73.35 100H26.65C9.6 100 0 90.3 0 73.35V26.65C0 9.6 9.6 0 26.65 0H73.3ZM49.95 27.55C47.65 27.55 45.8 29.4 45.8 31.7V45.8H31.65C30.55 45.8 29.5 46.25 28.7 47C27.95 47.8 27.5 48.845 27.5 49.95C27.5 52.25 29.35 54.1 31.65 54.15H45.8V68.3C45.8 70.6 47.65 72.45 49.95 72.45C52.25 72.45 54.1 70.6 54.1 68.3V54.15H68.3C70.6 54.1 72.45 52.25 72.45 49.95C72.45 47.65 70.6 45.8 68.3 45.8H54.1V31.7C54.1 29.4 52.25 27.55 49.95 27.55Z" fill="#8530C1"/>
</svg>
