<svg width="24" height="17" viewBox="0 0 24 17" fill="none" xmlns="http://www.w3.org/2000/svg">
<path d="M18.2508 10.5H22.7508C23.165 10.5 23.5008 10.1642 23.5008 9.75C23.5008 9.33579 23.165 9 22.7508 9H18.2508C17.8365 9 17.5008 9.33579 17.5008 9.75C17.5008 10.1642 17.8365 10.5 18.2508 10.5Z" fill="white"/>
<path d="M19.7508 7.5V12C19.7508 12.4142 20.0865 12.75 20.5008 12.75C20.915 12.75 21.2508 12.4142 21.2508 12V7.5C21.2508 7.08579 20.915 6.75 20.5008 6.75C20.0865 6.75 19.7508 7.08579 19.7508 7.5Z" fill="white"/>
<path fill-rule="evenodd" clip-rule="evenodd" d="M9.62576 0C9.62576 0 10.9223 0 12.1074 0.501287C12.1074 0.501287 13.2516 0.985233 14.1336 1.86719C14.1336 1.86719 15.0155 2.74916 15.4995 3.89333C15.4995 3.89333 16.0008 5.07851 16.0008 6.375C16.0008 6.375 16.0008 7.67149 15.4995 8.85667C15.4995 8.85667 15.0155 10.0008 14.1336 10.8828C14.1336 10.8828 13.2516 11.7648 12.1074 12.2487C12.1074 12.2487 10.9223 12.75 9.62576 12.75C9.62576 12.75 8.32927 12.75 7.1441 12.2487C7.1441 12.2487 5.99992 11.7648 5.11796 10.8828C5.11796 10.8828 4.236 10.0008 3.75205 8.85667C3.75205 8.85667 3.25076 7.67149 3.25076 6.375C3.25076 6.375 3.25076 5.07851 3.75205 3.89333C3.75205 3.89333 4.236 2.74916 5.11796 1.86719C5.11796 1.86719 5.99992 0.985233 7.1441 0.501287C7.1441 0.501287 8.32927 0 9.62576 0ZM9.62576 1.5C9.62576 1.5 7.60647 1.5 6.17862 2.92785C6.17862 2.92785 4.75076 4.35571 4.75076 6.375C4.75076 6.375 4.75076 8.39429 6.17862 9.82215C6.17862 9.82215 7.60647 11.25 9.62576 11.25C9.62576 11.25 11.6451 11.25 13.0729 9.82215C13.0729 9.82215 14.5008 8.39429 14.5008 6.375C14.5008 6.375 14.5008 4.35571 13.0729 2.92785C13.0729 2.92785 11.6451 1.5 9.62576 1.5Z" fill="white"/>
<path d="M13.7465 13.6625C15.7055 14.576 17.0948 16.2319 17.0948 16.2319C17.2375 16.4019 17.4478 16.5 17.6695 16.5L17.6816 16.4999C17.8538 16.4971 18.0197 16.4352 18.1516 16.3245C18.3214 16.182 18.4195 15.9717 18.4195 15.75L18.4194 15.7379C18.4167 15.5657 18.3547 15.3998 18.2441 15.2679L18.2434 15.2671C16.6405 13.357 14.3805 12.303 14.3805 12.303C12.12 11.2489 9.62578 11.2489 9.62578 11.2489C7.13159 11.2489 4.87111 12.303 4.87111 12.303C2.61109 13.357 1.00813 15.2671 1.00813 15.2671L1.00748 15.2679C0.89415 15.403 0.832031 15.5737 0.832031 15.75L0.832035 15.7522C0.832097 15.7733 0.833049 15.7944 0.834888 15.8154C0.852233 16.0135 0.947584 16.1967 1.09996 16.3245C1.23504 16.4379 1.40572 16.5 1.58203 16.5C1.60386 16.5 1.62568 16.499 1.64743 16.4971C1.84558 16.4798 2.02873 16.3844 2.15659 16.232C3.54598 14.5761 5.50507 13.6625 5.50507 13.6625C7.46415 12.7489 9.62578 12.7489 9.62578 12.7489C11.7874 12.7489 13.7465 13.6625 13.7465 13.6625Z" fill="white"/>
</svg>
