<svg width="60" height="43" viewBox="0 0 60 43" fill="none" xmlns="http://www.w3.org/2000/svg">
<rect x="0.5" y="0.5" width="59" height="41.3529" rx="3.5" fill="#1F72CD"/>
<path fill-rule="evenodd" clip-rule="evenodd" d="M10.7544 15L5.14062 27.7884H11.861L12.6942 25.7494H14.5985L15.4317 27.7884H22.829V26.2321L23.4881 27.7884H27.3146L27.9737 26.1993V27.7884H43.3581L45.2287 25.8023L46.9803 27.7884L54.8821 27.8048L49.2506 21.4299L54.8821 15H47.1029L45.2819 16.9493L43.5854 15H26.8493L25.4122 18.3008L23.9413 15H17.2349V16.5033L16.4889 15H10.7544ZM12.0539 16.8159H15.3298L19.0534 25.4878V16.8159H22.6419L25.5179 23.0336L28.1685 16.8159H31.7392V25.9924H29.5665L29.5488 18.8018L26.3813 25.9924H24.4377L21.2525 18.8018V25.9924H16.7829L15.9355 23.9352H11.3576L10.512 25.9906H8.11719L12.0539 16.8159ZM42.5629 16.8159H33.7285V25.987H42.4262L45.2295 22.9476L47.9316 25.987H50.7562L46.6507 21.428L50.7562 16.8159H48.0541L45.265 19.8205L42.5629 16.8159ZM13.6489 18.3687L12.1406 22.0335H15.1554L13.6489 18.3687ZM35.9102 20.3911V18.716V18.7144H41.4226L43.8279 21.3934L41.316 24.087H35.9102V22.2582H40.7297V20.3911H35.9102Z" fill="white"/>
<rect x="0.5" y="0.5" width="59" height="41.3529" rx="3.5" stroke="#F9F7F6"/>
</svg>
