<svg width="34" height="42" viewBox="0 0 34 42" fill="none" xmlns="http://www.w3.org/2000/svg">
<path d="M28.4544 22.6543C28.408 17.4975 32.6816 14.9887 32.877 14.8719C30.4567 11.3471 26.7053 10.8655 25.387 10.8271C22.2363 10.4959 19.18 12.7103 17.575 12.7103C15.938 12.7103 13.4664 10.8591 10.8026 10.9135C7.3748 10.9663 4.168 12.9487 2.40923 16.0271C-1.22044 22.3039 1.4866 31.5279 4.9641 36.6015C6.70365 39.0863 8.73633 41.8607 11.3969 41.7631C13.9998 41.6559 14.9721 40.1055 18.1132 40.1055C21.2255 40.1055 22.1386 41.7631 24.852 41.7007C27.6455 41.6559 29.4043 39.2047 31.083 36.6975C33.0932 33.8495 33.9005 31.0447 33.9326 30.9007C33.8669 30.8783 28.5073 28.8351 28.4544 22.6543Z" fill="white"/>
<path d="M23.3284 7.48954C24.7284 5.74074 25.6863 3.36154 25.4204 0.947144C23.3941 1.03674 20.8601 2.34714 19.4008 4.05754C18.1098 5.56474 16.9565 8.03514 17.2544 10.3583C19.5306 10.5279 21.8676 9.21114 23.3284 7.48954Z" fill="white"/>
</svg>
