<svg width="72" height="72" viewBox="0 0 72 72" fill="none" xmlns="http://www.w3.org/2000/svg">
<path fill-rule="evenodd" clip-rule="evenodd" d="M17.9167 27.1442C17.2486 27.9679 16.1797 28.6176 15.1109 28.5248C14.9773 27.411 15.5006 26.2276 16.1129 25.4967C16.781 24.6497 17.9501 24.0464 18.8964 24C19.0078 25.1602 18.5736 26.2972 17.9167 27.1442ZM18.8836 28.7449C17.942 28.6885 17.0827 29.04 16.3887 29.324C15.9421 29.5067 15.5639 29.6615 15.2762 29.6615C14.9533 29.6615 14.5595 29.4985 14.1173 29.3154C13.5379 29.0756 12.8755 28.8014 12.1809 28.8145C10.5887 28.8377 9.10791 29.7775 8.29512 31.2742C6.62501 34.2675 7.86089 38.6995 9.47533 41.136C10.2659 42.3426 11.2122 43.6652 12.4593 43.6188C13.0079 43.5972 13.4025 43.4227 13.8109 43.2421C14.2811 43.0342 14.7696 42.8183 15.5323 42.8183C16.2685 42.8183 16.7356 43.0286 17.184 43.2305C17.6103 43.4225 18.0197 43.6069 18.6275 43.5956C19.9191 43.5724 20.7319 42.389 21.5224 41.1824C22.3755 39.8873 22.7504 38.6234 22.8073 38.4316L22.8139 38.4095C22.8126 38.408 22.802 38.403 22.7834 38.3941C22.4983 38.2581 20.3186 37.2183 20.2976 34.43C20.2767 32.0896 22.0265 30.9038 22.302 30.7171C22.3188 30.7057 22.3301 30.6981 22.3352 30.6941C21.2218 28.977 19.4849 28.7913 18.8836 28.7449ZM27.8223 43.4685V25.3809H34.3357C37.6982 25.3809 40.0475 27.7941 40.0475 31.3211C40.0475 34.8482 37.6536 37.2846 34.2466 37.2846H30.5167V43.4685H27.8223ZM30.5195 27.748H33.6259C35.9641 27.748 37.3002 29.0475 37.3002 31.3331C37.3002 33.6187 35.9641 34.9297 33.6148 34.9297H30.5195V27.748ZM48.9429 41.2988C48.2303 42.7142 46.6604 43.6076 44.9681 43.6076C42.4629 43.6076 40.7148 42.0529 40.7148 39.7093C40.7148 37.3889 42.4072 36.0546 45.5359 35.8574L48.8984 35.6485V34.6508C48.8984 33.1773 47.9743 32.3768 46.3264 32.3768C44.9681 32.3768 43.9771 33.1077 43.7767 34.2215H41.3495C41.4274 31.8779 43.5429 30.1724 46.4044 30.1724C49.4885 30.1724 51.4926 31.8547 51.4926 34.4651V43.4683H48.9986V41.2988H48.9429ZM45.693 41.4615C44.2567 41.4615 43.3438 40.7422 43.3438 39.64C43.3438 38.503 44.2233 37.8417 45.9046 37.7373L48.8996 37.54V38.561C48.8996 40.2549 47.519 41.4615 45.693 41.4615ZM59.769 44.1759C58.689 47.3432 57.4531 48.3874 54.8255 48.3874C54.625 48.3874 53.957 48.3642 53.8011 48.3178V46.1482C53.9681 46.1714 54.3801 46.1946 54.5916 46.1946C55.783 46.1946 56.451 45.6725 56.863 44.3151L57.1079 43.5146L52.543 30.3462H55.3599L58.5331 41.0317H58.5888L61.762 30.3462H64.501L59.769 44.1759Z" fill="black"/>
</svg>
