<svg width="20" height="25" viewBox="0 0 20 25" fill="none" xmlns="http://www.w3.org/2000/svg">
<path fill-rule="evenodd" clip-rule="evenodd" d="M14.2937 0.30141C14.2921 0.209587 14.2904 0.117618 14.2904 0.02565C11.4335 0.273773 9.21364 2.97865 9.46895 5.72786C9.77713 5.80225 10.2875 5.74119 10.698 5.59581C12.4687 4.9675 14.1397 3.07 14.2876 0.893352C14.3009 0.697699 14.2973 0.499895 14.2937 0.30141ZM5.95737 24.5H6.56028C6.98274 24.4327 7.39709 24.3183 7.79625 24.1588C7.89476 24.12 7.99284 24.0801 8.09087 24.0402C8.32373 23.9454 8.55625 23.8508 8.79337 23.7712C9.83224 23.4218 10.8681 23.4637 11.8944 23.8351C12.059 23.8948 12.2223 23.9591 12.3855 24.0234C12.6658 24.1338 12.9461 24.2442 13.2329 24.3309C13.99 24.5599 14.7467 24.549 15.459 24.1528C15.7155 24.0055 15.9565 23.8304 16.1779 23.6304C17.156 22.7675 17.8855 21.6992 18.4884 20.5288C18.8689 19.7898 19.1899 19.0227 19.4816 18.2417C19.4911 18.2166 19.5026 18.1922 19.514 18.1678C19.5194 18.1564 19.5247 18.1451 19.5298 18.1336V18.0367C18.9758 17.819 18.4685 17.4887 18.0372 17.0651C16.8058 15.8673 16.2273 14.3798 16.3444 12.6308C16.4452 11.1176 17.1293 9.90538 18.254 8.95892C18.36 8.87048 18.4678 8.7864 18.5786 8.7045C18.6516 8.65061 18.7258 8.6007 18.8083 8.54525C18.8512 8.51644 18.8963 8.48613 18.9445 8.45299C18.8736 8.36988 18.8045 8.28613 18.7358 8.20285C18.5894 8.02537 18.4447 7.85007 18.2878 7.68778C17.4099 6.7801 16.327 6.32674 15.1244 6.11836C14.0904 5.93905 13.1088 6.1329 12.1349 6.47213C11.4511 6.70983 10.764 6.93711 10.0711 7.14041C9.90969 7.18766 9.70818 7.14938 9.54052 7.0968C9.09428 6.95698 8.65445 6.7943 8.21498 6.63175L8.18304 6.61994C7.59706 6.40307 7.00342 6.22085 6.38521 6.1329C5.9736 6.07426 5.56896 6.12829 5.16547 6.19856C4.32627 6.3454 3.54364 6.64804 2.83337 7.14356C1.89236 7.79997 1.21756 8.68948 0.749841 9.75709C0.327108 10.721 0.110523 11.7399 0.0509276 12.7946C-0.0613067 14.7837 0.311805 16.6839 1.03623 18.5153C1.68899 20.1659 2.59707 21.65 3.73077 22.9851C4.0633 23.3755 4.4065 23.7489 4.82854 24.0355C5.16246 24.2626 5.51887 24.4259 5.91679 24.4806C5.93118 24.4849 5.94486 24.4914 5.95737 24.5Z" fill="black"/>
</svg>
