<svg width="23" height="18" viewBox="0 0 23 18" fill="none" xmlns="http://www.w3.org/2000/svg">
<path d="M0.799173 10.5706C1.3157 11.0871 2.00241 11.3715 2.73456 11.3715L12.8168 11.3716L11.5851 12.6033C11.0677 13.12 10.7828 13.8072 10.7828 14.5385C10.7828 16.0464 12.0097 17.2732 13.5183 17.2732C14.2485 17.2732 14.9351 16.9888 15.4517 16.4722L21.3494 10.5743C21.732 10.1933 21.991 9.7136 22.0986 9.1872C22.1356 9.00698 22.1543 8.82174 22.1543 8.63658C22.1543 7.90404 21.8684 7.2159 21.3502 6.69972L15.4529 0.802426C14.9362 0.284989 14.249 5.02822e-05 13.5176 5.03461e-05C12.0097 5.04779e-05 10.7829 1.22692 10.7828 2.73483C10.7827 3.4652 11.0671 4.15205 11.5838 4.66888L12.8167 5.9018L2.73309 5.9018C2.00241 5.9018 1.31553 6.18627 0.799129 6.70288C-0.267072 7.76925 -0.267071 9.50425 0.799173 10.5706Z" fill="#8530C1"/>
</svg>
