<svg width="29" height="28" viewBox="0 0 29 28" fill="none" xmlns="http://www.w3.org/2000/svg">
<rect opacity="0.15" x="0.730469" width="28" height="28" rx="6.80952" fill="#FBC70D"/>
<path d="M14.7368 15.3096C15.3789 15.3096 15.8994 14.7891 15.8994 14.147C15.8994 13.5049 15.3789 12.9844 14.7368 12.9844C14.0947 12.9844 13.5742 13.5049 13.5742 14.147C13.5742 14.7891 14.0947 15.3096 14.7368 15.3096Z" stroke="#FBC70D" strokeLinecap="round" strokeLinejoin="round"/>
<path d="M17.2023 11.6822C17.5265 12.0061 17.7838 12.3908 17.9593 12.8142C18.1348 13.2376 18.2252 13.6915 18.2252 14.1498C18.2252 14.6082 18.1348 15.062 17.9593 15.4854C17.7838 15.9088 17.5265 16.2935 17.2023 16.6174M12.2728 16.6116C11.9485 16.2877 11.6913 15.903 11.5158 15.4796C11.3402 15.0562 11.2499 14.6024 11.2499 14.144C11.2499 13.6856 11.3402 13.2318 11.5158 12.8084C11.6913 12.385 11.9485 12.0003 12.2728 11.6764M18.8473 10.0371C19.9371 11.1272 20.5493 12.6055 20.5493 14.1469C20.5493 15.6883 19.9371 17.1666 18.8473 18.2567M10.6278 18.2567C9.53798 17.1666 8.92578 15.6883 8.92578 14.1469C8.92578 12.6055 9.53798 11.1272 10.6278 10.0371" stroke="#FBC70D" strokeLinecap="round" strokeLinejoin="round"/>
</svg>
