<svg width="22" height="18" viewBox="0 0 22 18" fill="none" xmlns="http://www.w3.org/2000/svg">
<path d="M3.875 10.5H8.375C8.78921 10.5 9.125 10.1642 9.125 9.75C9.125 9.33579 8.78921 9 8.375 9H3.125C2.71079 9 2.375 9.33579 2.375 9.75V16.5C2.375 16.9142 2.71079 17.25 3.125 17.25C3.53921 17.25 3.875 16.9142 3.875 16.5V10.5Z" fill="#151515"/>
<path d="M20.375 15.75H1.625C1.21079 15.75 0.875 16.0858 0.875 16.5C0.875 16.9142 1.21079 17.25 1.625 17.25H20.375C20.7892 17.25 21.125 16.9142 21.125 16.5C21.125 16.0858 20.7892 15.75 20.375 15.75Z" fill="#151515"/>
<path d="M9.125 6H13.625C14.0392 6 14.375 5.66421 14.375 5.25C14.375 4.83579 14.0392 4.5 13.625 4.5H8.375C7.96079 4.5 7.625 4.83579 7.625 5.25V16.5C7.625 16.9142 7.96079 17.25 8.375 17.25C8.78921 17.25 9.125 16.9142 9.125 16.5V6Z" fill="#151515"/>
<path fillRule="evenodd" clipRule="evenodd" d="M12.875 16.5V0.75C12.875 0.335786 13.2108 0 13.625 0H18.875C19.2892 0 19.625 0.335786 19.625 0.75V16.5C19.625 16.9142 19.2892 17.25 18.875 17.25H13.625C13.2108 17.25 12.875 16.9142 12.875 16.5ZM18.125 15.75H14.375V1.5H18.125V15.75Z" fill="#151515"/>
</svg>
