<svg width="18" height="21" viewBox="0 0 18 21" fill="none" xmlns="http://www.w3.org/2000/svg">
<path fillRule="evenodd" clipRule="evenodd" d="M1.51806 8.50008V7.75008C1.51806 7.75008 1.51596 6.25437 2.08921 4.87174C2.08921 4.87174 2.66246 3.4891 3.72303 2.43293C3.72303 2.43293 4.7836 1.37676 6.16861 0.80926C6.16861 0.80926 7.55362 0.241762 9.05036 0.250091C9.05036 0.250091 10.5723 0.261619 11.9581 0.869615C11.9581 0.869615 13.2915 1.45457 14.318 2.50894C14.318 2.50894 15.3404 3.55919 15.9011 4.91345C15.9011 4.91345 16.4806 6.31283 16.4806 7.83445V8.50008C16.4806 8.50008 16.4806 12.3904 17.7015 14.4993C17.7015 14.4993 17.9026 14.8475 17.9029 15.2488C17.9029 15.2488 17.9033 15.65 17.7033 15.9978C17.7033 15.9978 17.5033 16.3456 17.1564 16.5471C17.1564 16.5471 16.8094 16.7487 16.4082 16.7501L1.59306 16.7501C1.59306 16.7501 1.1892 16.7487 0.842272 16.5471C0.842272 16.5471 0.495341 16.3456 0.295345 15.9978C0.295345 15.9978 0.0953488 15.65 0.0957036 15.2488C0.0957036 15.2488 0.0960596 14.8475 0.296671 14.5001C0.296671 14.5001 1.51806 12.3904 1.51806 8.50008ZM3.01806 8.50008C3.01806 8.50008 3.01806 12.7933 1.5957 15.2501L16.4029 15.2501C16.4029 15.2501 14.9806 12.7926 14.9806 8.50008V7.83445C14.9806 7.83445 14.9806 5.33991 13.2432 3.55528C13.2432 3.55528 11.5039 1.76872 9.04201 1.75007C9.04201 1.75007 7.845 1.74341 6.73734 2.19726C6.73734 2.19726 5.62967 2.65112 4.78149 3.49579C4.78149 3.49579 3.93329 4.34046 3.47484 5.44623C3.47484 5.44623 3.01638 6.55199 3.01806 7.75008V8.50008Z" fill="#151515"/>
<path d="M12.7493 16.7502V16.0002C12.7493 15.5859 12.4135 15.2502 11.9993 15.2502C11.5851 15.2502 11.2493 15.5859 11.2493 16.0002V16.7502C11.2493 17.6821 10.5903 18.3411 10.5903 18.3411C9.93128 19.0002 8.9993 19.0002 8.9993 19.0002C8.06732 19.0002 7.40831 18.3411 7.40831 18.3411C6.7493 17.6821 6.7493 16.7502 6.7493 16.7502V16.0002C6.7493 15.5859 6.41351 15.2502 5.9993 15.2502C5.58509 15.2502 5.2493 15.5859 5.2493 16.0002V16.7502C5.2493 18.3035 6.34765 19.4018 6.34765 19.4018C7.446 20.5002 8.9993 20.5002 8.9993 20.5002C10.5526 20.5002 11.6509 19.4018 11.6509 19.4018C12.7493 18.3035 12.7493 16.7502 12.7493 16.7502Z" fill="#151515"/>
</svg>
