<svg width="100" height="100" viewBox="0 0 100 100" fill="none" xmlns="http://www.w3.org/2000/svg">
<rect width="100" height="100" rx="13" fill="#FBECFF"/>
<path d="M50.7548 65.3798C48.375 67.7595 48.375 71.125 48.375 71.125C48.375 72.0225 49.1025 72.75 50 72.75C50.8975 72.75 51.625 72.0225 51.625 71.125C51.625 69.1057 53.0529 67.6779 53.0529 67.6779C54.4807 66.25 56.5 66.25 56.5 66.25H69.5C70.8462 66.25 71.7981 65.2981 71.7981 65.2981C72.75 64.3462 72.75 63 72.75 63V37C72.75 35.6538 71.7981 34.7019 71.7981 34.7019C70.8462 33.75 69.5 33.75 69.5 33.75H56.5C53.1345 33.75 50.7548 36.1298 50.7548 36.1298C48.375 38.5095 48.375 41.875 48.375 41.875C48.375 42.7725 49.1025 43.5 50 43.5C50.431 43.5 50.8443 43.3288 51.149 43.024C51.4538 42.7193 51.625 42.306 51.625 41.875C51.625 39.8557 53.0529 38.4279 53.0529 38.4279C54.4807 37 56.5 37 56.5 37H69.5V63H56.5C53.1345 63 50.7548 65.3798 50.7548 65.3798Z" fill="#8530C1"/>
<path fillRule="evenodd" clipRule="evenodd" d="M27.25 37C27.25 37 27.25 35.6538 28.2019 34.7019C28.2019 34.7019 29.1538 33.75 30.5 33.75H43.5C43.5 33.75 46.8655 33.75 49.2452 36.1298C49.2452 36.1298 51.625 38.5095 51.625 41.875V71.125C51.625 72.0225 50.8975 72.75 50 72.75C49.1025 72.75 48.375 72.0225 48.375 71.125C48.375 71.125 48.375 69.1057 46.9471 67.6779C46.9471 67.6779 45.5193 66.25 43.5 66.25H30.5C30.5 66.25 29.1538 66.25 28.2019 65.2981C28.2019 65.2981 27.25 64.3462 27.25 63V37ZM48.375 41.875V64.6142C48.375 64.6142 46.2718 63 43.5 63H30.5V37H43.5C43.5 37 45.5193 37 46.9471 38.4279C46.9471 38.4279 48.375 39.8557 48.375 41.875Z" fill="#8530C1"/>
</svg>
