<svg width="48" height="49" viewBox="0 0 48 49" fill="none" xmlns="http://www.w3.org/2000/svg">
<rect y="0.5" width="48" height="48" rx="10" fill="#2BB457"/>
<path fill-rule="evenodd" clip-rule="evenodd" d="M16.4258 14.7441C16.8435 14.3265 17.41 14.0918 18.0007 14.0918H32.228V29.4545H18.0007C17.1703 29.4545 16.3729 29.7745 15.7734 30.3463V16.3191C15.7734 15.7284 16.0081 15.1618 16.4258 14.7441ZM15.7734 32.6818C15.7734 32.0911 16.0081 31.5246 16.4258 31.1069C16.8435 30.6892 17.41 30.4545 18.0007 30.4545H32.228V34.91H18.0007C17.41 34.91 16.8435 34.6753 16.4258 34.2576C16.0081 33.8399 15.7734 33.2734 15.7734 32.6827V32.6818ZM33.228 29.9545V13.5918C33.228 13.3157 33.0041 13.0918 32.728 13.0918H18.0007C17.1448 13.0918 16.3239 13.4318 15.7187 14.037C15.1135 14.6423 14.7734 15.4631 14.7734 16.3191V32.6818V32.6827C14.7734 33.5386 15.1135 34.3595 15.7187 34.9647C16.3239 35.57 17.1448 35.91 18.0007 35.91H32.728C33.0041 35.91 33.228 35.6861 33.228 35.41V29.9545Z" fill="white"/>
<path d="M16.4258 14.7441L16.9561 15.2745L16.9561 15.2745L16.4258 14.7441ZM32.228 14.0918H32.978C32.978 13.6776 32.6422 13.3418 32.228 13.3418V14.0918ZM32.228 29.4545V30.2045C32.6422 30.2045 32.978 29.8687 32.978 29.4545H32.228ZM15.7734 30.3463H15.0234C15.0234 30.6464 15.2023 30.9176 15.4782 31.0358C15.7541 31.1539 16.0739 31.0962 16.2911 30.889L15.7734 30.3463ZM16.4258 31.1069L16.9561 31.6372L16.4258 31.1069ZM32.228 30.4545H32.978C32.978 30.0403 32.6422 29.7045 32.228 29.7045V30.4545ZM32.228 34.91V35.66C32.6422 35.66 32.978 35.3242 32.978 34.91H32.228ZM16.4258 34.2576L16.9561 33.7273L16.4258 34.2576ZM15.7187 14.037L15.1884 13.5067H15.1884L15.7187 14.037ZM15.7187 34.9647L15.1884 35.4951L15.1884 35.4951L15.7187 34.9647ZM18.0007 13.3418C17.2111 13.3418 16.4538 13.6555 15.8955 14.2138L16.9561 15.2745C17.2332 14.9974 17.6089 14.8418 18.0007 14.8418V13.3418ZM32.228 13.3418H18.0007V14.8418H32.228V13.3418ZM32.978 29.4545V14.0918H31.478V29.4545H32.978ZM18.0007 30.2045H32.228V28.7045H18.0007V30.2045ZM16.2911 30.889C16.7512 30.4502 17.3633 30.2045 18.0007 30.2045V28.7045C16.9773 28.7045 15.9947 29.0989 15.2558 29.8036L16.2911 30.889ZM15.0234 16.3191V30.3463H16.5234V16.3191H15.0234ZM15.8955 14.2138C15.3371 14.7722 15.0234 15.5294 15.0234 16.3191H16.5234C16.5234 15.9273 16.6791 15.5515 16.9561 15.2745L15.8955 14.2138ZM15.8955 30.5765C15.3371 31.1349 15.0234 31.8922 15.0234 32.6818H16.5234C16.5234 32.29 16.6791 31.9142 16.9561 31.6372L15.8955 30.5765ZM18.0007 29.7045C17.2111 29.7045 16.4538 30.0182 15.8955 30.5765L16.9561 31.6372C17.2332 31.3602 17.6089 31.2045 18.0007 31.2045V29.7045ZM32.228 29.7045H18.0007V31.2045H32.228V29.7045ZM32.978 34.91V30.4545H31.478V34.91H32.978ZM18.0007 35.66H32.228V34.16H18.0007V35.66ZM15.8955 34.788C16.4538 35.3463 17.2111 35.66 18.0007 35.66V34.16C17.6089 34.16 17.2332 34.0043 16.9561 33.7273L15.8955 34.788ZM15.0234 32.6827C15.0234 33.4723 15.3371 34.2296 15.8955 34.788L16.9561 33.7273C16.6791 33.4503 16.5234 33.0745 16.5234 32.6827H15.0234ZM15.0234 32.6818V32.6827H16.5234V32.6818H15.0234ZM32.478 13.5918V29.9545H33.978V13.5918H32.478ZM32.728 13.8418C32.5899 13.8418 32.478 13.7299 32.478 13.5918H33.978C33.978 12.9014 33.4183 12.3418 32.728 12.3418V13.8418ZM18.0007 13.8418H32.728V12.3418H18.0007V13.8418ZM16.249 14.5674C16.7136 14.1028 17.3437 13.8418 18.0007 13.8418V12.3418C16.9459 12.3418 15.9342 12.7608 15.1884 13.5067L16.249 14.5674ZM15.5234 16.3191C15.5234 15.6621 15.7844 15.032 16.249 14.5674L15.1884 13.5067C14.4425 14.2526 14.0234 15.2642 14.0234 16.3191H15.5234ZM15.5234 32.6818V16.3191H14.0234V32.6818H15.5234ZM15.5234 32.6827V32.6818H14.0234V32.6827H15.5234ZM16.249 34.4344C15.7844 33.9698 15.5234 33.3397 15.5234 32.6827H14.0234C14.0234 33.7375 14.4425 34.7492 15.1884 35.4951L16.249 34.4344ZM18.0007 35.16C17.3437 35.16 16.7136 34.899 16.249 34.4344L15.1884 35.4951C15.9342 36.2409 16.9459 36.66 18.0007 36.66V35.16ZM32.728 35.16H18.0007V36.66H32.728V35.16ZM32.478 35.41C32.478 35.2719 32.5899 35.16 32.728 35.16V36.66C33.4183 36.66 33.978 36.1003 33.978 35.41H32.478ZM32.478 29.9545V35.41H33.978V29.9545H32.478Z" fill="white"/>
</svg>
