<svg width="42" height="42" viewBox="0 0 42 42" fill="none" xmlns="http://www.w3.org/2000/svg">
<path fillRule="evenodd" clipRule="evenodd" d="M28.0204 12.81V29.9699C28.0204 30.4007 27.6712 30.7499 27.2404 30.7499C27.0942 30.7499 26.951 30.7088 26.827 30.6313L21.0004 26.9897L15.1739 30.6313C14.8086 30.8596 14.3273 30.7486 14.099 30.3833C14.0216 30.2593 13.9805 30.1161 13.9805 29.9699V12.81C13.9805 12.81 13.9805 12.1638 14.4374 11.7069C14.4374 11.7069 14.8943 11.25 15.5405 11.25H26.4604C26.4604 11.25 27.1066 11.25 27.5635 11.7069C27.5635 11.7069 28.0204 12.1638 28.0204 12.81ZM26.4604 12.81H15.5405V28.5626L20.587 25.4085C20.84 25.2504 21.1609 25.2504 21.4138 25.4085L26.4604 28.5626V12.81Z" fill="white"/>
<rect x="1" y="1" width="40" height="40" rx="9" stroke="white" strokeWidth="2"/>
</svg>
