<svg width="50" height="50" viewBox="0 0 50 50" fill="none" xmlns="http://www.w3.org/2000/svg">
<path d="M29.0711 18.0861C29.8739 17.3046 31.1353 17.3046 31.9151 18.0861C32.695 18.8652 32.695 20.1485 31.9151 20.9253L27.8326 25.0066L31.9151 29.0856C32.695 29.8647 32.695 31.1251 31.9151 31.9019C31.5252 32.2915 31.0206 32.5 30.4931 32.5C29.9885 32.5 29.4839 32.3167 29.094 31.9019L25.0115 27.8481L20.9289 31.9019C20.539 32.2915 20.0344 32.5 19.5069 32.5C19.0023 32.5 18.4748 32.2915 18.0849 31.9019C17.305 31.1251 17.305 29.8647 18.0849 29.0627L22.1674 25.0066L18.0849 20.9253C17.305 20.1485 17.305 18.8652 18.0849 18.0861C18.8647 17.3046 20.1261 17.3046 20.9289 18.0861L25.0115 22.1628L29.0711 18.0861Z" fill="#8530C1"/>
<rect x="1" y="1" width="48" height="48" rx="9" stroke="#8530C1" strokeWidth="2"/>
</svg>
