<svg width="6" height="7" viewBox="0 0 6 7" fill="none" xmlns="http://www.w3.org/2000/svg">
<path d="M4.62844 0.334525C4.94954 0.0219553 5.45413 0.0219553 5.76606 0.334525C6.07798 0.646177 6.07798 1.15948 5.76606 1.47022L4.13303 3.10273L5.76606 4.73432C6.07798 5.04598 6.07798 5.55012 5.76606 5.86086C5.61009 6.01668 5.40826 6.1001 5.19725 6.1001C4.99541 6.1001 4.79358 6.02677 4.63761 5.86086L3.00459 4.23935L1.37156 5.86086C1.2156 6.01668 1.01376 6.1001 0.802752 6.1001C0.600917 6.1001 0.389908 6.01668 0.233945 5.86086C-0.0779816 5.55012 -0.0779816 5.04598 0.233945 4.72516L1.86697 3.10273L0.233945 1.47022C-0.0779816 1.15948 -0.0779816 0.646177 0.233945 0.334525C0.545872 0.0219553 1.05046 0.0219553 1.37156 0.334525L3.00459 1.9652L4.62844 0.334525Z" fill="#8530C1"/>
</svg>
