<svg width="50" height="50" viewBox="0 0 50 50" fill="none" xmlns="http://www.w3.org/2000/svg">
<rect width="50" height="50" rx="25" fill="#EEEEEE"/>
<path d="M17.6622 17.6619C18.5756 16.7794 20.0067 16.7794 20.8896 17.6619L25 21.7734L29.1104 17.6619C29.9933 16.7794 31.4548 16.7794 32.3378 17.6619C33.2207 18.5779 33.2207 20.0083 32.3378 20.8908L28.2274 24.9962L32.3378 29.1077C33.2207 29.9902 33.2207 31.451 32.3378 32.3335C31.9115 32.79 31.3026 33 30.7241 33C30.1456 33 29.5671 32.79 29.1104 32.3335L25 28.2251L20.8896 32.3335C20.4634 32.79 19.8849 33 19.2759 33C18.6974 33 18.1189 32.79 17.6622 32.3335C16.7793 31.451 16.7793 29.9902 17.6622 29.1077L21.7726 24.9962L17.6622 20.8908C16.7793 20.0083 16.7793 18.5779 17.6622 17.6619Z" fill="#8530C1"/>
</svg>
