<svg width="62" height="62" viewBox="0 0 62 62" fill="none" xmlns="http://www.w3.org/2000/svg">
<rect width="62" height="62" rx="8" fill="#ECF2FB"/>
<path d="M43.6042 20.9948V36.8177C43.6042 37.4419 44.1102 37.9479 44.7344 37.9479C45.3586 37.9479 45.8646 37.4419 45.8646 36.8177V20.9948C45.8646 20.0585 45.2025 19.3964 45.2025 19.3964C44.5405 18.7344 43.6042 18.7344 43.6042 18.7344H18.7396C17.8033 18.7344 17.1412 19.3964 17.1412 19.3964C16.4792 20.0585 16.4792 20.9948 16.4792 20.9948V36.8177C16.4792 37.4419 16.9852 37.9479 17.6094 37.9479C18.2336 37.9479 18.7396 37.4419 18.7396 36.8177V20.9948H43.6042Z" fill="#447ADC"/>
<path d="M15.349 42.4688H46.9948C47.619 42.4688 48.125 41.9627 48.125 41.3385C48.125 40.7143 47.619 40.2083 46.9948 40.2083H15.349C14.7248 40.2083 14.2188 40.7143 14.2188 41.3385C14.2188 41.9627 14.7248 42.4688 15.349 42.4688Z" fill="#447ADC"/>
<path d="M37.9531 37.9479V41.3385C37.9531 41.9627 38.4591 42.4688 39.0833 42.4688C39.7075 42.4688 40.2135 41.9627 40.2135 41.3385V36.8177C40.2135 36.1935 39.7075 35.6875 39.0833 35.6875H30.0417C29.4175 35.6875 28.9115 36.1935 28.9115 36.8177V41.3385C28.9115 41.9627 29.4175 42.4688 30.0417 42.4688C30.6659 42.4688 31.1719 41.9627 31.1719 41.3385V37.9479H37.9531Z" fill="#447ADC"/>
</svg>
