<svg width="24" height="17" viewBox="0 0 24 17" fill="none" xmlns="http://www.w3.org/2000/svg">
<path d="M20.25 2.25V15.75C20.25 16.1642 20.5858 16.5 21 16.5C21.4142 16.5 21.75 16.1642 21.75 15.75V2.25C21.75 1.62868 21.3107 1.18934 21.3107 1.18934C20.8713 0.75 20.25 0.75 20.25 0.75H3.75C3.12868 0.75 2.68934 1.18934 2.68934 1.18934C2.25 1.62868 2.25 2.25 2.25 2.25V15.75C2.25 16.1642 2.58579 16.5 3 16.5C3.41421 16.5 3.75 16.1642 3.75 15.75V2.25H20.25Z" fill="#B5B5C3"/>
<path d="M1.5 16.5H22.5C22.9142 16.5 23.25 16.1642 23.25 15.75C23.25 15.3358 22.9142 15 22.5 15H1.5C1.08579 15 0.75 15.3358 0.75 15.75C0.75 16.1642 1.08579 16.5 1.5 16.5Z" fill="#B5B5C3"/>
<path d="M17.25 13.5V15.75C17.25 16.1642 17.5858 16.5 18 16.5C18.4142 16.5 18.75 16.1642 18.75 15.75V12.75C18.75 12.3358 18.4142 12 18 12H11.25C10.8358 12 10.5 12.3358 10.5 12.75V15.75C10.5 16.1642 10.8358 16.5 11.25 16.5C11.6642 16.5 12 16.1642 12 15.75V13.5H17.25Z" fill="#B5B5C3"/>
<path d="M17.25 5.25V9.75C17.25 10.1642 17.5858 10.5 18 10.5C18.4142 10.5 18.75 10.1642 18.75 9.75V4.5C18.75 4.08579 18.4142 3.75 18 3.75H6C5.58579 3.75 5.25 4.08579 5.25 4.5V15.75C5.25 16.1642 5.58579 16.5 6 16.5C6.41421 16.5 6.75 16.1642 6.75 15.75V5.25H17.25Z" fill="#B5B5C3"/>
</svg>
