<svg width="16" height="16" viewBox="0 0 16 16" fill="none" xmlns="http://www.w3.org/2000/svg">
<path fill-rule="evenodd" clip-rule="evenodd" d="M0.5 4.875C0.5 4.52982 0.779822 4.25 1.125 4.25H4.25V1.125C4.25 0.779822 4.52982 0.5 4.875 0.5H14.875C15.2202 0.5 15.5 0.779822 15.5 1.125V11.125C15.5 11.4702 15.2202 11.75 14.875 11.75H11.75V14.875C11.75 15.2202 11.4702 15.5 11.125 15.5H1.125C0.779822 15.5 0.5 15.2202 0.5 14.875V4.875ZM11.75 4.875C11.75 4.52982 11.4702 4.25 11.125 4.25H5.5V1.75H14.25V10.5H11.75V4.875ZM1.75 5.5V14.25H10.5V5.5H1.75Z" fill="#8530C1"/>
</svg>
