<svg width="26" height="26" viewBox="0 0 26 26" fill="none" xmlns="http://www.w3.org/2000/svg">
<path fill-rule="evenodd" clip-rule="evenodd" d="M12.9993 2.16406C18.9728 2.16406 23.8327 7.0239 23.8327 12.9974C23.8327 18.9709 18.9728 23.8307 12.9993 23.8307C7.02585 23.8307 2.16602 18.9709 2.16602 12.9974C2.16602 7.0239 7.02585 2.16406 12.9993 2.16406ZM12.9993 3.78906C7.92177 3.78906 3.79102 7.91981 3.79102 12.9974C3.79102 18.075 7.92177 22.2057 12.9993 22.2057C18.0769 22.2057 22.2077 18.075 22.2077 12.9974C22.2077 7.91981 18.0769 3.78906 12.9993 3.78906ZM13.0036 16.0263C13.6027 16.0263 14.0869 16.5105 14.0869 17.1096C14.0869 17.7087 13.6027 18.193 13.0036 18.193C12.4045 18.193 11.9148 17.7087 11.9148 17.1096C11.9148 16.5105 12.3947 16.0263 12.9927 16.0263H13.0036ZM12.993 8.07256C13.4415 8.07256 13.8055 8.43656 13.8055 8.88506V13.6723C13.8055 14.1208 13.4415 14.4848 12.993 14.4848C12.5445 14.4848 12.1805 14.1208 12.1805 13.6723V8.88506C12.1805 8.43656 12.5445 8.07256 12.993 8.07256Z" fill="#ED1C24"/>
</svg>
