<svg width="20" height="20" viewBox="0 0 20 20" fill="none" xmlns="http://www.w3.org/2000/svg">
<path d="M5.92449 11.4655C7.32676 11.4655 8.46301 12.6114 8.46301 14.0255V17.44C8.46301 18.8532 7.32676 20 5.92449 20H2.53852C1.13626 20 0 18.8532 0 17.44V14.0255C0 12.6114 1.13626 11.4655 2.53852 11.4655H5.92449ZM17.4615 11.4655C18.8637 11.4655 20 12.6114 20 14.0255V17.44C20 18.8532 18.8637 20 17.4615 20H14.0755C12.6732 20 11.537 18.8532 11.537 17.44V14.0255C11.537 12.6114 12.6732 11.4655 14.0755 11.4655H17.4615ZM5.92449 0C7.32676 0 8.46301 1.14585 8.46301 2.55996V5.97452C8.46301 7.38864 7.32676 8.53449 5.92449 8.53449H2.53852C1.13626 8.53449 0 7.38864 0 5.97452V2.55996C0 1.14585 1.13626 0 2.53852 0H5.92449Z" fill="white"/>
</svg>
