<svg width="16" height="17" viewBox="0 0 16 17" fill="none" xmlns="http://www.w3.org/2000/svg">
<path fill-rule="evenodd" clip-rule="evenodd" d="M11.125 1.5V0.875C11.125 0.529822 11.4048 0.25 11.75 0.25C12.0952 0.25 12.375 0.529822 12.375 0.875V1.5H14.25C14.25 1.5 14.7678 1.5 15.1339 1.86612C15.1339 1.86612 15.5 2.23223 15.5 2.75V15.25C15.5 15.25 15.5 15.7678 15.1339 16.1339C15.1339 16.1339 14.7678 16.5 14.25 16.5H1.75C1.75 16.5 1.23223 16.5 0.866116 16.1339C0.866116 16.1339 0.5 15.7678 0.5 15.25V2.75C0.5 2.75 0.5 2.23223 0.866117 1.86612C0.866117 1.86612 1.23223 1.5 1.75 1.5H3.625V0.875C3.625 0.529822 3.90482 0.25 4.25 0.25C4.59518 0.25 4.875 0.529822 4.875 0.875V1.5H11.125ZM1.75 6.5V15.25H14.25V6.5H1.75ZM14.25 5.25H1.75V2.75H3.625V3.375C3.625 3.72018 3.90482 4 4.25 4C4.59518 4 4.875 3.72018 4.875 3.375V2.75H11.125V3.375C11.125 3.72018 11.4048 4 11.75 4C12.0952 4 12.375 3.72018 12.375 3.375V2.75H14.25V5.25Z" fill="#B5B5C3"/>
</svg>
