<svg width="19" height="19" viewBox="0 0 19 19" fill="none" xmlns="http://www.w3.org/2000/svg">
<path d="M14.3125 4.03125V14.7188C14.3125 14.8679 14.2532 15.011 14.1477 15.1165C14.0422 15.2219 13.8991 15.2812 13.75 15.2812H4.75C4.60086 15.2812 4.45776 15.2219 4.35229 15.1165C4.24683 15.011 4.1875 14.8679 4.1875 14.7188V4.03125H14.3125Z" fill="#F9F9F9"/>
<path d="M15.4375 3.46875H3.0625C2.75184 3.46875 2.5 3.72059 2.5 4.03125C2.5 4.34191 2.75184 4.59375 3.0625 4.59375H15.4375C15.7482 4.59375 16 4.34191 16 4.03125C16 3.72059 15.7482 3.46875 15.4375 3.46875Z" fill="#C4CCD0"/>
<path d="M6.4375 2.34375H12.0625C12.3732 2.34375 12.625 2.09191 12.625 1.78125C12.625 1.47059 12.3732 1.21875 12.0625 1.21875H6.4375C6.12684 1.21875 5.875 1.47059 5.875 1.78125C5.875 2.09191 6.12684 2.34375 6.4375 2.34375Z" fill="#C4CCD0"/>
<path d="M4.75 14.7188V4.03125C4.75 3.72059 4.49816 3.46875 4.1875 3.46875C3.87684 3.46875 3.625 3.72059 3.625 4.03125V14.7188C3.625 15.1847 3.95451 15.5142 3.95451 15.5142C4.28401 15.8438 4.75 15.8438 4.75 15.8438H13.75C14.216 15.8438 14.5455 15.5142 14.5455 15.5142C14.875 15.1847 14.875 14.7188 14.875 14.7188V4.03125C14.875 3.72059 14.6232 3.46875 14.3125 3.46875C14.0018 3.46875 13.75 3.72059 13.75 4.03125V14.7188H4.75Z" fill="#C4CCD0"/>
</svg>
