<svg width="61" height="10" viewBox="0 0 61 10" fill="none" xmlns="http://www.w3.org/2000/svg">
<path d="M23.9609 9.73001C21.069 9.73001 18.8226 7.60785 18.8226 4.86917C18.8226 2.16375 21.1246 0 23.9998 0C24.8221 0 25.5045 0.166693 26.3362 0.569142V2.70686C25.5487 1.96452 24.861 1.65933 23.9609 1.65933C22.177 1.65933 20.7796 3.07243 20.7796 4.85615C20.7796 6.74401 22.1331 8.06706 24.044 8.06706C24.9079 8.06706 25.5756 7.77852 26.3362 7.04702V9.18727C25.4754 9.57598 24.7764 9.73001 23.9609 9.73001Z" fill="#E6772F"/>
<path d="M15.4232 3.77971C14.2817 3.37907 13.948 3.11222 13.948 2.60889C13.948 2.02384 14.5443 1.58017 15.3643 1.58017C15.9326 1.58017 16.4008 1.79784 16.8996 2.32974L17.887 1.09021C17.0711 0.403191 16.0947 0.0553418 15.0302 0.0553418C13.3079 0.0553418 11.9952 1.20194 11.9952 2.71809C11.9952 4.00535 12.6054 4.65838 14.3863 5.2785C15.1308 5.52619 15.509 5.69542 15.7006 5.81004C16.08 6.04471 16.2689 6.38099 16.2689 6.7697C16.2689 7.52723 15.6416 8.08408 14.7937 8.08408C13.891 8.08408 13.1605 7.65162 12.7233 6.83949L11.4998 7.97343C12.3745 9.19994 13.4231 9.74811 14.8678 9.74811C16.838 9.74811 18.2263 8.4858 18.2263 6.68798C18.2263 5.20655 17.5824 4.53508 15.4232 3.77971Z" fill="#E6772F"/>
<path fillRule="evenodd" clipRule="evenodd" d="M0 0.210383H2.78908C5.86572 0.210383 8.01204 2.11994 8.01204 4.8691C8.01204 6.24242 7.35416 7.56801 6.24548 8.44595C5.31214 9.18721 4.24729 9.52312 2.77207 9.52312H0V0.210383ZM2.40855 7.94517C3.63701 7.94517 4.40523 7.71954 5.00869 7.20355C5.66203 6.64779 6.05464 5.75358 6.05464 4.85611C6.05464 3.96299 5.66203 3.09951 5.00869 2.53977C4.37575 1.99811 3.63701 1.78767 2.40855 1.78767H1.8988V7.94517H2.40855Z" fill="#E6772F"/>
<path d="M10.7788 0.210383H8.88755V9.52312H10.7788V0.210383Z" fill="#E6772F"/>
<path d="M41.7126 6.46263L39.1174 0.210383H37.0481L41.1738 9.75816H42.1914L46.3971 0.210383H44.3441L41.7126 6.46263Z" fill="#E6772F"/>
<path d="M52.6403 9.52312H47.2583V0.210383H52.6403V1.78764H49.1571V3.85376H52.5081V5.43138H49.1571V7.94515H52.6403V9.52312Z" fill="#E6772F"/>
<path fillRule="evenodd" clipRule="evenodd" d="M60.1536 2.9581C60.1536 1.21416 58.9035 0.210383 56.7123 0.210383H53.8933V9.52312H55.7963V5.77886H56.0431L58.6651 9.52312H61L57.9381 5.59807C59.3691 5.3182 60.1536 4.38313 60.1536 2.9581ZM56.3472 4.49278H55.7963V1.676H56.3782C57.564 1.676 58.1992 2.15221 58.1992 3.05944C58.1992 3.99162 57.564 4.49278 56.3472 4.49278Z" fill="#E6772F"/>
<path d="M32.2424 9.74512C35.0454 9.74512 37.3157 7.57197 37.3157 4.89078C37.3157 2.20923 35.0454 0.0357189 32.2424 0.0357189C29.4401 0.0357189 27.1694 2.20923 27.1694 4.89078C27.1694 7.57197 29.4401 9.74512 32.2424 9.74512Z" fill="#E6772F"/>
</svg>
