<svg width="162" height="165" viewBox="0 0 162 165" fill="none" xmlns="http://www.w3.org/2000/svg">
<circle cx="80.5" cy="80" r="80" fill="#FBECFF"/>
<path fillRule="evenodd" clipRule="evenodd" d="M80.5 58.875C80.5 58.875 83.4744 58.875 86.1932 60.025C86.1932 60.025 88.8181 61.1352 90.8414 63.1586C90.8414 63.1586 92.8648 65.1819 93.975 67.8068C93.975 67.8068 95.125 70.5256 95.125 73.5C95.125 73.5 95.125 76.4744 93.975 79.1932C93.975 79.1932 92.8648 81.8181 90.8414 83.8414C90.8414 83.8414 88.8181 85.8648 86.1932 86.975C86.1932 86.975 83.4744 88.125 80.5 88.125C80.5 88.125 77.5256 88.125 74.8068 86.975C74.8068 86.975 72.1819 85.8648 70.1586 83.8414C70.1586 83.8414 68.1352 81.8181 67.025 79.1932C67.025 79.1932 65.875 76.4744 65.875 73.5C65.875 73.5 65.875 70.5256 67.025 67.8068C67.025 67.8068 68.1352 65.1819 70.1586 63.1586C70.1586 63.1586 72.1819 61.1352 74.8068 60.025C74.8068 60.025 77.5256 58.875 80.5 58.875ZM80.5 62.125C80.5 62.125 75.7883 62.125 72.4567 65.4567C72.4567 65.4567 69.125 68.7883 69.125 73.5C69.125 73.5 69.125 78.2117 72.4567 81.5433C72.4567 81.5433 75.7883 84.875 80.5 84.875C80.5 84.875 85.2117 84.875 88.5433 81.5433C88.5433 81.5433 91.875 78.2117 91.875 73.5C91.875 73.5 91.875 68.7883 88.5433 65.4567C88.5433 65.4567 85.2117 62.125 80.5 62.125Z" fill="#8530C1"/>
<path d="M91.0633 90.9539C95.9657 93.7846 98.7958 98.6874 98.7958 98.6874C99.0112 99.0607 99.3661 99.333 99.7824 99.4446C99.9196 99.4814 100.061 99.5 100.203 99.5C100.22 99.5 100.237 99.4998 100.254 99.4992C100.522 99.4908 100.783 99.4163 101.015 99.2824C101.518 98.9921 101.828 98.4556 101.828 97.875C101.828 97.8499 101.828 97.8249 101.826 97.7998C101.814 97.5404 101.74 97.2876 101.61 97.0627C98.3451 91.4056 92.6885 88.1394 92.6885 88.1394C87.0319 84.8732 80.5 84.8732 80.5 84.8732C73.9681 84.8732 68.3115 88.1394 68.3115 88.1394C62.6554 91.4053 59.39 97.0618 59.39 97.0618C59.2474 97.3088 59.1719 97.5898 59.1719 97.875L59.1721 97.9044C59.1745 98.0366 59.1931 98.168 59.2273 98.2958C59.3389 98.712 59.6112 99.0669 59.9845 99.2824C60.2315 99.425 60.5117 99.5 60.7969 99.5C60.827 99.5 60.857 99.4992 60.887 99.4975C61.4347 99.4671 61.93 99.1624 62.2042 98.6874C65.0343 93.7846 69.9367 90.9539 69.9367 90.9539C74.8391 88.1232 80.5 88.1232 80.5 88.1232C86.1609 88.1232 91.0633 90.9539 91.0633 90.9539Z" fill="#8530C1"/>
<circle cx="135.5" cy="139" r="26" fill="white"/>
<path d="M143.5 132.25H140.903L139.628 130.338C139.56 130.233 139.467 130.147 139.357 130.088C139.248 130.029 139.125 129.999 139 130H133C132.875 129.999 132.752 130.029 132.643 130.088C132.533 130.147 132.44 130.233 132.372 130.338L131.097 132.25H128.5C127.904 132.252 127.333 132.49 126.912 132.912C126.49 133.333 126.252 133.904 126.25 134.5V145C126.252 145.596 126.49 146.167 126.912 146.588C127.333 147.01 127.904 147.248 128.5 147.25H143.5C144.096 147.248 144.667 147.01 145.088 146.588C145.51 146.167 145.748 145.596 145.75 145V134.5C145.748 133.904 145.51 133.333 145.088 132.912C144.667 132.49 144.096 132.252 143.5 132.25ZM139.375 139.375C139.375 140.043 139.177 140.695 138.806 141.25C138.435 141.805 137.908 142.238 137.292 142.493C136.675 142.749 135.996 142.815 135.342 142.685C134.687 142.555 134.086 142.234 133.614 141.762C133.142 141.29 132.82 140.688 132.69 140.033C132.56 139.379 132.626 138.7 132.882 138.083C133.137 137.467 133.57 136.94 134.125 136.569C134.68 136.198 135.332 136 136 136C136.895 136 137.754 136.356 138.386 136.989C139.019 137.621 139.375 138.48 139.375 139.375Z" fill="#8530C1"/>
</svg>
