<svg width="19" height="19" viewBox="0 0 19 19" fill="none" xmlns="http://www.w3.org/2000/svg">
<path fill-rule="evenodd" clip-rule="evenodd" d="M17.9944 7.31817L6.53033 18.7822C6.38968 18.9229 6.19891 19.0019 6 19.0019H1.5C1.5 19.0019 0.87868 19.0019 0.439341 18.5625C0.439341 18.5625 2.92668e-07 18.1232 2.92668e-07 17.5019L3.37372e-07 13.3112C3.37372e-07 13.3112 -0.00103598 13.017 0.111763 12.7423C0.111763 12.7423 0.224563 12.4677 0.433985 12.2572L11.6853 1.00592C11.6853 1.00592 11.8927 0.795277 12.1707 0.678888C12.1707 0.678888 12.4486 0.5625 12.75 0.5625C12.75 0.5625 13.0514 0.5625 13.3293 0.678889C13.3293 0.678889 13.6073 0.795276 13.8187 1.00999L17.996 5.18717C17.996 5.18717 18.2066 5.39458 18.323 5.67255C18.323 5.67255 18.4394 5.95052 18.4394 6.25187C18.4394 6.25187 18.4394 6.55322 18.323 6.83119C18.323 6.83119 18.2077 7.10651 17.996 7.31658L17.9944 7.31817ZM16.9394 6.25187L16.9353 6.24783L12.75 2.0625L12.746 2.06658L1.5 13.3125V17.5019H5.68934L16.9353 6.25592L16.9394 6.25187Z" fill="#8530C1"/>
<path d="M17.25 17.502H5.99999C5.58578 17.502 5.24999 17.8377 5.24999 18.252C5.24999 18.6662 5.58579 19.0019 6 19.0019L17.25 19.002C17.6642 19.002 18 18.6662 18 18.252C18 17.8377 17.6642 17.502 17.25 17.502Z" fill="#8530C1"/>
<path d="M14.4693 9.7819C14.6099 9.92255 14.8011 10.002 15 10.002C15.1989 10.002 15.3897 9.92294 15.5303 9.78228C15.671 9.64163 15.75 9.45087 15.75 9.25195C15.75 9.05304 15.671 8.86228 15.5303 8.72162L10.2804 3.47171C10.1397 3.33097 9.9489 3.25195 9.74999 3.25195C9.55108 3.25195 9.36031 3.33097 9.21966 3.47162C9.07901 3.61228 8.99999 3.80304 8.99999 4.00195C8.99999 4.20087 9.07901 4.39163 9.21966 4.53228L14.4693 9.7819Z" fill="#8530C1"/>
</svg>
