<svg width="21" height="19" viewBox="0 0 21 19" fill="none" xmlns="http://www.w3.org/2000/svg">
<path fillRule="evenodd" clipRule="evenodd" d="M15.2711 0.833496C18.3236 0.833496 20.6253 3.32408 20.6253 6.62683V12.9225C20.6253 14.6128 20.0277 16.14 18.9414 17.2235C17.967 18.1942 16.7029 18.7085 15.2857 18.7085H6.25383C4.83941 18.7085 3.57624 18.1952 2.60091 17.2235C1.51466 16.14 0.916992 14.6128 0.916992 12.9225V6.62683C0.916992 3.32408 3.21874 0.833496 6.27124 0.833496H15.2711ZM15.2711 2.2085H6.27124C3.96583 2.2085 2.29199 4.06658 2.29199 6.62683V12.9225C2.29199 14.2452 2.74666 15.4268 3.57166 16.2491C4.28299 16.9595 5.21158 17.3335 6.25658 17.3335H15.2711C15.2729 17.3317 15.2802 17.3335 15.2857 17.3335C16.3317 17.3335 17.2593 16.9595 17.9707 16.2491C18.7966 15.4268 19.2503 14.2452 19.2503 12.9225V6.62683C19.2503 4.06658 17.5765 2.2085 15.2711 2.2085ZM16.7157 6.45156C16.955 6.74581 16.9101 7.17848 16.6158 7.41865L12.5422 10.7296C12.027 11.1385 11.411 11.3429 10.7959 11.3429C10.1827 11.3429 9.57124 11.1403 9.05974 10.7351L4.94849 7.42048C4.65241 7.18215 4.60658 6.74856 4.84399 6.4534C5.08324 6.15915 5.51591 6.1124 5.81108 6.34981L9.91866 9.66081C10.4347 10.0696 11.1617 10.0696 11.6814 9.65715L15.7477 6.35165C16.0429 6.11056 16.4756 6.1564 16.7157 6.45156Z" fill="#A7A7A7"/>
</svg>
