<svg width="26" height="22" viewBox="0 0 26 22" fill="none" xmlns="http://www.w3.org/2000/svg">
<path d="M19.7071 0.292893C19.5196 0.105357 19.2652 0 19 0C18.7348 0 18.4804 0.105357 18.2929 0.292893C18.1054 0.48043 18 0.734784 18 1C18 1.26522 18.1054 1.51957 18.2929 1.70711L23.5858 7L18.2933 12.2925C18.1057 12.4801 18 12.7348 18 13C18 13.016 18.0004 13.032 18.0012 13.048C18.0131 13.2964 18.1171 13.5313 18.2929 13.7071C18.4804 13.8946 18.7348 14 19 14C19.2652 14 19.5196 13.8946 19.7071 13.7071L25.7071 7.70711C25.8946 7.51957 26 7.26522 26 7C26 6.73478 25.8946 6.48043 25.7071 6.29289L19.7071 0.292893Z" fill="#1C1C1C"/>
<path d="M2 20V5C2 4.44772 1.55228 4 1 4C0.447715 4 0 4.44772 0 5V20C0 20.8284 0.585787 21.4142 0.585787 21.4142C1.17157 22 2 22 2 22H21C21.5523 22 22 21.5523 22 21C22 20.4477 21.5523 20 21 20H2Z" fill="#1C1C1C"/>
<path d="M18 8H25C25.5523 8 26 7.55228 26 7C26 6.44771 25.5523 6 25 6H18C13.5535 6.00134 10.0377 8.72321 10.0377 8.72321C6.52241 11.4447 5.40723 15.7482 5.40723 15.7482L5.40696 15.7492C5.38574 15.8311 5.375 15.9154 5.375 16C5.375 16.0133 5.37527 16.0266 5.37579 16.0398C5.38236 16.2046 5.42955 16.3651 5.51316 16.5072C5.64767 16.7358 5.86748 16.9015 6.12422 16.968C6.20612 16.9893 6.29039 17 6.375 17L6.40027 16.9997C6.84643 16.9884 7.23112 16.6828 7.34304 16.2508C8.28669 12.6082 11.2621 10.3047 11.2621 10.3047C14.2374 8.00114 18 8 18 8Z" fill="#1C1C1C"/>
</svg>
