<svg width="27" height="27" viewBox="0 0 27 27" fill="none" xmlns="http://www.w3.org/2000/svg">
<path d="M22.283 11.9718H18.9288V9.99975C18.9288 9.45981 19.0099 9.14883 19.1651 8.9641C19.3034 8.7996 19.6014 8.62183 20.3455 8.62183H22.3993H22.9201V8.101V4.6135V4.14658L22.456 4.09576C21.4432 3.98486 20.425 3.93204 19.4062 3.93756C18.6531 3.88686 17.8978 4.00002 17.1925 4.26932C16.4808 4.54106 15.8372 4.96523 15.3068 5.51206C14.7763 6.05889 14.372 6.71515 14.122 7.43481C13.875 8.14591 13.7847 8.90189 13.8572 9.65096V12.0106H11.0197H10.4988V12.5314V16.4064V16.9272H11.0197H13.8572V25.896H2.00384C1.88565 25.896 1.76862 25.8727 1.65943 25.8275C1.55023 25.7823 1.45102 25.716 1.36745 25.6324C1.28387 25.5488 1.21758 25.4496 1.17235 25.3404L0.692492 25.5392L1.17235 25.3404C1.12712 25.2312 1.10384 25.1142 1.10384 24.996V2.00433C1.10384 1.76563 1.19866 1.53672 1.36745 1.36793C1.53623 1.19915 1.76515 1.10433 2.00384 1.10433H24.9955C25.1137 1.10433 25.2307 1.12761 25.3399 1.17284L25.5387 0.69298L25.3399 1.17284C25.4491 1.21807 25.5483 1.28436 25.6319 1.36793C25.7155 1.4515 25.7818 1.55072 25.827 1.65991C25.8722 1.76911 25.8955 1.88614 25.8955 2.00433V24.996C25.8955 25.1142 25.8722 25.2312 25.827 25.3404C25.7818 25.4496 25.7155 25.5488 25.6319 25.6324L26.0002 26.0007L25.6319 25.6324C25.5483 25.716 25.4491 25.7823 25.3399 25.8275C25.2307 25.8727 25.1137 25.896 24.9955 25.896H18.9288V16.8885H21.7793H22.2368L22.2957 16.4348L22.7995 12.5598L22.8759 11.9718H22.283Z" fill="#151515" stroke="#151515" stroke-width="1.04167"/>
</svg>
