<svg width="45" height="44" viewBox="0 0 45 44" fill="none" xmlns="http://www.w3.org/2000/svg">
<path d="M24.48 14.47L22.5 12" stroke="#8530C1" stroke-width="1.5" stroke-linecap="round" stroke-linejoin="round"/>
<path d="M29.5894 17.7988C30.6994 19.2788 31.3894 21.1088 31.3894 23.1088C31.3894 28.0188 27.4094 31.9988 22.4994 31.9988C17.5894 31.9988 13.6094 28.0188 13.6094 23.1088C13.6094 18.1988 17.5894 14.2188 22.4994 14.2188C23.1794 14.2188 23.8394 14.3088 24.4794 14.4588" stroke="#8530C1" stroke-width="1.5" stroke-linecap="round" stroke-linejoin="round"/>
<path d="M20.0391 25.9181V20.5781L18.5391 22.2481" stroke="#8530C1" stroke-width="1.5" stroke-linecap="round" stroke-linejoin="round"/>
<path d="M24.5 20.5781C25.6 20.5781 26.5 21.4781 26.5 22.5781V23.9281C26.5 25.0281 25.6 25.9281 24.5 25.9281C23.4 25.9281 22.5 25.0281 22.5 23.9281V22.5781C22.5 21.4681 23.4 20.5781 24.5 20.5781Z" stroke="#8530C1" stroke-width="1.5" stroke-linecap="round" stroke-linejoin="round"/>
</svg>
