<svg width="45" height="44" viewBox="0 0 45 44" fill="none" xmlns="http://www.w3.org/2000/svg">
<path d="M20.0415 26.6669C19.6315 26.6669 19.2915 26.3269 19.2915 25.9169V22.5269L19.1015 22.7469C18.8215 23.0569 18.3515 23.0769 18.0415 22.8069C17.7315 22.5269 17.7115 22.0569 17.9815 21.7469L19.4815 20.0769C19.6915 19.8469 20.0215 19.7669 20.3115 19.8769C20.6015 19.9869 20.7915 20.2669 20.7915 20.5769V25.9269C20.7915 26.3369 20.4615 26.6669 20.0415 26.6669Z" fill="#8530C1"/>
<path d="M22.5011 13.4836C22.4211 13.4836 22.3411 13.4936 22.2611 13.4936L23.0811 12.4736C23.3411 12.1536 23.2911 11.6736 22.9611 11.4236C22.6411 11.1636 22.1711 11.2136 21.9111 11.5436L19.9411 14.0036C19.9311 14.0136 19.9311 14.0236 19.9211 14.0436C19.8911 14.0836 19.8711 14.1336 19.8511 14.1736C19.8311 14.2236 19.8111 14.2636 19.8011 14.3036C19.7911 14.3536 19.7911 14.3936 19.7911 14.4436C19.7911 14.4936 19.7911 14.5436 19.7911 14.5936C19.7911 14.6136 19.7911 14.6236 19.7911 14.6436C19.8011 14.6736 19.8211 14.6936 19.8311 14.7336C19.8511 14.7836 19.8611 14.8236 19.8911 14.8636C19.9211 14.9036 19.9511 14.9436 19.9911 14.9836C20.0111 15.0036 20.0311 15.0336 20.0511 15.0536C20.0611 15.0636 20.0811 15.0636 20.0911 15.0736C20.1211 15.0936 20.1511 15.1136 20.1911 15.1236C20.2411 15.1536 20.2911 15.1736 20.3411 15.1836C20.3811 15.2036 20.4111 15.2036 20.4511 15.2036C20.4811 15.2036 20.5011 15.2136 20.5311 15.2136C20.5511 15.2136 20.5811 15.2036 20.6011 15.1936C20.6311 15.1936 20.6611 15.1936 20.7011 15.1936C21.3411 15.0436 21.9411 14.9736 22.5111 14.9736C27.0011 14.9736 30.6511 18.6236 30.6511 23.1136C30.6511 27.6036 27.0011 31.2536 22.5111 31.2536C18.0211 31.2536 14.3711 27.6036 14.3711 23.1136C14.3711 21.3736 14.9411 19.6936 16.0211 18.2536C16.2711 17.9236 16.2011 17.4536 15.8711 17.2036C15.5411 16.9536 15.0711 17.0236 14.8211 17.3536C13.5411 19.0536 12.8711 21.0436 12.8711 23.1136C12.8711 28.4236 17.1911 32.7536 22.5111 32.7536C27.8311 32.7536 32.1511 28.4336 32.1511 23.1136C32.1511 17.7936 27.8111 13.4836 22.5011 13.4836Z" fill="#8530C1"/>
<path d="M24.5 26.6703C22.98 26.6703 21.75 25.4403 21.75 23.9203V22.5703C21.75 21.0503 22.98 19.8203 24.5 19.8203C26.02 19.8203 27.25 21.0503 27.25 22.5703V23.9203C27.25 25.4403 26.02 26.6703 24.5 26.6703ZM24.5 21.3303C23.81 21.3303 23.25 21.8903 23.25 22.5803V23.9303C23.25 24.6203 23.81 25.1803 24.5 25.1803C25.19 25.1803 25.75 24.6203 25.75 23.9303V22.5803C25.75 21.8903 25.19 21.3303 24.5 21.3303Z" fill="#8530C1"/>
</svg>
