<svg width="25" height="26" viewBox="0 0 25 26" fill="none" xmlns="http://www.w3.org/2000/svg">
<g filter="url(#filter0_ii_4493_3424)">
<path d="M1.43956 0.533938C1.14856 0.841938 0.976562 1.31994 0.976562 1.93894V24.0549C0.976562 24.6749 1.14856 25.1519 1.43956 25.4599L1.51356 25.5319L13.9026 13.1429V12.9969V12.8509L1.51356 0.460938L1.43956 0.533938Z" fill="url(#paint0_linear_4493_3424)"/>
<path d="M18.0352 17.2796L13.9062 13.1486V13.0026V12.8566L18.0362 8.72656L18.1293 8.77956L23.0222 11.5596C24.4192 12.3536 24.4192 13.6526 23.0222 14.4476L18.1293 17.2276L18.0352 17.2796Z" fill="url(#paint1_linear_4493_3424)"/>
<g filter="url(#filter1_i_4493_3424)">
<path d="M18.1235 17.224L13.8995 13L1.4375 25.463C1.8975 25.951 2.6585 26.011 3.5155 25.525L18.1235 17.224Z" fill="url(#paint2_linear_4493_3424)"/>
</g>
<path d="M18.1235 8.7767L3.5155 0.4767C2.6585 -0.0102998 1.8975 0.0507005 1.4375 0.5387L13.9005 13.0017L18.1235 8.7767Z" fill="url(#paint3_linear_4493_3424)"/>
</g>
<defs>
<filter id="filter0_ii_4493_3424" x="0.976562" y="0.140625" width="23.0938" height="25.7188" filterUnits="userSpaceOnUse" color-interpolation-filters="sRGB">
<feFlood flood-opacity="0" result="BackgroundImageFix"/>
<feBlend mode="normal" in="SourceGraphic" in2="BackgroundImageFix" result="shape"/>
<feColorMatrix in="SourceAlpha" type="matrix" values="0 0 0 0 0 0 0 0 0 0 0 0 0 0 0 0 0 0 127 0" result="hardAlpha"/>
<feOffset dy="-0.15"/>
<feComposite in2="hardAlpha" operator="arithmetic" k2="-1" k3="1"/>
<feColorMatrix type="matrix" values="0 0 0 0 0 0 0 0 0 0 0 0 0 0 0 0 0 0 0.12 0"/>
<feBlend mode="normal" in2="shape" result="effect1_innerShadow_4493_3424"/>
<feColorMatrix in="SourceAlpha" type="matrix" values="0 0 0 0 0 0 0 0 0 0 0 0 0 0 0 0 0 0 127 0" result="hardAlpha"/>
<feOffset dy="0.15"/>
<feComposite in2="hardAlpha" operator="arithmetic" k2="-1" k3="1"/>
<feColorMatrix type="matrix" values="0 0 0 0 1 0 0 0 0 1 0 0 0 0 1 0 0 0 0.25 0"/>
<feBlend mode="normal" in2="effect1_innerShadow_4493_3424" result="effect2_innerShadow_4493_3424"/>
</filter>
<filter id="filter1_i_4493_3424" x="1.4375" y="13" width="16.6875" height="12.8594" filterUnits="userSpaceOnUse" color-interpolation-filters="sRGB">
<feFlood flood-opacity="0" result="BackgroundImageFix"/>
<feBlend mode="normal" in="SourceGraphic" in2="BackgroundImageFix" result="shape"/>
<feColorMatrix in="SourceAlpha" type="matrix" values="0 0 0 0 0 0 0 0 0 0 0 0 0 0 0 0 0 0 127 0" result="hardAlpha"/>
<feOffset dy="-0.15"/>
<feComposite in2="hardAlpha" operator="arithmetic" k2="-1" k3="1"/>
<feColorMatrix type="matrix" values="0 0 0 0 0 0 0 0 0 0 0 0 0 0 0 0 0 0 0.08 0"/>
<feBlend mode="normal" in2="shape" result="effect1_innerShadow_4493_3424"/>
</filter>
<linearGradient id="paint0_linear_4493_3424" x1="12.8044" y1="1.70494" x2="-3.97764" y2="18.4869" gradientUnits="userSpaceOnUse">
<stop stop-color="#00A0FF"/>
<stop offset="0.0066" stop-color="#00A1FF"/>
<stop offset="0.2601" stop-color="#00BEFF"/>
<stop offset="0.5122" stop-color="#00D2FF"/>
<stop offset="0.7604" stop-color="#00DFFF"/>
<stop offset="1" stop-color="#00E3FF"/>
</linearGradient>
<linearGradient id="paint1_linear_4493_3424" x1="24.8407" y1="13.0026" x2="0.644851" y2="13.0026" gradientUnits="userSpaceOnUse">
<stop stop-color="#FFE000"/>
<stop offset="0.4087" stop-color="#FFBD00"/>
<stop offset="0.7754" stop-color="#FFA500"/>
<stop offset="1" stop-color="#FF9C00"/>
</linearGradient>
<linearGradient id="paint2_linear_4493_3424" x1="15.8296" y1="15.2939" x2="-6.9289" y2="38.0524" gradientUnits="userSpaceOnUse">
<stop stop-color="#FF3A44"/>
<stop offset="1" stop-color="#C31162"/>
</linearGradient>
<linearGradient id="paint3_linear_4493_3424" x1="-1.7011" y1="-6.8235" x2="8.4612" y2="3.3388" gradientUnits="userSpaceOnUse">
<stop stop-color="#32A071"/>
<stop offset="0.0685" stop-color="#2DA771"/>
<stop offset="0.4762" stop-color="#15CF74"/>
<stop offset="0.8009" stop-color="#06E775"/>
<stop offset="1" stop-color="#00F076"/>
</linearGradient>
</defs>
</svg>
