<svg width="58" height="24" viewBox="0 0 58 24" fill="none" xmlns="http://www.w3.org/2000/svg">
<path fill-rule="evenodd" clip-rule="evenodd" d="M26.4658 18.7695V11.7265H30.1008C31.5903 11.7265 32.8475 11.2274 33.8724 10.243L34.1184 9.99346C35.9906 7.95543 35.8676 4.78054 33.8724 2.89502C32.8749 1.8968 31.5083 1.3561 30.1008 1.38383H24.2656V18.7695H26.4658ZM26.4629 9.59154V3.51904H30.1532C30.9459 3.51904 31.6976 3.82405 32.258 4.37862C33.4471 5.54321 33.4744 7.48419 32.3263 8.69037C31.7659 9.28653 30.9732 9.61927 30.1532 9.59154H26.4629ZM44.3836 7.80342C43.4407 6.92998 42.1561 6.48633 40.53 6.48633C38.4391 6.48633 36.8676 7.26272 35.829 8.80164L37.7695 10.0355C38.4801 8.98187 39.4504 8.45504 40.6803 8.45504C41.4592 8.45504 42.2108 8.74618 42.7984 9.27302C43.3724 9.77213 43.7003 10.4931 43.7003 11.2556V11.7686C42.8531 11.2972 41.7872 11.0476 40.4753 11.0476C38.9448 11.0476 37.7149 11.4081 36.7993 12.1429C35.8837 12.8777 35.4191 13.8482 35.4191 15.0821C35.3917 16.2051 35.87 17.2726 36.7173 17.9936C37.5782 18.77 38.6715 19.1582 39.956 19.1582C41.4729 19.1582 42.6754 18.4788 43.591 17.1201H43.6867V18.77H45.7912V11.4358C45.7912 9.89691 45.3265 8.67686 44.3836 7.80342ZM38.4119 16.5796C37.9609 16.2468 37.6875 15.7061 37.6875 15.1238C37.6875 14.4722 37.9882 13.9315 38.5759 13.5017C39.1773 13.0719 39.929 12.8501 40.8174 12.8501C42.0475 12.8362 43.0042 13.1135 43.6876 13.6681C43.6876 14.6108 43.3186 15.4288 42.5942 16.122C41.9381 16.7875 41.0497 17.1618 40.1203 17.1618C39.5053 17.1757 38.9039 16.9678 38.4119 16.5796ZM50.5155 23.9962L57.8675 6.87402H55.4761L52.0734 15.4143H52.0324L48.5477 6.87402H46.1562L50.9802 18.0069L48.2471 23.9962H50.5155Z" fill="#3C4043"/>
<path d="M19.4741 10.2039C19.4741 9.52451 19.4194 8.84517 19.3101 8.17969H10.0312V12.0201H15.3471C15.1285 13.254 14.4179 14.3631 13.3793 15.0563V17.5518H16.5497C18.4082 15.8188 19.4741 13.254 19.4741 10.2039Z" fill="#4285F4"/>
<path d="M10.0291 19.9674C12.6802 19.9674 14.9213 19.0801 16.5475 17.555L13.3771 15.0595C12.4889 15.6695 11.3546 16.0161 10.0291 16.0161C7.45997 16.0161 5.28716 14.2553 4.50823 11.8984H1.24219V14.4772C2.90937 17.8462 6.31207 19.9674 10.0291 19.9674Z" fill="#34A853"/>
<path d="M4.50989 11.8992C4.09986 10.6653 4.09986 9.32045 4.50989 8.07268V5.50781H1.24332C-0.164442 8.32223 -0.164442 11.6496 1.24332 14.464L4.50989 11.8992Z" fill="#FBBC04"/>
<path d="M10.0291 3.95188C11.4366 3.92416 12.7895 4.46486 13.8007 5.44921L16.6158 2.5932C14.8257 0.901773 12.4752 -0.0271249 10.0291 0.000603381C6.31207 0.000603381 2.90937 2.13568 1.24219 5.50467L4.50823 8.0834C5.28716 5.71263 7.45997 3.95188 10.0291 3.95188Z" fill="#EA4335"/>
</svg>
