<svg width="1281" height="898" viewBox="0 0 1281 898" fill="none" xmlns="http://www.w3.org/2000/svg">
<path d="M233.793 67C233.632 70.7232 230.82 73.7679 226.999 73.7947C223.321 73.8214 220.169 70.6786 220.205 67C220.277 58.2054 233.427 58.259 233.793 67C233.882 69.0536 237.087 69.0625 236.998 67C236.766 61.5536 232.615 57.0268 226.999 57.0001C221.58 56.9822 216.982 61.5804 217 67C217.018 72.4375 221.544 77 226.999 77C232.454 77 236.766 72.4286 236.998 67C237.087 64.9375 233.882 64.9465 233.793 67Z" fill="#FBC70D"/>
<path d="M221.076 892C220.979 894.234 219.292 896.061 216.999 896.077C214.793 896.093 212.902 894.207 212.923 892C212.966 886.723 220.856 886.755 221.076 892C221.129 893.232 223.052 893.238 222.999 892C222.86 888.732 220.369 886.016 216.999 886C213.748 885.989 210.989 888.748 211 892C211.011 895.263 213.727 898 216.999 898C220.272 898 222.86 895.257 222.999 892C223.052 890.763 221.129 890.768 221.076 892Z" fill="#2BB457"/>
<path d="M590.41 838.641C589.85 839.277 589.591 839.939 589.299 840.702C588.994 841.499 588.698 842.096 587.661 841.94C587.147 841.861 586.527 841.356 586.175 841.055C584.732 839.83 583.477 837.974 581.284 838C579.678 838.022 578.567 839.19 578.243 840.589C577.762 842.654 578.373 844.785 577.91 846.881C577.706 847.805 577.234 850.472 575.985 850.559C574.92 850.633 573.986 849.234 573.435 848.589C572.38 847.352 570.964 846.254 569.159 846.676C567.224 847.129 566.165 848.842 565.757 850.55C565.248 852.672 565.022 854.895 564.772 857.065C563.809 857.043 562.833 856.267 561.888 856.097C561.069 855.949 560.246 856.119 559.551 856.559C557.649 857.788 557.784 859.91 558.441 861.736C558.584 862.137 559.195 862.063 559.218 861.636C559.274 860.756 559.348 859.819 559.695 858.991C560.283 857.592 561.375 857.562 562.638 858.111C563.703 858.577 564.651 859 565.827 858.625C566.109 858.533 566.396 858.329 566.456 858.032C566.914 855.727 567.127 853.339 567.71 851.06C567.993 849.949 568.816 848.093 570.418 848.502C571.32 848.733 571.945 849.705 572.509 850.332C573.5 851.426 574.976 852.542 576.619 852.245C578.493 851.91 579.252 849.644 579.706 848.154C580.317 846.145 580.15 844.227 580.168 842.179C580.178 841.09 580.349 839.464 582.052 840.114C583.098 840.515 583.806 841.526 584.597 842.227C585.736 843.242 587.411 844.232 589.031 843.704C591.012 843.059 590.646 841.194 591.766 839.913C592.543 839.024 591.201 837.739 590.41 838.636L590.41 838.641Z" fill="#F93649"/>
<path d="M34.9848 414.849C31.7518 414.389 28.3775 416.231 26.65 418.888C24.9263 421.54 24.6818 424.825 25.3907 427.788C25.6575 428.91 26.089 430.042 26.9632 430.836C27.8412 431.625 29.2748 431.978 30.3684 431.399C31.3687 430.87 31.8363 429.684 31.6416 428.652C31.2635 426.675 28.7601 425.58 26.6239 426.012C24.493 426.447 22.7808 428.02 21.6101 429.755C20.3166 431.662 19.5209 433.849 19.3075 436.061C19.2938 436.193 19.2989 436.351 19.4207 436.407C19.5426 436.463 19.6872 436.23 19.5496 436.216" stroke="#2BB457" stroke-width="2" stroke-linecap="round" stroke-linejoin="round"/>
<path d="M929.557 8.99038C928.336 8.76086 927.413 9.74494 926.763 10.7196C926.562 11.0214 926.405 11.4836 926.041 11.0277C925.819 10.751 925.784 10.0939 925.701 9.74808C925.465 8.76715 925.204 7.78936 924.926 6.82101C924.58 5.61999 924.104 4.46928 922.738 4.52273C921.31 4.57618 920.517 5.92811 919.784 7.05052C919.26 7.85224 918.737 8.65397 918.213 9.45254C917.867 9.98074 917.379 11.1094 916.794 11.3955C915.161 12.1941 914.993 8.52192 914.948 7.49068C914.892 6.1922 914.954 4.77425 914.531 3.53551C914.153 2.42567 913.162 1.54221 912.077 2.25904C911.524 2.62375 911.086 3.29028 910.681 3.81847C910.175 4.47871 909.72 5.17354 909.288 5.88409C909.131 5.40934 909.185 4.94403 909.093 4.34038C909.078 4.23663 909.016 3.76188 908.824 3.76817C907.245 3.80275 908.327 6.70153 908.859 7.33348C909.081 7.60072 909.531 7.63216 909.726 7.2989C910.226 6.44687 910.758 5.62314 911.349 4.84028C911.624 4.47557 912.089 3.66127 912.485 3.46634C913.325 3.04819 913.443 3.95995 913.541 4.44727C913.83 5.90295 913.677 7.4278 913.813 8.90234C913.928 10.1442 914.253 11.8168 915.253 12.6217C916.267 13.4392 917.394 12.8041 918.133 11.9269C919.349 10.4869 920.283 8.71999 921.36 7.16056C921.653 6.73297 922.093 5.98784 922.667 5.9847C923.474 5.98155 923.569 7.13541 923.723 7.70447C923.983 8.67912 924.208 9.66319 924.438 10.6473C924.693 11.7351 925.293 13.2977 926.639 12.9204C927.221 12.7569 927.538 12.2539 927.845 11.7477C928.079 11.3641 928.312 10.9239 928.67 10.6473C929.046 10.358 929.841 10.2543 929.96 10.9428C930.069 11.5716 930.9 11.5024 930.983 10.8956C931.116 9.90528 930.456 9.16015 929.56 8.99352L929.557 8.99038Z" fill="#447ADC"/>
<path d="M49.0623 732.387L53 730.254L48.8532 728.528C48.7472 728.485 48.6676 728.391 48.647 728.28L47.7664 724L44.7889 727.281C44.7123 727.366 44.5945 727.412 44.4826 727.395L40 726.882L42.3061 730.635C42.365 730.732 42.3738 730.852 42.3237 730.954L40.4329 734.918L44.836 733.956C44.8625 733.95 44.889 733.947 44.9155 733.947C45.0039 733.947 45.0893 733.979 45.157 734.038L48.4733 737L48.8885 732.654C48.9003 732.543 48.9681 732.444 49.0682 732.387H49.0623Z" fill="#8530C1"/>
<circle cx="5" cy="149" r="5" fill="#ED1C24"/>
<circle cx="261" cy="427" r="5" fill="#FBC70D"/>
<path d="M909.076 892C908.979 894.234 907.292 896.061 904.999 896.077C902.793 896.093 900.902 894.207 900.923 892C900.966 886.723 908.856 886.755 909.076 892C909.129 893.232 911.052 893.238 910.999 892C910.86 888.732 908.369 886.016 904.999 886C901.748 885.989 898.989 888.748 899 892C899.011 895.263 901.727 898 904.999 898C908.272 898 910.86 895.257 910.999 892C911.052 890.763 909.129 890.768 909.076 892Z" fill="#2BB457"/>
<path d="M1183.36 735.41C1182.72 734.85 1182.06 734.591 1181.3 734.299C1180.5 733.994 1179.9 733.698 1180.06 732.661C1180.14 732.147 1180.64 731.527 1180.95 731.175C1182.17 729.732 1184.03 728.477 1184 726.284C1183.98 724.678 1182.81 723.567 1181.41 723.243C1179.35 722.762 1177.21 723.373 1175.12 722.91C1174.2 722.706 1171.53 722.234 1171.44 720.985C1171.37 719.92 1172.77 718.986 1173.41 718.435C1174.65 717.38 1175.75 715.964 1175.32 714.159C1174.87 712.224 1173.16 711.165 1171.45 710.757C1169.33 710.248 1167.11 710.022 1164.94 709.772C1164.96 708.809 1165.73 707.833 1165.9 706.888C1166.05 706.069 1165.88 705.246 1165.44 704.551C1164.21 702.649 1162.09 702.784 1160.26 703.441C1159.86 703.584 1159.94 704.195 1160.36 704.218C1161.24 704.274 1162.18 704.348 1163.01 704.695C1164.41 705.283 1164.44 706.375 1163.89 707.638C1163.42 708.703 1163 709.651 1163.38 710.827C1163.47 711.109 1163.67 711.396 1163.97 711.456C1166.27 711.914 1168.66 712.127 1170.94 712.71C1172.05 712.993 1173.91 713.816 1173.5 715.418C1173.27 716.32 1172.3 716.945 1171.67 717.509C1170.57 718.5 1169.46 719.976 1169.75 721.619C1170.09 723.493 1172.36 724.252 1173.85 724.706C1175.86 725.317 1177.77 725.15 1179.82 725.168C1180.91 725.178 1182.54 725.349 1181.89 727.052C1181.49 728.098 1180.47 728.806 1179.77 729.597C1178.76 730.736 1177.77 732.411 1178.3 734.031C1178.94 736.012 1180.81 735.646 1182.09 736.766C1182.98 737.543 1184.26 736.201 1183.36 735.41H1183.36Z" fill="#8530C1"/>
<circle cx="1270" cy="410" r="5" fill="#FBC70D"/>
<circle cx="1144" cy="168" r="5" fill="#ED1C24"/>
<path d="M1277.06 8.38664L1281 6.25367L1276.85 4.52793C1276.75 4.48521 1276.67 4.39124 1276.65 4.28018L1275.77 0L1272.79 3.28061C1272.71 3.36605 1272.59 3.41161 1272.48 3.39452L1268 2.88193L1270.31 6.63527C1270.36 6.73209 1270.37 6.8517 1270.32 6.95422L1268.43 10.9183L1272.84 9.95575C1272.86 9.95005 1272.89 9.94721 1272.92 9.94721C1273 9.94721 1273.09 9.97853 1273.16 10.0383L1276.47 13L1276.89 8.65433C1276.9 8.54326 1276.97 8.44359 1277.07 8.38664H1277.06Z" fill="#8530C1"/>
<path d="M1106.64 320.287C1103.41 319.827 1100.03 321.669 1098.31 324.325C1096.58 326.977 1096.34 330.262 1097.05 333.225C1097.31 334.348 1097.75 335.48 1098.62 336.274C1099.5 337.063 1100.93 337.416 1102.02 336.836C1103.02 336.308 1103.49 335.122 1103.3 334.089C1102.92 332.113 1100.42 331.018 1098.28 331.449C1096.15 331.884 1094.44 333.458 1093.27 335.192C1091.97 337.099 1091.18 339.287 1090.96 341.499C1090.95 341.631 1090.96 341.789 1091.08 341.844C1091.2 341.9 1091.34 341.667 1091.21 341.653" stroke="#2BB457" stroke-width="2" stroke-linecap="round" stroke-linejoin="round"/>
</svg>
