<svg width="22" height="20" viewBox="0 0 22 20" fill="none" xmlns="http://www.w3.org/2000/svg">
<path d="M18.5904 3.23408L18.5906 3.23373C18.9303 2.70676 18.9307 2.03908 18.5906 1.51322C18.2542 0.98982 17.6477 0.703225 17.0367 0.756268L2.26503 0.756266L2.25397 0.756266L2.24297 0.757241C1.39017 0.832778 0.75 1.53249 0.75 2.37183C0.75 3.2131 1.39036 3.9106 2.24241 3.98801L2.25369 3.98903L2.26503 3.98903L17.0363 3.98904C17.6488 4.04392 18.2547 3.75286 18.5904 3.23408ZM20.9954 10.9258L20.9955 10.9258L20.9975 10.9225C21.3329 10.381 21.3362 9.717 20.9952 9.1896C20.6601 8.6653 20.0498 8.37955 19.4415 8.43075L2.26503 8.43075L2.25059 8.43075L2.23626 8.43241C1.39241 8.53015 0.75 9.22174 0.75 10.048C0.75 10.8892 1.39036 11.5867 2.24241 11.6641L2.25369 11.6652L2.26503 11.6652L19.4374 11.6652C20.0506 11.7361 20.6614 11.447 20.9954 10.9258ZM13.1647 16.7537L13.1648 16.7536L13.1628 16.7505C12.8277 16.2289 12.2375 15.9386 11.6054 16.0097L2.26503 16.0097L2.25369 16.0097L2.24241 16.0107C1.39036 16.0881 0.749999 16.7856 0.749999 17.6269C0.749999 18.4531 1.39241 19.1447 2.23626 19.2424L2.25059 19.2441L2.26503 19.2441L11.6093 19.2441C12.2369 19.2954 12.8263 19.0085 13.1623 18.4859C13.5036 17.9585 13.5007 17.294 13.1647 16.7537Z" fill="#8530C1" stroke="white" strokeWidth="0.5"/>
</svg>
