<svg width="27" height="27" viewBox="0 0 27 27" fill="none" xmlns="http://www.w3.org/2000/svg">
<path d="M4.45801 4.4585C4.85043 4.01438 5.33542 3.66166 5.87884 3.42516C6.66618 3.14105 7.496 2.99256 8.33301 2.986C8.82569 2.986 9.19997 2.97472 9.66302 2.96077C10.414 2.93815 11.3983 2.9085 13.4997 2.9085C16.8968 2.9085 17.3747 2.9085 18.6663 2.986M4.45801 4.4585L4.11446 4.06703C4.10617 4.07431 4.0979 4.08162 4.08966 4.08896M4.45801 4.4585C4.01402 4.84814 3.66499 5.33413 3.43759 5.87933L4.45801 4.4585ZM4.08966 4.08896C4.52856 3.59941 5.06789 3.21007 5.671 2.9476L5.68633 2.94092L5.70206 2.93525C6.5448 2.63115 7.43302 2.4722 8.32893 2.46518L8.33301 2.46515C8.81721 2.46516 9.18195 2.45418 9.64284 2.4403C9.78768 2.43594 9.942 2.43129 10.1125 2.42661C10.8231 2.4071 11.7966 2.38766 13.4997 2.38766H13.523C16.8844 2.38766 17.3871 2.38766 18.6851 2.46535M4.08966 4.08896C3.59779 4.52723 3.2106 5.07055 2.95689 5.67884L2.95311 5.6879L2.94968 5.69711C2.63669 6.53514 2.47261 7.4214 2.4648 8.31587C2.38717 9.61303 2.38717 10.1164 2.38717 13.4769V13.5002C2.38717 15.2032 2.40661 16.1768 2.42612 16.8873C2.4308 17.0578 2.43545 17.2122 2.43981 17.357C2.45369 17.8179 2.46467 18.1826 2.46467 18.6668V18.675L2.46493 18.6832C2.49315 19.583 2.67942 20.4708 3.01519 21.306C3.2414 21.9367 3.60881 22.5074 4.08936 22.9744C4.53988 23.4397 5.08093 23.8079 5.67918 24.0562L5.69551 24.063L5.71225 24.0686C6.56923 24.3579 7.46936 24.4983 8.37363 24.4838C9.66595 24.561 10.1733 24.561 13.5282 24.561H13.5513C16.9412 24.561 17.4361 24.5482 18.7342 24.4833C19.6096 24.4722 20.4768 24.313 21.2992 24.0127L21.2992 24.0128L21.3045 24.0108C21.9325 23.7736 22.5016 23.4031 22.9725 22.9248C23.458 22.4556 23.8311 21.8826 24.0636 21.2487L24.0639 21.248C24.3642 20.4256 24.5233 19.5584 24.5345 18.683C24.5994 17.3849 24.6122 16.89 24.6122 13.5002C24.6122 10.1119 24.5994 9.61587 24.5346 8.31918C24.5295 7.42583 24.3703 6.54003 24.0639 5.70075L24.0613 5.69362L24.0585 5.68657C23.8179 5.08265 23.4486 4.5385 22.9764 4.09195C22.4996 3.57687 21.9083 3.18115 21.2501 2.93687L21.2475 2.93593C20.4259 2.63591 19.5596 2.47683 18.6851 2.46535M4.08966 4.08896L18.6663 2.986M18.6851 2.46535C18.6809 2.4653 18.6766 2.46525 18.6723 2.4652L18.6663 2.986M18.6851 2.46535C18.6893 2.4656 18.6934 2.46585 18.6975 2.4661L18.6663 2.986M25.8182 8.1907L25.8184 8.19932L25.8188 8.20793C25.8954 9.55971 25.8955 9.98365 25.8955 13.5002C25.8955 15.2524 25.8762 16.2359 25.8569 16.9511C25.8525 17.1148 25.8481 17.2654 25.8439 17.4087C25.8298 17.8874 25.8181 18.2842 25.818 18.8156C25.7936 19.8275 25.6039 20.8286 25.2564 21.7793C24.9583 22.5697 24.4895 23.2847 23.8835 23.8732L23.8775 23.879L23.8718 23.885C23.287 24.4902 22.5723 24.9546 21.7816 25.2429L21.7816 25.2429L21.7759 25.2451C20.8273 25.6036 19.8245 25.7976 18.8106 25.8186L18.8012 25.8188L18.7919 25.8193C17.4401 25.8958 17.0162 25.896 13.4997 25.896C9.98317 25.896 9.55922 25.8958 8.20744 25.8193L8.19812 25.8188L8.1888 25.8186C7.1749 25.7976 6.17203 25.6036 5.22342 25.245L5.21959 25.2436C4.42916 24.9519 3.71392 24.4872 3.1262 23.8835L3.12063 23.8778L3.11488 23.8722C2.50961 23.2875 2.04524 22.5728 1.7569 21.7821L1.75694 21.7821L1.75478 21.7764C1.3962 20.8278 1.20223 19.8249 1.18123 18.811L1.18104 18.8017L1.18051 18.7924C1.10399 17.4406 1.10384 17.0167 1.10384 13.5002C1.10384 9.98365 1.10399 9.55971 1.18051 8.20793L1.18104 8.19861L1.18123 8.18928C1.20223 7.17538 1.3962 6.17251 1.75478 5.22391L1.75481 5.22392L1.7569 5.21819C2.04524 4.42754 2.50961 3.71281 3.11488 3.12808L3.12063 3.12253L3.1262 3.11681C3.71392 2.51311 4.42916 2.04841 5.21959 1.7567L5.21959 1.75671L5.22342 1.75527C6.17202 1.39669 7.17489 1.20272 8.18879 1.18172L8.19812 1.18152L8.20744 1.181C9.55922 1.10448 9.98317 1.10433 13.4997 1.10433C17.0162 1.10433 17.4401 1.10448 18.7919 1.181L18.8012 1.18152L18.8106 1.18172C19.8245 1.20272 20.8273 1.39669 21.7759 1.75527L21.7759 1.7553L21.7816 1.75739C22.5723 2.04573 23.287 2.5101 23.8718 3.11537L23.8768 3.12059L23.882 3.12567C24.4861 3.71711 24.9551 4.43227 25.2568 5.22203C25.6048 6.17428 25.7944 7.17712 25.8182 8.1907ZM19.3878 6.80344L18.877 6.90505L19.3878 6.80344C19.3481 6.60381 19.3685 6.39688 19.4464 6.20882C19.5242 6.02076 19.6562 5.86003 19.8254 5.74694C19.9946 5.63386 20.1936 5.5735 20.3972 5.5735C20.6701 5.5735 20.9319 5.68193 21.1249 5.87493C21.3179 6.06794 21.4263 6.32971 21.4263 6.60266C21.4263 6.80621 21.366 7.00519 21.2529 7.17444C21.1398 7.34368 20.9791 7.47559 20.791 7.55349C20.603 7.63138 20.396 7.65177 20.1964 7.61205C19.9968 7.57234 19.8134 7.47433 19.6694 7.33039C19.5255 7.18646 19.4275 7.00308 19.3878 6.80344ZM13.5007 7.39475L13.5017 7.39474C14.3048 7.3916 15.1006 7.54727 15.8433 7.85279C16.586 8.1583 17.261 8.60764 17.8294 9.17496C18.3978 9.74227 18.8484 10.4164 19.1554 11.1585C19.4624 11.9006 19.6196 12.6961 19.618 13.4991V13.5002C19.618 14.7072 19.2602 15.8871 18.5899 16.8909C17.9195 17.8947 16.9667 18.6772 15.8518 19.1397C14.7368 19.6021 13.5099 19.7237 12.3259 19.4891C11.1418 19.2545 10.0539 18.6742 9.19962 17.8215C8.34529 16.9689 7.76286 15.8821 7.52594 14.6986C7.28902 13.515 7.40823 12.2878 7.86851 11.172C8.32879 10.0561 9.10949 9.10177 10.112 8.42947C11.1144 7.75717 12.2937 7.3971 13.5007 7.39475ZM10.8207 17.5096C11.6137 18.0394 12.546 18.3222 13.4997 18.3222C14.1329 18.3222 14.76 18.1975 15.345 17.9552C15.93 17.7129 16.4616 17.3577 16.9094 16.9099C17.3572 16.4621 17.7124 15.9305 17.9547 15.3455C18.197 14.7605 18.3218 14.1334 18.3218 13.5002C18.3218 12.5464 18.0389 11.6141 17.5091 10.8212C16.9792 10.0282 16.2261 9.41011 15.345 9.04514C14.4639 8.68017 13.4943 8.58467 12.5589 8.77073C11.6235 8.9568 10.7643 9.41605 10.0899 10.0904C9.41557 10.7648 8.95631 11.624 8.77025 12.5594C8.58419 13.4948 8.67968 14.4644 9.04465 15.3455C9.40962 16.2266 10.0277 16.9797 10.8207 17.5096Z" fill="#151515" stroke="#151515" stroke-width="1.04167"/>
</svg>
