<svg width="15" height="14" viewBox="0 0 15 14" fill="none" xmlns="http://www.w3.org/2000/svg">
<path d="M7.72762 8.14516C7.26279 7.95212 6.90755 7.59555 6.90755 7.59555C6.80226 7.48986 6.6593 7.43033 6.51011 7.43005L6.50906 7.43005C6.5004 7.43005 6.49174 7.43025 6.48309 7.43065C6.3434 7.4371 6.21112 7.49536 6.11206 7.59406C6.00611 7.69961 5.94656 7.843 5.94656 7.99255C5.94656 8.0019 5.94679 8.01126 5.94726 8.0206C5.9542 8.15955 6.01238 8.291 6.11057 8.38955C6.62413 8.90504 7.29613 9.18413 7.29613 9.18413C7.96813 9.46321 8.69578 9.46321 8.69578 9.46321C9.42343 9.46321 10.0954 9.18413 10.0954 9.18413C10.7674 8.90504 11.281 8.38955 11.281 8.38955L13.2694 6.40819C13.2758 6.40183 13.282 6.39531 13.2881 6.38865C14.2769 5.30373 14.2429 3.83618 14.2429 3.83618C14.209 2.36863 13.171 1.33064 13.171 1.33064C12.133 0.292644 10.6654 0.258668 10.6654 0.258668C9.19787 0.224693 8.11296 1.21354 8.11296 1.21354C8.10654 1.21939 8.10026 1.22538 8.09413 1.23152L6.70194 2.62371C6.59645 2.7292 6.53718 2.87227 6.53718 3.02145C6.53718 3.03046 6.5374 3.03947 6.53783 3.04847C6.54455 3.18815 6.60306 3.32032 6.70194 3.4192C6.80743 3.52469 6.9505 3.58395 7.09968 3.58395C7.24887 3.58395 7.39194 3.52469 7.49743 3.4192L8.88001 2.03663C9.62875 1.35997 10.6394 1.38337 10.6394 1.38337C11.6563 1.40691 12.3755 2.12613 12.3755 2.12613C13.0947 2.84536 13.1182 3.86222 13.1182 3.86222C13.1416 4.87262 12.4653 5.62125 12.4653 5.62125L10.484 7.59555C10.1288 7.95211 9.66394 8.14516 9.66394 8.14516C9.1991 8.33821 8.69578 8.33821 8.69578 8.33821C8.19245 8.33821 7.72762 8.14516 7.72762 8.14516Z" fill="#1C1C1C"/>
<path d="M7.27327 5.8571C7.7381 6.05015 8.09334 6.40672 8.09334 6.40672C8.19889 6.51266 8.34228 6.57222 8.49183 6.57222C8.50119 6.57222 8.51054 6.57198 8.51989 6.57152C8.65883 6.56458 8.79028 6.50639 8.88884 6.40821C8.99452 6.30291 9.05405 6.15995 9.05433 6.01077L9.05433 6.00972C9.05433 6.00106 9.05413 5.9924 9.05373 5.98375C9.04728 5.84406 8.98902 5.71178 8.89032 5.61271C8.37676 5.09723 7.70476 4.81814 7.70476 4.81814C7.03276 4.53905 6.30511 4.53905 6.30511 4.53905C5.57747 4.53905 4.90547 4.81814 4.90547 4.81814C4.23347 5.09722 3.7199 5.61271 3.7199 5.61271L1.73151 7.59408C1.72512 7.60044 1.71889 7.60695 1.71282 7.61361C0.723978 8.69853 0.757953 10.1661 0.757953 10.1661C0.791928 11.6336 1.82992 12.6716 1.82992 12.6716C2.86792 13.7096 4.33547 13.7436 4.33547 13.7436C5.80302 13.7776 6.88794 12.7887 6.88794 12.7887C6.89435 12.7829 6.90063 12.7769 6.90677 12.7707L8.29866 11.3788C8.40415 11.2734 8.46371 11.13 8.46371 10.9808C8.46371 10.8316 8.40444 10.6886 8.29896 10.5831C8.19347 10.4776 8.05039 10.4183 7.90121 10.4183C7.75202 10.4183 7.60895 10.4776 7.50346 10.5831L6.12089 11.9656C5.37214 12.6423 4.3615 12.6189 4.3615 12.6189C3.34464 12.5954 2.62542 11.8761 2.62542 11.8761C1.90619 11.1569 1.88265 10.14 1.88265 10.14C1.85926 9.12965 2.53559 8.38102 2.53559 8.38102L4.51689 6.40672C4.87213 6.05015 5.33696 5.8571 5.33696 5.8571C5.80179 5.66405 6.30511 5.66405 6.30511 5.66405C6.80844 5.66405 7.27327 5.8571 7.27327 5.8571Z" fill="#1C1C1C"/>
</svg>
