<svg width="72" height="72" viewBox="0 0 72 72" fill="none" xmlns="http://www.w3.org/2000/svg">
<path d="M64.6532 36.1735C64.6532 46.2104 56.5321 54.3469 46.5141 54.3469C36.4962 54.3469 28.375 46.2104 28.375 36.1735C28.375 26.1365 36.4962 18 46.5141 18C56.5321 18 64.6532 26.1365 64.6532 36.1735Z" fill="#F79F1A"/>
<path d="M42.2782 36.1735C42.2782 46.2104 34.1571 54.3469 24.1391 54.3469C14.1212 54.3469 6 46.2104 6 36.1735C6 26.1365 14.1212 18 24.1391 18C34.1571 18 42.2782 26.1365 42.2782 36.1735Z" fill="#EA001B"/>
<path d="M35.3241 21.8672C31.0918 25.1942 28.375 30.3641 28.375 36.1718C28.375 41.9795 31.0918 47.1533 35.3241 50.4803C39.5564 47.1533 42.2731 41.9795 42.2731 36.1718C42.2731 30.3641 39.5564 25.1942 35.3241 21.8672Z" fill="#FF5F01"/>
</svg>
