<svg width="48" height="49" viewBox="0 0 48 49" fill="none" xmlns="http://www.w3.org/2000/svg">
<rect y="0.5" width="48" height="48" rx="10" fill="#FBC70D"/>
<path d="M33.0016 16.6586L24.2516 14.0336C24.1199 13.9965 23.9814 13.99 23.8468 14.0147C23.7122 14.0393 23.585 14.0944 23.475 14.1758C23.367 14.2579 23.2792 14.3637 23.2185 14.4851C23.1578 14.6064 23.1258 14.7401 23.125 14.8758V26.7211C22.167 25.8517 20.9187 25.3719 19.625 25.3758C18.5867 25.3758 17.5716 25.6837 16.7083 26.2606C15.8449 26.8375 15.172 27.6574 14.7746 28.6167C14.3773 29.576 14.2733 30.6316 14.4759 31.65C14.6785 32.6684 15.1785 33.6039 15.9127 34.3381C16.6469 35.0723 17.5824 35.5724 18.6008 35.7749C19.6192 35.9775 20.6748 35.8735 21.6341 35.4762C22.5934 35.0788 23.4133 34.4059 23.9902 33.5425C24.5671 32.6792 24.875 31.6642 24.875 30.6258V21.3071L32.4984 23.593C32.6301 23.6301 32.7686 23.6366 32.9032 23.6119C33.0378 23.5873 33.165 23.5322 33.275 23.4508C33.3831 23.3687 33.4708 23.2629 33.5315 23.1415C33.5922 23.0202 33.6242 22.8865 33.625 22.7508V17.5008C33.6242 17.3124 33.5633 17.1291 33.4511 16.9777C33.339 16.8262 33.1815 16.7144 33.0016 16.6586Z" fill="white"/>
</svg>
