<svg width="100" height="100" viewBox="0 0 100 100" fill="none" xmlns="http://www.w3.org/2000/svg">
<rect width="100" height="100" rx="13" fill="#FFEDEA"/>
<path fillRule="evenodd" clipRule="evenodd" d="M41.875 51.6254C41.875 51.6254 45.9136 51.6254 48.7693 54.4811C48.7693 54.4811 51.625 57.3368 51.625 61.3754C51.625 61.3754 51.625 65.414 48.7693 68.2697C48.7693 68.2697 45.9136 71.1254 41.875 71.1254C41.875 71.1254 37.8364 71.1254 34.9807 68.2697C34.9807 68.2697 32.125 65.414 32.125 61.3754C32.125 61.3754 32.125 57.3368 34.9807 54.4811C34.9807 54.4811 37.8364 51.6254 41.875 51.6254ZM41.875 54.8754C41.875 54.8754 39.1826 54.8754 37.2788 56.7792C37.2788 56.7792 35.375 58.683 35.375 61.3754C35.375 61.3754 35.375 64.0678 37.2788 65.9716C37.2788 65.9716 39.1826 67.8754 41.875 67.8754C41.875 67.8754 44.5674 67.8754 46.4712 65.9716C46.4712 65.9716 48.375 64.0678 48.375 61.3754C48.375 61.3754 48.375 58.683 46.4712 56.7792C46.4712 56.7792 44.5674 54.8754 41.875 54.8754Z" fill="#ED1C24"/>
<path fillRule="evenodd" clipRule="evenodd" d="M48.375 32.1254V61.3754C48.375 62.2729 49.1025 63.0004 50 63.0004C50.8975 63.0004 51.625 62.2729 51.625 61.3754V44.0595L65.7831 48.3069C66.6427 48.5648 67.5486 48.077 67.8065 47.2174C67.8519 47.0659 67.875 46.9086 67.875 46.7504V37.0004C67.875 36.2828 67.4043 35.6502 66.7169 35.444L50.4669 30.569C49.6073 30.3111 48.7014 30.7989 48.4435 31.6585C48.3981 31.81 48.375 31.9673 48.375 32.1254ZM64.625 44.5664L51.625 40.6664V34.3095L64.625 38.2095V44.5664Z" fill="#ED1C24"/>
</svg>
