<svg width="74" height="74" viewBox="0 0 74 74" fill="none" xmlns="http://www.w3.org/2000/svg">
<g filter="url(#filter0_d_4392_12105)">
<circle cx="37" cy="33" r="30" fill="#ED1C24"/>
</g>
<path d="M37.1521 22.7109C40.3815 22.7109 42.6362 24.9363 42.6362 28.1255V37.2964C42.6362 40.4856 40.3815 42.7109 37.1521 42.7109H29.4294C26.2 42.7109 23.9453 40.4856 23.9453 37.2964V28.1255C23.9453 24.9363 26.2 22.7109 29.4294 22.7109H37.1521ZM47.8893 25.8829C48.4746 25.5851 49.1613 25.6163 49.72 25.9682C50.2786 26.3188 50.612 26.9279 50.612 27.5939V37.8288C50.612 38.4961 50.2786 39.1039 49.72 39.4545C49.4146 39.6454 49.0733 39.7428 48.7293 39.7428C48.4426 39.7428 48.156 39.6751 47.888 39.5384L45.9133 38.5421C45.1826 38.1712 44.7293 37.4267 44.7293 36.5997V28.8217C44.7293 27.9932 45.1826 27.2487 45.9133 26.8805L47.8893 25.8829Z" fill="white"/>
<defs>
<filter id="filter0_d_4392_12105" x="0" y="0" width="74" height="74" filterUnits="userSpaceOnUse" color-interpolation-filters="sRGB">
<feFlood flood-opacity="0" result="BackgroundImageFix"/>
<feColorMatrix in="SourceAlpha" type="matrix" values="0 0 0 0 0 0 0 0 0 0 0 0 0 0 0 0 0 0 127 0" result="hardAlpha"/>
<feOffset dy="4"/>
<feGaussianBlur stdDeviation="3.5"/>
<feComposite in2="hardAlpha" operator="out"/>
<feColorMatrix type="matrix" values="0 0 0 0 0 0 0 0 0 0 0 0 0 0 0 0 0 0 0.05 0"/>
<feBlend mode="normal" in2="BackgroundImageFix" result="effect1_dropShadow_4392_12105"/>
<feBlend mode="normal" in="SourceGraphic" in2="effect1_dropShadow_4392_12105" result="shape"/>
</filter>
</defs>
</svg>
