<svg width="16" height="20" viewBox="0 0 16 20" fill="none" xmlns="http://www.w3.org/2000/svg">
<path fill-rule="evenodd" clip-rule="evenodd" d="M8.34301 0.834963C11.0197 0.834963 13.1995 3.0148 13.1995 5.69421L13.1994 7.13943C14.8267 7.70576 15.9973 9.25492 15.9973 11.073V15.0046C15.9973 17.3009 14.13 19.1681 11.8338 19.1681H4.82952C2.53327 19.1681 0.666016 17.3009 0.666016 15.0046V11.073C0.666016 9.25527 1.83616 7.70634 3.46295 7.13975L3.46359 5.69421C3.46909 4.37421 3.97967 3.15596 4.90092 2.24296C5.82309 1.32905 7.04042 0.80013 8.34301 0.834963ZM11.8338 8.28453H4.82952C3.29135 8.28453 2.04102 9.53486 2.04102 11.073V15.0046C2.04102 16.5428 3.29135 17.7931 4.82952 17.7931H11.8338C13.371 17.7931 14.6223 16.5428 14.6223 15.0046V11.073C14.6223 9.53486 13.371 8.28453 11.8338 8.28453ZM8.33146 11.3332C8.71096 11.3332 9.01896 11.6412 9.01896 12.0207V14.0566C9.01896 14.4361 8.71096 14.7441 8.33146 14.7441C7.95196 14.7441 7.64396 14.4361 7.64396 14.0566V12.0207C7.64396 11.6412 7.95196 11.3332 8.33146 11.3332ZM8.34026 2.20996H8.32559C7.39701 2.20996 6.52709 2.56746 5.86984 3.21921C5.20801 3.87371 4.84226 4.7473 4.83859 5.67863L4.83777 6.90901H11.8237L11.8245 5.69421C11.8245 3.77288 10.2616 2.20996 8.34026 2.20996Z" fill="#C4CCD0"/>
</svg>
