<svg width="25" height="24" viewBox="0 0 25 24" fill="none" xmlns="http://www.w3.org/2000/svg">
<path d="M10.6696 19.0941L10.6367 4.90698C10.6335 3.56011 10.0636 3.02268 8.62695 3.02601L5.00535 3.03441C3.56868 3.03774 3.00125 3.57781 3.00437 4.92469L3.03728 19.1118C3.04041 20.4587 3.61034 20.9961 5.04701 20.9928L8.6686 20.9844C10.1053 20.981 10.6727 20.441 10.6696 19.0941Z" fill="#8530C1"/>
<path d="M20.9175 19.0337V4.84657C20.9175 3.49969 20.3488 2.96094 18.9121 2.96094H15.2905C13.8638 2.96094 13.2852 3.49969 13.2852 4.84657V19.0337C13.2852 20.3806 13.8538 20.9193 15.2905 20.9193H18.9121C20.3488 20.9193 20.9175 20.3806 20.9175 19.0337Z" fill="#8530C1"/>
</svg>
