<svg width="56" height="24" viewBox="0 0 56 24" fill="none" xmlns="http://www.w3.org/2000/svg">
<path fill-rule="evenodd" clip-rule="evenodd" d="M55.2215 12.3268C55.2215 8.41487 53.324 5.32812 49.6972 5.32812C46.0552 5.32812 43.8516 8.41487 43.8516 12.2962C43.8516 16.8958 46.453 19.2185 50.1869 19.2185C52.0079 19.2185 53.3852 18.8059 54.4258 18.2252V15.169C53.3852 15.6886 52.1916 16.0095 50.6766 16.0095C49.1922 16.0095 47.8762 15.4899 47.7079 13.6868H55.1909C55.1909 13.4881 55.2215 12.6935 55.2215 12.3268ZM47.662 10.8751C47.662 9.14835 48.7178 8.43015 49.6819 8.43015C50.6154 8.43015 51.6101 9.14835 51.6101 10.8751H47.662Z" fill="#6461FC"/>
<path fill-rule="evenodd" clip-rule="evenodd" d="M37.9477 5.32812C36.448 5.32812 35.484 6.03105 34.9484 6.52004L34.7494 5.57262H31.3828V23.3901L35.2085 22.5803L35.2238 18.2558C35.7747 18.6531 36.5858 19.2185 37.9324 19.2185C40.6716 19.2185 43.166 17.018 43.166 12.174C43.1507 7.74251 40.6257 5.32812 37.9477 5.32812ZM37.0295 15.8567C36.1267 15.8567 35.5911 15.5358 35.2238 15.1385L35.2085 9.46925C35.6064 9.0261 36.1573 8.72048 37.0295 8.72048C38.4221 8.72048 39.3862 10.2791 39.3862 12.2809C39.3862 14.3286 38.4374 15.8567 37.0295 15.8567Z" fill="#6461FC"/>
<path fill-rule="evenodd" clip-rule="evenodd" d="M26.1172 4.42719L29.9582 3.60202V0.5L26.1172 1.30989V4.42719Z" fill="#6461FC"/>
<path d="M29.9582 5.58594H26.1172V18.9567H29.9582V5.58594Z" fill="#6461FC"/>
<path fill-rule="evenodd" clip-rule="evenodd" d="M22.0034 6.71843L21.7585 5.58764H18.4531V18.9584H22.2788V9.89685C23.1817 8.72022 24.712 8.93416 25.1863 9.10225V5.58764C24.6967 5.40427 22.9062 5.06809 22.0034 6.71843Z" fill="#6461FC"/>
<path fill-rule="evenodd" clip-rule="evenodd" d="M14.3507 2.27344L10.6169 3.06804L10.6016 15.308C10.6016 17.5696 12.3002 19.2352 14.565 19.2352C15.8198 19.2352 16.738 19.006 17.243 18.731V15.6289C16.7533 15.8276 14.3354 16.5305 14.3354 14.2689V8.84422H17.243V5.58939H14.3354L14.3507 2.27344Z" fill="#6461FC"/>
<path fill-rule="evenodd" clip-rule="evenodd" d="M4.00442 9.46925C4.00442 8.87329 4.49411 8.64408 5.30515 8.64408C6.46817 8.64408 7.93723 8.99554 9.10024 9.62206V6.03105C7.83011 5.52678 6.57528 5.32812 5.30515 5.32812C2.19869 5.32812 0.132812 6.9479 0.132812 9.65262C0.132812 13.8701 5.94787 13.1978 5.94787 15.0162C5.94787 15.7191 5.33576 15.9483 4.4788 15.9483C3.20867 15.9483 1.58658 15.4288 0.301143 14.7259V18.3627C1.7243 18.974 3.16276 19.2337 4.4788 19.2337C7.66178 19.2337 9.85008 17.6598 9.85008 14.9245C9.83478 10.3708 4.00442 11.1807 4.00442 9.46925Z" fill="#6461FC"/>
</svg>
