<svg width="124" height="22" viewBox="0 0 124 22" fill="none" xmlns="http://www.w3.org/2000/svg">
<path d="M17.8798 2.09454H1.37057C0.811201 2.09454 0.344536 2.56591 0.344536 3.13314V4.99508C0.344536 5.57645 0.811201 6.03526 1.37136 6.03526H17.879C18.4525 6.03526 18.9058 5.56231 18.9192 4.99587V3.14649C18.9192 2.5667 18.4525 2.09375 17.8798 2.09375V2.09454ZM17.8798 12.4586H1.37057C1.23542 12.4588 1.10166 12.4859 0.977054 12.5382C0.852445 12.5905 0.73946 12.6671 0.644647 12.7634C0.451624 12.9591 0.343514 13.2231 0.34375 13.498V15.3599C0.34375 15.9413 0.810415 16.3993 1.37057 16.3993H17.8782C18.4518 16.3993 18.9051 15.9405 18.9184 15.3607V13.498C18.9184 12.9174 18.4525 12.4586 17.8798 12.4586ZM10.6654 17.628H1.37136C1.09874 17.628 0.837126 17.7372 0.645433 17.9321C0.452409 18.1278 0.3443 18.3917 0.344536 18.6666V20.5286C0.344536 21.1099 0.811201 21.568 1.37136 21.568H10.652C11.2255 21.568 11.6788 21.0966 11.6788 20.5294V18.6666C11.6823 18.5314 11.6586 18.3968 11.6093 18.2708C11.5599 18.1449 11.4858 18.0301 11.3913 17.9332C11.2969 17.8363 11.184 17.7593 11.0593 17.7068C10.9346 17.6542 10.8007 17.628 10.6654 17.628ZM18.9192 7.27577H1.37136C1.09874 7.27577 0.837126 7.38576 0.645433 7.57981C0.452218 7.77574 0.344093 8.03998 0.344536 8.31516V10.1771C0.344536 10.7577 0.811201 11.2165 1.37136 11.2165H18.9066C19.4801 11.2165 19.9327 10.7443 19.9327 10.1771V8.31516C19.935 8.18021 19.9105 8.04615 19.8607 7.9207C19.8109 7.79526 19.7367 7.68092 19.6425 7.58429C19.5483 7.48765 19.4359 7.41064 19.3117 7.35768C19.1876 7.30473 19.0542 7.27689 18.9192 7.27577Z" fill="#00C3F7"/>
<path d="M38.1358 6.28907C37.6287 5.76409 37.0212 5.34649 36.3494 5.06113C35.6738 4.77717 34.9485 4.6303 34.2157 4.62903C33.5015 4.61254 32.7935 4.76518 32.1495 5.07448C31.7174 5.28111 31.3278 5.56943 31.0025 5.92454V5.60164C31 5.43728 30.9387 5.27927 30.8297 5.15619C30.7759 5.09198 30.7086 5.04049 30.6325 5.00544C30.5564 4.97039 30.4735 4.95265 30.3898 4.9535H28.0824C27.9985 4.95128 27.9151 4.9684 27.8388 5.00355C27.7626 5.0387 27.6954 5.09092 27.6425 5.15619C27.5279 5.27582 27.4655 5.43602 27.4689 5.60164V20.9733C27.4689 21.1351 27.5357 21.297 27.6417 21.418C27.6996 21.4752 27.7683 21.5202 27.8439 21.5504C27.9194 21.5807 28.0003 21.5955 28.0817 21.5939H30.4157C30.576 21.5939 30.7221 21.5264 30.8423 21.418C30.9052 21.3629 30.9547 21.2943 30.9871 21.2172C31.0195 21.1402 31.0339 21.0567 31.0292 20.9733V15.7229C31.3623 16.0875 31.7889 16.3577 32.2556 16.5196C32.8691 16.749 33.5094 16.8574 34.1622 16.8574C34.9086 16.8574 35.6423 16.7215 36.3227 16.4253C37.0059 16.1404 37.6231 15.7179 38.1358 15.184C38.6678 14.6275 39.0848 13.9716 39.3629 13.2537C39.6788 12.4503 39.8329 11.5925 39.8162 10.7295C39.8262 9.86285 39.6724 9.00217 39.3629 8.19265C39.0759 7.48711 38.6594 6.84149 38.135 6.28907H38.1358ZM36.0296 11.849C35.9076 12.175 35.7217 12.4733 35.4828 12.7265C35.2462 12.9809 34.9591 13.1831 34.6398 13.3201C34.3206 13.4572 33.9762 13.5261 33.6288 13.5224C33.269 13.5224 32.9226 13.4548 32.6028 13.3063C32.2872 13.1703 32.0015 12.9732 31.7622 12.7265C31.5238 12.4704 31.334 12.173 31.2021 11.849C30.9356 11.154 30.9356 10.385 31.2021 9.69006C31.3223 9.36638 31.5226 9.06942 31.7622 8.82587C32.0035 8.5781 32.2885 8.37701 32.6028 8.23272C32.9233 8.08158 33.2746 8.00759 33.6288 8.01667C33.9894 8.01667 34.3359 8.08424 34.669 8.23193C34.9753 8.3812 35.2558 8.56976 35.4962 8.8133C35.7358 9.06942 35.9094 9.35224 36.043 9.67671C36.2985 10.3791 36.2938 11.1498 36.0296 11.849ZM52.3765 4.95271H50.0566C49.9762 4.95241 49.8967 4.96904 49.8232 5.00153C49.7497 5.03401 49.6839 5.08163 49.63 5.14126C49.5703 5.20185 49.5231 5.27363 49.4911 5.3525C49.4592 5.43137 49.4431 5.51577 49.4438 5.60086V5.88368C49.152 5.54439 48.7934 5.26892 48.3903 5.07448C47.7594 4.76798 47.0648 4.61533 46.3635 4.62903C44.8695 4.63159 43.4369 5.2233 42.3765 6.27571C41.8299 6.83083 41.3952 7.48589 41.096 8.20522C40.7631 9.00903 40.6 9.87296 40.6168 10.7428C40.6025 11.6124 40.7656 12.4759 41.096 13.2804C41.3937 13.9973 41.8235 14.6519 42.3632 15.2099C42.8787 15.7411 43.4967 16.162 44.1797 16.4472C44.8628 16.7325 45.5966 16.876 46.3368 16.8692C47.0438 16.8833 47.7367 16.7348 48.377 16.4237C48.7768 16.2218 49.15 15.9523 49.4438 15.6145V15.9248C49.4438 16.0867 49.5098 16.2485 49.63 16.3703C49.7502 16.4779 49.8971 16.5455 50.0566 16.5455H52.3765C52.5395 16.5424 52.6959 16.4802 52.8164 16.3703C52.8742 16.3118 52.9194 16.2421 52.9492 16.1655C52.9791 16.0889 52.993 16.007 52.9901 15.9248V5.60086C52.9937 5.43535 52.9315 5.27516 52.8172 5.1554C52.7643 5.09014 52.6972 5.03791 52.6209 5.00276C52.5446 4.96762 52.4605 4.95049 52.3765 4.95271ZM49.2435 11.8356C49.1214 12.1616 48.9355 12.4599 48.6967 12.7132C48.4569 12.9564 48.1774 13.1569 47.8703 13.3063C47.2166 13.6033 46.4562 13.6033 45.8033 13.3063C45.489 13.1621 45.204 12.961 44.9627 12.7132C44.7241 12.4599 44.5385 12.1616 44.4167 11.8356C44.1634 11.1429 44.1634 10.3828 44.4167 9.69006C44.5362 9.36638 44.7231 9.08277 44.9635 8.82587C45.2031 8.58311 45.4828 8.3812 45.8033 8.23272C46.128 8.08604 46.4802 8.01018 46.8364 8.01018C47.1927 8.01018 47.5448 8.08604 47.8695 8.23272C48.1766 8.3812 48.4571 8.56975 48.6967 8.81252C48.9238 9.06942 49.1099 9.35224 49.2435 9.67671C49.5106 10.3783 49.5106 11.1474 49.2435 11.8356ZM75.5118 10.4451C75.1775 10.1507 74.7937 9.91793 74.3781 9.75763C73.9379 9.58197 73.4828 9.4463 73.0183 9.35224L71.2444 9.00185C70.7911 8.92093 70.4713 8.79916 70.2977 8.65067C70.2256 8.60047 70.1663 8.53397 70.1247 8.45658C70.0831 8.37919 70.0602 8.29308 70.0581 8.20522C70.0581 8.01667 70.1649 7.85483 70.3912 7.7197C70.6976 7.55786 71.0315 7.47616 71.3779 7.50365C71.8312 7.50365 72.2845 7.59793 72.6977 7.77313C73.0984 7.94911 73.4983 8.1518 73.8581 8.39377C74.3781 8.71824 74.8181 8.66403 75.1245 8.2995L75.9784 7.32846C76.1379 7.16583 76.2314 6.95057 76.2455 6.72117C76.2383 6.60297 76.206 6.48767 76.1508 6.38294C76.0955 6.27822 76.0185 6.18649 75.925 6.11387C75.5644 5.80355 74.9917 5.46573 74.2312 5.14205C73.4716 4.81837 72.5108 4.64239 71.3779 4.64239C70.6864 4.63312 69.9979 4.73335 69.3377 4.93936C68.7733 5.11342 68.2449 5.38751 67.7775 5.74856C67.3565 6.07821 67.0147 6.49809 66.7774 6.97728C66.5513 7.44449 66.433 7.95645 66.431 8.47548C66.431 9.43395 66.724 10.2164 67.2975 10.7962C67.871 11.3768 68.6314 11.7547 69.5781 11.9433L71.418 12.3486C71.8186 12.4162 72.2177 12.5372 72.5917 12.7132C72.7912 12.7941 72.9248 12.996 72.9248 13.2254C72.9248 13.4281 72.8179 13.6166 72.5917 13.7793C72.3646 13.9411 71.9915 14.0487 71.5115 14.0487C71.0082 14.0573 70.5102 13.9464 70.0581 13.7251C69.6296 13.5183 69.2306 13.2551 68.8718 12.9426C68.7145 12.8102 68.5331 12.7094 68.3376 12.6456C68.1247 12.578 67.871 12.6456 67.5913 12.875L66.5779 13.6441C66.44 13.7436 66.333 13.88 66.2693 14.0376C66.2057 14.1953 66.1879 14.3677 66.2181 14.535C66.2707 14.8729 66.5512 15.2091 67.0712 15.6011C68.3494 16.4641 69.8627 16.9118 71.4046 16.8833C72.1224 16.8926 72.8374 16.7925 73.525 16.5863C74.1147 16.408 74.6693 16.1295 75.1645 15.763C75.6045 15.4252 75.9784 14.9931 76.2314 14.4942C76.4754 14.0035 76.6031 13.4631 76.6046 12.9151C76.6157 12.4225 76.5155 11.9337 76.3115 11.4852C76.11 11.0932 75.839 10.7403 75.5118 10.4451ZM85.6453 13.2529C85.5933 13.1607 85.5204 13.0821 85.4323 13.0234C85.3443 12.9647 85.2436 12.9276 85.1386 12.9151C84.9257 12.9151 84.712 12.9826 84.5384 13.1036C84.2559 13.2893 83.9293 13.3967 83.5917 13.4147C83.4849 13.4147 83.3655 13.4014 83.2586 13.3739C83.143 13.3507 83.0366 13.2945 82.9522 13.212C82.8458 13.1128 82.7596 12.9938 82.6985 12.8617C82.6232 12.6636 82.5869 12.4528 82.5917 12.241V8.03003H85.6052C85.7812 8.02585 85.9487 7.95312 86.0719 7.82733C86.1344 7.77109 86.1845 7.70242 86.219 7.62573C86.2535 7.54903 86.2716 7.46598 86.2722 7.38188V5.60164C86.2733 5.51532 86.2561 5.42975 86.2215 5.35063C86.187 5.27152 86.136 5.20068 86.0719 5.14283C85.951 5.02354 85.7884 4.95592 85.6186 4.95428H82.605V2.07887C82.6099 1.99338 82.5957 1.90788 82.5635 1.82853C82.5313 1.74919 82.4819 1.67798 82.4188 1.62007C82.3032 1.51046 82.1508 1.44799 81.9915 1.44487H79.6448C79.4766 1.4416 79.3138 1.50451 79.1916 1.62007C79.0673 1.74078 78.9956 1.90564 78.992 2.07887V4.95428H77.658C77.5741 4.95197 77.4908 4.96897 77.4146 5.00398C77.3383 5.03899 77.2711 5.09107 77.2181 5.15619C77.1091 5.27927 77.0478 5.43728 77.0453 5.60164V7.38267C77.0453 7.54451 77.1113 7.70713 77.2181 7.82812C77.2689 7.89568 77.3357 7.94957 77.4125 7.98495C77.4893 8.02033 77.5737 8.03609 77.658 8.03081H78.992V13.0376C78.9789 13.632 79.0972 14.2219 79.3385 14.7652C79.5534 15.2092 79.8575 15.6042 80.2317 15.9256C80.6049 16.2359 81.0448 16.452 81.4981 16.5871C81.9689 16.7332 82.4593 16.8061 82.9522 16.8032C83.6003 16.8019 84.244 16.6968 84.8589 16.4921C85.4292 16.3018 85.9459 15.9781 86.3657 15.5477C86.4932 15.4166 86.5709 15.2451 86.5854 15.0628C86.5999 14.8804 86.5502 14.6988 86.445 14.5492L85.6453 13.2529ZM98.3525 4.95271H96.0326C95.9522 4.95241 95.8727 4.96904 95.7992 5.00153C95.7257 5.03401 95.6599 5.08163 95.606 5.14126C95.5461 5.20176 95.4987 5.27351 95.4666 5.35239C95.4345 5.43126 95.4183 5.51571 95.419 5.60086V5.88368C95.1274 5.54418 94.7687 5.26867 94.3655 5.07448C93.7306 4.76655 93.0316 4.61387 92.3261 4.62903C91.5881 4.62908 90.8573 4.77453 90.1755 5.05707C89.4937 5.33961 88.8742 5.75371 88.3525 6.27571C87.8017 6.82742 87.3664 7.48336 87.072 8.20522C86.7403 9.00447 86.5769 9.86348 86.5919 10.7287C86.5781 11.5983 86.7414 12.4617 87.072 13.2663C87.3658 13.9812 87.8057 14.6427 88.3391 15.1958C88.8532 15.7262 89.4687 16.1476 90.1491 16.4351C90.8295 16.7226 91.5608 16.8702 92.2994 16.8692C93.0032 16.8823 93.7008 16.7345 94.3388 16.4371C94.7395 16.2352 95.1126 15.9657 95.4057 15.6279V15.9248C95.4072 16.0898 95.4716 16.2469 95.5863 16.3624C95.7007 16.4783 95.8564 16.5442 96.0192 16.5455H98.3525C98.5142 16.5457 98.6694 16.482 98.7843 16.3682C98.8993 16.2545 98.9646 16.0999 98.966 15.9382V5.60164C98.9677 5.51963 98.9533 5.43808 98.9235 5.36165C98.8937 5.28521 98.8492 5.2154 98.7924 5.15619C98.7396 5.09088 98.6724 5.03862 98.5961 5.00347C98.5198 4.96832 98.4364 4.95043 98.3525 4.95271ZM95.2195 11.8356C95.0972 12.1615 94.9113 12.4598 94.6727 12.7132C94.4326 12.9564 94.1529 13.157 93.8454 13.3063C93.5208 13.459 93.1647 13.533 92.8061 13.5224C92.4455 13.5224 92.099 13.4415 91.7793 13.3063C91.465 13.162 91.18 12.9609 90.9387 12.7132C90.7001 12.4598 90.5142 12.1615 90.3919 11.8356C90.139 11.1428 90.139 10.3829 90.3919 9.69006C90.5144 9.36827 90.7004 9.07438 90.9387 8.82587C91.1791 8.58311 91.4588 8.3812 91.7793 8.23272C92.1016 8.08639 92.4521 8.01264 92.8061 8.01667C93.1659 8.01667 93.5123 8.08424 93.8454 8.23193C94.1526 8.3812 94.4323 8.56976 94.6727 8.8133C94.9123 9.06942 95.0993 9.35224 95.2195 9.67671C95.499 10.3692 95.499 11.1431 95.2195 11.8356ZM111.087 13.1044L109.753 12.0784C109.5 11.8765 109.26 11.8223 109.047 11.9032C108.859 11.9837 108.691 12.1034 108.554 12.2544C108.262 12.6076 107.921 12.9167 107.54 13.172C107.14 13.4014 106.7 13.5098 106.246 13.4823C105.725 13.4882 105.215 13.3301 104.789 13.0306C104.36 12.7293 104.036 12.3025 103.86 11.8089C103.739 11.471 103.676 11.1151 103.673 10.7562C103.673 10.3916 103.726 10.0271 103.86 9.67671C103.98 9.35224 104.153 9.05606 104.393 8.81252C104.633 8.56975 104.913 8.36706 105.219 8.23193C105.546 8.08173 105.9 8.00375 106.26 8.00332C106.713 7.987 107.161 8.09922 107.553 8.32699C107.937 8.57829 108.279 8.88789 108.567 9.24461C108.7 9.3931 108.86 9.51408 109.047 9.59579C109.26 9.67671 109.5 9.6225 109.74 9.41981L111.074 8.40792C111.233 8.2995 111.367 8.13766 111.42 7.94911C111.458 7.84819 111.473 7.74011 111.464 7.63275C111.454 7.52539 111.421 7.42144 111.367 7.32846C110.852 6.52528 110.147 5.86209 109.313 5.39816C108.433 4.89929 107.38 4.64239 106.206 4.64239C105.379 4.64261 104.559 4.80295 103.793 5.11455C103.06 5.41345 102.394 5.85397 101.833 6.41084C101.269 6.96255 100.825 7.62374 100.526 8.35371C99.8992 9.8986 99.8992 11.6271 100.526 13.172C100.833 13.9003 101.273 14.5618 101.833 15.1015C103 16.2451 104.572 16.8806 106.206 16.8692C107.38 16.8692 108.433 16.613 109.313 16.1134C110.154 15.6489 110.865 14.9809 111.38 14.1705C111.435 14.08 111.468 13.9782 111.477 13.873C111.486 13.7678 111.471 13.6619 111.434 13.5632C111.37 13.3771 111.249 13.2162 111.087 13.1044ZM123.434 15.5061L119.767 10.1214L122.901 5.97875C122.974 5.88422 123.024 5.77392 123.047 5.65663C123.07 5.53934 123.066 5.41829 123.034 5.3031C122.98 5.14205 122.834 4.96607 122.448 4.96607H119.968C119.825 4.9701 119.684 5.00213 119.554 5.06034C119.4 5.13745 119.275 5.26012 119.194 5.41152L116.687 8.92093H116.087V0.620745C116.089 0.53878 116.074 0.457248 116.045 0.380814C116.015 0.304379 115.971 0.234541 115.914 0.175292C115.856 0.118365 115.787 0.0735572 115.712 0.043479C115.636 0.0134009 115.555 -0.00134634 115.474 9.6516e-05H113.153C112.99 0.0032223 112.834 0.0654839 112.713 0.175292C112.651 0.231204 112.603 0.30014 112.57 0.377156C112.538 0.454171 112.523 0.537357 112.527 0.620745V15.9248C112.527 16.1 112.593 16.2626 112.713 16.3703C112.771 16.4273 112.84 16.4721 112.916 16.5022C112.991 16.5323 113.072 16.547 113.153 16.5455H115.474C115.637 16.5423 115.793 16.4801 115.914 16.3703C115.971 16.311 116.015 16.2412 116.045 16.1648C116.074 16.0883 116.089 16.0068 116.087 15.9248V11.8765H116.754L119.487 16.0733C119.647 16.3703 119.954 16.5588 120.287 16.5588H122.888C123.288 16.5588 123.447 16.3703 123.514 16.2084C123.561 16.0941 123.578 15.9698 123.564 15.847C123.55 15.7242 123.505 15.6069 123.434 15.5061ZM65.5644 4.95271H62.9641C62.8679 4.94708 62.7717 4.96228 62.6819 4.99726C62.5922 5.03224 62.511 5.08618 62.444 5.1554C62.3265 5.27506 62.2436 5.42442 62.2044 5.5875L60.2836 12.7399H59.8177L57.765 5.5875C57.7258 5.4363 57.6578 5.2941 57.5646 5.16876C57.508 5.10008 57.4367 5.04501 57.3559 5.00761C57.2751 4.97022 57.187 4.95145 57.098 4.95271H54.4041C54.0585 4.95271 53.8448 5.06113 53.7513 5.29053C53.6845 5.49244 53.6845 5.72263 53.7513 5.92454L57.0446 15.979C57.098 16.1275 57.1781 16.276 57.2983 16.3836C57.4319 16.5054 57.6047 16.5722 57.7909 16.5588H59.1783L59.0581 16.8833L58.7517 17.8143C58.6574 18.0971 58.4846 18.354 58.245 18.5425C58.0233 18.7129 57.7506 18.8034 57.4711 18.7994C57.2315 18.7994 56.9919 18.7452 56.7782 18.6502C56.5593 18.5552 56.3531 18.433 56.1647 18.2864C55.9934 18.1642 55.7883 18.0983 55.5778 18.0979H55.5511C55.4305 18.1039 55.3134 18.1404 55.2108 18.204C55.1081 18.2676 55.0233 18.3563 54.9643 18.4616L54.1378 19.6762C53.8047 20.2026 53.9909 20.5404 54.2046 20.729C54.6455 21.1362 55.1683 21.4445 55.7381 21.6332C56.3691 21.8487 57.0314 21.9581 57.6982 21.9569C58.8844 21.9569 59.8845 21.6332 60.6442 20.9859C61.4375 20.2893 62.0158 19.3809 62.3113 18.3674L66.1254 5.92454C66.2055 5.70849 66.2189 5.47908 66.1387 5.26304C66.0719 5.11455 65.9243 4.95271 65.5644 4.95271Z" fill="#011B33"/>
</svg>
