<svg width="72" height="72" viewBox="0 0 72 72" fill="none" xmlns="http://www.w3.org/2000/svg">
<path fill-rule="evenodd" clip-rule="evenodd" d="M7.49219 41.3127C7.53014 41.1088 7.5649 40.9113 7.59897 40.7176L7.59897 40.7176L7.59898 40.7176L7.59899 40.7175C7.65165 40.4183 7.70267 40.1283 7.76132 39.8384C8.00973 38.5268 8.25987 37.217 8.51 35.9072L8.51001 35.9071L8.51002 35.907L8.51003 35.907L8.51005 35.9069L8.51008 35.9067C8.76024 34.5968 9.0104 33.2868 9.25883 31.9751C9.29333 31.809 9.34164 31.6983 9.50726 31.6706C10.7977 31.4768 12.0951 31.3383 13.3856 31.6637C14.5104 31.9405 15.2972 32.7365 15.4283 33.671C15.6974 35.533 14.614 37.0212 13.006 37.5542C12.1572 37.831 11.2946 37.9003 10.4182 37.8172C10.2112 37.7964 10.149 37.8518 10.1145 38.0525C9.92822 39.07 9.73499 40.0806 9.53487 41.0912C9.52106 41.1743 9.44515 41.3058 9.39685 41.3058C8.92791 41.3161 8.46667 41.3149 7.98727 41.3136H7.98723H7.98719H7.98714H7.9871H7.98706H7.98695H7.98685H7.98674H7.98664H7.98653C7.82417 41.3132 7.65972 41.3127 7.49219 41.3127ZM10.459 36.1702C10.5939 36.1702 10.7246 36.1737 10.8519 36.1772C11.1218 36.1845 11.3767 36.1915 11.6252 36.1633C12.3429 36.0871 12.9157 35.7618 13.2401 35.0765C13.6058 34.3013 13.3436 33.4776 12.6535 33.2353C12.1635 33.0623 11.6597 33.0969 11.156 33.1661C11.0939 33.173 11.0111 33.2699 10.9973 33.3322C10.9008 33.8393 10.8043 34.3485 10.7042 34.8769L10.704 34.8778C10.6252 35.294 10.5441 35.722 10.459 36.1702ZM19.7316 39.984C19.6224 40.0979 19.5201 40.2125 19.4201 40.3245C19.2042 40.5664 18.9991 40.7962 18.7585 40.9807C18.0339 41.5414 17.2058 41.666 16.3708 41.2783C15.5427 40.8976 15.2046 40.157 15.1701 39.2848C15.0941 37.4505 15.7359 35.9347 17.2748 34.8825C18.241 34.218 19.352 34.0173 20.5045 34.0796C20.8857 34.1021 21.264 34.1684 21.6432 34.2349C21.8474 34.2708 22.052 34.3066 22.2573 34.3357C22.492 34.3703 22.5265 34.5018 22.4851 34.7026C22.4297 34.9921 22.3737 35.2812 22.3177 35.5702C22.1087 36.6495 21.9001 37.7262 21.726 38.8072C21.6261 39.4261 21.5862 40.06 21.5468 40.6876L21.5468 40.6876C21.5399 40.7971 21.533 40.9063 21.5258 41.0153C21.512 41.2368 21.4568 41.3268 21.2291 41.3199C20.8012 41.306 20.3734 41.306 19.9455 41.3199C19.7247 41.3268 19.6488 41.2437 19.6695 41.0292C19.6892 40.792 19.7018 40.5478 19.715 40.2941C19.7203 40.1923 19.7257 40.089 19.7316 39.984ZM20.2151 35.7055C19.5457 35.5187 18.9867 35.6502 18.5175 36.0447C17.6342 36.7923 17.2339 37.7613 17.3098 38.9173C17.3305 39.2703 17.4685 39.6095 17.8412 39.7618C18.2138 39.914 18.552 39.8033 18.8418 39.5541C19.0143 39.4018 19.18 39.2288 19.3042 39.035C19.7909 38.2898 19.9239 37.4492 20.059 36.5954V36.5954L20.059 36.5952C20.1058 36.2991 20.1529 36.0014 20.2151 35.7055ZM29.9917 39.5829C30.3712 40.8011 31.4132 41.4795 33.242 41.4795C34.498 41.4449 35.747 40.7319 36.5268 39.2645C36.9409 38.4754 37.0927 37.6309 37.0375 36.7449C36.9892 35.8935 36.6511 35.1737 35.961 34.6614C35.2364 34.1215 34.4083 34.0108 33.5249 34.1077C30.5713 34.4399 29.3637 37.5756 29.9917 39.5829ZM31.9547 38.5664C31.9554 38.531 31.9562 38.4959 31.9562 38.4615C31.9769 37.6655 32.1701 36.9249 32.6463 36.2673C32.8602 35.9766 33.1293 35.7551 33.4882 35.672C34.2197 35.5059 34.8201 35.9281 34.8891 36.7242C34.9719 37.7001 34.7373 38.6 34.1231 39.3822C33.8885 39.6729 33.5917 39.8736 33.2122 39.9082C32.529 39.9705 32.0114 39.5068 31.9562 38.78C31.9516 38.7105 31.9531 38.6379 31.9547 38.5664ZM38.6823 34.2529H40.4351C40.4075 34.6267 40.3799 34.9866 40.3454 35.3535C40.4093 35.2938 40.4711 35.2348 40.5317 35.1769C40.6608 35.0537 40.7845 34.9357 40.9113 34.8274C41.5945 34.2321 42.3743 33.9691 43.2783 34.1144C44.0236 34.239 44.5412 34.7859 44.624 35.5542C44.714 36.3537 44.5645 37.1291 44.4153 37.903L44.3825 38.0737C44.3223 38.3863 44.2628 38.6988 44.2033 39.0111L44.2028 39.0139L44.2022 39.0171C44.0711 39.7058 43.9402 40.3935 43.8028 41.0778C43.7821 41.1678 43.6786 41.2993 43.6095 41.3063C43.0161 41.3201 42.4226 41.3132 41.8291 41.3063C41.8092 41.3063 41.7893 41.2955 41.7591 41.2791C41.7474 41.2727 41.7341 41.2655 41.7187 41.2578C41.8291 40.6833 41.9395 40.1019 42.043 39.5204C42.2018 38.6275 42.3536 37.7415 42.4916 36.8486C42.5192 36.6963 42.5054 36.5371 42.4847 36.3848C42.4295 35.8518 42.0361 35.6096 41.5255 35.7688C41.0286 35.928 40.7319 36.3156 40.4903 36.7447C40.1315 37.3746 40.0073 38.0737 39.883 38.7728V38.7729C39.8519 38.9461 39.8212 39.1189 39.7904 39.2916L39.7904 39.2916L39.7904 39.2917L39.7904 39.2918C39.6848 39.885 39.5797 40.4759 39.4621 41.0709C39.4414 41.1609 39.3379 41.2993 39.2689 41.3063C38.7849 41.3228 38.2966 41.3218 37.776 41.3207H37.776C37.6433 41.3204 37.5085 41.3201 37.3711 41.3201C37.8266 38.939 38.2544 36.6063 38.6823 34.2529ZM48.6328 39.8657C47.9013 39.7757 47.4113 39.2635 47.4596 38.5436C47.6122 38.5436 47.7641 38.5459 47.9151 38.5482C48.2149 38.5528 48.5116 38.5574 48.8053 38.5436C49.5161 38.5021 50.2131 38.3844 50.8618 38.0591C51.6899 37.6437 52.0764 36.9585 52.0143 36.0656C51.9521 35.1588 51.4622 34.5012 50.5858 34.2382C49.2746 33.8436 48.0669 34.1205 47.0387 34.9996C45.7896 36.0656 45.3203 37.4776 45.4998 39.0904C45.624 40.2325 46.2451 41.0493 47.3768 41.34C48.5914 41.6515 49.7853 41.4854 50.9377 41.0147C51.0205 40.9801 51.1171 40.8486 51.1102 40.7655C51.0937 40.4277 51.0594 40.0899 51.0252 39.7521C51.0167 39.6677 51.0081 39.5832 50.9998 39.4988C50.9771 39.4988 50.9603 39.4976 50.9473 39.4967C50.9288 39.4955 50.9182 39.4947 50.9101 39.4988L50.9099 39.4989C50.834 39.5265 50.7582 39.5542 50.6893 39.5819C50.0268 39.838 49.3436 39.9487 48.6328 39.8657ZM49.7028 36.7997C49.2819 37.0212 48.1915 37.1527 47.6602 37.0419C47.7706 36.1213 48.7436 35.4015 49.5648 35.6022C49.8409 35.6714 50.041 35.8168 50.0893 36.1144C50.1376 36.4051 49.9927 36.6474 49.7028 36.7997ZM54.3507 38.5716C54.2886 39.2499 54.7717 39.7691 55.5101 39.866C56.2002 39.949 56.8627 39.8452 57.5114 39.6099C57.5711 39.5874 57.6288 39.5649 57.6921 39.5403L57.6923 39.5402L57.6926 39.5401C57.7462 39.5192 57.8039 39.4968 57.8702 39.4714C57.8837 39.6181 57.8987 39.7618 57.9134 39.9035L57.9134 39.9036C57.944 40.1967 57.9736 40.4813 57.9875 40.7658C57.9944 40.8489 57.8978 40.9804 57.8219 41.015C56.6488 41.4995 55.4411 41.6657 54.2058 41.3265C53.0948 41.0219 52.5151 40.2121 52.3771 39.1046C52.2046 37.6856 52.5703 36.405 53.5571 35.3529C54.6199 34.2247 55.9242 33.8232 57.4286 34.2385C58.3464 34.4946 58.8363 35.1591 58.8916 36.0936C58.9468 37.0073 58.5327 37.6925 57.6701 38.094C56.8006 38.4955 55.8759 38.5578 54.9373 38.5785C54.751 38.5716 54.5578 38.5716 54.3507 38.5716ZM54.5508 37.0978C54.6763 37.0899 54.7996 37.0837 54.9212 37.0776C55.2273 37.0622 55.5222 37.0474 55.8137 37.0078C56.0897 36.9732 56.3657 36.8901 56.6142 36.7724C56.8833 36.6548 57.0144 36.4056 56.973 36.101C56.9316 35.8103 56.7384 35.6719 56.4692 35.6026C55.6549 35.3811 54.6405 36.1287 54.5508 37.0978ZM59.274 39.8664C59.1842 40.3371 59.1014 40.8008 59.0117 41.3131C59.1499 41.3131 59.2862 41.3133 59.4208 41.3136C59.9518 41.3147 60.4582 41.3158 60.9647 41.2992C61.013 41.2992 61.0889 41.1677 61.1027 41.0846C61.1731 40.7389 61.2384 40.3915 61.3036 40.0442C61.4239 39.404 61.5441 38.7642 61.6962 38.1359C62.0343 36.7377 62.6071 36.2532 63.9666 36.0732C64.0218 36.0663 64.1115 36.004 64.1253 35.9555C64.2119 35.5577 64.2895 35.1569 64.37 34.7411C64.4113 34.5275 64.4535 34.3098 64.498 34.0866C63.1868 33.9482 62.4553 34.7096 61.8204 35.6441L61.8306 35.5088C61.8618 35.0956 61.8935 34.675 61.9308 34.232C61.7873 34.232 61.6465 34.2315 61.5077 34.2311C61.099 34.2298 60.7075 34.2286 60.316 34.2389C60.2608 34.2458 60.1573 34.3704 60.1504 34.4466C60.0031 36.2256 59.6546 37.9656 59.3064 39.7044L59.274 39.8664Z" fill="black"/>
<path fill-rule="evenodd" clip-rule="evenodd" d="M41.0059 25.9041C40.9361 25.8856 40.8662 25.8671 40.7963 25.8516C40.5824 25.8516 40.3685 25.8516 40.1407 25.8585C40.0629 25.8741 39.9852 25.8911 39.9067 25.9082C39.8112 25.9291 39.7148 25.9502 39.6163 25.9692C38.5604 26.17 37.5667 26.5368 36.6074 27.0214C34.5303 28.0735 32.667 29.4371 30.997 31.0499C29.8859 32.1159 28.8094 33.2303 27.7673 34.3724C25.9386 36.3797 24.3721 38.5878 23.123 41.0104C22.4812 42.2633 21.9015 43.5439 21.6393 44.9351C21.591 45.1913 21.6738 45.4889 21.7566 45.745C21.7911 45.8488 21.9844 45.925 22.1155 45.9665C22.15 45.9804 22.2535 45.8073 22.3018 45.7104C22.3189 45.6729 22.3365 45.6344 22.3545 45.5951C22.6542 44.9385 23.0594 44.0507 23.411 43.4629C24.1563 42.217 24.7447 41.2527 25.5797 40.0691C26.9185 38.1656 28.4828 36.2979 30.1252 34.6505C31.6779 33.0931 33.2329 31.7005 35.1858 30.6484C36.083 30.1708 37.0008 29.7001 37.9393 29.3125C39.561 28.6411 41.2518 28.1842 42.9908 27.9281C43.1771 27.9004 43.4256 27.7551 43.4877 27.6028C43.5429 27.4644 43.4118 27.2013 43.2806 27.0698C42.7493 26.523 42.1282 26.1077 41.3553 25.9831C41.2388 25.9658 41.1224 25.9349 41.0059 25.9041ZM25.2016 35.3484C25.5328 34.4486 25.6985 33.5141 25.7192 32.5451C25.71 32.4412 25.7023 32.3374 25.6946 32.2336C25.6793 32.0259 25.6639 31.8183 25.6363 31.6106C25.45 30.0047 24.7599 28.6411 23.6627 27.4713C23.5316 27.3398 23.3521 27.236 23.1727 27.1737C22.9933 27.1045 22.876 27.2083 22.8898 27.416C22.8901 27.4203 22.8904 27.4247 22.8908 27.4291C22.9043 27.605 22.9182 27.7872 22.9519 27.9628C23.0004 28.2394 23.0485 28.5163 23.0967 28.7934C23.268 29.7785 23.4397 30.7659 23.6282 31.7491C23.8145 32.7389 24.0215 33.7218 24.2424 34.6978C24.3183 35.0093 24.4425 35.3207 24.5943 35.6115C24.7116 35.833 24.8772 35.8122 25.0291 35.6115C25.0981 35.5284 25.1671 35.4453 25.2016 35.3484Z" fill="#FC461E"/>
</svg>
