<svg width="72" height="72" viewBox="0 0 72 72" fill="none" xmlns="http://www.w3.org/2000/svg">
<path d="M25.9531 63.4803L26.9573 57.1019L24.7204 57.05H14.0391L21.4621 9.98333C21.4851 9.84124 21.56 9.70876 21.6694 9.61468C21.7789 9.52059 21.919 9.46875 22.065 9.46875H40.0752C46.0543 9.46875 50.1805 10.713 52.3349 13.1687C53.3448 14.3208 53.988 15.5247 54.2991 16.8495C54.6255 18.2396 54.6313 19.9005 54.3125 21.9262L54.2895 22.074V23.372L55.2995 23.9442C56.15 24.3954 56.8259 24.9119 57.3443 25.5033C58.2084 26.4883 58.7671 27.7401 59.0033 29.2244C59.2471 30.7508 59.1665 32.5672 58.7671 34.6236C58.3063 36.9891 57.5613 39.0494 56.5552 40.7352C55.6297 42.2885 54.4508 43.5769 53.0511 44.5753C51.7147 45.5238 50.1268 46.2439 48.3315 46.7047C46.5919 47.1578 44.6085 47.3863 42.4331 47.3863H41.0314C40.0291 47.3863 39.0557 47.7473 38.2915 48.3943C37.5254 49.0548 37.0185 49.9573 36.8629 50.9442L36.7573 51.5183L34.9832 62.7603L34.9025 63.1731C34.8814 63.3037 34.8449 63.369 34.7912 63.4131C34.7432 63.4534 34.6741 63.4803 34.6069 63.4803H25.9531V63.4803Z" fill="#253B80"/>
<path d="M56.2546 22.2188V22.2188V22.2188C56.2008 22.5624 56.1394 22.9138 56.0702 23.2748C53.6951 35.4692 45.5694 39.6818 35.1914 39.6818H29.9074C28.6382 39.6818 27.5687 40.6034 27.3709 41.8553V41.8553V41.8553L24.6656 59.0131L23.8995 63.8766C23.7708 64.6984 24.4044 65.4395 25.2339 65.4395H34.6058C35.7156 65.4395 36.6583 64.6331 36.833 63.5387L36.9252 63.0625L38.6898 51.8646L38.803 51.2502C38.9758 50.1519 39.9205 49.3455 41.0303 49.3455H42.432C51.512 49.3455 58.6201 45.659 60.6976 34.9911C61.5655 30.5346 61.1162 26.8135 58.8198 24.1964C58.1247 23.4073 57.2626 22.7525 56.2546 22.2188V22.2188Z" fill="#179BD7"/>
<path d="M53.774 21.2275C53.4112 21.1219 53.0367 21.0259 52.6527 20.9395C52.2668 20.855 51.8713 20.7801 51.4642 20.7149C50.0395 20.4844 48.4785 20.375 46.8061 20.375H32.6898C32.3422 20.375 32.012 20.4537 31.7163 20.5958C31.0654 20.9088 30.5815 21.5251 30.4644 22.2797L27.4614 41.2999L27.375 41.8548C27.5728 40.6029 28.6422 39.6813 29.9114 39.6813H35.1954C45.5734 39.6813 53.6992 35.4668 56.0743 23.2743C56.1453 22.9133 56.2049 22.562 56.2586 22.2183C55.6576 21.8995 55.0067 21.6269 54.3059 21.3946C54.1331 21.337 53.9545 21.2813 53.774 21.2275V21.2275Z" fill="#222D65"/>
<path d="M31.7114 20.6006C32.009 20.4586 32.3374 20.3798 32.6849 20.3798H46.8012C48.4736 20.3798 50.0346 20.4893 51.4593 20.7197C51.8664 20.785 52.2619 20.8598 52.6479 20.9443C53.0319 21.0307 53.4063 21.1267 53.7692 21.2323C53.9497 21.2861 54.1282 21.3418 54.303 21.3975C55.0038 21.6298 55.6547 21.9044 56.2557 22.2212C56.9623 17.7148 56.2499 14.6465 53.8133 11.8682C51.1272 8.80949 46.279 7.5 40.0752 7.5H22.065C20.7977 7.5 19.7167 8.42163 19.5209 9.67544L12.0192 57.226C11.8713 58.1668 12.5971 59.0155 13.5456 59.0155H24.6648L27.4565 41.3028L30.4595 22.2826C30.5767 21.528 31.0605 20.9117 31.7114 20.6006Z" fill="#253B80"/>
</svg>
