<svg width="21" height="20" viewBox="0 0 21 20" fill="none" xmlns="http://www.w3.org/2000/svg">
<path d="M2.25 10.75H18.75C19.1642 10.75 19.5 10.4142 19.5 10C19.5 9.58579 19.1642 9.25 18.75 9.25H2.25C1.83579 9.25 1.5 9.58579 1.5 10C1.5 10.4142 1.83579 10.75 2.25 10.75Z" fill="#8530C1"/>
<path d="M9.75 1.75V18.25C9.75 18.6642 10.0858 19 10.5 19C10.9142 19 11.25 18.6642 11.25 18.25V1.75C11.25 1.33579 10.9142 1 10.5 1C10.0858 1 9.75 1.33579 9.75 1.75Z" fill="#8530C1"/>
<path d="M2.25 10.75H18.75C19.1642 10.75 19.5 10.4142 19.5 10C19.5 9.58579 19.1642 9.25 18.75 9.25H2.25C1.83579 9.25 1.5 9.58579 1.5 10C1.5 10.4142 1.83579 10.75 2.25 10.75Z" stroke="#8530C1" stroke-width="2"/>
<path d="M9.75 1.75V18.25C9.75 18.6642 10.0858 19 10.5 19C10.9142 19 11.25 18.6642 11.25 18.25V1.75C11.25 1.33579 10.9142 1 10.5 1C10.0858 1 9.75 1.33579 9.75 1.75Z" stroke="#8530C1" stroke-width="2"/>
</svg>
