<svg width="13" height="21" viewBox="0 0 13 21" fill="none" xmlns="http://www.w3.org/2000/svg">
<path d="M12.1358 2.04487L12.1361 2.04453C12.3275 1.8755 12.4351 1.64624 12.4351 1.40719C12.4351 1.16814 12.3275 0.938887 12.1361 0.769854L12.1356 0.769338L12.1273 0.762167L12.1267 0.761658C11.9361 0.597647 11.6806 0.505859 11.4144 0.505859C11.1438 0.505859 10.8842 0.600821 10.6927 0.769854L10.6924 0.770192L0.486436 9.78319C0.29503 9.95222 0.1875 10.1815 0.1875 10.4205C0.1875 10.6596 0.29503 10.8888 0.486436 11.0579L10.6927 20.0712C10.8842 20.2402 11.1438 20.3352 11.4144 20.3352C11.6851 20.3352 11.9447 20.2402 12.1361 20.0712C12.3275 19.9022 12.4351 19.6729 12.4351 19.4339C12.4351 19.1948 12.3275 18.9656 12.1361 18.7965L2.65152 10.4205L12.1358 2.04487Z" fill="#1C1C1C"/>
</svg>
