<svg width="17" height="17" viewBox="0 0 17 17" fill="none" xmlns="http://www.w3.org/2000/svg">
<path d="M14.2741 8.50002C14.1376 11.6647 11.7472 14.2527 8.49924 14.2755C5.37275 14.2982 2.69399 11.6268 2.72434 8.50002C2.78505 1.02459 13.963 1.07013 14.2741 8.50002C14.35 10.2456 17.0743 10.2531 16.9984 8.50002C16.8011 3.87057 13.2725 0.0228119 8.49924 4.40617e-05C3.89298 -0.0151345 -0.0151331 3.89334 4.40576e-05 8.50002C0.0152212 13.1219 3.86263 17 8.49924 17C13.1359 17 16.8011 13.1143 16.9984 8.50002C17.0743 6.7469 14.35 6.75449 14.2741 8.50002Z" fill="#8530C1"/>
</svg>
