<svg width="12" height="15" viewBox="0 0 12 15" fill="none" xmlns="http://www.w3.org/2000/svg">
<path fillRule="evenodd" clipRule="evenodd" d="M11.0625 1.375V13.75C11.0625 14.0607 10.8107 14.3125 10.5 14.3125C10.3946 14.3125 10.2913 14.2829 10.2019 14.227L6 11.6008L1.79812 14.227C1.53469 14.3916 1.18765 14.3116 1.023 14.0481C0.967127 13.9587 0.9375 13.8554 0.9375 13.75V1.375C0.9375 1.375 0.9375 0.90901 1.26701 0.579505C1.26701 0.579505 1.59651 0.25 2.0625 0.25H9.9375C9.9375 0.25 10.4035 0.25 10.733 0.579505C10.733 0.579505 11.0625 0.90901 11.0625 1.375ZM9.9375 1.375H2.0625V12.7351L5.70188 10.4605C5.88428 10.3465 6.11572 10.3465 6.29812 10.4605L9.9375 12.7351V1.375Z" fill="#8530C1"/>
</svg>
