<svg width="18" height="19" viewBox="0 0 18 19" fill="none" xmlns="http://www.w3.org/2000/svg">
<path fillRule="evenodd" clipRule="evenodd" d="M7.97721 2.50065C6.31961 2.50065 4.7299 3.15913 3.5578 4.33123C2.38569 5.50334 1.72721 7.09305 1.72721 8.75065C1.72721 10.4083 2.38569 11.998 3.5578 13.1701C4.7299 14.3422 6.31961 15.0007 7.97721 15.0007C9.62727 15.0007 11.2101 14.3482 12.3806 13.186C12.387 13.1792 12.3935 13.1725 12.4001 13.1659C12.4062 13.1599 12.4123 13.1539 12.4184 13.1482C13.5769 11.9782 14.2272 10.3979 14.2272 8.75065C14.2272 7.09305 13.5687 5.50334 12.3966 4.33123C11.2245 3.15913 9.63482 2.50065 7.97721 2.50065ZM14.1359 13.7251C15.2681 12.3234 15.8939 10.5693 15.8939 8.75065C15.8939 6.65102 15.0598 4.63739 13.5751 3.15272C12.0905 1.66806 10.0768 0.833984 7.97721 0.833984C5.87758 0.833984 3.86395 1.66806 2.37928 3.15272C0.894622 4.63739 0.0605469 6.65102 0.0605469 8.75065C0.0605469 10.8503 0.894622 12.8639 2.37928 14.3486C3.86395 15.8332 5.87758 16.6673 7.97721 16.6673C9.79855 16.6673 11.5552 16.0397 12.9579 14.9042L16.1374 18.0894C16.4626 18.4151 16.9902 18.4156 17.3159 18.0904C17.6417 17.7653 17.6421 17.2376 17.317 16.9119L14.1359 13.7251Z" fill="#B5B5C3"/>
</svg>
