<svg width="100" height="100" viewBox="0 0 100 100" fill="none" xmlns="http://www.w3.org/2000/svg">
<rect opacity="0.1" width="100" height="100" rx="13" fill="#447ADC"/>
<path fillRule="evenodd" clipRule="evenodd" d="M69.5826 55.4334L69.582 55.4359C69.582 55.4359 68.1293 60.6518 64.2729 64.4527C64.2729 64.4527 60.4153 68.2548 55.1767 69.6314C55.1767 69.6314 49.9381 71.0079 44.7096 69.5934C44.7096 69.5934 39.4812 68.1789 35.6512 64.3489C35.6512 64.3489 31.8212 60.5189 30.4067 55.2905C30.4067 55.2905 28.9922 50.062 30.3687 44.8234C30.3687 44.8234 31.7453 39.5849 35.5474 35.7272C35.5474 35.7272 39.3496 31.8696 44.5676 30.4172C44.9828 30.3016 45.4269 30.3557 45.8022 30.5676C46.1775 30.7795 46.4533 31.1317 46.5689 31.5469C46.6485 31.833 46.6482 32.1355 46.568 32.4214C46.568 32.4214 45.3208 36.8693 46.4905 41.3382C46.4905 41.3382 47.6602 45.8071 50.9266 49.0735C50.9266 49.0735 54.193 52.3399 58.6619 53.5096C58.6619 53.5096 63.1308 54.6793 67.5787 53.4321C67.8556 53.3544 68.1482 53.3517 68.4266 53.4241L68.4532 53.4312C69.0006 53.5836 69.4286 54.0109 69.5821 54.558C69.6597 54.8349 69.6625 55.1275 69.5901 55.4059L69.5826 55.4334ZM61.9915 62.138C61.9915 62.138 64.2268 59.9349 65.5007 57.1658C65.5007 57.1658 61.6763 57.6581 57.839 56.6537C57.839 56.6537 52.5179 55.2609 48.6285 51.3716C48.6285 51.3716 44.7391 47.4822 43.3464 42.1611C43.3464 42.1611 42.342 38.3238 42.8343 34.4994C42.8343 34.4994 40.0652 35.7733 37.8621 38.0086C37.8621 38.0086 34.6683 41.249 33.512 45.6494C33.512 45.6494 32.3557 50.0498 33.5439 54.4417C33.5439 54.4417 34.7321 58.8336 37.9493 62.0508C37.9493 62.0508 41.1665 65.268 45.5584 66.4562C45.5584 66.4562 49.9503 67.6444 54.3507 66.4881C54.3507 66.4881 58.7511 65.3317 61.9915 62.138Z" fill="#447ADC"/>
</svg>
