<svg width="100" height="100" viewBox="0 0 100 100" fill="none" xmlns="http://www.w3.org/2000/svg">
<rect opacity="0.1" width="100" height="100" rx="13" fill="#2BB457"/>
<path fill-rule="evenodd" clip-rule="evenodd" d="M50 28.0625C50 28.0625 54.0386 28.0625 56.8943 30.9182C56.8943 30.9182 59.75 33.7739 59.75 37.8125C59.75 37.8125 59.75 41.8511 56.8943 44.7068C56.8943 44.7068 54.0386 47.5625 50 47.5625C50 47.5625 45.9614 47.5625 43.1057 44.7068C43.1057 44.7068 40.25 41.8511 40.25 37.8125C40.25 37.8125 40.25 33.7739 43.1057 30.9182C43.1057 30.9182 45.9614 28.0625 50 28.0625ZM50 31.3125C50 31.3125 47.3076 31.3125 45.4038 33.2163C45.4038 33.2163 43.5 35.1201 43.5 37.8125C43.5 37.8125 43.5 40.5049 45.4038 42.4087C45.4038 42.4087 47.3076 44.3125 50 44.3125C50 44.3125 52.6924 44.3125 54.5962 42.4087C54.5962 42.4087 56.5 40.5049 56.5 37.8125C56.5 37.8125 56.5 35.1201 54.5962 33.2163C54.5962 33.2163 52.6924 31.3125 50 31.3125Z" fill="#2BB457"/>
<path fill-rule="evenodd" clip-rule="evenodd" d="M62.1875 49.1875C62.1875 49.1875 66.2261 49.1875 69.0818 52.0432C69.0818 52.0432 71.9375 54.8989 71.9375 58.9375C71.9375 58.9375 71.9375 62.9761 69.0818 65.8318C69.0818 65.8318 66.2261 68.6875 62.1875 68.6875C62.1875 68.6875 58.1489 68.6875 55.2932 65.8318C55.2932 65.8318 52.4375 62.9761 52.4375 58.9375C52.4375 58.9375 52.4375 54.8989 55.2932 52.0432C55.2932 52.0432 58.1489 49.1875 62.1875 49.1875ZM62.1875 52.4375C62.1875 52.4375 59.4951 52.4375 57.5913 54.3413C57.5913 54.3413 55.6875 56.2451 55.6875 58.9375C55.6875 58.9375 55.6875 61.6299 57.5913 63.5337C57.5913 63.5337 59.4951 65.4375 62.1875 65.4375C62.1875 65.4375 64.8799 65.4375 66.7837 63.5337C66.7837 63.5337 68.6875 61.6299 68.6875 58.9375C68.6875 58.9375 68.6875 56.2451 66.7837 54.3413C66.7837 54.3413 64.8799 52.4375 62.1875 52.4375Z" fill="#2BB457"/>
<path fill-rule="evenodd" clip-rule="evenodd" d="M37.8125 49.1875C37.8125 49.1875 41.8511 49.1875 44.7068 52.0432C44.7068 52.0432 47.5625 54.8989 47.5625 58.9375C47.5625 58.9375 47.5625 62.9761 44.7068 65.8318C44.7068 65.8318 41.8511 68.6875 37.8125 68.6875C37.8125 68.6875 33.7739 68.6875 30.9182 65.8318C30.9182 65.8318 28.0625 62.9761 28.0625 58.9375C28.0625 58.9375 28.0625 54.8989 30.9182 52.0432C30.9182 52.0432 33.7739 49.1875 37.8125 49.1875ZM37.8125 52.4375C37.8125 52.4375 35.1201 52.4375 33.2163 54.3413C33.2163 54.3413 31.3125 56.2451 31.3125 58.9375C31.3125 58.9375 31.3125 61.6299 33.2163 63.5337C33.2163 63.5337 35.1201 65.4375 37.8125 65.4375C37.8125 65.4375 40.5049 65.4375 42.4087 63.5337C42.4087 63.5337 44.3125 61.6299 44.3125 58.9375C44.3125 58.9375 44.3125 56.2451 42.4087 54.3413C42.4087 54.3413 40.5049 52.4375 37.8125 52.4375Z" fill="#2BB457"/>
</svg>
