<svg width="100" height="100" viewBox="0 0 100 100" fill="none" xmlns="http://www.w3.org/2000/svg">
<rect width="100" height="100" rx="13" fill="#FFEDEA"/>
<path d="M27.25 50H72.75C73.6475 50 74.375 49.2725 74.375 48.375C74.375 47.4775 73.6475 46.75 72.75 46.75H27.25C26.3525 46.75 25.625 47.4775 25.625 48.375C25.625 49.2725 26.3525 50 27.25 50Z" fill="#ED1C24"/>
<path d="M63 66.25V61.375C63 60.4775 62.2725 59.75 61.375 59.75C60.4775 59.75 59.75 60.4775 59.75 61.375V66.25C59.75 67.5962 60.7019 68.5481 60.7019 68.5481C61.6538 69.5 63 69.5 63 69.5H67.875C69.2212 69.5 70.1731 68.5481 70.1731 68.5481C71.125 67.5962 71.125 66.25 71.125 66.25V61.375C71.125 60.4775 70.3975 59.75 69.5 59.75C68.6025 59.75 67.875 60.4775 67.875 61.375V66.25H63Z" fill="#ED1C24"/>
<path d="M32.125 66.25V61.375C32.125 60.4775 31.3975 59.75 30.5 59.75C29.6025 59.75 28.875 60.4775 28.875 61.375V66.25C28.875 67.5962 29.8269 68.5481 29.8269 68.5481C30.7788 69.5 32.125 69.5 32.125 69.5H37C38.3462 69.5 39.2981 68.5481 39.2981 68.5481C40.25 67.5962 40.25 66.25 40.25 66.25V61.375C40.25 60.4775 39.5225 59.75 38.625 59.75C37.7275 59.75 37 60.4775 37 61.375V66.25H32.125Z" fill="#ED1C24"/>
<path d="M35.375 54.875C35.375 55.7725 36.1025 56.5 37 56.5H40.25C41.1475 56.5 41.875 55.7725 41.875 54.875C41.875 53.9775 41.1475 53.25 40.25 53.25H37C36.1025 53.25 35.375 53.9775 35.375 54.875Z" fill="#ED1C24"/>
<path d="M58.125 54.875C58.125 55.7725 58.8525 56.5 59.75 56.5H63C63.8975 56.5 64.625 55.7725 64.625 54.875C64.625 53.9775 63.8975 53.25 63 53.25H59.75C58.8525 53.25 58.125 53.9775 58.125 54.875Z" fill="#ED1C24"/>
<path fill-rule="evenodd" clip-rule="evenodd" d="M71.125 61.375C71.125 62.2725 70.3975 63 69.5 63H30.5C29.6025 63 28.875 62.2725 28.875 61.375V48.375C28.875 48.1474 28.9228 47.9223 29.0153 47.7144L35.0841 34.075C35.0841 34.075 35.4704 33.19 36.2772 32.6594C36.2772 32.6594 37.0841 32.1289 38.0562 32.125L61.9503 32.125C61.9503 32.125 62.9159 32.1289 63.7228 32.6594C63.7228 32.6594 64.5296 33.19 64.9112 34.0644L70.9847 47.7144C71.0772 47.9223 71.125 48.1474 71.125 48.375V61.375ZM67.875 48.7202V59.75H32.125V48.7202L38.0628 35.375L61.9372 35.375L61.9419 35.3856L67.875 48.7202Z" fill="#ED1C24"/>
</svg>
