<svg width="22" height="22" viewBox="0 0 22 22" fill="none" xmlns="http://www.w3.org/2000/svg">
<path fillRule="evenodd" clipRule="evenodd" d="M11.0004 5.75043C11.0004 5.75043 13.175 5.75043 14.7127 7.28812C14.7127 7.28812 16.2504 8.82581 16.2504 11.0004C16.2504 11.0004 16.2504 13.175 14.7127 14.7127C14.7127 14.7127 13.175 16.2504 11.0004 16.2504C11.0004 16.2504 8.82581 16.2504 7.28812 14.7127C7.28812 14.7127 5.75043 13.175 5.75043 11.0004C5.75043 11.0004 5.75043 8.82581 7.28812 7.28812C7.28812 7.28812 8.82581 5.75043 11.0004 5.75043ZM11.0004 7.25043C11.0004 7.25043 9.44713 7.25043 8.34878 8.34878C8.34878 8.34878 7.25043 9.44713 7.25043 11.0004C7.25043 11.0004 7.25043 12.5537 8.34878 13.6521C8.34878 13.6521 9.44713 14.7504 11.0004 14.7504C11.0004 14.7504 12.5537 14.7504 13.6521 13.6521C13.6521 13.6521 14.7504 12.5537 14.7504 11.0004C14.7504 11.0004 14.7504 9.44713 13.6521 8.34878C13.6521 8.34878 12.5537 7.25043 11.0004 7.25043Z" fill="#B5B5C3"/>
<path fillRule="evenodd" clipRule="evenodd" d="M16.5991 2.43808L16.9276 4.73746C16.9276 4.73746 17.0998 4.90311 17.2635 5.07323L19.5627 5.40168C19.791 5.43429 19.9915 5.57008 20.1066 5.7699C20.1066 5.7699 20.7834 6.94537 21.137 8.25493C21.1972 8.4779 21.1513 8.71617 21.0126 8.90083L19.6158 10.7604C19.6158 10.7604 19.6234 11.0332 19.6189 11.2445L21.0126 13.1C21.1511 13.2844 21.197 13.5222 21.1372 13.7449C21.1372 13.7449 20.7851 15.0561 20.1061 16.2317C19.991 16.4311 19.7906 16.5665 19.5627 16.5991L17.258 16.9284C17.258 16.9284 17.0724 17.119 16.928 17.2605L16.5991 19.5627C16.5665 19.791 16.4307 19.9915 16.2309 20.1066C16.2309 20.1066 15.0554 20.7834 13.7459 21.137C13.5229 21.1972 13.2846 21.1513 13.1 21.0126L11.2497 19.6227C11.2497 19.6227 11.0004 19.6328 10.7511 19.6227L8.90083 21.0126C8.71644 21.1511 8.47857 21.197 8.25585 21.1372C8.25585 21.1372 6.94472 20.7851 5.76907 20.1061C5.56969 19.991 5.43425 19.7906 5.40168 19.5627L5.07262 17.2592C5.07262 17.2592 4.90493 17.0959 4.74155 16.9282L2.43808 16.5991C2.20982 16.5665 2.00925 16.4307 1.8942 16.2309C1.8942 16.2309 1.21734 15.0554 0.863817 13.7459C0.803624 13.5229 0.849517 13.2846 0.988223 13.1L2.38501 11.2404C2.38501 11.2404 2.37741 10.9676 2.38193 10.7563L0.988223 8.90083C0.849718 8.71644 0.803747 8.47857 0.863569 8.25585C0.863569 8.25585 1.21573 6.94471 1.89467 5.76907C2.00982 5.56969 2.21016 5.43425 2.43808 5.40168L4.74155 5.07262C4.74155 5.07262 4.90492 4.90492 5.07262 4.74155L5.40168 2.43808C5.43429 2.20982 5.57008 2.00925 5.7699 1.8942C5.7699 1.8942 6.94538 1.21734 8.25493 0.863817C8.4779 0.803624 8.71617 0.849517 8.90083 0.988223L10.7511 2.37805C10.7511 2.37805 11.0004 2.36795 11.2497 2.37805L13.1 0.988223C13.2844 0.849718 13.5222 0.803747 13.7449 0.863569C13.7449 0.863569 15.0561 1.21573 16.2317 1.89467C16.4311 2.00982 16.5665 2.21016 16.5991 2.43808ZM15.4798 5.20959L15.1671 3.02032C15.1671 3.02032 14.4617 2.65001 13.7014 2.41252L11.929 3.74382C11.7809 3.85504 11.5969 3.90754 11.4125 3.89123C11.4125 3.89123 11.0004 3.85479 10.5883 3.89123C10.4039 3.90754 10.2199 3.85504 10.0718 3.74382L8.29986 2.41283C8.29986 2.41283 7.5395 2.65109 6.83366 3.02083L6.52098 5.20959C6.49703 5.3773 6.41699 5.53195 6.29392 5.64837C6.29392 5.64837 5.96218 5.96218 5.64837 6.29392C5.53195 6.41699 5.3773 6.49703 5.20959 6.52098L3.02032 6.83374C3.02032 6.83374 2.65001 7.53906 2.41252 8.29944L3.74382 10.0718C3.85501 10.2199 3.90752 10.4038 3.89124 10.5882C3.89124 10.5882 3.86748 10.8575 3.89342 11.4455C3.90108 11.6191 3.8482 11.79 3.74382 11.929L2.41283 13.7009C2.41283 13.7009 2.65109 14.4613 3.02083 15.1671L5.20959 15.4798C5.3773 15.5038 5.53195 15.5838 5.64837 15.7069C5.64837 15.7069 5.96219 16.0386 6.29392 16.3524C6.41699 16.4688 6.49703 16.6235 6.52098 16.7912L6.83374 18.9805C6.83374 18.9805 7.53906 19.3508 8.29944 19.5883L10.0718 18.257C10.2199 18.1458 10.4039 18.0933 10.5883 18.1096C10.5883 18.1096 11.0004 18.146 11.4125 18.1096C11.5969 18.0933 11.7809 18.1458 11.929 18.257L13.7009 19.588C13.7009 19.588 14.4613 19.3497 15.1671 18.98L15.4798 16.7912C15.5043 16.62 15.5872 16.4624 15.7145 16.3453C15.7145 16.3453 15.9316 16.1455 16.356 15.7031C16.472 15.5821 16.6253 15.5035 16.7912 15.4798L18.9805 15.1671C18.9805 15.1671 19.3508 14.4617 19.5883 13.7014L18.257 11.929C18.1458 11.7809 18.0933 11.597 18.1095 11.4126C18.1095 11.4126 18.1333 11.1433 18.1074 10.5553C18.0997 10.3817 18.1526 10.2108 18.257 10.0718L19.588 8.29986C19.588 8.29986 19.3497 7.5395 18.98 6.83366L16.7912 6.52098C16.6198 6.4965 16.4622 6.41347 16.345 6.28599C16.345 6.28599 16.0474 5.96213 15.7142 5.65518C15.587 5.53809 15.5043 5.38068 15.4798 5.20959Z" fill="#B5B5C3"/>
</svg>
