<svg width="18" height="18" viewBox="0 0 18 18" fill="none" xmlns="http://www.w3.org/2000/svg">
<path d="M12.7727 3.53975C12.6673 3.43426 12.5242 3.375 12.375 3.375C12.2258 3.375 12.0827 3.43426 11.9773 3.53975C11.8718 3.64524 11.8125 3.78832 11.8125 3.9375C11.8125 4.08668 11.8718 4.22976 11.9773 4.33525L14.9545 7.3125L11.9775 10.2895C11.872 10.395 11.8125 10.5383 11.8125 10.6875C11.8125 10.6965 11.8127 10.7055 11.8131 10.7145C11.8199 10.8542 11.8784 10.9864 11.9773 11.0852C12.0827 11.1907 12.2258 11.25 12.375 11.25C12.5242 11.25 12.6673 11.1907 12.7727 11.0852L16.1477 7.71025C16.2532 7.60476 16.3125 7.46168 16.3125 7.3125C16.3125 7.16332 16.2532 7.02024 16.1477 6.91475L12.7727 3.53975Z" fill="#8530C1"/>
<path d="M2.8125 14.625V6.1875C2.8125 5.87684 2.56066 5.625 2.25 5.625C1.93934 5.625 1.6875 5.87684 1.6875 6.1875V14.625C1.6875 15.091 2.01701 15.4205 2.01701 15.4205C2.34651 15.75 2.8125 15.75 2.8125 15.75H13.5C13.8107 15.75 14.0625 15.4982 14.0625 15.1875C14.0625 14.8768 13.8107 14.625 13.5 14.625H2.8125Z" fill="#8530C1"/>
<path d="M11.8125 7.875H15.75C16.0607 7.875 16.3125 7.62316 16.3125 7.3125C16.3125 7.00184 16.0607 6.75 15.75 6.75H11.8125C9.31133 6.75076 7.33372 8.2818 7.33372 8.2818C5.35636 9.81267 4.72907 12.2333 4.72907 12.2333L4.72891 12.2339C4.71698 12.28 4.71094 12.3274 4.71094 12.375C4.71094 12.3825 4.71109 12.3899 4.71138 12.3974C4.71508 12.4901 4.74162 12.5804 4.78865 12.6603C4.86432 12.7889 4.98796 12.8821 5.13237 12.9195C5.17845 12.9315 5.22585 12.9375 5.27344 12.9375L5.28765 12.9373C5.53862 12.931 5.755 12.7591 5.81796 12.5161C6.34876 10.4671 8.02242 9.17137 8.02242 9.17137C9.69606 7.87564 11.8125 7.875 11.8125 7.875Z" fill="#8530C1"/>
</svg>
