<svg width="37" height="37" viewBox="0 0 37 37" fill="none" xmlns="http://www.w3.org/2000/svg">
<path d="M34.4942 3.44691C29.6899 1.08473 23.7886 2.76862 20.113 6.6918C16.4451 10.6079 14.8138 16.3605 14.7743 21.9918C14.7564 24.1248 14.9889 26.3525 16.0322 28.1875C17.0833 30.0154 19.1566 31.3297 21.0627 30.8148C22.8054 30.347 23.9785 28.4509 24.073 26.5136C24.2454 22.8023 20.8074 19.6535 17.352 19.4069C13.9034 19.1688 10.665 21.1642 8.19938 23.7049C5.47861 26.4958 3.41742 30.0251 2.24383 33.8754C2.17253 34.104 2.11995 34.3893 2.28638 34.5466C2.45281 34.704 2.76448 34.3573 2.55777 34.2667" stroke="#447ADC" strokeWidth="4" strokeLinecap="round" strokeLinejoin="round"/>
</svg>
