<svg width="19" height="25" viewBox="0 0 19 25" fill="none" xmlns="http://www.w3.org/2000/svg">
<path d="M16.9809 1.85073C13.7479 1.39073 10.3736 3.2331 8.64613 5.8897C6.92241 8.54131 6.67788 11.8264 7.38683 14.7893C7.65361 15.9121 8.08514 17.0439 8.95934 17.8379C9.83731 18.6269 11.2709 18.9802 12.3645 18.4003C13.3648 17.8717 13.8323 16.6857 13.6377 15.6533C13.2596 13.6768 10.7562 12.582 8.61999 13.0136C6.48906 13.4486 4.77686 15.0221 3.60618 16.7564C2.3127 18.6635 1.517 20.8511 1.30356 23.0632C1.2899 23.1948 1.29502 23.3531 1.41684 23.4087C1.53866 23.4642 1.68332 23.2316 1.54566 23.2176" stroke="#2BB457" strokeWidth="2" strokeLinecap="round" strokeLinejoin="round"/>
</svg>
