<svg width="100" height="101" viewBox="0 0 100 101" fill="none" xmlns="http://www.w3.org/2000/svg">
<rect y="0.5" width="100" height="100" rx="13" fill="#FBECFF"/>
<path fillRule="evenodd" clipRule="evenodd" d="M50 29.375C50 29.375 54.2968 29.375 58.2233 31.0358C58.2233 31.0358 62.0146 32.6394 64.9376 35.5624C64.9376 35.5624 67.8606 38.4854 69.4642 42.2767C69.4642 42.2767 71.125 46.2032 71.125 50.5C71.125 50.5 71.125 54.7968 69.4642 58.7233C69.4642 58.7233 67.8606 62.5146 64.9376 65.4376C64.9376 65.4376 62.0146 68.3606 58.2233 69.9642C58.2233 69.9642 54.2968 71.625 50 71.625C50 71.625 45.7032 71.625 41.7767 69.9642C41.7767 69.9642 37.9854 68.3606 35.0624 65.4376C35.0624 65.4376 32.1394 62.5146 30.5358 58.7233C30.5358 58.7233 28.875 54.7968 28.875 50.5C28.875 50.5 28.875 46.2032 30.5358 42.2767C30.5358 42.2767 32.1394 38.4854 35.0624 35.5624C35.0624 35.5624 37.9854 32.6394 41.7767 31.0358C41.7767 31.0358 45.7032 29.375 50 29.375ZM50 32.625C50 32.625 46.3623 32.625 43.0427 34.029C43.0427 34.029 39.8352 35.3857 37.3605 37.8605C37.3605 37.8605 34.8857 40.3352 33.529 43.5427C33.529 43.5427 32.125 46.8623 32.125 50.5C32.125 50.5 32.125 54.1377 33.529 57.4573C33.529 57.4573 34.8857 60.6648 37.3605 63.1395C37.3605 63.1395 39.8352 65.6143 43.0427 66.971C43.0427 66.971 46.3623 68.375 50 68.375C50 68.375 53.6377 68.375 56.9573 66.971C56.9573 66.971 60.1648 65.6143 62.6395 63.1395C62.6395 63.1395 65.1143 60.6648 66.471 57.4573C66.471 57.4573 67.875 54.1377 67.875 50.5C67.875 50.5 67.875 46.8623 66.471 43.5427C66.471 43.5427 65.1143 40.3352 62.6395 37.8605C62.6395 37.8605 60.1648 35.3857 56.9573 34.029C56.9573 34.029 53.6377 32.625 50 32.625Z" fill="#8530C1"/>
<path d="M41.875 58.625H58.125C59.0225 58.625 59.75 57.8975 59.75 57C59.75 56.1025 59.0225 55.375 58.125 55.375H41.875C40.9775 55.375 40.25 56.1025 40.25 57C40.25 57.8975 40.9775 58.625 41.875 58.625Z" fill="#8530C1"/>
<path d="M45.125 46.4375C45.125 47.7836 44.0336 48.875 42.6875 48.875C41.3414 48.875 40.25 47.7836 40.25 46.4375C40.25 45.0914 41.3414 44 42.6875 44C44.0336 44 45.125 45.0914 45.125 46.4375Z" fill="#8530C1"/>
<path d="M59.75 46.4375C59.75 47.7836 58.6586 48.875 57.3125 48.875C55.9664 48.875 54.875 47.7836 54.875 46.4375C54.875 45.0914 55.9664 44 57.3125 44C58.6586 44 59.75 45.0914 59.75 46.4375Z" fill="#8530C1"/>
</svg>
