<svg width="244" height="244" viewBox="0 0 244 244" fill="none" xmlns="http://www.w3.org/2000/svg">
<path d="M213.5 122C213.5 172.534 172.534 213.5 122 213.5C71.4658 213.5 30.5 172.534 30.5 122C30.5 71.4658 71.4658 30.5 122 30.5C172.534 30.5 213.5 71.4658 213.5 122Z" fill="#FBC70D"/>
<path fill-rule="evenodd" clip-rule="evenodd" d="M122 22.875C122 22.875 142.162 22.875 160.586 30.6679C160.586 30.6679 178.376 38.1924 192.092 51.908C192.092 51.908 205.808 65.6236 213.332 83.4137C213.332 83.4137 221.125 101.838 221.125 122C221.125 122 221.125 142.162 213.332 160.586C213.332 160.586 205.808 178.376 192.092 192.092C192.092 192.092 178.376 205.808 160.586 213.332C160.586 213.332 142.162 221.125 122 221.125C122 221.125 101.838 221.125 83.4137 213.332C83.4137 213.332 65.6236 205.808 51.908 192.092C51.908 192.092 38.1924 178.376 30.6679 160.586C30.6679 160.586 22.875 142.162 22.875 122C22.875 122 22.875 101.838 30.6679 83.4137C30.6679 83.4137 38.1925 65.6236 51.908 51.908C51.908 51.908 65.6236 38.1924 83.4137 30.6679C83.4137 30.6679 101.838 22.875 122 22.875ZM122 38.125C122 38.125 104.931 38.125 89.3544 44.7132C89.3544 44.7132 74.3038 51.0791 62.6914 62.6914C62.6914 62.6914 51.0791 74.3038 44.7132 89.3544C44.7132 89.3544 38.125 104.931 38.125 122C38.125 122 38.125 139.069 44.7132 154.646C44.7132 154.646 51.0791 169.696 62.6914 181.309C62.6914 181.309 74.3038 192.921 89.3544 199.287C89.3544 199.287 104.931 205.875 122 205.875C122 205.875 139.069 205.875 154.646 199.287C154.646 199.287 169.696 192.921 181.309 181.309C181.309 181.309 192.921 169.696 199.287 154.646C199.287 154.646 205.875 139.069 205.875 122C205.875 122 205.875 104.931 199.287 89.3544C199.287 89.3544 192.921 74.3038 181.309 62.6914C181.309 62.6914 169.696 51.079 154.646 44.7132C154.646 44.7132 139.069 38.125 122 38.125Z" fill="#8530C1"/>
<path d="M83.875 160.125H160.125C164.336 160.125 167.75 156.711 167.75 152.5C167.75 148.289 164.336 144.875 160.125 144.875H83.875C79.6638 144.875 76.25 148.289 76.25 152.5C76.25 156.711 79.6638 160.125 83.875 160.125Z" fill="#8530C1"/>
<path d="M99.125 102.938C99.125 109.254 94.0038 114.375 87.6875 114.375C81.3712 114.375 76.25 109.254 76.25 102.938C76.25 96.6212 81.3712 91.5 87.6875 91.5C94.0038 91.5 99.125 96.6212 99.125 102.938Z" fill="#8530C1"/>
<path d="M167.75 102.938C167.75 109.254 162.629 114.375 156.312 114.375C149.996 114.375 144.875 109.254 144.875 102.938C144.875 96.6212 149.996 91.5 156.312 91.5C162.629 91.5 167.75 96.6212 167.75 102.938Z" fill="#8530C1"/>
</svg>
