<svg width="72" height="72" viewBox="0 0 72 72" fill="none" xmlns="http://www.w3.org/2000/svg">
<path fill-rule="evenodd" clip-rule="evenodd" d="M38.4623 27.3118L34.4746 28.1928V24.8647L38.4623 24V27.3118ZM46.7569 29.1553C45.2 29.1553 44.1991 29.9057 43.6431 30.4278L43.4365 29.4163H39.9414V48.4387L43.9131 47.5741L43.929 42.9571C44.501 43.3813 45.343 43.9849 46.741 43.9849C49.5848 43.9849 52.1744 41.6357 52.1744 36.4641C52.1585 31.7329 49.5371 29.1553 46.7569 29.1553ZM45.8046 40.3961C44.8673 40.3961 44.3112 40.0535 43.93 39.6293L43.9141 33.5767C44.3271 33.1036 44.8991 32.7773 45.8046 32.7773C47.2503 32.7773 48.2512 34.4414 48.2512 36.5786C48.2512 38.7647 47.2662 40.3961 45.8046 40.3961ZM64.6927 36.6272C64.6927 32.4507 62.7227 29.1553 58.9575 29.1553C55.1764 29.1553 52.8887 32.4507 52.8887 36.5946C52.8887 41.5051 55.5895 43.9849 59.4659 43.9849C61.3564 43.9849 62.7862 43.5444 63.8665 42.9245V39.6616C62.7862 40.2163 61.547 40.5589 59.9742 40.5589C58.4332 40.5589 57.0669 40.0042 56.8922 38.0792H64.6609C64.6609 37.9892 64.6666 37.785 64.6732 37.5496L64.6732 37.5492L64.6732 37.5487L64.6732 37.548L64.6732 37.5475C64.6822 37.2282 64.6927 36.8522 64.6927 36.6272ZM56.8438 35.0776C56.8438 33.2341 57.9399 32.4673 58.9408 32.4673C59.9099 32.4673 60.9426 33.2341 60.9426 35.0776H56.8438ZM34.4746 29.4326H38.4623V43.7076H34.4746V29.4326ZM29.9472 29.4323L30.2014 30.6396C31.1387 28.8776 32.9975 29.2365 33.5059 29.4323V33.1846C33.0134 33.0051 31.4247 32.7767 30.4874 34.0329V43.7073H26.5156V29.4323H29.9472ZM22.2595 25.8931L18.3831 26.7414L18.3672 39.8091C18.3672 42.2236 20.1306 44.0019 22.4819 44.0019C23.7847 44.0019 24.7379 43.7571 25.2621 43.4635V40.1517C24.7538 40.3638 22.2436 41.1142 22.2436 38.6997V32.9082H25.2621V29.4333H22.2436L22.2595 25.8931ZM12.8698 32.6956C12.0278 32.6956 11.5194 32.9403 11.5194 33.5766C11.5194 34.2712 12.3943 34.5768 13.4798 34.9559C15.2493 35.574 17.5784 36.3875 17.5882 39.4007C17.5882 42.321 15.3164 44.0014 12.0119 44.0014C10.6456 44.0014 9.15225 43.724 7.67476 43.0714V39.1887C9.00926 39.9391 10.6933 40.4938 12.0119 40.4938C12.9016 40.4938 13.5371 40.2491 13.5371 39.4986C13.5371 38.7291 12.5886 38.3774 11.4436 37.9528C9.69976 37.3061 7.5 36.4903 7.5 33.7723C7.5 30.8847 9.64474 29.1554 12.8698 29.1554C14.1884 29.1554 15.4912 29.3675 16.8098 29.9058V33.7397C15.6024 33.0708 14.0772 32.6956 12.8698 32.6956Z" fill="#6461FC"/>
</svg>
