<svg width="20" height="19" viewBox="0 0 20 19" fill="none" xmlns="http://www.w3.org/2000/svg">
<path d="M0.25 4V11.5C0.25 11.9142 0.585786 12.25 1 12.25C1.41421 12.25 1.75 11.9142 1.75 11.5V4C1.75 3.58579 1.41421 3.25 1 3.25C0.585786 3.25 0.25 3.58579 0.25 4Z" fill="#B5B5C3"/>
<path d="M13.5772 16.1583C15.2509 17.0651 16.2905 18.6597 16.2905 18.6597C16.3991 18.8263 16.5695 18.9429 16.7642 18.9839C16.815 18.9946 16.8668 19 16.9188 19C16.9278 19 16.9368 18.9999 16.9459 18.9995C17.082 18.9946 17.2143 18.9527 17.3284 18.8783C17.5407 18.7399 17.6688 18.5035 17.6688 18.25C17.6688 18.2376 17.6685 18.2251 17.6678 18.2127C17.6612 18.0801 17.6195 17.9516 17.547 17.8404C16.2998 15.9274 14.2918 14.8395 14.2918 14.8395C12.2838 13.7516 10 13.7516 10 13.7516C7.71626 13.7516 5.70828 14.8395 5.70828 14.8395C3.70042 15.9273 2.45316 17.8402 2.45316 17.8402C2.3737 17.9621 2.33127 18.1046 2.33127 18.25L2.33127 18.251C2.33159 18.5041 2.45959 18.74 2.67165 18.8783C2.7935 18.9577 2.93581 19 3.08127 19L3.09116 19C3.13981 18.9993 3.18827 18.994 3.23588 18.9839C3.43052 18.9429 3.6009 18.8263 3.70953 18.6597C4.74915 17.0651 6.42282 16.1583 6.42282 16.1583C8.09649 15.2516 10 15.2516 10 15.2516C11.9035 15.2516 13.5772 16.1583 13.5772 16.1583Z" fill="#B5B5C3"/>
<path fillRule="evenodd" clipRule="evenodd" d="M10.2372 0.288488L19.2372 3.28849C19.4259 3.35139 19.5819 3.48668 19.6708 3.66459C19.7598 3.8425 19.7744 4.04847 19.7115 4.23717C19.6369 4.46112 19.4611 4.63686 19.2372 4.71151L10.2372 7.71151C10.0832 7.76283 9.91678 7.76283 9.76283 7.71151L0.76283 4.71151C0.574125 4.64861 0.418137 4.51332 0.32918 4.33541C0.240224 4.1575 0.225587 3.95153 0.288488 3.76283C0.363139 3.53888 0.538876 3.36314 0.76283 3.28849L9.76283 0.288488C9.91678 0.237171 10.0832 0.237171 10.2372 0.288488ZM3.37171 4L10 1.79057L16.6283 4L10 6.20943L3.37171 4Z" fill="#B5B5C3"/>
<path d="M6.68124 6.21278C6.69129 6.20181 6.701 6.19054 6.71038 6.17899C6.81889 6.04534 6.87812 5.87842 6.87812 5.70627C6.87811 5.4959 6.78977 5.29521 6.63462 5.15314C6.62365 5.1431 6.61239 5.13338 6.60084 5.124C6.46719 5.01549 6.30027 4.95627 6.12811 4.95627C5.91775 4.95627 5.71706 5.04461 5.57499 5.19976C4.37047 6.51539 4.07989 8.27593 4.07989 8.27593C3.7897 10.0363 4.50852 11.6692 4.50852 11.6692C5.22734 13.3021 6.7216 14.277 6.7216 14.277C8.21586 15.2518 10 15.2516 10 15.2516C11.7842 15.2516 13.2784 14.277 13.2784 14.277C14.7726 13.3021 15.4915 11.6692 15.4915 11.6692C16.2103 10.0363 15.9201 8.27593 15.9201 8.27593C15.6299 6.51556 14.425 5.19976 14.425 5.19976C14.4176 5.19165 14.41 5.18371 14.4022 5.17594C14.2615 5.03529 14.0708 4.95627 13.8719 4.95627C13.6844 4.95627 13.5036 5.02651 13.3654 5.15314C13.3573 5.16057 13.3493 5.16817 13.3415 5.17594C13.2089 5.30853 13.1308 5.48598 13.1226 5.67331L13.1225 5.67494C13.1221 5.68538 13.1219 5.69582 13.1219 5.70627C13.1219 5.89378 13.1921 6.07449 13.3187 6.21278C14.2224 7.19963 14.4401 8.51991 14.4401 8.51991C14.6577 9.84019 14.1186 11.0649 14.1186 11.0649C13.5795 12.2896 12.4588 13.0207 12.4588 13.0207C11.3381 13.7518 10 13.7516 10 13.7516C8.66192 13.7516 7.5412 13.0207 7.5412 13.0207C6.42051 12.2896 5.88139 11.0649 5.88139 11.0649C5.34227 9.84019 5.55991 8.51991 5.55991 8.51991C5.77756 7.19963 6.68124 6.21278 6.68124 6.21278Z" fill="#B5B5C3"/>
</svg>
