<svg width="17" height="17" viewBox="0 0 17 17" fill="none" xmlns="http://www.w3.org/2000/svg">
<path d="M0.375 4V10.25C0.375 10.5952 0.654822 10.875 1 10.875C1.34518 10.875 1.625 10.5952 1.625 10.25V4C1.625 3.65482 1.34518 3.375 1 3.375C0.654822 3.375 0.375 3.65482 0.375 4Z" fill="white"/>
<path d="M11.481 14.1319C12.8757 14.8876 13.7421 16.2164 13.7421 16.2164C13.8326 16.3552 13.9746 16.4524 14.1368 16.4866C14.1792 16.4955 14.2223 16.5 14.2656 16.5C14.2732 16.5 14.2807 16.4999 14.2882 16.4996C14.4017 16.4955 14.5119 16.4606 14.607 16.3986C14.7839 16.2832 14.8906 16.0863 14.8906 15.875C14.8906 15.8647 14.8904 15.8543 14.8899 15.8439C14.8844 15.7334 14.8496 15.6264 14.7892 15.5337C13.7498 13.9395 12.0765 13.0329 12.0765 13.0329C10.4031 12.1263 8.50002 12.1263 8.50002 12.1263C6.59689 12.1263 4.92356 13.0329 4.92356 13.0329C3.25035 13.9394 2.21097 15.5335 2.21097 15.5335C2.14475 15.6351 2.10939 15.7538 2.10939 15.875L2.10939 15.8758C2.10966 16.0868 2.21633 16.2834 2.39304 16.3986C2.49458 16.4648 2.61318 16.5 2.73439 16.5L2.74264 16.5C2.78317 16.4994 2.82356 16.495 2.86323 16.4866C3.02543 16.4524 3.16741 16.3552 3.25794 16.2164C4.12429 14.8876 5.51902 14.1319 5.51902 14.1319C6.91374 13.3763 8.50002 13.3763 8.50002 13.3763C10.0863 13.3763 11.481 14.1319 11.481 14.1319Z" fill="white"/>
<path fill-rule="evenodd" clip-rule="evenodd" d="M8.69764 0.907073L16.1976 3.40707C16.3549 3.45949 16.4849 3.57223 16.559 3.72049C16.6332 3.86875 16.6453 4.04039 16.5929 4.19764C16.5307 4.38427 16.3843 4.53072 16.1976 4.59293L8.69764 7.09293C8.56935 7.13569 8.43065 7.13569 8.30236 7.09293L0.802358 4.59293C0.645104 4.54051 0.515114 4.42777 0.440984 4.27951C0.366853 4.13125 0.354655 3.95961 0.407074 3.80236C0.469283 3.61573 0.61573 3.46928 0.802358 3.40707L8.30236 0.907073C8.43065 0.864309 8.56935 0.864309 8.69764 0.907073ZM2.97642 4L8.5 2.15881L14.0236 4L8.5 5.84119L2.97642 4Z" fill="white"/>
<path d="M5.73437 5.84398C5.74274 5.83484 5.75084 5.82545 5.75865 5.81583C5.84907 5.70445 5.89843 5.56535 5.89843 5.42189C5.89843 5.24659 5.82481 5.07934 5.69552 4.96095C5.68638 4.95258 5.67699 4.94448 5.66737 4.93667C5.55599 4.84625 5.41689 4.79689 5.27343 4.79689C5.09813 4.79689 4.93088 4.87051 4.81249 4.9998C3.80873 6.09616 3.56657 7.56328 3.56657 7.56328C3.32475 9.03025 3.92377 10.391 3.92377 10.391C4.52279 11.7518 5.768 12.5642 5.768 12.5642C7.01321 13.3765 8.50002 13.3763 8.50002 13.3763C9.98679 13.3763 11.232 12.5642 11.232 12.5642C12.4772 11.7518 13.0762 10.391 13.0762 10.391C13.6752 9.03026 13.4334 7.56328 13.4334 7.56328C13.1916 6.0963 12.1875 4.9998 12.1875 4.9998C12.1813 4.99304 12.175 4.98642 12.1685 4.97995C12.0513 4.86274 11.8923 4.79689 11.7266 4.79689C11.5703 4.79689 11.4197 4.85542 11.3045 4.96095C11.2977 4.96714 11.2911 4.97347 11.2846 4.97995C11.1741 5.09044 11.109 5.23831 11.1022 5.39442L11.1021 5.39578C11.1017 5.40448 11.1016 5.41318 11.1016 5.42189C11.1016 5.57815 11.1601 5.72874 11.2656 5.84398C12.0187 6.66636 12.2001 7.76659 12.2001 7.76659C12.3814 8.86683 11.9322 9.8874 11.9322 9.8874C11.4829 10.908 10.549 11.5173 10.549 11.5173C9.61508 12.1265 8.50002 12.1263 8.50002 12.1263C7.38493 12.1263 6.451 11.5173 6.451 11.5173C5.51709 10.908 5.06782 9.8874 5.06782 9.8874C4.61856 8.86682 4.79993 7.76659 4.79993 7.76659C4.9813 6.66636 5.73437 5.84398 5.73437 5.84398Z" fill="white"/>
</svg>
