<svg width="32" height="31" viewBox="0 0 32 31" fill="none" xmlns="http://www.w3.org/2000/svg">
<path d="M0.5625 6.5V18.375C0.5625 19.0308 1.09416 19.5625 1.75 19.5625C2.40584 19.5625 2.9375 19.0308 2.9375 18.375V6.5C2.9375 5.84416 2.40584 5.3125 1.75 5.3125C1.09416 5.3125 0.5625 5.84416 0.5625 6.5Z" fill="#447ADC"/>
<path d="M21.6639 25.7507C24.3139 27.1864 25.96 29.7111 25.96 29.7111C26.132 29.9749 26.4017 30.1596 26.7099 30.2246C26.7904 30.2415 26.8725 30.2501 26.9547 30.2501C26.969 30.2501 26.9833 30.2498 26.9977 30.2493C27.2132 30.2415 27.4226 30.1751 27.6033 30.0573C27.9395 29.8381 28.1422 29.4639 28.1422 29.0626C28.1422 29.0428 28.1417 29.0231 28.1407 29.0034C28.1303 28.7935 28.0643 28.5901 27.9495 28.414C25.9746 25.385 22.7953 23.6625 22.7953 23.6625C19.616 21.94 16 21.94 16 21.94C12.3841 21.94 9.20477 23.6625 9.20477 23.6625C6.02566 25.3849 4.05084 28.4136 4.05084 28.4136C3.92502 28.6066 3.85784 28.8323 3.85784 29.0626L3.85784 29.0641C3.85835 29.4649 4.06102 29.8384 4.39678 30.0573C4.5897 30.1831 4.81504 30.2501 5.04534 30.2501L5.06101 30.25C5.13803 30.2489 5.21476 30.2404 5.29014 30.2246C5.59832 30.1596 5.86808 29.9749 6.04009 29.7111C7.68616 27.1864 10.3361 25.7507 10.3361 25.7507C12.9861 24.315 16 24.315 16 24.315C19.014 24.315 21.6639 25.7507 21.6639 25.7507Z" fill="#447ADC"/>
<path fill-rule="evenodd" clip-rule="evenodd" d="M16.3755 0.623439L30.6255 5.37344C30.9243 5.47303 31.1713 5.68724 31.3121 5.96894C31.453 6.25063 31.4762 6.57674 31.3766 6.87552C31.2584 7.23011 30.9801 7.50836 30.6255 7.62656L16.3755 12.3766C16.1318 12.4578 15.8682 12.4578 15.6245 12.3766L1.37448 7.62656C1.0757 7.52697 0.828717 7.31276 0.687869 7.03107C0.547021 6.74937 0.523845 6.42326 0.62344 6.12448C0.741637 5.76989 1.01989 5.49164 1.37448 5.37344L15.6245 0.623439C15.8682 0.542187 16.1318 0.542187 16.3755 0.623439ZM5.50521 6.5L16 3.00174L26.4948 6.5L16 9.99827L5.50521 6.5Z" fill="#447ADC"/>
<path d="M10.7453 10.0036C10.7612 9.9862 10.7766 9.96836 10.7914 9.95007C10.9632 9.73845 11.057 9.47417 11.057 9.20159C11.057 8.86852 10.9171 8.55075 10.6715 8.32581C10.6541 8.3099 10.6363 8.29452 10.618 8.27967C10.4064 8.10787 10.1421 8.01409 9.86952 8.01409C9.53644 8.01409 9.21868 8.15397 8.99373 8.39962C7.08658 10.4827 6.62649 13.2702 6.62649 13.2702C6.16702 16.0575 7.30516 18.6429 7.30516 18.6429C8.44329 21.2284 10.8092 22.7719 10.8092 22.7719C13.1751 24.3154 16 24.315 16 24.315C18.8249 24.315 21.1908 22.7719 21.1908 22.7719C23.5567 21.2284 24.6948 18.6429 24.6948 18.6429C25.8329 16.0575 25.3735 13.2702 25.3735 13.2702C24.914 10.483 23.0062 8.39962 23.0062 8.39962C22.9945 8.38678 22.9825 8.37421 22.9701 8.3619C22.7474 8.1392 22.4454 8.01409 22.1305 8.01409C21.8336 8.01409 21.5474 8.1253 21.3285 8.32581C21.3156 8.33756 21.3031 8.3496 21.2908 8.3619C21.0808 8.57184 20.9571 8.8528 20.9441 9.1494L20.944 9.15199C20.9433 9.16851 20.943 9.18505 20.943 9.20159C20.943 9.49848 21.0542 9.78461 21.2547 10.0036C22.6855 11.5661 23.0301 13.6565 23.0301 13.6565C23.3747 15.747 22.5211 17.6861 22.5211 17.6861C21.6675 19.6252 19.8931 20.7828 19.8931 20.7828C18.1186 21.9404 16 21.94 16 21.94C13.8814 21.94 12.1069 20.7828 12.1069 20.7828C10.3325 19.6252 9.47886 17.6861 9.47886 17.6861C8.62526 15.747 8.96986 13.6565 8.96986 13.6565C9.31447 11.5661 10.7453 10.0036 10.7453 10.0036Z" fill="#447ADC"/>
</svg>
