<svg width="24" height="21" viewBox="0 0 24 21" fill="none" xmlns="http://www.w3.org/2000/svg">
<path d="M12.3774 16.6899C11.1875 17.8798 11.1875 19.5625 11.1875 19.5625C11.1875 20.0112 11.5513 20.375 12 20.375C12.4487 20.375 12.8125 20.0112 12.8125 19.5625C12.8125 18.5529 13.5264 17.8389 13.5264 17.8389C14.2404 17.125 15.25 17.125 15.25 17.125H21.75C22.4231 17.125 22.899 16.649 22.899 16.649C23.375 16.1731 23.375 15.5 23.375 15.5V2.5C23.375 1.8269 22.899 1.35095 22.899 1.35095C22.4231 0.875 21.75 0.875 21.75 0.875H15.25C13.5673 0.875 12.3774 2.06488 12.3774 2.06488C11.1875 3.25476 11.1875 4.9375 11.1875 4.9375C11.1875 5.38623 11.5513 5.75 12 5.75C12.2155 5.75 12.4222 5.6644 12.5745 5.51202C12.7269 5.35965 12.8125 5.15299 12.8125 4.9375C12.8125 3.92786 13.5264 3.21393 13.5264 3.21393C14.2404 2.5 15.25 2.5 15.25 2.5H21.75V15.5H15.25C13.5673 15.5 12.3774 16.6899 12.3774 16.6899Z" fill="#8530C1"/>
<path fillRule="evenodd" clipRule="evenodd" d="M0.625 2.5C0.625 2.5 0.625 1.8269 1.10095 1.35095C1.10095 1.35095 1.5769 0.875 2.25 0.875H8.75C8.75 0.875 10.4327 0.875 11.6226 2.06488C11.6226 2.06488 12.8125 3.25476 12.8125 4.9375V19.5625C12.8125 20.0112 12.4487 20.375 12 20.375C11.5513 20.375 11.1875 20.0112 11.1875 19.5625C11.1875 19.5625 11.1875 18.5529 10.4736 17.8389C10.4736 17.8389 9.75964 17.125 8.75 17.125H2.25C2.25 17.125 1.5769 17.125 1.10095 16.649C1.10095 16.649 0.625 16.1731 0.625 15.5V2.5ZM11.1875 4.9375V16.3071C11.1875 16.3071 10.1359 15.5 8.75 15.5H2.25V2.5H8.75C8.75 2.5 9.75965 2.5 10.4736 3.21393C10.4736 3.21393 11.1875 3.92785 11.1875 4.9375Z" fill="#8530C1"/>
</svg>
