<svg width="18" height="21" viewBox="0 0 18 21" fill="none" xmlns="http://www.w3.org/2000/svg">
<path fill-rule="evenodd" clip-rule="evenodd" d="M4.9375 10.8127C4.9375 10.8127 6.95679 10.8127 8.38464 12.2406C8.38464 12.2406 9.8125 13.6684 9.8125 15.6877C9.8125 15.6877 9.8125 17.707 8.38464 19.1348C8.38464 19.1348 6.95679 20.5627 4.9375 20.5627C4.9375 20.5627 2.91821 20.5627 1.49035 19.1348C1.49035 19.1348 0.0625 17.707 0.0625 15.6877C0.0625 15.6877 0.0625 13.6684 1.49035 12.2406C1.49035 12.2406 2.91821 10.8127 4.9375 10.8127ZM4.9375 12.4377C4.9375 12.4377 3.59131 12.4377 2.6394 13.3896C2.6394 13.3896 1.6875 14.3415 1.6875 15.6877C1.6875 15.6877 1.6875 17.0339 2.6394 17.9858C2.6394 17.9858 3.59131 18.9377 4.9375 18.9377C4.9375 18.9377 6.28369 18.9377 7.2356 17.9858C7.2356 17.9858 8.1875 17.0339 8.1875 15.6877C8.1875 15.6877 8.1875 14.3415 7.2356 13.3896C7.2356 13.3896 6.28369 12.4377 4.9375 12.4377Z" fill="#ED1C24"/>
<path fill-rule="evenodd" clip-rule="evenodd" d="M8.1875 1.06271V15.6877C8.1875 16.1364 8.55127 16.5002 9 16.5002C9.44873 16.5002 9.8125 16.1364 9.8125 15.6877V7.02974L16.8915 9.15345C17.3213 9.28239 17.7743 9.03849 17.9032 8.60868C17.926 8.53294 17.9375 8.45429 17.9375 8.37521V3.50021C17.9375 3.14141 17.7021 2.82508 17.3585 2.72198L9.23347 0.28448C8.80366 0.155538 8.35071 0.399437 8.22177 0.829244C8.19904 0.904985 8.1875 0.983638 8.1875 1.06271ZM16.3125 7.28319L9.8125 5.33319V2.15474L16.3125 4.10474V7.28319Z" fill="#ED1C24"/>
</svg>
