<svg width="26" height="16" viewBox="0 0 26 16" fill="none" xmlns="http://www.w3.org/2000/svg">
<path fill-rule="evenodd" clip-rule="evenodd" d="M1.28845 0.757202C1.28845 0.757202 1.7644 0.28125 2.4375 0.28125H15.4375C15.4375 0.28125 17.1202 0.28125 18.3101 1.47113C18.3101 1.47113 19.5 2.66101 19.5 4.34375V14.0938C19.5 14.0938 19.5 14.7668 19.024 15.2428C19.024 15.2428 18.5481 15.7188 17.875 15.7188H4.875C4.875 15.7188 3.19226 15.7187 2.00238 14.5289C2.00238 14.5289 0.8125 13.339 0.8125 11.6562V1.90625C0.8125 1.90625 0.8125 1.23315 1.28845 0.757202ZM2.4375 1.90625V11.6562C2.4375 11.6562 2.4375 12.6659 3.15143 13.3798C3.15143 13.3798 3.86536 14.0938 4.875 14.0938H17.875V4.34375C17.875 4.34375 17.875 3.33411 17.1611 2.62018C17.1611 2.62018 16.4471 1.90625 15.4375 1.90625H2.4375Z" fill="#2BB457"/>
<path d="M23.5625 11.4749L19.0906 8.91955C18.9678 8.8494 18.8289 8.8125 18.6875 8.8125L18.6693 8.8127C18.6032 8.81419 18.5375 8.82374 18.4737 8.84113C18.2658 8.89783 18.089 9.03479 17.9821 9.22189C17.9119 9.34465 17.875 9.4836 17.875 9.625C17.875 9.64122 17.8755 9.65743 17.8765 9.67362C17.8929 9.94738 18.0463 10.1944 18.2844 10.3304L23.9719 13.5804C24.3615 13.8031 24.8578 13.6677 25.0804 13.2781C25.1506 13.1553 25.1875 13.0164 25.1875 12.875V3.125C25.1875 2.67627 24.8237 2.3125 24.375 2.3125C24.2336 2.3125 24.0947 2.3494 23.9719 2.41955L18.2844 5.66955C18.0312 5.81421 17.875 6.08343 17.875 6.375C17.875 6.38636 17.8752 6.39772 17.8757 6.40907C17.8812 6.53882 17.9176 6.66536 17.9821 6.77811C18.089 6.96521 18.2658 7.10217 18.4737 7.15887C18.5434 7.17787 18.6153 7.1875 18.6875 7.1875L18.7095 7.1872C18.8434 7.18358 18.9743 7.1469 19.0906 7.08045L23.5625 4.52508V11.4749Z" fill="#2BB457"/>
</svg>
