<svg width="62" height="62" viewBox="0 0 62 62" fill="none" xmlns="http://www.w3.org/2000/svg">
<rect width="62" height="62" rx="8" fill="#8530C1" fill-opacity="0.1"/>
<path fillRule="evenodd" clipRule="evenodd" d="M20.5421 24.2574C20.5421 21.4013 22.9511 19.0163 26.0102 19.0163C29.0694 19.0163 31.4784 21.4013 31.4784 24.2574C31.4784 27.1135 29.0694 29.4985 26.0102 29.4985C22.9511 29.4985 20.5421 27.1135 20.5421 24.2574ZM26.0102 16.6445C21.7195 16.6445 18.1703 20.0144 18.1703 24.2574C18.1703 28.5003 21.7195 31.8702 26.0102 31.8702C30.301 31.8702 33.8502 28.5003 33.8502 24.2574C33.8502 20.0144 30.301 16.6445 26.0102 16.6445ZM19.3556 35.9254C17.2893 35.9254 15.2998 36.7179 13.8266 38.1408C12.352 39.565 11.5156 41.5057 11.5156 43.5383V46.7518C11.5156 47.4067 12.0466 47.9377 12.7015 47.9377C13.3565 47.9377 13.8874 47.4067 13.8874 46.7518V43.5383C13.8874 42.1618 14.4531 40.833 15.4743 39.8467C16.4969 38.8591 17.8923 38.2972 19.3556 38.2972H32.6637C34.127 38.2972 35.5224 38.8591 36.545 39.8467C37.5661 40.833 38.1319 42.1618 38.1319 43.5383V46.7518C38.1319 47.4067 38.6628 47.9377 39.3177 47.9377C39.9727 47.9377 40.5036 47.4067 40.5036 46.7518V43.5383C40.5036 41.5057 39.6673 39.565 38.1927 38.1408C36.7195 36.7179 34.7299 35.9254 32.6637 35.9254H19.3556ZM43.1582 37.0332C43.3167 36.3977 43.9604 36.011 44.5958 36.1695C46.2696 36.5869 47.7603 37.5313 48.8292 38.8632C49.8988 40.1958 50.484 41.8398 50.4853 43.5373V43.5382V46.7517C50.4853 47.4067 49.9544 47.9376 49.2994 47.9376C48.6445 47.9376 48.1135 47.4067 48.1135 46.7517V43.5386C48.1125 42.3883 47.7163 41.2658 46.9795 40.3477C46.2419 39.4287 45.2032 38.7654 44.0219 38.4708C43.3864 38.3123 42.9998 37.6687 43.1582 37.0332ZM37.9389 16.888C37.3031 16.7308 36.6603 17.1188 36.503 17.7546C36.3458 18.3904 36.7337 19.0332 37.3695 19.1905C38.554 19.4834 39.5959 20.1468 40.3358 21.0674C41.0749 21.9872 41.4719 23.1124 41.4719 24.2654C41.4719 25.4183 41.0749 26.5436 40.3358 27.4633C39.5959 28.3839 38.554 29.0474 37.3695 29.3403C36.7337 29.4975 36.3458 30.1404 36.503 30.7762C36.6603 31.412 37.3031 31.7999 37.9389 31.6427C39.6171 31.2277 41.1124 30.2831 42.1845 28.9491C43.2572 27.6143 43.8437 25.9665 43.8437 24.2654C43.8437 22.5642 43.2572 20.9165 42.1845 19.5817C41.1124 18.2476 39.6171 17.3031 37.9389 16.888Z" fill="#8530C1"/>
</svg>
