<svg width="40" height="32" viewBox="0 0 40 32" fill="none" xmlns="http://www.w3.org/2000/svg">
<path fillRule="evenodd" clipRule="evenodd" d="M9.54205 8.25739C9.54205 5.4013 11.9511 3.01631 15.0102 3.01631C18.0694 3.01631 20.4784 5.4013 20.4784 8.25739C20.4784 11.1135 18.0694 13.4985 15.0102 13.4985C11.9511 13.4985 9.54205 11.1135 9.54205 8.25739ZM15.0102 0.644531C10.7195 0.644531 7.17027 4.01445 7.17027 8.25739C7.17027 12.5003 10.7195 15.8702 15.0102 15.8702C19.301 15.8702 22.8502 12.5003 22.8502 8.25739C22.8502 4.01445 19.301 0.644531 15.0102 0.644531ZM8.35557 19.9254C6.28932 19.9254 4.29976 20.7179 2.82657 22.1408C1.35199 23.565 0.515625 25.5057 0.515625 27.5383V30.7518C0.515625 31.4067 1.04657 31.9377 1.70151 31.9377C2.35646 31.9377 2.8874 31.4067 2.8874 30.7518V27.5383C2.8874 26.1618 3.45314 24.833 4.47431 23.8467C5.49688 22.8591 6.89229 22.2972 8.35557 22.2972H21.6637C23.127 22.2972 24.5224 22.8591 25.545 23.8467C26.5661 24.833 27.1319 26.1618 27.1319 27.5383V30.7518C27.1319 31.4067 27.6628 31.9377 28.3177 31.9377C28.9727 31.9377 29.5036 31.4067 29.5036 30.7518V27.5383C29.5036 25.5057 28.6673 23.565 27.1927 22.1408C25.7195 20.7179 23.7299 19.9254 21.6637 19.9254H8.35557ZM32.1582 21.0332C32.3167 20.3977 32.9604 20.011 33.5958 20.1695C35.2696 20.5869 36.7603 21.5313 37.8292 22.8632C38.8988 24.1958 39.484 25.8398 39.4853 27.5373V27.5382V30.7517C39.4853 31.4067 38.9544 31.9376 38.2994 31.9376C37.6445 31.9376 37.1135 31.4067 37.1135 30.7517V27.5386C37.1125 26.3883 36.7163 25.2658 35.9795 24.3477C35.2419 23.4287 34.2032 22.7654 33.0219 22.4708C32.3864 22.3123 31.9998 21.6687 32.1582 21.0332ZM26.9389 0.888043C26.3031 0.730809 25.6603 1.11876 25.503 1.75456C25.3458 2.39035 25.7337 3.03323 26.3695 3.19046C27.554 3.48337 28.5959 4.14683 29.3358 5.06741C30.0749 5.98719 30.4719 7.11242 30.4719 8.26538C30.4719 9.41833 30.0749 10.5436 29.3358 11.4633C28.5959 12.3839 27.554 13.0474 26.3695 13.3403C25.7337 13.4975 25.3458 14.1404 25.503 14.7762C25.6603 15.412 26.3031 15.7999 26.9389 15.6427C28.6171 15.2277 30.1124 14.2831 31.1845 12.9491C32.2572 11.6143 32.8437 9.96655 32.8437 8.26538C32.8437 6.56421 32.2572 4.9165 31.1845 3.58167C30.1124 2.24763 28.6171 1.30307 26.9389 0.888043Z" fill="#8530C1"/>
</svg>
