<svg width="24" height="16" viewBox="0 0 24 16" fill="none" xmlns="http://www.w3.org/2000/svg">
<path fill-rule="evenodd" clip-rule="evenodd" d="M8.25 0.5C8.25 0.5 10.58 0.5 12.2275 2.14752C12.2275 2.14752 13.875 3.79505 13.875 6.125C13.875 6.125 13.875 8.45495 12.2275 10.1025C12.2275 10.1025 10.58 11.75 8.25 11.75C8.25 11.75 5.92005 11.75 4.27252 10.1025C4.27252 10.1025 2.625 8.45495 2.625 6.125C2.625 6.125 2.625 3.79505 4.27252 2.14752C4.27252 2.14752 5.92005 0.5 8.25 0.5ZM8.25 2C8.25 2 6.54137 2 5.33318 3.20818C5.33318 3.20818 4.125 4.41637 4.125 6.125C4.125 6.125 4.125 7.83363 5.33318 9.04182C5.33318 9.04182 6.54137 10.25 8.25 10.25C8.25 10.25 9.95863 10.25 11.1668 9.04182C11.1668 9.04182 12.375 7.83363 12.375 6.125C12.375 6.125 12.375 4.41637 11.1668 3.20818C11.1668 3.20818 9.95863 2 8.25 2Z" fill="#B5B5C3"/>
<path d="M18.8074 9.04181C17.5992 10.25 15.8906 10.25 15.8906 10.25C15.4764 10.25 15.1406 10.5858 15.1406 11C15.1406 11.4142 15.4764 11.75 15.8906 11.75C18.2206 11.75 19.8681 10.1025 19.8681 10.1025C21.5156 8.45495 21.5156 6.125 21.5156 6.125C21.5156 3.79505 19.8681 2.14752 19.8681 2.14752C18.2206 0.5 15.8906 0.5 15.8906 0.5C15.1172 0.502351 14.3729 0.704155 14.3729 0.704155C14.0461 0.792789 13.8187 1.08952 13.8187 1.42813L13.8188 1.43583C13.8194 1.49956 13.8282 1.56294 13.8449 1.62445C13.9335 1.95124 14.2301 2.17813 14.5687 2.17813L14.5764 2.17809C14.6402 2.17743 14.7036 2.16866 14.7651 2.15197C15.3189 2.0018 15.8906 2 15.8906 2C17.5992 2 18.8074 3.20818 18.8074 3.20818C20.0156 4.41637 20.0156 6.125 20.0156 6.125C20.0156 7.83363 18.8074 9.04181 18.8074 9.04181Z" fill="#B5B5C3"/>
<path d="M11.7075 12.5941C13.3331 13.4386 14.3864 14.9374 14.3864 14.9374C14.5268 15.1373 14.7557 15.2562 15 15.2562C15.0084 15.2562 15.0168 15.2561 15.0251 15.2558C15.1708 15.2509 15.3119 15.2037 15.4312 15.1199C15.594 15.0055 15.7046 14.8312 15.7388 14.6352C15.7463 14.5926 15.75 14.5495 15.75 14.5062L15.7498 14.49C15.7466 14.3412 15.6992 14.1968 15.6136 14.075C14.3497 12.2764 12.399 11.263 12.399 11.263C10.4483 10.2496 8.25 10.25 8.25 10.25C6.05174 10.25 4.10101 11.263 4.10101 11.263C2.15037 12.2764 0.886497 14.0748 0.886497 14.0748C0.797754 14.2011 0.75 14.3519 0.75 14.5062C0.75 14.5236 0.750602 14.5409 0.751805 14.5582C0.767469 14.7836 0.883915 14.9899 1.06878 15.1199C1.19506 15.2086 1.34565 15.2562 1.5 15.2562L1.50225 15.2562C1.54473 15.2561 1.58713 15.2523 1.62899 15.245C1.82494 15.2108 1.99927 15.1002 2.11364 14.9374C3.16689 13.4386 4.79251 12.5941 4.79251 12.5941C6.41812 11.7496 8.25 11.75 8.25 11.75C10.0819 11.75 11.7075 12.5941 11.7075 12.5941Z" fill="#B5B5C3"/>
<path d="M22.0264 14.9366C22.1668 15.1366 22.3962 15.2563 22.6406 15.2563C22.6489 15.2563 22.6571 15.2561 22.6654 15.2558C22.8111 15.251 22.9522 15.2039 23.0715 15.1201C23.2715 14.9797 23.3906 14.7506 23.3906 14.5063C23.3906 14.498 23.3905 14.4898 23.3902 14.4815C23.3854 14.3358 23.3382 14.1947 23.2545 14.0754C23.254 14.0746 23.2535 14.074 23.2535 14.074C21.9905 12.2753 20.0401 11.2622 20.0401 11.2622C18.0891 10.2487 15.8906 10.25 15.8906 10.25C15.6917 10.2501 15.5005 10.3293 15.36 10.47C15.2195 10.6106 15.1406 10.8012 15.1406 11C15.1406 11.4142 15.4764 11.75 15.8906 11.75C17.7225 11.7489 19.3486 12.5933 19.3486 12.5933C20.974 13.4376 22.0264 14.9366 22.0264 14.9366Z" fill="#B5B5C3"/>
</svg>
