<svg width="18" height="17" viewBox="0 0 18 17" fill="none" xmlns="http://www.w3.org/2000/svg">
<path fill-rule="evenodd" clip-rule="evenodd" d="M9 0.375C9 0.375 10.6526 0.375 12.1628 1.01376C12.1628 1.01376 13.621 1.63053 14.7452 2.75476C14.7452 2.75476 15.8695 3.87899 16.4862 5.33719C16.4862 5.33719 17.125 6.84739 17.125 8.5C17.125 8.5 17.125 10.1526 16.4862 11.6628C16.4862 11.6628 15.8695 13.121 14.7452 14.2452C14.7452 14.2452 13.621 15.3695 12.1628 15.9862C12.1628 15.9862 10.6526 16.625 9 16.625C9 16.625 7.34739 16.625 5.83719 15.9862C5.83719 15.9862 4.37899 15.3695 3.25476 14.2452C3.25476 14.2452 2.13053 13.121 1.51376 11.6628C1.51376 11.6628 0.875 10.1526 0.875 8.5C0.875 8.5 0.875 6.84739 1.51376 5.33719C1.51376 5.33719 2.13053 3.87899 3.25476 2.75476C3.25476 2.75476 4.37899 1.63053 5.83719 1.01376C5.83719 1.01376 7.34739 0.375 9 0.375ZM9 1.625C9 1.625 7.60087 1.625 6.32413 2.16501C6.32413 2.16501 5.09047 2.68681 4.13864 3.63864C4.13864 3.63864 3.18681 4.59047 2.66502 5.82413C2.66502 5.82413 2.125 7.10087 2.125 8.5C2.125 8.5 2.125 9.89913 2.66502 11.1759C2.66502 11.1759 3.18681 12.4095 4.13864 13.3614C4.13864 13.3614 5.09047 14.3132 6.32413 14.835C6.32413 14.835 7.60087 15.375 9 15.375C9 15.375 10.3991 15.375 11.6759 14.835C11.6759 14.835 12.9095 14.3132 13.8614 13.3614C13.8614 13.3614 14.8132 12.4095 15.335 11.1759C15.335 11.1759 15.875 9.89912 15.875 8.5C15.875 8.5 15.875 7.10087 15.335 5.82413C15.335 5.82413 14.8132 4.59047 13.8614 3.63864C13.8614 3.63864 12.9095 2.68681 11.6759 2.16501C11.6759 2.16501 10.3991 1.625 9 1.625Z" fill="#D190FF"/>
<path d="M9 9.125H13.375C13.7202 9.125 14 8.84518 14 8.5C14 8.15482 13.7202 7.875 13.375 7.875H9.625V4.125C9.625 3.77982 9.34518 3.5 9 3.5C8.65482 3.5 8.375 3.77982 8.375 4.125V8.5C8.375 8.84518 8.65482 9.125 9 9.125Z" fill="#D190FF"/>
</svg>
