<svg width="19" height="19" viewBox="0 0 19 19" fill="none" xmlns="http://www.w3.org/2000/svg">
<path d="M8.625 9.59375C8.625 10.8364 7.61769 11.8438 6.375 11.8438C5.13231 11.8438 4.125 10.8364 4.125 9.59375C4.125 8.35113 5.13231 7.34375 6.375 7.34375C7.61769 7.34375 8.625 8.35113 8.625 9.59375Z" fill="#F9F9F9"/>
<path fill-rule="evenodd" clip-rule="evenodd" d="M1.3125 9.59375C1.3125 9.59375 1.3125 8.56416 1.71057 7.62302C1.71057 7.62302 2.09487 6.71442 2.79527 6.01402C2.79527 6.01402 3.49567 5.31362 4.40427 4.92932C4.40427 4.92932 5.34541 4.53125 6.375 4.53125H13.125C13.125 4.53125 14.1546 4.53125 15.0957 4.92932C15.0957 4.92932 16.0043 5.31363 16.7047 6.01402C16.7047 6.01402 17.4051 6.71442 17.7894 7.62302C17.7894 7.62302 18.1875 8.56416 18.1875 9.59375C18.1875 9.59375 18.1875 10.6233 17.7894 11.5645C17.7894 11.5645 17.4051 12.4731 16.7047 13.1735C16.7047 13.1735 16.0043 13.8739 15.0957 14.2582C15.0957 14.2582 14.1546 14.6562 13.125 14.6562H6.375C6.375 14.6562 5.34541 14.6562 4.40427 14.2582C4.40427 14.2582 3.49567 13.8739 2.79527 13.1735C2.79527 13.1735 2.09487 12.4731 1.71057 11.5645C1.71057 11.5645 1.3125 10.6233 1.3125 9.59375ZM2.4375 9.59375C2.4375 9.59375 2.4375 11.2247 3.59077 12.378C3.59077 12.378 4.74403 13.5313 6.375 13.5312H13.125C13.125 13.5312 14.756 13.5312 15.9092 12.378C15.9092 12.378 17.0625 11.2247 17.0625 9.59375C17.0625 9.59375 17.0625 7.96278 15.9092 6.80952C15.9092 6.80952 14.756 5.65625 13.125 5.65625L6.375 5.65625C6.375 5.65625 4.74403 5.65625 3.59077 6.80952C3.59077 6.80952 2.4375 7.96278 2.4375 9.59375Z" fill="#C4CCD0"/>
<path fill-rule="evenodd" clip-rule="evenodd" d="M6.375 6.78125C6.375 6.78125 7.53998 6.78125 8.36374 7.60501C8.36374 7.60501 9.1875 8.42877 9.1875 9.59375C9.1875 9.59375 9.1875 10.7587 8.36374 11.5825C8.36374 11.5825 7.53998 12.4062 6.375 12.4062C6.375 12.4062 5.21002 12.4062 4.38626 11.5825C4.38626 11.5825 3.5625 10.7587 3.5625 9.59375C3.5625 9.59375 3.5625 8.42877 4.38626 7.60501C4.38626 7.60501 5.21002 6.78125 6.375 6.78125ZM6.375 7.90625C6.375 7.90625 5.67601 7.90625 5.18176 8.40051C5.18176 8.40051 4.6875 8.89476 4.6875 9.59375C4.6875 9.59375 4.6875 10.2927 5.18176 10.787C5.18176 10.787 5.67601 11.2812 6.375 11.2812C6.375 11.2812 7.07399 11.2812 7.56824 10.787C7.56824 10.787 8.0625 10.2927 8.0625 9.59375C8.0625 9.59375 8.0625 8.89476 7.56824 8.40051C7.56824 8.40051 7.07399 7.90625 6.375 7.90625Z" fill="#C4CCD0"/>
</svg>
