<svg width="31" height="31" viewBox="0 0 31 31" fill="none" xmlns="http://www.w3.org/2000/svg">
<path d="M3.58958 24.2071C3.68507 24.2094 3.78059 24.2103 3.87613 24.21L25.833 10.9146C25.8486 12.9034 25.4677 14.8754 24.7126 16.7154C23.9575 18.5553 22.8433 20.2264 21.4351 21.6309C20.027 23.0355 18.3531 24.1453 16.5112 24.8957C14.6693 25.6461 12.6964 26.0219 10.7076 26.0013C8.21659 26.0043 5.77076 25.3848 3.58958 24.2071ZM4.18884 8.64093C4.18845 8.04931 4.29623 7.46481 4.50469 6.91564C5.781 8.32973 7.30784 9.49917 9.01049 10.3636C10.956 11.3513 13.0876 11.9187 15.2667 12.0289L15.9626 12.0641L15.7993 11.3867C15.5516 10.3588 15.6521 9.27776 16.085 8.31309C16.5178 7.34842 17.2587 6.55471 18.1913 6.05644C19.1238 5.55817 20.1954 5.38353 21.238 5.55991C22.2805 5.73629 23.235 6.25371 23.9518 7.03102L24.1495 7.24537L24.4355 7.18892C25.1567 7.04661 25.8606 6.83344 26.5373 6.55327C26.1564 7.08181 25.6691 7.53179 25.1009 7.87124L25.4305 8.83543C25.9344 8.77451 26.433 8.68035 26.9232 8.55381C26.496 9.01417 26.027 9.43563 25.5216 9.81251L25.3122 9.96872V10.23V10.2314V10.2328V10.2341V10.2355V10.2368V10.2382V10.2396V10.2409V10.2423V10.2436V10.245V10.2464V10.2477V10.2491V10.2505V10.2518V10.2532V10.2545V10.2559V10.2573V10.2586V10.26V10.2614V10.2627V10.2641V10.2654V10.2668V10.2682V10.2695V10.2709V10.2723V10.2736V10.275V10.2763V10.2777V10.2791V10.2804V10.2818V10.2832V10.2845V10.2859V10.2872V10.2886V10.29V10.2913V10.2927V10.294V10.2954V10.2968V10.2981V10.2995V10.3009V10.3022V10.3036V10.3049V10.3063V10.3077V10.309V10.3104V10.3117V10.3131V10.3145V10.3158V10.3172V10.3185V10.3199V10.3213V10.3226V10.324V10.3254V10.3267V10.3281V10.3294V10.3308V10.3322V10.3335V10.3349V10.3362V10.3376V10.339V10.3403V10.3417V10.343V10.3444V10.3458V10.3471V10.3485V10.3498V10.3512V10.3526V10.3539V10.3553V10.3566V10.358V10.3594V10.3607V10.3621V10.3634V10.3648V10.3662V10.3675V10.3689V10.3702V10.3716V10.373V10.3743V10.3757V10.377V10.3784V10.3798V10.3811V10.3825V10.3838V10.3852V10.3865V10.3879V10.3893V10.3906V10.392V10.3933V10.3947V10.3961V10.3974V10.3988V10.4001V10.4015V10.4028V10.4042V10.4056V10.4069V10.4083V10.4096V10.411V10.4123V10.4137V10.4151V10.4164V10.4178V10.4191V10.4205V10.4218V10.4232V10.4246V10.4259V10.4273V10.4286V10.43V10.4313V10.4327V10.434V10.4354V10.4368V10.4381V10.4395V10.4408V10.4422V10.4435V10.4449V10.4462V10.4476V10.449V10.4503V10.4517V10.453V10.4544V10.4557V10.4571V10.4584V10.4598V10.4611V10.4625V10.4639V10.4652V10.4666V10.4679V10.4693V10.4706V10.472V10.4733V10.4747V10.476V10.4774V10.4787V10.4801V10.4814V10.4828V10.4841V10.4855V10.4869V10.4882V10.4896V10.4909V10.4923V10.4936V10.495V10.4963V10.4977V10.499V10.5004V10.5017V10.5031V10.5044V10.5058V10.5071V10.5085V10.5098V10.5112V10.5125V10.5139V10.5152V10.5166V10.5179V10.5193V10.5206V10.522V10.5233V10.5247V10.526V10.5274V10.5287V10.5301V10.5314V10.5328V10.5341V10.5354V10.5368V10.5381V10.5395V10.5408V10.5422V10.5435V10.5449V10.5462V10.5476V10.5489V10.5503V10.5516V10.553V10.5543V10.5556V10.557V10.5583V10.5597V10.561V10.5624V10.5637V10.5651V10.5664V10.5678V10.5691V10.5704V10.5718V10.5731V10.5745V10.5758V10.5772V10.5785V10.5798V10.5812V10.5825V10.5839V10.5852V10.5866V10.5879V10.5892V10.5906V10.5919V10.5933V10.5946V10.596V10.5973V10.5986V10.6V10.6013V10.6027V10.604V10.6053V10.6067V10.608V10.6094V10.6107V10.612V10.6134V10.6147V10.6161V10.6174V10.6187V10.6201V10.6214V10.6227V10.6241V10.6254V10.6268V10.6281V10.6294V10.6308V10.6321V10.6334V10.6348V10.6361V10.6375V10.6388V10.6401V10.6415V10.6428V10.6441V10.6455V10.6468V10.6481V10.6495V10.6508V10.6521V10.6535V10.6548V10.6561V10.6575V10.6588V10.6601V10.6615V10.6628V10.6641V10.6655V10.6668V10.6681V10.6695V10.6708V10.6721V10.6735V10.6748V10.6761V10.6775V10.6788V10.6801V10.6814V10.6828V10.6841V10.6854V10.6868V10.6881V10.6894V10.6908V10.6921V10.6934V10.6947V10.6961V10.6974V10.6987V10.7001V10.7014V10.7027V10.704V10.7054V10.7067V10.708V10.7093V10.7107V10.712V10.7133V10.7146V10.716V10.7173V10.7186V10.7199V10.7213V10.7226V10.7239V10.7252V10.7266V10.7279V10.7292V10.7305V10.7318V10.7332V10.7345V10.7358V10.7371V10.7385V10.7398V10.7411V10.7424V10.7437V10.7451V10.7464V10.7477V10.749V10.7503V10.7517V10.753V10.7543V10.7556V10.7569V10.7583V10.7596V10.7609V10.7622V10.7635V10.7648V10.7662V10.7675V10.7688V10.7701V10.7714V10.7727V10.7741V10.7754V10.7767V10.778V10.7793V10.7806V10.7819V10.7833V10.7846V10.7859V10.7872V10.7885V10.7898V10.7911V10.7924V10.7938V10.7951V10.7964V10.7977V10.799V10.8003V10.8016V10.8029V10.8042V10.8055V10.8069V10.8082V10.8095V10.8108V10.8121V10.8134V10.8147V10.816V10.8173V10.8186V10.8199V10.8212V10.8225V10.8239V10.8252V10.8265V10.8278V10.8291V10.8304V10.8317V10.833V10.8343V10.8356V10.8369V10.8382V10.8395V10.8408V10.8421V10.8434V10.8447V10.846V10.8473V10.8486V10.8499V10.8512V10.8525V10.8538V10.8551V10.8564V10.8577V10.859V10.8603V10.8616V10.8629V10.8642V10.8655V10.8668V10.8681V10.8694V10.8707V10.872V10.8733V10.8746V10.8759V10.8772V10.8785V10.8798V10.8811V10.8824V10.8836V10.8849V10.8862V10.8875V10.8888V10.8901V10.8914V10.8927V10.894V10.8953V10.8966V10.8979V10.8991V10.9004V10.9017V10.903V10.9043V10.9056V10.9069V10.9082V10.9095V10.9107V10.912V10.9133L25.3122 10.9146L25.3122 10.9187C25.3272 12.8383 24.9596 14.7417 24.2307 16.5176C23.5019 18.2936 22.4265 19.9065 21.0673 21.2622C19.7082 22.6178 18.0925 23.6891 16.3147 24.4134C14.5369 25.1376 12.6326 25.5004 10.713 25.4805L10.713 25.4804L10.707 25.4804C8.62555 25.483 6.57683 25.0351 4.69823 24.1773C6.89206 24.0088 8.99375 23.1934 10.7326 21.8252L11.8789 20.9232L10.4205 20.8951C9.42518 20.876 8.46055 20.547 7.66087 19.954C7.08611 19.5278 6.6171 18.9805 6.2846 18.3547C6.34034 18.3568 6.39612 18.3581 6.45192 18.3587L6.45192 18.3589L6.46386 18.3587C6.99491 18.3528 7.5224 18.2713 8.03048 18.1166L7.98046 17.1075C6.90114 16.8928 5.92911 16.3119 5.2288 15.463C4.69505 14.8161 4.3441 14.0437 4.20483 13.2257C4.78087 13.4341 5.38839 13.5497 6.00468 13.5665L7.81126 13.6157L6.30791 12.6126C5.65475 12.1768 5.11948 11.5863 4.74976 10.8936C4.38004 10.2008 4.18735 9.42746 4.18884 8.64226L4.18884 8.64093Z" fill="#151515" stroke="#151515" strokeWidth="1.04167"/>
</svg>
