<svg width="56" height="37" viewBox="0 0 56 37" fill="none" xmlns="http://www.w3.org/2000/svg">
<path fillRule="evenodd" clipRule="evenodd" d="M53.2659 0.808233L39.6183 0.804688C39.6166 0.804688 39.6148 0.804688 39.6148 0.804688C39.6042 0.804688 39.5939 0.80658 39.5836 0.80658C37.7087 0.864481 35.3736 2.38033 34.9483 4.24949L28.4942 33.0373C28.069 34.9239 29.226 36.4591 31.0872 36.4873H45.4246C47.2575 36.3959 49.0386 34.8975 49.4566 33.0496L55.9109 4.26155C56.343 2.35575 55.1581 0.808233 53.2659 0.808233Z" fill="#01798A"/>
<path fillRule="evenodd" clipRule="evenodd" d="M28.4927 33.033L34.9467 4.24523C35.372 2.37606 37.7071 0.860214 39.582 0.802313L34.1557 0.798768L24.3793 0.796875C22.4992 0.835634 20.1337 2.36212 19.7085 4.24523L13.2525 33.033C12.8257 34.9197 13.9844 36.4548 15.8445 36.4831H31.0856C29.2244 36.4548 28.0674 34.9197 28.4927 33.033Z" fill="#024381"/>
<path fillRule="evenodd" clipRule="evenodd" d="M13.2524 33.0363L19.7084 4.24854C20.1335 2.36542 22.499 0.838943 24.3791 0.800184L11.8549 0.796875C9.96425 0.796875 7.54028 2.34085 7.10821 4.24854L0.652214 33.0363C0.612926 33.212 0.591129 33.3842 0.578125 33.5527V34.0868C0.704506 35.462 1.74642 36.4635 3.24413 36.4864H15.8443C13.9842 36.4581 12.8255 34.923 13.2524 33.0363Z" fill="#DD0228"/>
<path fillRule="evenodd" clipRule="evenodd" d="M24.643 21.7804H24.88C25.0978 21.7804 25.2443 21.7067 25.313 21.5608L25.9289 20.6317H27.5783L27.2343 21.2428H29.2119L28.961 22.1792H26.6079C26.3369 22.5902 26.0032 22.7834 25.6021 22.7605H24.3764L24.643 21.7804ZM24.3722 23.1224H28.7048L28.4286 24.1396H26.6862L26.4203 25.1214H28.1158L27.8396 26.1384H26.1441L25.7503 27.5892C25.6527 27.8317 25.781 27.9408 26.1329 27.916H27.5147L27.2587 28.8612H24.6057C24.1028 28.8612 23.9303 28.5712 24.088 27.9899L24.5916 26.1384H23.5078L23.7831 25.1214H24.8671L25.1327 24.1396H24.0967L24.3722 23.1224ZM31.2874 20.6247L31.2192 21.2201C31.2192 21.2201 32.0365 20.6016 32.7787 20.6016H35.5215L34.4726 24.4291C34.3856 24.8667 34.0126 25.0843 33.3538 25.0843H30.2451L29.5169 27.7719C29.4749 27.9159 29.5342 27.9898 29.6911 27.9898H30.3027L30.0779 28.8241H28.5228C27.9259 28.8241 27.6776 28.6431 27.7761 28.2797L29.8338 20.6247H31.2874ZM33.6101 21.7066H31.162L30.8692 22.7394C30.8692 22.7394 31.2769 22.4427 31.9582 22.4321C32.6376 22.4213 33.4131 22.4321 33.4131 22.4321L33.6101 21.7066ZM32.7232 24.1025C32.9042 24.1273 33.0054 24.0551 33.0176 23.8847L33.1674 23.3403H30.7156L30.51 24.1025H32.7232ZM31.0694 25.3391H32.4827L32.4564 25.9555H32.8327C33.0228 25.9555 33.1171 25.8942 33.1171 25.7731L33.2284 25.3742H34.403L34.2462 25.9555C34.1135 26.4404 33.7618 26.6934 33.1902 26.7181H32.4374L32.4339 27.7719C32.4201 27.9407 32.5715 28.0267 32.8833 28.0267H33.5909L33.3625 28.8611H31.6654C31.1897 28.8839 30.9564 28.6554 30.9613 28.1707L31.0694 25.3391Z" fill="white"/>
<path fillRule="evenodd" clipRule="evenodd" d="M13.9448 15.5232C13.7532 16.47 13.3088 17.1972 12.6196 17.7136C11.9366 18.2213 11.0556 18.4759 9.97711 18.4759C8.96212 18.4759 8.21801 18.2159 7.74316 17.6942C7.41383 17.3236 7.25 16.8529 7.25 16.2837C7.25 16.0484 7.27795 15.7954 7.33372 15.5232L8.48286 9.9375H10.2184L9.08492 15.46C9.05004 15.6128 9.03611 15.7551 9.03794 15.8833C9.03611 16.1662 9.10579 16.398 9.24693 16.5788C9.45254 16.8477 9.78625 16.9811 10.2506 16.9811C10.7847 16.9811 11.2247 16.8494 11.5662 16.5841C11.9078 16.3207 12.1308 15.9466 12.231 15.46L13.3681 9.9375H15.0948L13.9448 15.5232Z" fill="white"/>
<path fillRule="evenodd" clipRule="evenodd" d="M21.2339 13.324H22.5932L21.5285 18.3091H20.1719L21.2339 13.324ZM21.6618 11.5078H23.0331L22.777 12.7178H21.4057L21.6618 11.5078Z" fill="white"/>
<path fillRule="evenodd" clipRule="evenodd" d="M23.7946 17.931C23.439 17.5885 23.2595 17.1265 23.2578 16.5398C23.2578 16.4396 23.2639 16.3255 23.277 16.2007C23.2901 16.0742 23.3067 15.9513 23.3302 15.8372C23.4913 15.0274 23.8347 14.3845 24.3635 13.9102C24.8914 13.4342 25.5284 13.1953 26.2742 13.1953C26.8849 13.1953 27.3693 13.3675 27.724 13.7118C28.0785 14.0578 28.2562 14.525 28.2562 15.1189C28.2562 15.2206 28.2485 15.3383 28.2354 15.4648C28.2196 15.593 28.2007 15.716 28.1786 15.8372C28.0211 16.6346 27.6788 17.2705 27.1499 17.7361C26.621 18.2051 25.9858 18.4385 25.2452 18.4385C24.6319 18.4385 24.1492 18.27 23.7946 17.931ZM26.3848 16.9438C26.6245 16.6821 26.7961 16.285 26.9006 15.7564C26.9163 15.6739 26.9302 15.5878 26.9388 15.5017C26.9475 15.4173 26.951 15.3383 26.951 15.2663C26.951 14.9589 26.8734 14.7201 26.7175 14.5514C26.5626 14.381 26.3422 14.2968 26.0573 14.2968C25.6808 14.2968 25.3741 14.4301 25.1338 14.6972C24.8914 14.9642 24.7198 15.3682 24.6117 15.9057C24.5969 15.9882 24.5848 16.0709 24.5735 16.1516C24.5648 16.2342 24.5623 16.3114 24.5639 16.3817C24.5639 16.6874 24.6415 16.9228 24.7974 17.0896C24.9524 17.2565 25.1718 17.339 25.4604 17.339C25.8386 17.339 26.1452 17.2073 26.3848 16.9438Z" fill="white"/>
<path fillRule="evenodd" clipRule="evenodd" d="M37.0711 21.8207L37.3989 20.6579H39.0559L38.9844 21.0846C38.9844 21.0846 39.8313 20.6579 40.4411 20.6579C41.0511 20.6579 42.4901 20.6579 42.4901 20.6579L42.1645 21.8207H41.8421L40.2964 27.3046H40.6188L40.3121 28.3937H39.9897L39.8556 28.8662H38.2509L38.3847 28.3937H35.2188L35.5273 27.3046H35.8445L37.3916 21.8207H37.0711ZM38.859 21.8207L38.4372 23.3049C38.4372 23.3049 39.1588 23.0258 39.7808 22.9467C39.9182 22.4285 40.0978 21.8207 40.0978 21.8207L38.859 21.8207ZM38.2419 24.0005L37.8188 25.5551C37.8188 25.5551 38.6185 25.1581 39.1673 25.1247C39.3258 24.5239 39.4845 24.0005 39.4845 24.0005L38.2419 24.0005ZM38.5521 27.3046L38.8693 26.1769H37.6324L37.3135 27.3046H38.5521ZM42.56 20.5859H44.1179L44.184 21.1654C44.1737 21.3129 44.2606 21.3834 44.4454 21.3834H44.7206L44.4421 22.3652H43.2971C42.8598 22.388 42.635 22.2195 42.6141 21.8558L42.56 20.5859ZM42.1035 22.692H47.1497L46.8536 23.746H45.247L44.9715 24.7259H46.5765L46.2785 25.7782H44.4909L44.0864 26.3949H44.9614L45.1635 27.6296C45.1876 27.7526 45.2957 27.8123 45.4805 27.8123H45.7522L45.4666 28.8292H44.5047C44.0063 28.8539 43.7486 28.6853 43.7275 28.3217L43.4956 27.1941L42.6995 28.3937C42.5112 28.7327 42.2219 28.8909 41.8318 28.8662H40.3627L40.6485 27.8491H41.1069C41.2951 27.8491 41.4517 27.7648 41.5929 27.5944L42.839 25.7782H41.2323L41.53 24.7259H43.2727L43.5498 23.746H41.8055L42.1035 22.692Z" fill="white"/>
<path fillRule="evenodd" clipRule="evenodd" d="M15.5436 13.3218H16.7694L16.6292 14.042L16.8051 13.8365C17.2025 13.4079 17.6851 13.1953 18.2549 13.1953C18.7707 13.1953 19.1427 13.3464 19.3762 13.6503C19.6062 13.9542 19.6689 14.374 19.5601 14.9133L18.8848 18.3104H17.625L18.2348 15.2312C18.2977 14.9133 18.2803 14.6761 18.1834 14.5232C18.0877 14.3704 17.9046 14.295 17.6407 14.295C17.3166 14.295 17.0438 14.3967 16.8217 14.5988C16.5986 14.8026 16.4514 15.0854 16.3791 15.4455L15.8171 18.3104H14.5547L15.5436 13.3218Z" fill="white"/>
<path fillRule="evenodd" clipRule="evenodd" d="M29.598 13.3218H30.8249L30.6856 14.042L30.8596 13.8365C31.2572 13.4079 31.7416 13.1953 32.3097 13.1953C32.8254 13.1953 33.1982 13.3464 33.4298 13.6503C33.6584 13.9542 33.7245 14.374 33.6129 14.9133L32.9403 18.3104H31.6788L32.2888 15.2312C32.3514 14.9133 32.334 14.6761 32.2381 14.5232C32.1387 14.3704 31.9592 14.295 31.6963 14.295C31.3721 14.295 31.1004 14.3967 30.8755 14.5988C30.6523 14.8026 30.5044 15.0854 30.4348 15.4455L29.8702 18.3104H28.6094L29.598 13.3218" fill="white"/>
<path fillRule="evenodd" clipRule="evenodd" d="M35.6607 10.2344H39.2225C39.9073 10.2344 40.4369 10.3908 40.801 10.6981C41.1634 11.0091 41.3449 11.4553 41.3449 12.0367V12.0541C41.3449 12.1648 41.3376 12.2895 41.3273 12.4247C41.3097 12.5582 41.287 12.6934 41.2577 12.8341C41.1009 13.6034 40.7365 14.2218 40.1738 14.6908C39.6091 15.158 38.9402 15.3934 38.17 15.3934H36.26L35.6694 18.3145H34.0156L35.6607 10.2344ZM36.5509 13.9882H38.1351C38.5479 13.9882 38.8755 13.8914 39.1144 13.7001C39.3514 13.5069 39.5082 13.2118 39.5952 12.8113C39.609 12.7374 39.6177 12.6707 39.6283 12.6093C39.6337 12.5514 39.6405 12.4932 39.6405 12.4372C39.6405 12.1508 39.5396 11.9435 39.3373 11.8135C39.1352 11.6817 38.8183 11.6186 38.3789 11.6186H37.0336L36.5509 13.9882Z" fill="white"/>
<path fillRule="evenodd" clipRule="evenodd" d="M48.7483 19.2716C48.2255 20.3922 47.7273 21.0455 47.4347 21.3494C47.1416 21.6499 46.5616 22.349 45.1641 22.2962L45.2843 21.4409C46.4603 21.0755 47.0964 19.4295 47.4588 18.7006L47.0267 13.3326L47.9364 13.3203H48.6995L48.7816 16.6876L50.2119 13.3203H51.6601L48.7483 19.2716Z" fill="white"/>
<path fillRule="evenodd" clipRule="evenodd" d="M44.7006 13.7318L44.1252 14.1306C43.5241 13.6563 42.9753 13.363 41.916 13.8582C40.473 14.5327 39.2672 19.7058 43.2402 18.0019L43.4667 18.2724L45.0297 18.3129L46.0561 13.6123L44.7006 13.7318ZM43.8117 16.3016C43.5607 17.0482 42.9999 17.5417 42.5607 17.4012C42.1216 17.2642 41.9648 16.5439 42.2191 15.7957C42.47 15.0474 43.0346 14.5556 43.4702 14.6961C43.9093 14.8331 44.0678 15.5533 43.8117 16.3016Z" fill="white"/>
</svg>
