<svg width="20" height="21" viewBox="0 0 20 21" fill="none" xmlns="http://www.w3.org/2000/svg">
<path fill-rule="evenodd" clip-rule="evenodd" d="M10 0.5C10 0.5 11.3946 0.5 12.6693 1.06614C12.6693 1.06614 13.9 1.61271 14.8487 2.60883C14.8487 2.60883 15.7974 3.60495 16.318 4.89719C16.318 4.89719 16.8571 6.23569 16.8571 7.7C16.8571 7.7 16.8571 9.1643 16.318 10.5028C16.318 10.5028 15.7974 11.795 14.8487 12.7912C14.8487 12.7912 13.9 13.7873 12.6693 14.3339C12.6693 14.3339 11.3946 14.9 10 14.9C10 14.9 8.60542 14.9 7.33066 14.3339C7.33066 14.3339 6.09996 13.7873 5.15127 12.7912C5.15127 12.7912 4.20258 11.795 3.68204 10.5028C3.68204 10.5028 3.14286 9.1643 3.14286 7.7C3.14286 7.7 3.14286 6.23569 3.68204 4.89719C3.68204 4.89719 4.20258 3.60495 5.15127 2.60883C5.15127 2.60883 6.09995 1.61271 7.33066 1.06614C7.33066 1.06614 8.60542 0.5 10 0.5ZM10 2.1C10 2.1 7.79086 2.1 6.22876 3.7402C6.22876 3.7402 4.66667 5.3804 4.66667 7.7C4.66667 7.7 4.66667 10.0196 6.22876 11.6598C6.22876 11.6598 7.79086 13.3 10 13.3C10 13.3 12.2091 13.3 13.7712 11.6598C13.7712 11.6598 15.3333 10.0196 15.3333 7.7C15.3333 7.7 15.3333 5.3804 13.7712 3.7402C13.7712 3.7402 12.2091 2.1 10 2.1Z" fill="#B5B5C3"/>
<path d="M14.9528 16.2927C17.2513 17.6863 18.5782 20.0999 18.5782 20.0999C18.6793 20.2837 18.8457 20.4178 19.0408 20.4727C19.1052 20.4908 19.1715 20.5 19.2381 20.5C19.2461 20.5 19.2541 20.4999 19.262 20.4996C19.3876 20.4955 19.5102 20.4588 19.619 20.3929C19.8548 20.25 20 19.9858 20 19.7C20 19.6877 19.9997 19.6753 19.9992 19.663C19.9935 19.5352 19.9588 19.4108 19.898 19.3001C18.3669 16.5151 15.7147 14.9071 15.7147 14.9071C13.0626 13.2991 10 13.2991 10 13.2991C6.93744 13.2991 4.28526 14.9071 4.28526 14.9071C1.63328 16.5149 0.102281 19.2996 0.102281 19.2996C0.0354318 19.4212 0 19.5596 0 19.7L0.000124977 19.7145C0.001247 19.7796 0.00992939 19.8443 0.0259796 19.9071C0.078297 20.1121 0.206006 20.2868 0.381013 20.3929C0.496823 20.463 0.628186 20.5 0.761905 20.5C0.776006 20.5 0.790105 20.4996 0.804184 20.4988C1.06096 20.4838 1.2932 20.3338 1.42177 20.0999C2.74867 17.6863 5.04722 16.2927 5.04722 16.2927C7.34578 14.8991 10 14.8991 10 14.8991C12.6542 14.8991 14.9528 16.2927 14.9528 16.2927Z" fill="#B5B5C3"/>
</svg>
