<svg width="100" height="100" viewBox="0 0 100 100" fill="none" xmlns="http://www.w3.org/2000/svg">
<rect opacity="0.1" width="100" height="100" rx="13" fill="#2BB457"/>
<path fill-rule="evenodd" clip-rule="evenodd" d="M26.5769 35.5144C26.5769 35.5144 27.5288 34.5625 28.875 34.5625H54.875C54.875 34.5625 58.2405 34.5625 60.6202 36.9423C60.6202 36.9423 63 39.322 63 42.6875V62.1875C63 62.1875 63 63.5337 62.0481 64.4856C62.0481 64.4856 61.0962 65.4375 59.75 65.4375H33.75C33.75 65.4375 30.3845 65.4375 28.0048 63.0577C28.0048 63.0577 25.625 60.678 25.625 57.3125V37.8125C25.625 37.8125 25.625 36.4663 26.5769 35.5144ZM28.875 37.8125V57.3125C28.875 57.3125 28.875 59.3318 30.3029 60.7596C30.3029 60.7596 31.7307 62.1875 33.75 62.1875H59.75V42.6875C59.75 42.6875 59.75 40.6682 58.3221 39.2404C58.3221 39.2404 56.8943 37.8125 54.875 37.8125H28.875Z" fill="#2BB457"/>
<path d="M71.125 56.9498L62.1812 51.8391C61.9357 51.6988 61.6578 51.625 61.375 51.625L61.3385 51.6254C61.2063 51.6284 61.075 51.6475 60.9474 51.6823C60.5316 51.7957 60.1779 52.0696 59.9641 52.4438C59.8238 52.6893 59.75 52.9672 59.75 53.25C59.75 53.2824 59.751 53.3149 59.7529 53.3472C59.7857 53.8948 60.0925 54.3888 60.5688 54.6609L71.9438 61.1609C72.723 61.6062 73.7156 61.3354 74.1609 60.5562C74.3012 60.3107 74.375 60.0328 74.375 59.75V40.25C74.375 39.3525 73.6475 38.625 72.75 38.625C72.4672 38.625 72.1893 38.6988 71.9438 38.8391L60.5688 45.3391C60.0625 45.6284 59.75 46.1669 59.75 46.75C59.75 46.7727 59.7505 46.7954 59.7514 46.8181C59.7623 47.0776 59.8353 47.3307 59.9641 47.5562C60.1779 47.9304 60.5316 48.2043 60.9474 48.3177C61.0868 48.3557 61.2306 48.375 61.375 48.375L61.419 48.3744C61.6868 48.3672 61.9486 48.2938 62.1812 48.1609L71.125 43.0502V56.9498Z" fill="#2BB457"/>
</svg>
