<svg width="72" height="72" viewBox="0 0 72 72" fill="none" xmlns="http://www.w3.org/2000/svg">
<path d="M28.6206 50.0085C27.3906 50.0085 26.3706 48.9885 26.3706 47.7585V37.5885L25.8006 38.2485C24.9606 39.1785 23.5506 39.2385 22.6206 38.4285C21.6906 37.5885 21.6306 36.1785 22.4406 35.2485L26.9406 30.2385C27.5706 29.5485 28.5606 29.3085 29.4306 29.6385C30.3006 29.9685 30.8706 30.8085 30.8706 31.7385V47.7885C30.8706 49.0185 29.8806 50.0085 28.6206 50.0085Z" fill="#7E7E89"/>
<path d="M36.0592 10.4431C36.2992 10.4431 36.5392 10.4731 36.7792 10.4731L34.3192 7.41312C33.5392 6.45312 33.6892 5.01312 34.6792 4.26312C35.6392 3.48312 37.0492 3.63312 37.8292 4.62312L43.7392 12.0031C43.7692 12.0331 43.7692 12.0631 43.7992 12.1231C43.8892 12.2431 43.9492 12.3931 44.0092 12.5131C44.0692 12.6631 44.1292 12.7831 44.1592 12.9031C44.1892 13.0531 44.1892 13.1731 44.1892 13.3231C44.1892 13.4731 44.1892 13.6231 44.1892 13.7731C44.1892 13.8331 44.1892 13.8631 44.1892 13.9231C44.1592 14.0131 44.0992 14.0731 44.0692 14.1931C44.0092 14.3431 43.9792 14.4631 43.8892 14.5831C43.7992 14.7031 43.7092 14.8231 43.5892 14.9431C43.5292 15.0031 43.4692 15.0931 43.4092 15.1531C43.3792 15.1831 43.3192 15.1831 43.2892 15.2131C43.1992 15.2731 43.1092 15.3331 42.9892 15.3631C42.8392 15.4531 42.6892 15.5131 42.5392 15.5431C42.4192 15.6031 42.3292 15.6031 42.2092 15.6031C42.1192 15.6031 42.0592 15.6331 41.9692 15.6331C41.9092 15.6331 41.8192 15.6031 41.7592 15.5731C41.6692 15.5731 41.5792 15.5731 41.4592 15.5731C39.5392 15.1231 37.7392 14.9131 36.0292 14.9131C22.5592 14.9131 11.6092 25.8631 11.6092 39.3331C11.6092 52.8031 22.5592 63.7531 36.0292 63.7531C49.4992 63.7531 60.4492 52.8031 60.4492 39.3331C60.4492 34.1131 58.7392 29.0731 55.4992 24.7531C54.7492 23.7631 54.9592 22.3531 55.9492 21.6031C56.9392 20.8531 58.3492 21.0631 59.0992 22.0531C62.9392 27.1531 64.9492 33.1231 64.9492 39.3331C64.9492 55.2631 51.9892 68.2531 36.0292 68.2531C20.0692 68.2531 7.10922 55.2931 7.10922 39.3331C7.10922 23.3731 20.1292 10.4431 36.0592 10.4431Z" fill="#7E7E89"/>
<path d="M42 50.0109C37.44 50.0109 33.75 46.3209 33.75 41.7609V37.7109C33.75 33.1509 37.44 29.4609 42 29.4609C46.56 29.4609 50.25 33.1509 50.25 37.7109V41.7609C50.25 46.3209 46.56 50.0109 42 50.0109ZM42 33.9909C39.93 33.9909 38.25 35.6709 38.25 37.7409V41.7909C38.25 43.8609 39.93 45.5409 42 45.5409C44.07 45.5409 45.75 43.8609 45.75 41.7909V37.7409C45.75 35.6709 44.07 33.9909 42 33.9909Z" fill="#7E7E89"/>
</svg>
