<svg width="72" height="72" viewBox="0 0 72 72" fill="none" xmlns="http://www.w3.org/2000/svg">
<path d="M28.6206 50.0085C27.3906 50.0085 26.3706 48.9885 26.3706 47.7585V37.5885L25.8006 38.2485C24.9606 39.1785 23.5506 39.2385 22.6206 38.4285C21.6906 37.5885 21.6306 36.1785 22.4406 35.2485L26.9406 30.2385C27.5706 29.5485 28.5606 29.3085 29.4306 29.6385C30.3006 29.9685 30.8706 30.8085 30.8706 31.7385V47.7885C30.8706 49.0185 29.8806 50.0085 28.6206 50.0085Z" fill="#B5B5C3"/>
<path d="M35.9994 10.4431C35.7594 10.4431 35.5194 10.4731 35.2794 10.4731L37.7394 7.41312C38.5194 6.45312 38.3694 5.01312 37.3794 4.26312C36.4194 3.48312 35.0094 3.63312 34.2294 4.62312L28.3194 12.0031C28.2894 12.0331 28.2894 12.0631 28.2594 12.1231C28.1694 12.2431 28.1094 12.3931 28.0494 12.5131C27.9894 12.6631 27.9294 12.7831 27.8994 12.9031C27.8694 13.0531 27.8694 13.1731 27.8694 13.3231C27.8694 13.4731 27.8694 13.6231 27.8694 13.7731C27.8694 13.8331 27.8694 13.8631 27.8694 13.9231C27.8994 14.0131 27.9594 14.0731 27.9894 14.1931C28.0494 14.3431 28.0794 14.4631 28.1694 14.5831C28.2594 14.7031 28.3494 14.8231 28.4694 14.9431C28.5294 15.0031 28.5894 15.0931 28.6494 15.1531C28.6794 15.1831 28.7394 15.1831 28.7694 15.2131C28.8594 15.2731 28.9494 15.3331 29.0694 15.3631C29.2194 15.4531 29.3694 15.5131 29.5194 15.5431C29.6394 15.6031 29.7294 15.6031 29.8494 15.6031C29.9394 15.6031 29.9994 15.6331 30.0894 15.6331C30.1494 15.6331 30.2394 15.6031 30.2994 15.5731C30.3894 15.5731 30.4794 15.5731 30.5994 15.5731C32.5194 15.1231 34.3194 14.9131 36.0294 14.9131C49.4994 14.9131 60.4494 25.8631 60.4494 39.3331C60.4494 52.8031 49.4994 63.7531 36.0294 63.7531C22.5594 63.7531 11.6094 52.8031 11.6094 39.3331C11.6094 34.1131 13.3194 29.0731 16.5594 24.7531C17.3094 23.7631 17.0994 22.3531 16.1094 21.6031C15.1194 20.8531 13.7094 21.0631 12.9594 22.0531C9.11938 27.1531 7.10938 33.1231 7.10938 39.3331C7.10938 55.2631 20.0694 68.2531 36.0294 68.2531C51.9894 68.2531 64.9494 55.2931 64.9494 39.3331C64.9494 23.3731 51.9294 10.4431 35.9994 10.4431Z" fill="#B5B5C3"/>
<path d="M42 50.0109C37.44 50.0109 33.75 46.3209 33.75 41.7609V37.7109C33.75 33.1509 37.44 29.4609 42 29.4609C46.56 29.4609 50.25 33.1509 50.25 37.7109V41.7609C50.25 46.3209 46.56 50.0109 42 50.0109ZM42 33.9909C39.93 33.9909 38.25 35.6709 38.25 37.7409V41.7909C38.25 43.8609 39.93 45.5409 42 45.5409C44.07 45.5409 45.75 43.8609 45.75 41.7909V37.7409C45.75 35.6709 44.07 33.9909 42 33.9909Z" fill="#B5B5C3"/>
</svg>
