<svg width="24" height="24" viewBox="0 0 24 24" fill="none" xmlns="http://www.w3.org/2000/svg">
<path d="M21.0521 6.6977C22.1081 7.75146 22.6798 9.12941 22.6798 9.12941C23.2517 10.5077 23.2517 12 23.2517 12C23.2517 13.4922 22.6798 14.8705 22.6798 14.8705C22.1081 16.2484 21.0522 17.3022 21.0522 17.3022L21.0516 17.3028C20.9203 17.4338 20.7451 17.5115 20.5598 17.5209C20.5472 17.5215 20.5345 17.5218 20.5219 17.5218C20.3227 17.5218 20.1316 17.4426 19.9909 17.3016C19.8592 17.1696 19.7814 16.9932 19.7727 16.807C19.7721 16.7953 19.7719 16.7836 19.7719 16.7718V16.771C19.7721 16.5721 19.8513 16.3814 19.9922 16.2409C19.9927 16.2403 19.9933 16.2398 19.9933 16.2398C20.8373 15.3973 21.2943 14.2957 21.2943 14.2957C21.7517 13.1934 21.7517 12 21.7517 12C21.7517 10.8065 21.2943 9.70424 21.2943 9.70424C20.837 8.60193 19.9922 7.75904 19.9922 7.75904C19.8511 7.61833 19.7719 7.4273 19.7719 7.22809C19.7719 7.03086 19.8496 6.84157 19.9881 6.7012L19.9909 6.69837C20.1152 6.57383 20.2793 6.49693 20.4545 6.48112C20.4766 6.47913 20.4988 6.47812 20.521 6.47809H20.5219C20.7174 6.47809 20.9052 6.55447 21.0453 6.69094L21.0521 6.6977Z" fill="#1C1C1C"/>
<path fillRule="evenodd" clipRule="evenodd" d="M13.7895 21.592L7.24267 16.5H3C3 16.5 2.37868 16.5 1.93934 16.0607C1.93934 16.0607 1.5 15.6213 1.5 15V9C1.5 9 1.5 8.37868 1.93934 7.93934C1.93934 7.93934 2.37868 7.5 3 7.5H7.24267L13.7895 2.40799C13.9466 2.28587 14.1456 2.23112 14.343 2.25579C14.5404 2.28047 14.7199 2.38254 14.842 2.53955C14.9444 2.6712 15 2.83322 15 3V21C15 21.4142 14.6642 21.75 14.25 21.75C14.0832 21.75 13.9212 21.6944 13.7895 21.592ZM7.96046 15.158L13.5 19.4665V4.53348L7.96046 8.84202C7.82881 8.94441 7.66678 9 7.5 9H3V15H7.5C7.66678 15 7.82881 15.0556 7.96046 15.158Z" fill="#1C1C1C"/>
<path d="M6.75 8.25V15.75C6.75 16.1642 7.08579 16.5 7.5 16.5C7.91421 16.5 8.25 16.1642 8.25 15.75V8.25C8.25 7.83579 7.91421 7.5 7.5 7.5C7.08579 7.5 6.75 7.83579 6.75 8.25Z" fill="#1C1C1C"/>
<path d="M17.8274 12.8595C17.6562 13.2717 17.3401 13.5868 17.3401 13.5868L17.3394 13.5874C17.1985 13.7278 17.1191 13.9184 17.1188 14.1173L17.1188 14.1185C17.1188 14.13 17.119 14.1419 17.1196 14.1534C17.1282 14.3396 17.2058 14.516 17.3374 14.6481C17.4778 14.789 17.6684 14.8684 17.8673 14.8688L17.8684 14.8688C17.88 14.8688 17.8918 14.8685 17.9033 14.868C18.0896 14.8594 18.266 14.7817 18.3981 14.6501L18.3989 14.6493C18.9267 14.1232 19.2126 13.4348 19.2126 13.4348C19.4988 12.746 19.4988 12 19.4988 12C19.4988 11.2541 19.2126 10.5652 19.2126 10.5652C18.9266 9.87658 18.3984 9.35026 18.3984 9.35026C18.2578 9.21023 18.0672 9.13129 17.8688 9.13129L17.8677 9.13129C17.6688 9.13167 17.4778 9.21105 17.3374 9.35198C17.1974 9.49255 17.1188 9.68287 17.1188 9.88129L17.1188 9.88273C17.1191 10.0816 17.1985 10.2723 17.3394 10.4126C17.656 10.728 17.8274 11.1406 17.8274 11.1406C17.9988 11.5532 17.9988 12 17.9988 12C17.9988 12.4468 17.8274 12.8595 17.8274 12.8595Z" fill="#1C1C1C"/>
</svg>
