<svg width="1013" height="167" viewBox="0 0 1013 167" fill="none" xmlns="http://www.w3.org/2000/svg">
<g filter="url(#filter0_d_125_16227)">
<circle cx="65" cy="58" r="55" fill="white"/>
</g>
<path d="M64.0799 59.1224C67.0569 59.1224 69.9119 57.9399 72.0169 55.8349C74.1219 53.7299 75.3044 50.8749 75.3044 47.898C75.3044 44.921 74.1219 42.066 72.0169 39.961C69.9119 37.856 67.0569 36.6735 64.0799 36.6735C61.103 36.6735 58.248 37.856 56.143 39.961C54.038 42.066 52.8555 44.921 52.8555 47.898C52.8555 50.8749 54.038 53.7299 56.143 55.8349C58.248 57.9399 61.103 59.1224 64.0799 59.1224ZM64.0799 64.7347C52.833 64.7347 43.6738 72.2775 43.6738 81.5714C43.6738 82.2 44.1677 82.6939 44.7963 82.6939H83.3636C83.9922 82.6939 84.4861 82.2 84.4861 81.5714C84.4861 72.2775 75.3269 64.7347 64.0799 64.7347Z" fill="#447ADC"/>
<path d="M215.108 59.684C215.996 59.684 216.44 60.128 216.44 61.016V63.162C216.44 64.05 215.996 64.494 215.108 64.494H210.15V69.748C210.15 71.0307 210.693 72.19 211.778 73.226C212.863 74.262 213.406 75.0267 213.406 75.52V75.742C213.406 76.5807 212.863 77 211.778 77H197.644C196.559 77 196.016 76.5807 196.016 75.742V75.52C196.016 75.0267 196.509 74.262 197.496 73.226C198.483 72.19 198.976 71.0307 198.976 69.748V64.494H178.182C176.209 64.494 175.222 63.7047 175.222 62.126V61.756C175.222 60.424 175.567 59.2153 176.258 58.13L196.83 27.272C198.063 25.3973 199.716 24.46 201.788 24.46H208.448C209.583 24.46 210.15 25.0273 210.15 26.162V59.684H215.108ZM181.216 59.684H198.976L199.05 33.118L181.216 59.684ZM227.542 77.74C225.569 77.74 223.941 77.222 222.658 76.186C221.376 75.1007 220.734 73.5713 220.734 71.598C220.734 69.6247 221.376 68.12 222.658 67.084C223.941 65.9987 225.569 65.456 227.542 65.456C229.466 65.456 231.07 65.9987 232.352 67.084C233.635 68.12 234.276 69.6247 234.276 71.598C234.276 73.5713 233.635 75.1007 232.352 76.186C231.07 77.222 229.466 77.74 227.542 77.74ZM259.872 43.848C264.706 43.848 268.875 45.3033 272.378 48.214C275.88 51.0753 277.632 54.948 277.632 59.832C277.632 65.0613 275.757 69.3533 272.008 72.708C268.308 76.0627 263.448 77.74 257.43 77.74C251.658 77.74 247.144 76.7287 243.888 74.706C240.681 72.6833 239.078 70.192 239.078 67.232C239.078 65.456 239.596 64.1487 240.632 63.31C241.668 62.4713 242.926 62.052 244.406 62.052C245.738 62.052 246.897 62.644 247.884 63.828C248.87 64.9627 249.635 66.2207 250.178 67.602C250.72 68.9833 251.608 70.266 252.842 71.45C254.124 72.5847 255.678 73.152 257.504 73.152C260.118 73.152 262.24 72.1653 263.868 70.192C265.545 68.2187 266.384 65.3573 266.384 61.608C266.384 57.316 265.52 54.0353 263.794 51.766C262.067 49.4967 259.625 48.362 256.468 48.362C253.656 48.362 250.696 49.5213 247.588 51.84C246.453 52.7773 245.146 52.95 243.666 52.358C242.235 51.7167 241.618 50.7547 241.816 49.472L244.628 25.866C244.776 24.9287 245.368 24.46 246.404 24.46H274.302C275.338 24.46 275.856 25.0027 275.856 26.088V31.712C275.856 32.7973 275.338 33.34 274.302 33.34H249.364L246.996 47.992C250.498 45.2293 254.79 43.848 259.872 43.848ZM319.151 71.45C319.447 71.8447 320.187 72.4613 321.371 73.3C322.555 74.0893 323.147 74.8293 323.147 75.52V75.742C323.147 76.5807 322.654 77 321.667 77H307.903C306.917 77 306.423 76.556 306.423 75.668V75.52C306.423 75.0267 306.769 74.3853 307.459 73.596C308.199 72.8067 308.347 72.0913 307.903 71.45L299.911 60.202L295.545 64.272V69.896C295.545 71.0307 296.063 72.116 297.099 73.152C298.185 74.188 298.727 74.9527 298.727 75.446V75.742C298.727 76.5807 298.16 77 297.025 77H283.409C282.324 77 281.781 76.5807 281.781 75.742V75.446C281.781 74.9527 282.25 74.188 283.187 73.152C284.125 72.116 284.593 71.0307 284.593 69.896V33.488C284.593 32.2053 284.026 31.046 282.891 30.01C281.806 28.974 281.263 28.2587 281.263 27.864V27.568C281.263 26.976 281.757 26.4827 282.743 26.088L292.585 21.5C293.473 21.1053 294.189 21.056 294.731 21.352C295.274 21.648 295.545 22.1413 295.545 22.832V58.648L307.237 48.51C307.78 48.1153 307.977 47.6467 307.829 47.104C307.731 46.5613 307.509 46.1173 307.163 45.772C306.818 45.3773 306.448 44.9333 306.053 44.44C305.659 43.8973 305.461 43.4287 305.461 43.034V42.738C305.461 41.8993 305.955 41.48 306.941 41.48H317.523C318.51 41.48 319.003 41.8747 319.003 42.664V42.96C319.003 43.5027 318.683 44.0453 318.041 44.588C317.449 45.0813 316.561 45.698 315.377 46.438C314.243 47.178 313.33 47.844 312.639 48.436L306.645 53.986L319.151 71.45ZM341.894 72.338C341.154 72.338 340.784 71.7953 340.784 70.71V59.24H329.314C328.328 59.24 327.785 58.87 327.686 58.13L327.76 53.616C327.76 52.876 328.278 52.506 329.314 52.506H340.784V41.036C340.784 39.9507 341.154 39.408 341.894 39.408H346.482C347.222 39.408 347.592 39.9507 347.592 41.036V52.506L359.136 52.432C360.172 52.432 360.69 52.802 360.69 53.542V58.13C360.69 58.87 360.172 59.24 359.136 59.24H347.666V70.71C347.666 71.7953 347.272 72.338 346.482 72.338H341.894Z" fill="#151515"/>
<path d="M180.976 129V114.168H175.36V112.272H188.704V114.168H183.112V129H180.976ZM193.749 129.192C192.645 129.192 191.653 128.936 190.773 128.424C189.909 127.896 189.229 127.168 188.733 126.24C188.237 125.312 187.989 124.256 187.989 123.072C187.989 121.888 188.229 120.84 188.709 119.928C189.205 119 189.885 118.28 190.749 117.768C191.629 117.24 192.629 116.976 193.749 116.976C194.869 116.976 195.853 117.24 196.701 117.768C197.565 118.28 198.245 119 198.741 119.928C199.237 120.84 199.484 121.888 199.484 123.072C199.484 124.256 199.237 125.312 198.741 126.24C198.245 127.152 197.565 127.872 196.701 128.4C195.837 128.928 194.853 129.192 193.749 129.192ZM193.749 127.392C194.501 127.392 195.149 127.216 195.693 126.864C196.253 126.496 196.685 125.992 196.989 125.352C197.293 124.696 197.445 123.936 197.445 123.072C197.445 122.192 197.293 121.432 196.989 120.792C196.685 120.136 196.253 119.632 195.693 119.28C195.149 118.928 194.501 118.752 193.749 118.752C192.981 118.752 192.317 118.936 191.757 119.304C191.197 119.656 190.765 120.152 190.461 120.792C190.157 121.432 190.005 122.192 190.005 123.072C190.005 123.936 190.157 124.696 190.461 125.352C190.765 125.992 191.197 126.496 191.757 126.864C192.317 127.216 192.981 127.392 193.749 127.392ZM206.07 129.192C205.51 129.192 204.998 129.088 204.534 128.88C204.086 128.656 203.734 128.304 203.478 127.824C203.222 127.344 203.094 126.728 203.094 125.976V114L205.158 112.848V125.448C205.158 126.104 205.262 126.616 205.47 126.984C205.678 127.336 206.054 127.512 206.598 127.512C206.758 127.512 206.95 127.496 207.174 127.464C207.398 127.416 207.638 127.36 207.894 127.296V128.88C207.59 128.992 207.278 129.072 206.958 129.12C206.654 129.168 206.358 129.192 206.07 129.192ZM200.646 118.752V117.168H207.894V118.752H200.646ZM218.207 129L218.063 126.624V121.584C218.063 120.672 217.807 119.968 217.295 119.472C216.799 118.976 216.055 118.728 215.063 118.728C214.423 118.728 213.823 118.864 213.263 119.136C212.703 119.392 212.159 119.832 211.631 120.456L210.167 119.208C210.823 118.44 211.575 117.88 212.423 117.528C213.271 117.16 214.199 116.976 215.207 116.976C216.759 116.976 217.959 117.376 218.807 118.176C219.655 118.976 220.079 120.112 220.079 121.584V129H218.207ZM214.295 129.192C213.399 129.192 212.615 129.04 211.943 128.736C211.287 128.416 210.775 127.976 210.407 127.416C210.055 126.856 209.879 126.208 209.879 125.472C209.879 124.816 210.007 124.264 210.263 123.816C210.535 123.352 210.879 122.992 211.295 122.736C211.711 122.464 212.183 122.28 212.711 122.184C213.255 122.072 213.823 122.016 214.415 122.016H218.255V123.552H214.703C214.351 123.552 213.983 123.584 213.599 123.648C213.215 123.712 212.879 123.848 212.591 124.056C212.383 124.216 212.215 124.416 212.087 124.656C211.975 124.896 211.919 125.176 211.919 125.496C211.919 126.12 212.151 126.616 212.615 126.984C213.079 127.352 213.703 127.536 214.487 127.536C215.143 127.536 215.735 127.384 216.263 127.08C216.807 126.776 217.239 126.36 217.559 125.832C217.895 125.288 218.063 124.68 218.063 124.008L218.903 124.872C218.807 125.72 218.551 126.472 218.135 127.128C217.719 127.784 217.183 128.296 216.527 128.664C215.887 129.016 215.143 129.192 214.295 129.192ZM225.768 129.192C225.048 129.192 224.464 128.968 224.016 128.52C223.568 128.072 223.344 127.36 223.344 126.384V112.272H225.36V126C225.36 126.464 225.456 126.8 225.648 127.008C225.84 127.216 226.096 127.32 226.416 127.32C226.56 127.32 226.72 127.304 226.896 127.272C227.072 127.24 227.256 127.192 227.448 127.128V128.856C227.176 128.968 226.888 129.048 226.584 129.096C226.28 129.16 226.008 129.192 225.768 129.192ZM243.754 129L243.61 126.624V121.584C243.61 120.672 243.354 119.968 242.842 119.472C242.346 118.976 241.602 118.728 240.61 118.728C239.97 118.728 239.37 118.864 238.81 119.136C238.25 119.392 237.706 119.832 237.178 120.456L235.714 119.208C236.37 118.44 237.122 117.88 237.97 117.528C238.818 117.16 239.746 116.976 240.754 116.976C242.306 116.976 243.506 117.376 244.354 118.176C245.202 118.976 245.626 120.112 245.626 121.584V129H243.754ZM239.842 129.192C238.946 129.192 238.162 129.04 237.49 128.736C236.834 128.416 236.322 127.976 235.954 127.416C235.602 126.856 235.426 126.208 235.426 125.472C235.426 124.816 235.554 124.264 235.81 123.816C236.082 123.352 236.426 122.992 236.842 122.736C237.258 122.464 237.73 122.28 238.258 122.184C238.802 122.072 239.37 122.016 239.962 122.016H243.802V123.552H240.25C239.898 123.552 239.53 123.584 239.146 123.648C238.762 123.712 238.426 123.848 238.138 124.056C237.93 124.216 237.762 124.416 237.634 124.656C237.522 124.896 237.466 125.176 237.466 125.496C237.466 126.12 237.698 126.616 238.162 126.984C238.626 127.352 239.25 127.536 240.034 127.536C240.69 127.536 241.282 127.384 241.81 127.08C242.354 126.776 242.786 126.36 243.106 125.832C243.442 125.288 243.61 124.68 243.61 124.008L244.45 124.872C244.354 125.72 244.098 126.472 243.682 127.128C243.266 127.784 242.73 128.296 242.074 128.664C241.434 129.016 240.69 129.192 239.842 129.192ZM253.859 129.192C252.979 129.192 252.195 129.032 251.507 128.712C250.835 128.392 250.267 127.952 249.803 127.392C249.339 126.816 248.987 126.16 248.747 125.424C248.507 124.688 248.387 123.904 248.387 123.072C248.387 122.256 248.507 121.48 248.747 120.744C248.987 120.008 249.339 119.36 249.803 118.8C250.267 118.224 250.835 117.776 251.507 117.456C252.195 117.136 252.979 116.976 253.859 116.976C254.979 116.976 255.955 117.248 256.787 117.792C257.635 118.336 258.259 119.168 258.659 120.288L256.859 120.984C256.635 120.312 256.275 119.768 255.779 119.352C255.283 118.936 254.643 118.728 253.859 118.728C253.075 118.728 252.427 118.936 251.915 119.352C251.403 119.768 251.019 120.304 250.763 120.96C250.523 121.616 250.403 122.32 250.403 123.072C250.403 123.824 250.523 124.536 250.763 125.208C251.019 125.864 251.403 126.4 251.915 126.816C252.427 127.216 253.075 127.416 253.859 127.416C254.643 127.416 255.283 127.216 255.779 126.816C256.275 126.4 256.635 125.848 256.859 125.16L258.659 125.856C258.259 126.976 257.635 127.816 256.787 128.376C255.955 128.92 254.979 129.192 253.859 129.192ZM265.297 129.192C264.737 129.192 264.225 129.088 263.761 128.88C263.313 128.656 262.961 128.304 262.705 127.824C262.449 127.344 262.321 126.728 262.321 125.976V114L264.385 112.848V125.448C264.385 126.104 264.489 126.616 264.697 126.984C264.905 127.336 265.281 127.512 265.825 127.512C265.985 127.512 266.177 127.496 266.401 127.464C266.625 127.416 266.865 127.36 267.121 127.296V128.88C266.817 128.992 266.505 129.072 266.185 129.12C265.881 129.168 265.585 129.192 265.297 129.192ZM259.873 118.752V117.168H267.121V118.752H259.873ZM269.634 129V117.168H271.65V129H269.634ZM269.442 115.032V112.272H271.842V115.032H269.442ZM278.744 129L273.896 117.168H276.128L279.584 126.384L283.064 117.168H285.272L280.448 129H278.744ZM292.251 129.192C291.323 129.192 290.507 129.04 289.803 128.736C289.115 128.416 288.539 127.976 288.075 127.416C287.627 126.856 287.283 126.216 287.043 125.496C286.819 124.76 286.707 123.984 286.707 123.168C286.707 122.352 286.819 121.576 287.043 120.84C287.267 120.088 287.595 119.424 288.027 118.848C288.475 118.272 289.035 117.816 289.707 117.48C290.379 117.144 291.163 116.976 292.059 116.976C292.971 116.976 293.755 117.136 294.411 117.456C295.083 117.76 295.627 118.184 296.043 118.728C296.475 119.272 296.795 119.88 297.003 120.552C297.211 121.224 297.315 121.92 297.315 122.64C297.315 122.704 297.307 122.856 297.291 123.096C297.291 123.32 297.275 123.52 297.243 123.696H288.723C288.771 124.848 289.107 125.744 289.731 126.384C290.355 127.024 291.203 127.344 292.275 127.344C292.963 127.344 293.563 127.232 294.075 127.008C294.587 126.784 295.067 126.424 295.515 125.928L296.931 127.176C296.499 127.64 296.043 128.024 295.563 128.328C295.083 128.616 294.571 128.832 294.027 128.976C293.499 129.12 292.907 129.192 292.251 129.192ZM295.299 122.664C295.331 122.536 295.347 122.408 295.347 122.28C295.363 122.152 295.371 122.024 295.371 121.896C295.371 121.512 295.299 121.128 295.155 120.744C295.027 120.36 294.827 120.016 294.555 119.712C294.299 119.392 293.963 119.144 293.547 118.968C293.147 118.776 292.667 118.68 292.107 118.68C291.419 118.68 290.827 118.84 290.331 119.16C289.835 119.48 289.451 119.904 289.179 120.432C288.907 120.96 288.747 121.544 288.699 122.184H295.971L295.299 122.664ZM314.519 129L310.583 122.904L308.255 125.4V122.784L313.703 117.168H316.319L312.071 121.536L316.943 129H314.519ZM306.455 129V112.272H308.495V129H306.455ZM319.204 129V117.168H321.22V129H319.204ZM319.012 115.032V112.272H321.412V115.032H319.012ZM329.466 129.192C328.394 129.192 327.45 128.928 326.634 128.4C325.834 127.856 325.21 127.12 324.762 126.192C324.314 125.264 324.09 124.224 324.09 123.072C324.09 121.824 324.33 120.744 324.81 119.832C325.29 118.92 325.938 118.216 326.754 117.72C327.57 117.224 328.474 116.976 329.466 116.976C330.218 116.976 330.89 117.128 331.482 117.432C332.074 117.72 332.57 118.12 332.97 118.632C333.386 119.128 333.674 119.688 333.834 120.312L333.258 120.696V112.272H335.274V129H333.258V125.472L333.93 125.688C333.722 126.376 333.41 126.984 332.994 127.512C332.578 128.04 332.074 128.456 331.482 128.76C330.89 129.048 330.218 129.192 329.466 129.192ZM329.802 127.32C330.522 127.32 331.154 127.144 331.698 126.792C332.242 126.424 332.666 125.92 332.97 125.28C333.274 124.64 333.426 123.904 333.426 123.072C333.426 122.24 333.274 121.504 332.97 120.864C332.666 120.224 332.242 119.728 331.698 119.376C331.154 119.008 330.522 118.824 329.802 118.824C329.082 118.824 328.442 119.008 327.882 119.376C327.338 119.728 326.906 120.224 326.586 120.864C326.282 121.504 326.13 122.24 326.13 123.072C326.13 123.904 326.282 124.64 326.586 125.28C326.906 125.92 327.338 126.424 327.882 126.792C328.442 127.144 329.082 127.32 329.802 127.32ZM342.64 129.192C341.84 129.192 341.12 129.072 340.48 128.832C339.84 128.592 339.288 128.272 338.824 127.872C338.376 127.472 338.016 127.048 337.744 126.6L339.16 125.4C339.464 126.008 339.912 126.512 340.504 126.912C341.112 127.296 341.832 127.488 342.664 127.488C343.416 127.488 344.016 127.328 344.464 127.008C344.912 126.688 345.136 126.256 345.136 125.712C345.136 125.264 345 124.912 344.728 124.656C344.456 124.4 344.096 124.192 343.648 124.032C343.2 123.872 342.712 123.728 342.184 123.6C341.736 123.488 341.28 123.352 340.816 123.192C340.368 123.032 339.96 122.832 339.592 122.592C339.224 122.352 338.928 122.04 338.704 121.656C338.48 121.272 338.368 120.8 338.368 120.24C338.368 119.264 338.744 118.48 339.496 117.888C340.264 117.28 341.264 116.976 342.496 116.976C343.392 116.976 344.208 117.168 344.944 117.552C345.696 117.92 346.28 118.48 346.696 119.232L345.4 120.192C345.08 119.632 344.656 119.232 344.128 118.992C343.616 118.736 343.048 118.608 342.424 118.608C341.8 118.608 341.28 118.736 340.864 118.992C340.448 119.248 340.24 119.6 340.24 120.048C340.24 120.384 340.336 120.656 340.528 120.864C340.72 121.072 341 121.248 341.368 121.392C341.752 121.536 342.216 121.672 342.76 121.8C343.256 121.912 343.76 122.048 344.272 122.208C344.784 122.368 345.256 122.576 345.688 122.832C346.12 123.088 346.464 123.432 346.72 123.864C346.992 124.28 347.128 124.824 347.128 125.496C347.128 126.232 346.944 126.88 346.576 127.44C346.208 128 345.688 128.432 345.016 128.736C344.344 129.04 343.552 129.192 342.64 129.192ZM180.664 160.192C180.104 160.192 179.592 160.088 179.128 159.88C178.68 159.656 178.328 159.304 178.072 158.824C177.816 158.344 177.688 157.728 177.688 156.976V145L179.752 143.848V156.448C179.752 157.104 179.856 157.616 180.064 157.984C180.272 158.336 180.648 158.512 181.192 158.512C181.352 158.512 181.544 158.496 181.768 158.464C181.992 158.416 182.232 158.36 182.488 158.296V159.88C182.184 159.992 181.872 160.072 181.552 160.12C181.248 160.168 180.952 160.192 180.664 160.192ZM175.24 149.752V148.168H182.488V149.752H175.24ZM192.801 160L192.657 157.624V152.584C192.657 151.672 192.401 150.968 191.889 150.472C191.393 149.976 190.649 149.728 189.657 149.728C189.017 149.728 188.417 149.864 187.857 150.136C187.297 150.392 186.753 150.832 186.225 151.456L184.761 150.208C185.417 149.44 186.169 148.88 187.017 148.528C187.865 148.16 188.793 147.976 189.801 147.976C191.353 147.976 192.553 148.376 193.401 149.176C194.249 149.976 194.673 151.112 194.673 152.584V160H192.801ZM188.889 160.192C187.993 160.192 187.209 160.04 186.537 159.736C185.881 159.416 185.369 158.976 185.001 158.416C184.649 157.856 184.473 157.208 184.473 156.472C184.473 155.816 184.601 155.264 184.857 154.816C185.129 154.352 185.473 153.992 185.889 153.736C186.305 153.464 186.777 153.28 187.305 153.184C187.849 153.072 188.417 153.016 189.009 153.016H192.849V154.552H189.297C188.945 154.552 188.577 154.584 188.193 154.648C187.809 154.712 187.473 154.848 187.185 155.056C186.977 155.216 186.809 155.416 186.681 155.656C186.569 155.896 186.513 156.176 186.513 156.496C186.513 157.12 186.745 157.616 187.209 157.984C187.673 158.352 188.297 158.536 189.081 158.536C189.737 158.536 190.329 158.384 190.857 158.08C191.401 157.776 191.833 157.36 192.153 156.832C192.489 156.288 192.657 155.68 192.657 155.008L193.497 155.872C193.401 156.72 193.145 157.472 192.729 158.128C192.313 158.784 191.777 159.296 191.121 159.664C190.481 160.016 189.737 160.192 188.889 160.192ZM206.05 160L202.114 153.904L199.786 156.4V153.784L205.234 148.168H207.85L203.602 152.536L208.474 160H206.05ZM197.986 160V143.272H200.026V160H197.986ZM210.735 160V148.168H212.751V160H210.735ZM210.543 146.032V143.272H212.943V146.032H210.543ZM216.173 160V148.168H218.213V150.688L217.733 150.856C217.957 150.248 218.261 149.736 218.645 149.32C219.029 148.888 219.493 148.56 220.037 148.336C220.581 148.096 221.181 147.976 221.837 147.976C223.133 147.976 224.149 148.36 224.885 149.128C225.621 149.88 225.989 151 225.989 152.488V160H223.949V153.232C223.949 152.032 223.725 151.152 223.277 150.592C222.845 150.016 222.181 149.728 221.285 149.728C220.629 149.728 220.069 149.88 219.605 150.184C219.157 150.488 218.813 150.968 218.573 151.624C218.333 152.264 218.213 153.088 218.213 154.096V160H216.173ZM234.074 165.112C232.378 165.112 231.034 164.8 230.042 164.176C229.05 163.552 228.554 162.688 228.554 161.584C228.554 161.504 228.554 161.4 228.554 161.272C228.57 161.144 228.594 161.024 228.626 160.912L231.578 158.776L232.274 159.256L230.594 161.344C230.578 161.408 230.57 161.464 230.57 161.512C230.57 161.56 230.57 161.608 230.57 161.656C230.57 162.296 230.906 162.768 231.578 163.072C232.25 163.392 233.082 163.552 234.074 163.552C234.954 163.552 235.682 163.424 236.258 163.168C236.834 162.928 237.122 162.528 237.122 161.968C237.122 161.648 237.026 161.384 236.834 161.176C236.658 160.984 236.394 160.832 236.042 160.72C235.706 160.608 235.306 160.512 234.842 160.432C234.378 160.352 233.858 160.272 233.282 160.192C232.562 160.08 231.858 159.92 231.17 159.712C230.498 159.504 229.938 159.2 229.49 158.8C229.058 158.4 228.842 157.872 228.842 157.216C228.842 156.656 229.034 156.144 229.418 155.68C229.818 155.216 230.338 154.832 230.978 154.528L232.274 155.368C231.73 155.496 231.346 155.696 231.122 155.968C230.898 156.224 230.786 156.536 230.786 156.904C230.786 157.208 230.89 157.456 231.098 157.648C231.322 157.84 231.634 157.992 232.034 158.104C232.45 158.2 232.946 158.288 233.522 158.368C234.29 158.48 235.01 158.6 235.682 158.728C236.354 158.856 236.946 159.04 237.458 159.28C237.986 159.504 238.394 159.808 238.682 160.192C238.97 160.592 239.114 161.104 239.114 161.728C239.114 162.816 238.666 163.648 237.77 164.224C236.874 164.816 235.642 165.112 234.074 165.112ZM233.786 156.304C232.874 156.304 232.066 156.128 231.362 155.776C230.658 155.424 230.106 154.936 229.706 154.312C229.322 153.688 229.13 152.976 229.13 152.176C229.13 151.344 229.33 150.616 229.73 149.992C230.146 149.352 230.698 148.856 231.386 148.504C232.09 148.152 232.866 147.976 233.714 147.976C234.546 147.976 235.306 148.152 235.994 148.504C236.682 148.856 237.234 149.352 237.65 149.992C238.066 150.632 238.274 151.384 238.274 152.248C238.274 153.064 238.082 153.776 237.698 154.384C237.314 154.992 236.786 155.464 236.114 155.8C235.442 156.136 234.666 156.304 233.786 156.304ZM233.738 154.648C234.538 154.648 235.154 154.408 235.586 153.928C236.034 153.432 236.258 152.832 236.258 152.128C236.258 151.376 236.026 150.768 235.562 150.304C235.098 149.84 234.49 149.608 233.738 149.608C232.97 149.608 232.346 149.848 231.866 150.328C231.386 150.792 231.146 151.384 231.146 152.104C231.146 152.824 231.378 153.432 231.842 153.928C232.306 154.408 232.938 154.648 233.738 154.648ZM237.506 150.376L236.042 149.392L238.538 147.328L239.57 148.6L237.506 150.376ZM252.637 165.112C250.941 165.112 249.597 164.8 248.605 164.176C247.613 163.552 247.117 162.688 247.117 161.584C247.117 161.504 247.117 161.4 247.117 161.272C247.133 161.144 247.157 161.024 247.189 160.912L250.141 158.776L250.837 159.256L249.157 161.344C249.141 161.408 249.133 161.464 249.133 161.512C249.133 161.56 249.133 161.608 249.133 161.656C249.133 162.296 249.469 162.768 250.141 163.072C250.813 163.392 251.645 163.552 252.637 163.552C253.517 163.552 254.245 163.424 254.821 163.168C255.397 162.928 255.685 162.528 255.685 161.968C255.685 161.648 255.589 161.384 255.397 161.176C255.221 160.984 254.957 160.832 254.605 160.72C254.269 160.608 253.869 160.512 253.405 160.432C252.941 160.352 252.421 160.272 251.845 160.192C251.125 160.08 250.421 159.92 249.733 159.712C249.061 159.504 248.501 159.2 248.053 158.8C247.621 158.4 247.405 157.872 247.405 157.216C247.405 156.656 247.597 156.144 247.981 155.68C248.381 155.216 248.901 154.832 249.541 154.528L250.837 155.368C250.293 155.496 249.909 155.696 249.685 155.968C249.461 156.224 249.349 156.536 249.349 156.904C249.349 157.208 249.453 157.456 249.661 157.648C249.885 157.84 250.197 157.992 250.597 158.104C251.013 158.2 251.509 158.288 252.085 158.368C252.853 158.48 253.573 158.6 254.245 158.728C254.917 158.856 255.509 159.04 256.021 159.28C256.549 159.504 256.957 159.808 257.245 160.192C257.533 160.592 257.677 161.104 257.677 161.728C257.677 162.816 257.229 163.648 256.333 164.224C255.437 164.816 254.205 165.112 252.637 165.112ZM252.349 156.304C251.437 156.304 250.629 156.128 249.925 155.776C249.221 155.424 248.669 154.936 248.269 154.312C247.885 153.688 247.693 152.976 247.693 152.176C247.693 151.344 247.893 150.616 248.293 149.992C248.709 149.352 249.261 148.856 249.949 148.504C250.653 148.152 251.429 147.976 252.277 147.976C253.109 147.976 253.869 148.152 254.557 148.504C255.245 148.856 255.797 149.352 256.213 149.992C256.629 150.632 256.837 151.384 256.837 152.248C256.837 153.064 256.645 153.776 256.261 154.384C255.877 154.992 255.349 155.464 254.677 155.8C254.005 156.136 253.229 156.304 252.349 156.304ZM252.301 154.648C253.101 154.648 253.717 154.408 254.149 153.928C254.597 153.432 254.821 152.832 254.821 152.128C254.821 151.376 254.589 150.768 254.125 150.304C253.661 149.84 253.053 149.608 252.301 149.608C251.533 149.608 250.909 149.848 250.429 150.328C249.949 150.792 249.709 151.384 249.709 152.104C249.709 152.824 249.941 153.432 250.405 153.928C250.869 154.408 251.501 154.648 252.301 154.648ZM256.069 150.376L254.605 149.392L257.101 147.328L258.133 148.6L256.069 150.376ZM260.165 160V148.168H262.181V160H260.165ZM259.973 146.032V143.272H262.373V146.032H259.973ZM266.563 160V149.752H264.115V148.168H266.587V146.632C266.587 145.736 266.731 145.032 267.019 144.52C267.307 143.992 267.699 143.624 268.195 143.416C268.707 143.192 269.275 143.08 269.899 143.08C270.331 143.08 270.715 143.12 271.051 143.2C271.387 143.28 271.707 143.4 272.011 143.56L271.339 145.096C271.163 145 270.971 144.928 270.763 144.88C270.555 144.816 270.339 144.784 270.115 144.784C269.603 144.784 269.219 144.944 268.963 145.264C268.723 145.584 268.603 146.04 268.603 146.632V148.168H271.363V149.752H268.603V160H266.563ZM277.578 160.192C277.018 160.192 276.506 160.088 276.042 159.88C275.594 159.656 275.242 159.304 274.986 158.824C274.73 158.344 274.602 157.728 274.602 156.976V145L276.666 143.848V156.448C276.666 157.104 276.77 157.616 276.978 157.984C277.186 158.336 277.562 158.512 278.106 158.512C278.266 158.512 278.458 158.496 278.682 158.464C278.906 158.416 279.146 158.36 279.402 158.296V159.88C279.098 159.992 278.786 160.072 278.466 160.12C278.162 160.168 277.866 160.192 277.578 160.192ZM272.154 149.752V148.168H279.402V149.752H272.154ZM286.697 160.192C285.769 160.192 284.953 160.04 284.249 159.736C283.561 159.416 282.985 158.976 282.521 158.416C282.073 157.856 281.729 157.216 281.489 156.496C281.265 155.76 281.153 154.984 281.153 154.168C281.153 153.352 281.265 152.576 281.489 151.84C281.713 151.088 282.041 150.424 282.473 149.848C282.921 149.272 283.481 148.816 284.153 148.48C284.825 148.144 285.609 147.976 286.505 147.976C287.417 147.976 288.201 148.136 288.857 148.456C289.529 148.76 290.073 149.184 290.489 149.728C290.921 150.272 291.241 150.88 291.449 151.552C291.657 152.224 291.761 152.92 291.761 153.64C291.761 153.704 291.753 153.856 291.737 154.096C291.737 154.32 291.721 154.52 291.689 154.696H283.169C283.217 155.848 283.553 156.744 284.177 157.384C284.801 158.024 285.649 158.344 286.721 158.344C287.409 158.344 288.009 158.232 288.521 158.008C289.033 157.784 289.513 157.424 289.961 156.928L291.377 158.176C290.945 158.64 290.489 159.024 290.009 159.328C289.529 159.616 289.017 159.832 288.473 159.976C287.945 160.12 287.353 160.192 286.697 160.192ZM289.745 153.664C289.777 153.536 289.793 153.408 289.793 153.28C289.809 153.152 289.817 153.024 289.817 152.896C289.817 152.512 289.745 152.128 289.601 151.744C289.473 151.36 289.273 151.016 289.001 150.712C288.745 150.392 288.409 150.144 287.993 149.968C287.593 149.776 287.113 149.68 286.553 149.68C285.865 149.68 285.273 149.84 284.777 150.16C284.281 150.48 283.897 150.904 283.625 151.432C283.353 151.96 283.193 152.544 283.145 153.184H290.417L289.745 153.664ZM299.49 160.192C298.418 160.192 297.474 159.928 296.658 159.4C295.858 158.856 295.234 158.12 294.786 157.192C294.338 156.264 294.114 155.224 294.114 154.072C294.114 152.824 294.354 151.744 294.834 150.832C295.314 149.92 295.962 149.216 296.778 148.72C297.594 148.224 298.498 147.976 299.49 147.976C300.242 147.976 300.914 148.128 301.506 148.432C302.098 148.72 302.594 149.12 302.994 149.632C303.41 150.128 303.698 150.688 303.858 151.312L303.282 151.696V143.272H305.298V160H303.282V156.472L303.954 156.688C303.746 157.376 303.434 157.984 303.018 158.512C302.602 159.04 302.098 159.456 301.506 159.76C300.914 160.048 300.242 160.192 299.49 160.192ZM299.826 158.32C300.546 158.32 301.178 158.144 301.722 157.792C302.266 157.424 302.69 156.92 302.994 156.28C303.298 155.64 303.45 154.904 303.45 154.072C303.45 153.24 303.298 152.504 302.994 151.864C302.69 151.224 302.266 150.728 301.722 150.376C301.178 150.008 300.546 149.824 299.826 149.824C299.106 149.824 298.466 150.008 297.906 150.376C297.362 150.728 296.93 151.224 296.61 151.864C296.306 152.504 296.154 153.24 296.154 154.072C296.154 154.904 296.306 155.64 296.61 156.28C296.93 156.92 297.362 157.424 297.906 157.792C298.466 158.144 299.106 158.32 299.826 158.32ZM319.906 160.192C319.026 160.192 318.242 160.032 317.554 159.712C316.882 159.392 316.314 158.952 315.85 158.392C315.386 157.816 315.034 157.16 314.794 156.424C314.554 155.688 314.434 154.904 314.434 154.072C314.434 153.256 314.554 152.48 314.794 151.744C315.034 151.008 315.386 150.36 315.85 149.8C316.314 149.224 316.882 148.776 317.554 148.456C318.242 148.136 319.026 147.976 319.906 147.976C321.026 147.976 322.002 148.248 322.834 148.792C323.682 149.336 324.306 150.168 324.706 151.288L322.906 151.984C322.682 151.312 322.322 150.768 321.826 150.352C321.33 149.936 320.69 149.728 319.906 149.728C319.122 149.728 318.474 149.936 317.962 150.352C317.45 150.768 317.066 151.304 316.81 151.96C316.57 152.616 316.45 153.32 316.45 154.072C316.45 154.824 316.57 155.536 316.81 156.208C317.066 156.864 317.45 157.4 317.962 157.816C318.474 158.216 319.122 158.416 319.906 158.416C320.69 158.416 321.33 158.216 321.826 157.816C322.322 157.4 322.682 156.848 322.906 156.16L324.706 156.856C324.306 157.976 323.682 158.816 322.834 159.376C322.002 159.92 321.026 160.192 319.906 160.192ZM332.616 160.192C331.512 160.192 330.52 159.936 329.64 159.424C328.776 158.896 328.096 158.168 327.6 157.24C327.104 156.312 326.856 155.256 326.856 154.072C326.856 152.888 327.096 151.84 327.576 150.928C328.072 150 328.752 149.28 329.616 148.768C330.496 148.24 331.496 147.976 332.616 147.976C333.736 147.976 334.72 148.24 335.568 148.768C336.432 149.28 337.112 150 337.608 150.928C338.104 151.84 338.352 152.888 338.352 154.072C338.352 155.256 338.104 156.312 337.608 157.24C337.112 158.152 336.432 158.872 335.568 159.4C334.704 159.928 333.72 160.192 332.616 160.192ZM332.616 158.392C333.368 158.392 334.016 158.216 334.56 157.864C335.12 157.496 335.552 156.992 335.856 156.352C336.16 155.696 336.312 154.936 336.312 154.072C336.312 153.192 336.16 152.432 335.856 151.792C335.552 151.136 335.12 150.632 334.56 150.28C334.016 149.928 333.368 149.752 332.616 149.752C331.848 149.752 331.184 149.936 330.624 150.304C330.064 150.656 329.632 151.152 329.328 151.792C329.024 152.432 328.872 153.192 328.872 154.072C328.872 154.936 329.024 155.696 329.328 156.352C329.632 156.992 330.064 157.496 330.624 157.864C331.184 158.216 331.848 158.392 332.616 158.392ZM345.243 160.192C344.395 160.192 343.659 160.024 343.035 159.688C342.411 159.336 341.931 158.824 341.595 158.152C341.275 157.48 341.115 156.648 341.115 155.656V148.168H343.131V154.936C343.131 155.72 343.227 156.376 343.419 156.904C343.627 157.416 343.931 157.8 344.331 158.056C344.731 158.296 345.227 158.416 345.819 158.416C346.475 158.416 347.027 158.264 347.475 157.96C347.939 157.64 348.291 157.16 348.531 156.52C348.771 155.88 348.891 155.056 348.891 154.048V148.168H350.907V160H348.891V157.48H349.395C349.059 158.36 348.523 159.032 347.787 159.496C347.051 159.96 346.203 160.192 345.243 160.192ZM354.384 160V148.168H356.424V151.336L355.896 151.456C356.008 150.752 356.272 150.144 356.688 149.632C357.12 149.104 357.616 148.696 358.176 148.408C358.752 148.12 359.312 147.976 359.856 147.976C360.224 147.976 360.576 148.016 360.912 148.096C361.248 148.176 361.592 148.312 361.944 148.504L360.936 150.328C360.744 150.232 360.512 150.152 360.24 150.088C359.984 150.024 359.736 149.992 359.496 149.992C359.112 149.992 358.728 150.064 358.344 150.208C357.976 150.352 357.64 150.576 357.336 150.88C357.032 151.184 356.8 151.592 356.64 152.104C356.576 152.328 356.52 152.624 356.472 152.992C356.44 153.344 356.424 153.832 356.424 154.456V160H354.384ZM367.718 160.192C366.918 160.192 366.198 160.072 365.558 159.832C364.918 159.592 364.366 159.272 363.902 158.872C363.454 158.472 363.094 158.048 362.822 157.6L364.238 156.4C364.542 157.008 364.99 157.512 365.582 157.912C366.19 158.296 366.91 158.488 367.742 158.488C368.494 158.488 369.094 158.328 369.542 158.008C369.99 157.688 370.214 157.256 370.214 156.712C370.214 156.264 370.078 155.912 369.806 155.656C369.534 155.4 369.174 155.192 368.726 155.032C368.278 154.872 367.79 154.728 367.262 154.6C366.814 154.488 366.358 154.352 365.894 154.192C365.446 154.032 365.038 153.832 364.67 153.592C364.302 153.352 364.006 153.04 363.782 152.656C363.558 152.272 363.446 151.8 363.446 151.24C363.446 150.264 363.822 149.48 364.574 148.888C365.342 148.28 366.342 147.976 367.574 147.976C368.47 147.976 369.286 148.168 370.022 148.552C370.774 148.92 371.358 149.48 371.774 150.232L370.478 151.192C370.158 150.632 369.734 150.232 369.206 149.992C368.694 149.736 368.126 149.608 367.502 149.608C366.878 149.608 366.358 149.736 365.942 149.992C365.526 150.248 365.318 150.6 365.318 151.048C365.318 151.384 365.414 151.656 365.606 151.864C365.798 152.072 366.078 152.248 366.446 152.392C366.83 152.536 367.294 152.672 367.838 152.8C368.334 152.912 368.838 153.048 369.35 153.208C369.862 153.368 370.334 153.576 370.766 153.832C371.198 154.088 371.542 154.432 371.798 154.864C372.07 155.28 372.206 155.824 372.206 156.496C372.206 157.232 372.022 157.88 371.654 158.44C371.286 159 370.766 159.432 370.094 159.736C369.422 160.04 368.63 160.192 367.718 160.192ZM380.072 160.192C379.144 160.192 378.328 160.04 377.624 159.736C376.936 159.416 376.36 158.976 375.896 158.416C375.448 157.856 375.104 157.216 374.864 156.496C374.64 155.76 374.528 154.984 374.528 154.168C374.528 153.352 374.64 152.576 374.864 151.84C375.088 151.088 375.416 150.424 375.848 149.848C376.296 149.272 376.856 148.816 377.528 148.48C378.2 148.144 378.984 147.976 379.88 147.976C380.792 147.976 381.576 148.136 382.232 148.456C382.904 148.76 383.448 149.184 383.864 149.728C384.296 150.272 384.616 150.88 384.824 151.552C385.032 152.224 385.136 152.92 385.136 153.64C385.136 153.704 385.128 153.856 385.112 154.096C385.112 154.32 385.096 154.52 385.064 154.696H376.544C376.592 155.848 376.928 156.744 377.552 157.384C378.176 158.024 379.024 158.344 380.096 158.344C380.784 158.344 381.384 158.232 381.896 158.008C382.408 157.784 382.888 157.424 383.336 156.928L384.752 158.176C384.32 158.64 383.864 159.024 383.384 159.328C382.904 159.616 382.392 159.832 381.848 159.976C381.32 160.12 380.728 160.192 380.072 160.192ZM383.12 153.664C383.152 153.536 383.168 153.408 383.168 153.28C383.184 153.152 383.192 153.024 383.192 152.896C383.192 152.512 383.12 152.128 382.976 151.744C382.848 151.36 382.648 151.016 382.376 150.712C382.12 150.392 381.784 150.144 381.368 149.968C380.968 149.776 380.488 149.68 379.928 149.68C379.24 149.68 378.648 149.84 378.152 150.16C377.656 150.48 377.272 150.904 377 151.432C376.728 151.96 376.568 152.544 376.52 153.184H383.792L383.12 153.664Z" fill="#151515"/>
<rect x="510" y="13" width="144" height="2.99999" transform="rotate(90 510 13)" fill="#A7A7A7"/>
<g filter="url(#filter1_d_125_16227)">
<circle cx="676" cy="58" r="55" fill="white"/>
</g>
<path d="M681.46 37.7959V51.0408C681.46 52.0285 680.292 52.5224 679.574 51.8714L675.646 48.2571C675.439 48.0626 675.166 47.9543 674.882 47.9543C674.599 47.9543 674.326 48.0626 674.119 48.2571L670.19 51.8489C669.472 52.5224 668.305 52.0061 668.305 51.0408V37.7959C668.305 37.1673 668.799 36.6734 669.427 36.6734H680.337C680.966 36.6734 681.46 37.1673 681.46 37.7959Z" fill="#ED1C24"/>
<path d="M686.06 36.806C685.409 36.7162 684.826 37.2774 684.826 37.9284V51.4427C684.826 53.1488 683.816 54.6978 682.244 55.3937C680.673 56.0672 678.854 55.7754 677.597 54.608L675.644 52.8121C675.438 52.6176 675.165 52.5093 674.881 52.5093C674.597 52.5093 674.324 52.6176 674.118 52.8121L672.165 54.608C671.356 55.3713 670.301 55.7529 669.246 55.7529C668.651 55.7551 668.062 55.6327 667.518 55.3937C665.946 54.6978 664.936 53.1488 664.936 51.4427V37.9284C664.936 37.2774 664.352 36.7162 663.701 36.806C657.416 37.5917 654.677 41.8345 654.677 47.8958V70.3448C654.677 77.0794 658.044 81.5692 665.901 81.5692H683.86C691.718 81.5692 695.085 77.0794 695.085 70.3448V47.8958C695.085 41.8345 692.346 37.5917 686.06 36.806ZM687.228 74.2733H668.146C667.226 74.2733 666.462 73.5101 666.462 72.5897C666.462 71.6692 667.226 70.906 668.146 70.906H687.228C688.148 70.906 688.911 71.6692 688.911 72.5897C688.911 73.5101 688.148 74.2733 687.228 74.2733ZM687.228 65.2937H677.687C676.767 65.2937 676.003 64.5305 676.003 63.6101C676.003 62.6896 676.767 61.9264 677.687 61.9264H687.228C688.148 61.9264 688.911 62.6896 688.911 63.6101C688.911 64.5305 688.148 65.2937 687.228 65.2937Z" fill="#ED1C24"/>
<path d="M791.19 77C790.104 77 789.562 76.5807 789.562 75.742V75.52C789.562 75.0267 790.228 74.188 791.56 73.004C792.892 71.7707 793.558 70.5373 793.558 69.304V37.114C793.558 36.078 793.286 35.2887 792.744 34.746C792.201 34.154 791.609 33.8087 790.968 33.71C790.376 33.562 789.808 33.34 789.266 33.044C788.723 32.6987 788.452 32.2547 788.452 31.712V31.342C788.452 30.602 789.118 29.936 790.45 29.344L800.81 24.83C802.388 24.238 803.622 24.164 804.51 24.608C805.447 25.0027 805.916 25.6933 805.916 26.68C805.916 27.2227 805.62 28.0367 805.028 29.122C804.485 30.2073 804.214 31.49 804.214 32.97V69.304C804.214 70.044 804.436 70.7593 804.88 71.45C805.324 72.0913 805.792 72.6093 806.286 73.004C806.828 73.3493 807.322 73.7687 807.766 74.262C808.21 74.706 808.432 75.1253 808.432 75.52V75.742C808.432 76.5807 807.914 77 806.878 77H791.19ZM836.258 77.74C829.647 77.74 824.147 75.298 819.756 70.414C815.415 65.4807 813.244 58.9193 813.244 50.73C813.244 42.4913 815.267 35.93 819.312 31.046C823.407 26.162 828.981 23.72 836.036 23.72C842.597 23.72 848.049 26.2607 852.39 31.342C856.781 36.374 858.976 42.9107 858.976 50.952C858.976 59.0427 856.805 65.53 852.464 70.414C848.123 75.298 842.721 77.74 836.258 77.74ZM837.96 73.448C840.723 73.448 842.967 71.9187 844.694 68.86C846.421 65.8013 847.284 61.5093 847.284 55.984C847.284 51.4453 846.766 47.0793 845.73 42.886C844.694 38.6927 843.165 35.2147 841.142 32.452C839.169 29.64 836.924 28.234 834.408 28.234C831.547 28.234 829.253 29.8373 827.526 33.044C825.799 36.2013 824.936 40.74 824.936 46.66C824.936 51.2973 825.454 55.6387 826.49 59.684C827.575 63.7293 829.105 67.0347 831.078 69.6C833.101 72.1653 835.395 73.448 837.96 73.448ZM887.278 77.74C880.667 77.74 875.166 75.298 870.776 70.414C866.434 65.4807 864.264 58.9193 864.264 50.73C864.264 42.4913 866.286 35.93 870.332 31.046C874.426 26.162 880.001 23.72 887.056 23.72C893.617 23.72 899.068 26.2607 903.41 31.342C907.8 36.374 909.996 42.9107 909.996 50.952C909.996 59.0427 907.825 65.53 903.484 70.414C899.142 75.298 893.74 77.74 887.278 77.74ZM888.98 73.448C891.742 73.448 893.987 71.9187 895.714 68.86C897.44 65.8013 898.304 61.5093 898.304 55.984C898.304 51.4453 897.786 47.0793 896.75 42.886C895.714 38.6927 894.184 35.2147 892.162 32.452C890.188 29.64 887.944 28.234 885.428 28.234C882.566 28.234 880.272 29.8373 878.546 33.044C876.819 36.2013 875.956 40.74 875.956 46.66C875.956 51.2973 876.474 55.6387 877.51 59.684C878.595 63.7293 880.124 67.0347 882.098 69.6C884.12 72.1653 886.414 73.448 888.98 73.448ZM932.525 72.338C931.785 72.338 931.415 71.7953 931.415 70.71V59.24H919.945C918.958 59.24 918.416 58.87 918.317 58.13L918.391 53.616C918.391 52.876 918.909 52.506 919.945 52.506H931.415V41.036C931.415 39.9507 931.785 39.408 932.525 39.408H937.113C937.853 39.408 938.223 39.9507 938.223 41.036V52.506L949.767 52.432C950.803 52.432 951.321 52.802 951.321 53.542V58.13C951.321 58.87 950.803 59.24 949.767 59.24H938.297V70.71C938.297 71.7953 937.902 72.338 937.113 72.338H932.525Z" fill="#151515"/>
<path d="M786.408 129L792.792 112.272H794.472L800.856 129H798.552L793.656 115.296L788.736 129H786.408ZM789.96 125.064L790.608 123.168H796.656L797.352 125.064H789.96ZM805.369 129L800.521 117.168H802.753L806.209 126.384L809.689 117.168H811.897L807.073 129H805.369ZM821.848 129L821.704 126.624V121.584C821.704 120.672 821.448 119.968 820.936 119.472C820.44 118.976 819.696 118.728 818.704 118.728C818.064 118.728 817.464 118.864 816.904 119.136C816.344 119.392 815.8 119.832 815.272 120.456L813.808 119.208C814.464 118.44 815.216 117.88 816.064 117.528C816.912 117.16 817.84 116.976 818.848 116.976C820.4 116.976 821.6 117.376 822.448 118.176C823.296 118.976 823.72 120.112 823.72 121.584V129H821.848ZM817.936 129.192C817.04 129.192 816.256 129.04 815.584 128.736C814.928 128.416 814.416 127.976 814.048 127.416C813.696 126.856 813.52 126.208 813.52 125.472C813.52 124.816 813.648 124.264 813.904 123.816C814.176 123.352 814.52 122.992 814.936 122.736C815.352 122.464 815.824 122.28 816.352 122.184C816.896 122.072 817.464 122.016 818.056 122.016H821.896V123.552H818.344C817.992 123.552 817.624 123.584 817.24 123.648C816.856 123.712 816.52 123.848 816.232 124.056C816.024 124.216 815.856 124.416 815.728 124.656C815.616 124.896 815.56 125.176 815.56 125.496C815.56 126.12 815.792 126.616 816.256 126.984C816.72 127.352 817.344 127.536 818.128 127.536C818.784 127.536 819.376 127.384 819.904 127.08C820.448 126.776 820.88 126.36 821.2 125.832C821.536 125.288 821.704 124.68 821.704 124.008L822.544 124.872C822.448 125.72 822.192 126.472 821.776 127.128C821.36 127.784 820.824 128.296 820.168 128.664C819.528 129.016 818.784 129.192 817.936 129.192ZM827.009 129V117.168H829.025V129H827.009ZM826.817 115.032V112.272H829.217V115.032H826.817ZM834.823 129.192C834.103 129.192 833.519 128.968 833.071 128.52C832.623 128.072 832.399 127.36 832.399 126.384V112.272H834.415V126C834.415 126.464 834.511 126.8 834.703 127.008C834.895 127.216 835.151 127.32 835.471 127.32C835.615 127.32 835.775 127.304 835.951 127.272C836.127 127.24 836.311 127.192 836.503 127.128V128.856C836.231 128.968 835.943 129.048 835.639 129.096C835.335 129.16 835.063 129.192 834.823 129.192ZM846.574 129L846.43 126.624V121.584C846.43 120.672 846.174 119.968 845.662 119.472C845.166 118.976 844.422 118.728 843.43 118.728C842.79 118.728 842.19 118.864 841.63 119.136C841.07 119.392 840.526 119.832 839.998 120.456L838.534 119.208C839.19 118.44 839.942 117.88 840.79 117.528C841.638 117.16 842.566 116.976 843.574 116.976C845.126 116.976 846.326 117.376 847.174 118.176C848.022 118.976 848.446 120.112 848.446 121.584V129H846.574ZM842.662 129.192C841.766 129.192 840.982 129.04 840.31 128.736C839.654 128.416 839.142 127.976 838.774 127.416C838.422 126.856 838.246 126.208 838.246 125.472C838.246 124.816 838.374 124.264 838.63 123.816C838.902 123.352 839.246 122.992 839.662 122.736C840.078 122.464 840.55 122.28 841.078 122.184C841.622 122.072 842.19 122.016 842.782 122.016H846.622V123.552H843.07C842.718 123.552 842.35 123.584 841.966 123.648C841.582 123.712 841.246 123.848 840.958 124.056C840.75 124.216 840.582 124.416 840.454 124.656C840.342 124.896 840.286 125.176 840.286 125.496C840.286 126.12 840.518 126.616 840.982 126.984C841.446 127.352 842.07 127.536 842.854 127.536C843.51 127.536 844.102 127.384 844.63 127.08C845.174 126.776 845.606 126.36 845.926 125.832C846.262 125.288 846.43 124.68 846.43 124.008L847.27 124.872C847.174 125.72 846.918 126.472 846.502 127.128C846.086 127.784 845.55 128.296 844.894 128.664C844.254 129.016 843.51 129.192 842.662 129.192ZM857.567 129.192C856.815 129.192 856.135 129.048 855.527 128.76C854.935 128.456 854.431 128.04 854.015 127.512C853.615 126.984 853.311 126.376 853.103 125.688L853.775 125.472V129H851.759V112.272H853.775V120.696L853.199 120.36C853.375 119.736 853.663 119.168 854.063 118.656C854.463 118.144 854.959 117.736 855.551 117.432C856.143 117.128 856.815 116.976 857.567 116.976C858.559 116.976 859.463 117.224 860.279 117.72C861.095 118.216 861.743 118.92 862.223 119.832C862.703 120.744 862.943 121.824 862.943 123.072C862.943 124.224 862.719 125.264 862.271 126.192C861.823 127.12 861.191 127.856 860.375 128.4C859.575 128.928 858.639 129.192 857.567 129.192ZM857.231 127.32C857.951 127.32 858.583 127.144 859.127 126.792C859.687 126.424 860.119 125.92 860.423 125.28C860.743 124.64 860.903 123.904 860.903 123.072C860.903 122.24 860.743 121.504 860.423 120.864C860.119 120.224 859.687 119.728 859.127 119.376C858.583 119.008 857.951 118.824 857.231 118.824C856.511 118.824 855.879 119.008 855.335 119.376C854.791 119.728 854.367 120.224 854.063 120.864C853.759 121.504 853.607 122.24 853.607 123.072C853.607 123.904 853.759 124.64 854.063 125.28C854.367 125.92 854.791 126.424 855.335 126.792C855.879 127.144 856.511 127.32 857.231 127.32ZM868.221 129.192C867.501 129.192 866.917 128.968 866.469 128.52C866.021 128.072 865.797 127.36 865.797 126.384V112.272H867.813V126C867.813 126.464 867.909 126.8 868.101 127.008C868.293 127.216 868.549 127.32 868.869 127.32C869.013 127.32 869.173 127.304 869.349 127.272C869.525 127.24 869.709 127.192 869.901 127.128V128.856C869.629 128.968 869.341 129.048 869.037 129.096C868.733 129.16 868.461 129.192 868.221 129.192ZM877.189 129.192C876.261 129.192 875.445 129.04 874.741 128.736C874.053 128.416 873.477 127.976 873.013 127.416C872.565 126.856 872.221 126.216 871.981 125.496C871.757 124.76 871.645 123.984 871.645 123.168C871.645 122.352 871.757 121.576 871.981 120.84C872.205 120.088 872.533 119.424 872.965 118.848C873.413 118.272 873.973 117.816 874.645 117.48C875.317 117.144 876.101 116.976 876.997 116.976C877.909 116.976 878.693 117.136 879.349 117.456C880.021 117.76 880.565 118.184 880.981 118.728C881.413 119.272 881.733 119.88 881.941 120.552C882.149 121.224 882.253 121.92 882.253 122.64C882.253 122.704 882.245 122.856 882.229 123.096C882.229 123.32 882.213 123.52 882.181 123.696H873.661C873.709 124.848 874.045 125.744 874.669 126.384C875.293 127.024 876.141 127.344 877.213 127.344C877.901 127.344 878.501 127.232 879.013 127.008C879.525 126.784 880.005 126.424 880.453 125.928L881.869 127.176C881.437 127.64 880.981 128.024 880.501 128.328C880.021 128.616 879.509 128.832 878.965 128.976C878.437 129.12 877.845 129.192 877.189 129.192ZM880.237 122.664C880.269 122.536 880.285 122.408 880.285 122.28C880.301 122.152 880.309 122.024 880.309 121.896C880.309 121.512 880.237 121.128 880.093 120.744C879.965 120.36 879.765 120.016 879.493 119.712C879.237 119.392 878.901 119.144 878.485 118.968C878.085 118.776 877.605 118.68 877.045 118.68C876.357 118.68 875.765 118.84 875.269 119.16C874.773 119.48 874.389 119.904 874.117 120.432C873.845 120.96 873.685 121.544 873.637 122.184H880.909L880.237 122.664ZM896.384 129.192C895.456 129.192 894.64 129.04 893.936 128.736C893.248 128.416 892.672 127.976 892.208 127.416C891.76 126.856 891.416 126.216 891.176 125.496C890.952 124.76 890.84 123.984 890.84 123.168C890.84 122.352 890.952 121.576 891.176 120.84C891.4 120.088 891.728 119.424 892.16 118.848C892.608 118.272 893.168 117.816 893.84 117.48C894.512 117.144 895.296 116.976 896.192 116.976C897.104 116.976 897.888 117.136 898.544 117.456C899.216 117.76 899.76 118.184 900.176 118.728C900.608 119.272 900.928 119.88 901.136 120.552C901.344 121.224 901.448 121.92 901.448 122.64C901.448 122.704 901.44 122.856 901.424 123.096C901.424 123.32 901.408 123.52 901.376 123.696H892.856C892.904 124.848 893.24 125.744 893.864 126.384C894.488 127.024 895.336 127.344 896.408 127.344C897.096 127.344 897.696 127.232 898.208 127.008C898.72 126.784 899.2 126.424 899.648 125.928L901.064 127.176C900.632 127.64 900.176 128.024 899.696 128.328C899.216 128.616 898.704 128.832 898.16 128.976C897.632 129.12 897.04 129.192 896.384 129.192ZM899.432 122.664C899.464 122.536 899.48 122.408 899.48 122.28C899.496 122.152 899.504 122.024 899.504 121.896C899.504 121.512 899.432 121.128 899.288 120.744C899.16 120.36 898.96 120.016 898.688 119.712C898.432 119.392 898.096 119.144 897.68 118.968C897.28 118.776 896.8 118.68 896.24 118.68C895.552 118.68 894.96 118.84 894.464 119.16C893.968 119.48 893.584 119.904 893.312 120.432C893.04 120.96 892.88 121.544 892.832 122.184H900.104L899.432 122.664ZM910.161 129.192C909.409 129.192 908.729 129.048 908.121 128.76C907.529 128.456 907.025 128.04 906.609 127.512C906.209 126.984 905.905 126.376 905.697 125.688L906.369 125.472V129H904.353V112.272H906.369V120.696L905.793 120.36C905.969 119.736 906.257 119.168 906.657 118.656C907.057 118.144 907.553 117.736 908.145 117.432C908.737 117.128 909.409 116.976 910.161 116.976C911.153 116.976 912.057 117.224 912.873 117.72C913.689 118.216 914.337 118.92 914.817 119.832C915.297 120.744 915.537 121.824 915.537 123.072C915.537 124.224 915.313 125.264 914.865 126.192C914.417 127.12 913.785 127.856 912.969 128.4C912.169 128.928 911.233 129.192 910.161 129.192ZM909.825 127.32C910.545 127.32 911.177 127.144 911.721 126.792C912.281 126.424 912.713 125.92 913.017 125.28C913.337 124.64 913.497 123.904 913.497 123.072C913.497 122.24 913.337 121.504 913.017 120.864C912.713 120.224 912.281 119.728 911.721 119.376C911.177 119.008 910.545 118.824 909.825 118.824C909.105 118.824 908.473 119.008 907.929 119.376C907.385 119.728 906.961 120.224 906.657 120.864C906.353 121.504 906.201 122.24 906.201 123.072C906.201 123.904 906.353 124.64 906.657 125.28C906.961 125.92 907.385 126.424 907.929 126.792C908.473 127.144 909.105 127.32 909.825 127.32ZM923.647 129.192C922.543 129.192 921.551 128.936 920.671 128.424C919.807 127.896 919.127 127.168 918.631 126.24C918.135 125.312 917.887 124.256 917.887 123.072C917.887 121.888 918.127 120.84 918.607 119.928C919.103 119 919.783 118.28 920.647 117.768C921.527 117.24 922.527 116.976 923.647 116.976C924.767 116.976 925.751 117.24 926.599 117.768C927.463 118.28 928.143 119 928.639 119.928C929.135 120.84 929.383 121.888 929.383 123.072C929.383 124.256 929.135 125.312 928.639 126.24C928.143 127.152 927.463 127.872 926.599 128.4C925.735 128.928 924.751 129.192 923.647 129.192ZM923.647 127.392C924.399 127.392 925.047 127.216 925.591 126.864C926.151 126.496 926.583 125.992 926.887 125.352C927.191 124.696 927.343 123.936 927.343 123.072C927.343 122.192 927.191 121.432 926.887 120.792C926.583 120.136 926.151 119.632 925.591 119.28C925.047 118.928 924.399 118.752 923.647 118.752C922.879 118.752 922.215 118.936 921.655 119.304C921.095 119.656 920.663 120.152 920.359 120.792C920.055 121.432 919.903 122.192 919.903 123.072C919.903 123.936 920.055 124.696 920.359 125.352C920.663 125.992 921.095 126.496 921.655 126.864C922.215 127.216 922.879 127.392 923.647 127.392ZM937.499 129.192C936.395 129.192 935.403 128.936 934.523 128.424C933.659 127.896 932.979 127.168 932.483 126.24C931.987 125.312 931.739 124.256 931.739 123.072C931.739 121.888 931.979 120.84 932.459 119.928C932.955 119 933.635 118.28 934.499 117.768C935.379 117.24 936.379 116.976 937.499 116.976C938.619 116.976 939.603 117.24 940.451 117.768C941.315 118.28 941.995 119 942.491 119.928C942.987 120.84 943.234 121.888 943.234 123.072C943.234 124.256 942.987 125.312 942.491 126.24C941.995 127.152 941.315 127.872 940.451 128.4C939.587 128.928 938.603 129.192 937.499 129.192ZM937.499 127.392C938.251 127.392 938.899 127.216 939.443 126.864C940.003 126.496 940.435 125.992 940.739 125.352C941.043 124.696 941.195 123.936 941.195 123.072C941.195 122.192 941.043 121.432 940.739 120.792C940.435 120.136 940.003 119.632 939.443 119.28C938.899 118.928 938.251 118.752 937.499 118.752C936.731 118.752 936.067 118.936 935.507 119.304C934.947 119.656 934.515 120.152 934.211 120.792C933.907 121.432 933.755 122.192 933.755 123.072C933.755 123.936 933.907 124.696 934.211 125.352C934.515 125.992 934.947 126.496 935.507 126.864C936.067 127.216 936.731 127.392 937.499 127.392ZM954.206 129L950.27 122.904L947.942 125.4V122.784L953.39 117.168H956.006L951.758 121.536L956.63 129H954.206ZM946.142 129V112.272H948.182V129H946.142ZM962.828 129.192C962.028 129.192 961.308 129.072 960.668 128.832C960.028 128.592 959.476 128.272 959.012 127.872C958.564 127.472 958.204 127.048 957.932 126.6L959.348 125.4C959.652 126.008 960.1 126.512 960.692 126.912C961.3 127.296 962.02 127.488 962.852 127.488C963.604 127.488 964.204 127.328 964.652 127.008C965.1 126.688 965.324 126.256 965.324 125.712C965.324 125.264 965.188 124.912 964.916 124.656C964.644 124.4 964.284 124.192 963.836 124.032C963.388 123.872 962.9 123.728 962.372 123.6C961.924 123.488 961.468 123.352 961.004 123.192C960.556 123.032 960.148 122.832 959.78 122.592C959.412 122.352 959.116 122.04 958.892 121.656C958.668 121.272 958.556 120.8 958.556 120.24C958.556 119.264 958.932 118.48 959.684 117.888C960.452 117.28 961.452 116.976 962.684 116.976C963.58 116.976 964.396 117.168 965.132 117.552C965.884 117.92 966.468 118.48 966.884 119.232L965.588 120.192C965.268 119.632 964.844 119.232 964.316 118.992C963.804 118.736 963.236 118.608 962.612 118.608C961.988 118.608 961.468 118.736 961.052 118.992C960.636 119.248 960.428 119.6 960.428 120.048C960.428 120.384 960.524 120.656 960.715 120.864C960.908 121.072 961.188 121.248 961.556 121.392C961.94 121.536 962.404 121.672 962.948 121.8C963.444 121.912 963.948 122.048 964.46 122.208C964.972 122.368 965.444 122.576 965.876 122.832C966.308 123.088 966.652 123.432 966.908 123.864C967.18 124.28 967.316 124.824 967.316 125.496C967.316 126.232 967.132 126.88 966.764 127.44C966.396 128 965.876 128.432 965.204 128.736C964.532 129.04 963.74 129.192 962.828 129.192ZM787.728 164.896V148.168H789.744V151.696L789.096 151.24C789.304 150.552 789.608 149.968 790.008 149.488C790.424 148.992 790.928 148.616 791.52 148.36C792.112 148.104 792.784 147.976 793.536 147.976C794.608 147.976 795.544 148.248 796.344 148.792C797.16 149.32 797.792 150.048 798.24 150.976C798.688 151.888 798.912 152.928 798.912 154.096C798.912 155.328 798.672 156.408 798.192 157.336C797.712 158.248 797.064 158.952 796.248 159.448C795.432 159.944 794.528 160.192 793.536 160.192C792.784 160.192 792.112 160.056 791.52 159.784C790.928 159.512 790.432 159.136 790.032 158.656C789.632 158.176 789.344 157.632 789.168 157.024L789.744 156.472V164.896H787.728ZM793.2 158.344C793.92 158.344 794.552 158.168 795.096 157.816C795.656 157.448 796.088 156.944 796.392 156.304C796.712 155.664 796.872 154.928 796.872 154.096C796.872 153.264 796.712 152.528 796.392 151.888C796.088 151.248 795.656 150.752 795.096 150.4C794.552 150.032 793.92 149.848 793.2 149.848C792.48 149.848 791.848 150.032 791.304 150.4C790.76 150.752 790.336 151.248 790.032 151.888C789.728 152.528 789.576 153.264 789.576 154.096C789.576 154.928 789.728 155.664 790.032 156.304C790.336 156.944 790.76 157.448 791.304 157.816C791.848 158.168 792.48 158.344 793.2 158.344ZM801.814 160V148.168H803.854V151.336L803.326 151.456C803.438 150.752 803.702 150.144 804.118 149.632C804.55 149.104 805.046 148.696 805.606 148.408C806.182 148.12 806.742 147.976 807.286 147.976C807.654 147.976 808.006 148.016 808.342 148.096C808.678 148.176 809.022 148.312 809.374 148.504L808.366 150.328C808.174 150.232 807.942 150.152 807.67 150.088C807.414 150.024 807.166 149.992 806.926 149.992C806.542 149.992 806.158 150.064 805.774 150.208C805.406 150.352 805.07 150.576 804.766 150.88C804.462 151.184 804.23 151.592 804.07 152.104C804.006 152.328 803.95 152.624 803.902 152.992C803.87 153.344 803.854 153.832 803.854 154.456V160H801.814ZM816.116 160.192C815.012 160.192 814.02 159.936 813.14 159.424C812.276 158.896 811.596 158.168 811.1 157.24C810.604 156.312 810.356 155.256 810.356 154.072C810.356 152.888 810.596 151.84 811.076 150.928C811.572 150 812.252 149.28 813.116 148.768C813.996 148.24 814.996 147.976 816.116 147.976C817.236 147.976 818.22 148.24 819.068 148.768C819.932 149.28 820.612 150 821.108 150.928C821.604 151.84 821.852 152.888 821.852 154.072C821.852 155.256 821.604 156.312 821.108 157.24C820.612 158.152 819.932 158.872 819.068 159.4C818.204 159.928 817.22 160.192 816.116 160.192ZM816.116 158.392C816.868 158.392 817.516 158.216 818.06 157.864C818.62 157.496 819.052 156.992 819.356 156.352C819.66 155.696 819.812 154.936 819.812 154.072C819.812 153.192 819.66 152.432 819.356 151.792C819.052 151.136 818.62 150.632 818.06 150.28C817.516 149.928 816.868 149.752 816.116 149.752C815.348 149.752 814.684 149.936 814.124 150.304C813.564 150.656 813.132 151.152 812.828 151.792C812.524 152.432 812.372 153.192 812.372 154.072C812.372 154.936 812.524 155.696 812.828 156.352C813.132 156.992 813.564 157.496 814.124 157.864C814.684 158.216 815.348 158.392 816.116 158.392ZM829.535 165.112C827.839 165.112 826.495 164.8 825.503 164.176C824.511 163.552 824.015 162.688 824.015 161.584C824.015 161.504 824.015 161.4 824.015 161.272C824.031 161.144 824.055 161.024 824.087 160.912L827.039 158.776L827.735 159.256L826.055 161.344C826.039 161.408 826.031 161.464 826.031 161.512C826.031 161.56 826.031 161.608 826.031 161.656C826.031 162.296 826.367 162.768 827.039 163.072C827.711 163.392 828.543 163.552 829.535 163.552C830.415 163.552 831.143 163.424 831.719 163.168C832.295 162.928 832.583 162.528 832.583 161.968C832.583 161.648 832.487 161.384 832.295 161.176C832.119 160.984 831.855 160.832 831.503 160.72C831.167 160.608 830.767 160.512 830.303 160.432C829.839 160.352 829.319 160.272 828.743 160.192C828.023 160.08 827.319 159.92 826.631 159.712C825.959 159.504 825.399 159.2 824.951 158.8C824.519 158.4 824.303 157.872 824.303 157.216C824.303 156.656 824.495 156.144 824.879 155.68C825.279 155.216 825.799 154.832 826.439 154.528L827.735 155.368C827.191 155.496 826.807 155.696 826.583 155.968C826.359 156.224 826.247 156.536 826.247 156.904C826.247 157.208 826.351 157.456 826.559 157.648C826.783 157.84 827.095 157.992 827.495 158.104C827.911 158.2 828.407 158.288 828.983 158.368C829.751 158.48 830.471 158.6 831.143 158.728C831.815 158.856 832.407 159.04 832.919 159.28C833.447 159.504 833.855 159.808 834.143 160.192C834.431 160.592 834.575 161.104 834.575 161.728C834.575 162.816 834.127 163.648 833.231 164.224C832.335 164.816 831.103 165.112 829.535 165.112ZM829.247 156.304C828.335 156.304 827.527 156.128 826.823 155.776C826.119 155.424 825.567 154.936 825.167 154.312C824.783 153.688 824.591 152.976 824.591 152.176C824.591 151.344 824.791 150.616 825.191 149.992C825.607 149.352 826.159 148.856 826.847 148.504C827.551 148.152 828.327 147.976 829.175 147.976C830.007 147.976 830.767 148.152 831.455 148.504C832.143 148.856 832.695 149.352 833.111 149.992C833.527 150.632 833.735 151.384 833.735 152.248C833.735 153.064 833.543 153.776 833.159 154.384C832.775 154.992 832.247 155.464 831.575 155.8C830.903 156.136 830.127 156.304 829.247 156.304ZM829.199 154.648C829.999 154.648 830.615 154.408 831.047 153.928C831.495 153.432 831.719 152.832 831.719 152.128C831.719 151.376 831.487 150.768 831.023 150.304C830.559 149.84 829.951 149.608 829.199 149.608C828.431 149.608 827.807 149.848 827.327 150.328C826.847 150.792 826.607 151.384 826.607 152.104C826.607 152.824 826.839 153.432 827.303 153.928C827.767 154.408 828.399 154.648 829.199 154.648ZM832.967 150.376L831.503 149.392L833.999 147.328L835.031 148.6L832.967 150.376ZM837.087 160V148.168H839.127V151.336L838.599 151.456C838.711 150.752 838.975 150.144 839.391 149.632C839.823 149.104 840.319 148.696 840.879 148.408C841.455 148.12 842.015 147.976 842.559 147.976C842.927 147.976 843.279 148.016 843.615 148.096C843.951 148.176 844.295 148.312 844.647 148.504L843.639 150.328C843.447 150.232 843.215 150.152 842.943 150.088C842.687 150.024 842.439 149.992 842.199 149.992C841.815 149.992 841.431 150.064 841.047 150.208C840.679 150.352 840.343 150.576 840.039 150.88C839.735 151.184 839.503 151.592 839.343 152.104C839.279 152.328 839.223 152.624 839.175 152.992C839.143 153.344 839.127 153.832 839.127 154.456V160H837.087ZM854.332 160L854.188 157.624V152.584C854.188 151.672 853.932 150.968 853.42 150.472C852.924 149.976 852.18 149.728 851.188 149.728C850.548 149.728 849.948 149.864 849.388 150.136C848.828 150.392 848.284 150.832 847.756 151.456L846.292 150.208C846.948 149.44 847.7 148.88 848.548 148.528C849.396 148.16 850.324 147.976 851.332 147.976C852.884 147.976 854.084 148.376 854.932 149.176C855.78 149.976 856.204 151.112 856.204 152.584V160H854.332ZM850.42 160.192C849.524 160.192 848.74 160.04 848.068 159.736C847.412 159.416 846.9 158.976 846.532 158.416C846.18 157.856 846.004 157.208 846.004 156.472C846.004 155.816 846.132 155.264 846.388 154.816C846.66 154.352 847.004 153.992 847.42 153.736C847.836 153.464 848.308 153.28 848.836 153.184C849.38 153.072 849.948 153.016 850.54 153.016H854.38V154.552H850.828C850.476 154.552 850.108 154.584 849.724 154.648C849.34 154.712 849.004 154.848 848.716 155.056C848.508 155.216 848.34 155.416 848.212 155.656C848.1 155.896 848.044 156.176 848.044 156.496C848.044 157.12 848.276 157.616 848.74 157.984C849.204 158.352 849.828 158.536 850.612 158.536C851.268 158.536 851.86 158.384 852.388 158.08C852.932 157.776 853.364 157.36 853.684 156.832C854.02 156.288 854.188 155.68 854.188 155.008L855.028 155.872C854.932 156.72 854.676 157.472 854.26 158.128C853.844 158.784 853.308 159.296 852.652 159.664C852.012 160.016 851.268 160.192 850.42 160.192ZM859.517 160V148.168H861.557V151.216H861.149C861.293 150.656 861.485 150.176 861.725 149.776C861.981 149.36 862.277 149.024 862.613 148.768C862.949 148.496 863.309 148.296 863.693 148.168C864.093 148.04 864.509 147.976 864.941 147.976C865.661 147.976 866.293 148.112 866.837 148.384C867.381 148.656 867.829 149.072 868.181 149.632C868.533 150.176 868.773 150.872 868.901 151.72L867.749 151.792C867.989 150.976 868.293 150.288 868.661 149.728C869.029 149.152 869.485 148.72 870.029 148.432C870.589 148.128 871.253 147.976 872.021 147.976C872.997 147.976 873.781 148.2 874.373 148.648C874.965 149.08 875.397 149.664 875.669 150.4C875.941 151.12 876.077 151.92 876.077 152.8V160H874.061V153.28C874.061 152.544 873.973 151.912 873.797 151.384C873.637 150.856 873.373 150.448 873.005 150.16C872.653 149.872 872.173 149.728 871.565 149.728C870.989 149.728 870.493 149.872 870.077 150.16C869.677 150.448 869.365 150.888 869.141 151.48C868.933 152.056 868.829 152.776 868.829 153.64V160H866.789V153.112C866.789 151.976 866.581 151.128 866.165 150.568C865.749 150.008 865.141 149.728 864.341 149.728C863.765 149.728 863.269 149.88 862.853 150.184C862.437 150.472 862.117 150.904 861.893 151.48C861.669 152.056 861.557 152.776 861.557 153.64V160H859.517ZM883.304 160.192C882.504 160.192 881.784 160.072 881.144 159.832C880.504 159.592 879.952 159.272 879.488 158.872C879.04 158.472 878.68 158.048 878.408 157.6L879.824 156.4C880.128 157.008 880.576 157.512 881.168 157.912C881.776 158.296 882.496 158.488 883.328 158.488C884.08 158.488 884.68 158.328 885.128 158.008C885.576 157.688 885.8 157.256 885.8 156.712C885.8 156.264 885.664 155.912 885.392 155.656C885.12 155.4 884.76 155.192 884.312 155.032C883.864 154.872 883.376 154.728 882.848 154.6C882.4 154.488 881.944 154.352 881.48 154.192C881.032 154.032 880.624 153.832 880.256 153.592C879.888 153.352 879.592 153.04 879.368 152.656C879.144 152.272 879.032 151.8 879.032 151.24C879.032 150.264 879.408 149.48 880.16 148.888C880.928 148.28 881.928 147.976 883.16 147.976C884.056 147.976 884.872 148.168 885.608 148.552C886.36 148.92 886.944 149.48 887.36 150.232L886.064 151.192C885.744 150.632 885.32 150.232 884.792 149.992C884.28 149.736 883.712 149.608 883.088 149.608C882.464 149.608 881.944 149.736 881.528 149.992C881.112 150.248 880.904 150.6 880.904 151.048C880.904 151.384 881 151.656 881.192 151.864C881.384 152.072 881.664 152.248 882.032 152.392C882.416 152.536 882.88 152.672 883.424 152.8C883.92 152.912 884.424 153.048 884.936 153.208C885.448 153.368 885.92 153.576 886.352 153.832C886.784 154.088 887.128 154.432 887.384 154.864C887.656 155.28 887.792 155.824 887.792 156.496C887.792 157.232 887.608 157.88 887.24 158.44C886.872 159 886.352 159.432 885.68 159.736C885.008 160.04 884.216 160.192 883.304 160.192ZM904.676 160L904.532 157.624V152.584C904.532 151.672 904.276 150.968 903.764 150.472C903.268 149.976 902.524 149.728 901.532 149.728C900.892 149.728 900.292 149.864 899.732 150.136C899.172 150.392 898.628 150.832 898.1 151.456L896.636 150.208C897.292 149.44 898.044 148.88 898.892 148.528C899.74 148.16 900.668 147.976 901.676 147.976C903.228 147.976 904.428 148.376 905.276 149.176C906.124 149.976 906.548 151.112 906.548 152.584V160H904.676ZM900.764 160.192C899.868 160.192 899.084 160.04 898.412 159.736C897.756 159.416 897.244 158.976 896.876 158.416C896.524 157.856 896.348 157.208 896.348 156.472C896.348 155.816 896.476 155.264 896.732 154.816C897.004 154.352 897.348 153.992 897.764 153.736C898.18 153.464 898.652 153.28 899.18 153.184C899.724 153.072 900.292 153.016 900.884 153.016H904.724V154.552H901.172C900.82 154.552 900.452 154.584 900.068 154.648C899.684 154.712 899.348 154.848 899.06 155.056C898.852 155.216 898.684 155.416 898.556 155.656C898.444 155.896 898.388 156.176 898.388 156.496C898.388 157.12 898.62 157.616 899.084 157.984C899.548 158.352 900.172 158.536 900.956 158.536C901.612 158.536 902.204 158.384 902.732 158.08C903.276 157.776 903.708 157.36 904.028 156.832C904.364 156.288 904.532 155.68 904.532 155.008L905.372 155.872C905.276 156.72 905.02 157.472 904.604 158.128C904.188 158.784 903.652 159.296 902.996 159.664C902.356 160.016 901.612 160.192 900.764 160.192ZM909.861 160V148.168H911.901V150.688L911.421 150.856C911.645 150.248 911.949 149.736 912.333 149.32C912.717 148.888 913.181 148.56 913.725 148.336C914.269 148.096 914.869 147.976 915.525 147.976C916.821 147.976 917.837 148.36 918.573 149.128C919.309 149.88 919.677 151 919.677 152.488V160H917.637V153.232C917.637 152.032 917.413 151.152 916.965 150.592C916.533 150.016 915.869 149.728 914.973 149.728C914.317 149.728 913.757 149.88 913.293 150.184C912.845 150.488 912.501 150.968 912.261 151.624C912.021 152.264 911.901 153.088 911.901 154.096V160H909.861ZM927.81 160.192C926.738 160.192 925.794 159.928 924.978 159.4C924.178 158.856 923.554 158.12 923.106 157.192C922.658 156.264 922.434 155.224 922.434 154.072C922.434 152.824 922.674 151.744 923.154 150.832C923.634 149.92 924.282 149.216 925.098 148.72C925.914 148.224 926.818 147.976 927.81 147.976C928.562 147.976 929.234 148.128 929.826 148.432C930.418 148.72 930.914 149.12 931.314 149.632C931.73 150.128 932.018 150.688 932.178 151.312L931.602 151.696V143.272H933.618V160H931.602V156.472L932.274 156.688C932.066 157.376 931.754 157.984 931.338 158.512C930.922 159.04 930.418 159.456 929.826 159.76C929.234 160.048 928.562 160.192 927.81 160.192ZM928.146 158.32C928.866 158.32 929.498 158.144 930.042 157.792C930.586 157.424 931.01 156.92 931.314 156.28C931.618 155.64 931.77 154.904 931.77 154.072C931.77 153.24 931.618 152.504 931.314 151.864C931.01 151.224 930.586 150.728 930.042 150.376C929.498 150.008 928.866 149.824 928.146 149.824C927.426 149.824 926.786 150.008 926.226 150.376C925.682 150.728 925.25 151.224 924.93 151.864C924.626 152.504 924.474 153.24 924.474 154.072C924.474 154.904 924.626 155.64 924.93 156.28C925.25 156.92 925.682 157.424 926.226 157.792C926.786 158.144 927.426 158.32 928.146 158.32ZM946.978 160L942.13 148.168H944.362L947.818 157.384L951.298 148.168H953.506L948.682 160H946.978ZM955.798 160V148.168H957.814V160H955.798ZM955.606 146.032V143.272H958.006V146.032H955.606ZM966.06 160.192C964.988 160.192 964.044 159.928 963.228 159.4C962.428 158.856 961.804 158.12 961.356 157.192C960.908 156.264 960.684 155.224 960.684 154.072C960.684 152.824 960.924 151.744 961.404 150.832C961.884 149.92 962.532 149.216 963.348 148.72C964.164 148.224 965.068 147.976 966.06 147.976C966.812 147.976 967.484 148.128 968.076 148.432C968.668 148.72 969.164 149.12 969.564 149.632C969.98 150.128 970.268 150.688 970.428 151.312L969.852 151.696V143.272H971.868V160H969.852V156.472L970.524 156.688C970.316 157.376 970.004 157.984 969.588 158.512C969.172 159.04 968.668 159.456 968.076 159.76C967.484 160.048 966.812 160.192 966.06 160.192ZM966.396 158.32C967.116 158.32 967.748 158.144 968.292 157.792C968.836 157.424 969.26 156.92 969.564 156.28C969.868 155.64 970.02 154.904 970.02 154.072C970.02 153.24 969.868 152.504 969.564 151.864C969.26 151.224 968.836 150.728 968.292 150.376C967.748 150.008 967.116 149.824 966.396 149.824C965.676 149.824 965.036 150.008 964.476 150.376C963.932 150.728 963.5 151.224 963.18 151.864C962.876 152.504 962.724 153.24 962.724 154.072C962.724 154.904 962.876 155.64 963.18 156.28C963.5 156.92 963.932 157.424 964.476 157.792C965.036 158.144 965.676 158.32 966.396 158.32ZM980.314 160.192C979.386 160.192 978.57 160.04 977.866 159.736C977.178 159.416 976.602 158.976 976.138 158.416C975.69 157.856 975.346 157.216 975.106 156.496C974.882 155.76 974.77 154.984 974.77 154.168C974.77 153.352 974.882 152.576 975.106 151.84C975.33 151.088 975.658 150.424 976.09 149.848C976.538 149.272 977.098 148.816 977.77 148.48C978.442 148.144 979.226 147.976 980.122 147.976C981.034 147.976 981.818 148.136 982.474 148.456C983.146 148.76 983.69 149.184 984.106 149.728C984.538 150.272 984.858 150.88 985.066 151.552C985.274 152.224 985.378 152.92 985.378 153.64C985.378 153.704 985.37 153.856 985.354 154.096C985.354 154.32 985.338 154.52 985.306 154.696H976.786C976.834 155.848 977.17 156.744 977.794 157.384C978.418 158.024 979.266 158.344 980.338 158.344C981.026 158.344 981.626 158.232 982.138 158.008C982.65 157.784 983.13 157.424 983.578 156.928L984.994 158.176C984.562 158.64 984.106 159.024 983.626 159.328C983.146 159.616 982.634 159.832 982.09 159.976C981.562 160.12 980.97 160.192 980.314 160.192ZM983.362 153.664C983.394 153.536 983.41 153.408 983.41 153.28C983.426 153.152 983.434 153.024 983.434 152.896C983.434 152.512 983.362 152.128 983.218 151.744C983.09 151.36 982.89 151.016 982.618 150.712C982.362 150.392 982.026 150.144 981.61 149.968C981.21 149.776 980.73 149.68 980.17 149.68C979.482 149.68 978.89 149.84 978.394 150.16C977.898 150.48 977.514 150.904 977.242 151.432C976.97 151.96 976.81 152.544 976.762 153.184H984.034L983.362 153.664ZM993.491 160.192C992.387 160.192 991.395 159.936 990.515 159.424C989.651 158.896 988.971 158.168 988.475 157.24C987.979 156.312 987.731 155.256 987.731 154.072C987.731 152.888 987.971 151.84 988.451 150.928C988.947 150 989.627 149.28 990.491 148.768C991.371 148.24 992.371 147.976 993.491 147.976C994.611 147.976 995.595 148.24 996.443 148.768C997.307 149.28 997.987 150 998.483 150.928C998.979 151.84 999.227 152.888 999.227 154.072C999.227 155.256 998.979 156.312 998.483 157.24C997.987 158.152 997.307 158.872 996.443 159.4C995.579 159.928 994.595 160.192 993.491 160.192ZM993.491 158.392C994.243 158.392 994.891 158.216 995.435 157.864C995.995 157.496 996.427 156.992 996.731 156.352C997.035 155.696 997.187 154.936 997.187 154.072C997.187 153.192 997.035 152.432 996.731 151.792C996.427 151.136 995.995 150.632 995.435 150.28C994.891 149.928 994.243 149.752 993.491 149.752C992.723 149.752 992.059 149.936 991.499 150.304C990.939 150.656 990.507 151.152 990.203 151.792C989.899 152.432 989.747 153.192 989.747 154.072C989.747 154.936 989.899 155.696 990.203 156.352C990.507 156.992 990.939 157.496 991.499 157.864C992.059 158.216 992.723 158.392 993.491 158.392ZM1006.05 160.192C1005.25 160.192 1004.53 160.072 1003.89 159.832C1003.25 159.592 1002.69 159.272 1002.23 158.872C1001.78 158.472 1001.42 158.048 1001.15 157.6L1002.57 156.4C1002.87 157.008 1003.32 157.512 1003.91 157.912C1004.52 158.296 1005.24 158.488 1006.07 158.488C1006.82 158.488 1007.42 158.328 1007.87 158.008C1008.32 157.688 1008.54 157.256 1008.54 156.712C1008.54 156.264 1008.41 155.912 1008.13 155.656C1007.86 155.4 1007.5 155.192 1007.05 155.032C1006.61 154.872 1006.12 154.728 1005.59 154.6C1005.14 154.488 1004.69 154.352 1004.22 154.192C1003.77 154.032 1003.37 153.832 1003 153.592C1002.63 153.352 1002.33 153.04 1002.11 152.656C1001.89 152.272 1001.77 151.8 1001.77 151.24C1001.77 150.264 1002.15 149.48 1002.9 148.888C1003.67 148.28 1004.67 147.976 1005.9 147.976C1006.8 147.976 1007.61 148.168 1008.35 148.552C1009.1 148.92 1009.69 149.48 1010.1 150.232L1008.81 151.192C1008.49 150.632 1008.06 150.232 1007.53 149.992C1007.02 149.736 1006.45 149.608 1005.83 149.608C1005.21 149.608 1004.69 149.736 1004.27 149.992C1003.85 150.248 1003.65 150.6 1003.65 151.048C1003.65 151.384 1003.74 151.656 1003.93 151.864C1004.13 152.072 1004.41 152.248 1004.77 152.392C1005.16 152.536 1005.62 152.672 1006.17 152.8C1006.66 152.912 1007.17 153.048 1007.68 153.208C1008.19 153.368 1008.66 153.576 1009.09 153.832C1009.53 154.088 1009.87 154.432 1010.13 154.864C1010.4 155.28 1010.53 155.824 1010.53 156.496C1010.53 157.232 1010.35 157.88 1009.98 158.44C1009.61 159 1009.09 159.432 1008.42 159.736C1007.75 160.04 1006.96 160.192 1006.05 160.192Z" fill="#151515"/>
<defs>
<filter id="filter0_d_125_16227" x="0" y="0.5" width="130" height="130" filterUnits="userSpaceOnUse" color-interpolation-filters="sRGB">
<feFlood flood-opacity="0" result="BackgroundImageFix"/>
<feColorMatrix in="SourceAlpha" type="matrix" values="0 0 0 0 0 0 0 0 0 0 0 0 0 0 0 0 0 0 127 0" result="hardAlpha"/>
<feOffset dy="7.5"/>
<feGaussianBlur stdDeviation="5"/>
<feComposite in2="hardAlpha" operator="out"/>
<feColorMatrix type="matrix" values="0 0 0 0 0 0 0 0 0 0 0 0 0 0 0 0 0 0 0.08 0"/>
<feBlend mode="normal" in2="BackgroundImageFix" result="effect1_dropShadow_125_16227"/>
<feBlend mode="normal" in="SourceGraphic" in2="effect1_dropShadow_125_16227" result="shape"/>
</filter>
<filter id="filter1_d_125_16227" x="611" y="0.5" width="130" height="130" filterUnits="userSpaceOnUse" color-interpolation-filters="sRGB">
<feFlood flood-opacity="0" result="BackgroundImageFix"/>
<feColorMatrix in="SourceAlpha" type="matrix" values="0 0 0 0 0 0 0 0 0 0 0 0 0 0 0 0 0 0 127 0" result="hardAlpha"/>
<feOffset dy="7.5"/>
<feGaussianBlur stdDeviation="5"/>
<feComposite in2="hardAlpha" operator="out"/>
<feColorMatrix type="matrix" values="0 0 0 0 0 0 0 0 0 0 0 0 0 0 0 0 0 0 0.08 0"/>
<feBlend mode="normal" in2="BackgroundImageFix" result="effect1_dropShadow_125_16227"/>
<feBlend mode="normal" in="SourceGraphic" in2="effect1_dropShadow_125_16227" result="shape"/>
</filter>
</defs>
</svg>
