<svg width="103" height="22" viewBox="0 0 103 22" fill="none" xmlns="http://www.w3.org/2000/svg">
<path d="M30.1641 3.43534C29.8121 2.08306 28.7749 1.0182 27.4579 0.656801C25.0711 0 15.4995 0 15.4995 0C15.4995 0 5.92796 0 3.54102 0.656801C2.22399 1.0182 1.18678 2.08306 0.834785 3.43534C0.195312 5.88619 0.195312 10.9999 0.195312 10.9999C0.195312 10.9999 0.195312 16.1134 0.834785 18.5645C1.18678 19.9167 2.22399 20.9816 3.54102 21.3432C5.92796 21.9998 15.4995 21.9998 15.4995 21.9998C15.4995 21.9998 25.0711 21.9998 27.4579 21.3432C28.7749 20.9816 29.8121 19.9167 30.1641 18.5645C30.8037 16.1134 30.8037 10.9999 30.8037 10.9999C30.8037 10.9999 30.8037 5.88619 30.1641 3.43534Z" fill="#FF0000"/>
<path d="M12.625 16.2604V6.69531L20.2771 11.4781L12.625 16.2604Z" fill="white"/>
<path d="M44.8367 16V11.664L40.9007 4.848H43.0127L45.7167 9.808L48.4687 4.848H50.5647L46.6927 11.664V16H44.8367ZM53.9436 16.144C53.1969 16.144 52.5249 15.968 51.9276 15.616C51.3302 15.264 50.8609 14.7787 50.5196 14.16C50.1889 13.5413 50.0236 12.8373 50.0236 12.048C50.0236 11.2587 50.1889 10.5547 50.5196 9.936C50.8609 9.31733 51.3249 8.83733 51.9116 8.496C52.5089 8.144 53.1862 7.968 53.9436 7.968C54.7116 7.968 55.3836 8.144 55.9596 8.496C56.5462 8.83733 57.0102 9.31733 57.3516 9.936C57.6929 10.5547 57.8636 11.2587 57.8636 12.048C57.8636 12.8373 57.6929 13.5413 57.3516 14.16C57.0209 14.7787 56.5569 15.264 55.9596 15.616C55.3729 15.968 54.7009 16.144 53.9436 16.144ZM53.9596 14.576C54.3969 14.576 54.7756 14.4747 55.0956 14.272C55.4156 14.0693 55.6609 13.776 55.8316 13.392C56.0022 13.008 56.0876 12.56 56.0876 12.048C56.0876 11.5253 56.0022 11.0773 55.8316 10.704C55.6609 10.32 55.4156 10.0267 55.0956 9.824C54.7756 9.62133 54.3969 9.52 53.9596 9.52C53.5009 9.52 53.1116 9.62667 52.7916 9.84C52.4716 10.0427 52.2262 10.3307 52.0556 10.704C51.8849 11.0773 51.7996 11.5253 51.7996 12.048C51.7996 12.56 51.8849 13.008 52.0556 13.392C52.2262 13.776 52.4716 14.0693 52.7916 14.272C53.1116 14.4747 53.5009 14.576 53.9596 14.576ZM62.3151 16.144C61.6964 16.144 61.1737 16.0213 60.7471 15.776C60.3311 15.5307 60.0164 15.1787 59.8031 14.72C59.5897 14.2613 59.4831 13.7067 59.4831 13.056V8.112H61.2591V12.576C61.2591 12.992 61.3071 13.3547 61.4031 13.664C61.5097 13.9627 61.6751 14.192 61.8991 14.352C62.1337 14.512 62.4484 14.592 62.8431 14.592C63.3017 14.592 63.6591 14.4747 63.9151 14.24C64.1817 13.9947 64.3684 13.6427 64.4751 13.184C64.5924 12.7147 64.6511 12.1547 64.6511 11.504V8.112H66.4271V16H64.6511V14.304L64.9551 14.416C64.7097 15.0133 64.3524 15.4507 63.8831 15.728C63.4244 16.0053 62.9017 16.144 62.3151 16.144ZM71.2206 16V6.496H67.6686V4.848H76.6286V6.496H73.0926V16H71.2206ZM79.7213 16.144C79.1026 16.144 78.58 16.0213 78.1533 15.776C77.7373 15.5307 77.4226 15.1787 77.2093 14.72C76.996 14.2613 76.8893 13.7067 76.8893 13.056V8.112H78.6653V12.576C78.6653 12.992 78.7133 13.3547 78.8093 13.664C78.916 13.9627 79.0813 14.192 79.3053 14.352C79.54 14.512 79.8546 14.592 80.2493 14.592C80.708 14.592 81.0653 14.4747 81.3213 14.24C81.588 13.9947 81.7746 13.6427 81.8813 13.184C81.9986 12.7147 82.0573 12.1547 82.0573 11.504V8.112H83.8333V16H82.0573V14.304L82.3613 14.416C82.116 15.0133 81.7586 15.4507 81.2893 15.728C80.8306 16.0053 80.308 16.144 79.7213 16.144ZM90.0348 16.144C89.6081 16.144 89.2028 16.0587 88.8188 15.888C88.4455 15.7173 88.1201 15.456 87.8428 15.104C87.5655 14.7413 87.3575 14.272 87.2188 13.696L87.6828 13.808V16H85.9228V4.848H87.6828V10.32H87.2828C87.3895 9.81867 87.5708 9.39733 87.8268 9.056C88.0935 8.704 88.4135 8.43733 88.7868 8.256C89.1708 8.064 89.5868 7.968 90.0348 7.968C90.6748 7.968 91.2508 8.13333 91.7628 8.464C92.2855 8.784 92.7015 9.248 93.0108 9.856C93.3201 10.464 93.4748 11.1947 93.4748 12.048C93.4748 12.8267 93.3308 13.5253 93.0428 14.144C92.7655 14.7627 92.3708 15.2533 91.8588 15.616C91.3468 15.968 90.7388 16.144 90.0348 16.144ZM89.6028 14.512C90.0188 14.512 90.3815 14.4107 90.6908 14.208C91.0108 14.0053 91.2561 13.7173 91.4268 13.344C91.5975 12.9707 91.6828 12.5387 91.6828 12.048C91.6828 11.5573 91.5975 11.1253 91.4268 10.752C91.2561 10.3787 91.0108 10.0907 90.6908 9.888C90.3815 9.68533 90.0188 9.584 89.6028 9.584C89.1868 9.584 88.8188 9.69067 88.4988 9.904C88.1895 10.1067 87.9495 10.3947 87.7788 10.768C87.6081 11.1307 87.5228 11.5573 87.5228 12.048C87.5228 12.5387 87.6081 12.9707 87.7788 13.344C87.9495 13.7173 88.1895 14.0053 88.4988 14.208C88.8188 14.4107 89.1868 14.512 89.6028 14.512ZM98.6444 16.144C97.9831 16.144 97.4071 16.0373 96.9164 15.824C96.4364 15.6107 96.0418 15.312 95.7324 14.928C95.4231 14.544 95.1938 14.112 95.0444 13.632C94.8951 13.1413 94.8204 12.6347 94.8204 12.112C94.8204 11.5893 94.8898 11.0827 95.0284 10.592C95.1778 10.0907 95.4018 9.64267 95.7004 9.248C95.9991 8.85333 96.3831 8.544 96.8524 8.32C97.3218 8.08533 97.8764 7.968 98.5164 7.968C99.1244 7.968 99.6524 8.07467 100.1 8.288C100.559 8.49067 100.938 8.77867 101.236 9.152C101.535 9.51467 101.754 9.93067 101.892 10.4C102.042 10.8693 102.116 11.3707 102.116 11.904C102.116 11.9787 102.111 12.0853 102.1 12.224C102.1 12.3627 102.09 12.5013 102.068 12.64H96.5964C96.6391 13.2693 96.8524 13.7493 97.2364 14.08C97.6204 14.4107 98.1111 14.576 98.7084 14.576C99.1458 14.576 99.5458 14.5067 99.9084 14.368C100.271 14.2293 100.602 14.0107 100.9 13.712L101.876 14.896C101.546 15.1947 101.215 15.4347 100.884 15.616C100.554 15.7973 100.207 15.9307 99.8444 16.016C99.4924 16.1013 99.0924 16.144 98.6444 16.144ZM100.372 11.744C100.394 11.6587 100.404 11.5733 100.404 11.488C100.415 11.4027 100.42 11.3173 100.42 11.232C100.42 10.9973 100.378 10.7733 100.292 10.56C100.218 10.3467 100.1 10.16 99.9404 10C99.7804 9.82933 99.5831 9.696 99.3484 9.6C99.1138 9.49333 98.8471 9.44 98.5484 9.44C98.1324 9.44 97.7804 9.53067 97.4924 9.712C97.2151 9.89333 96.9964 10.128 96.8364 10.416C96.6871 10.6933 96.5964 10.9973 96.5644 11.328H100.948L100.372 11.744Z" fill="#151515"/>
</svg>
