<svg width="58" height="30" viewBox="0 0 58 30" fill="none" xmlns="http://www.w3.org/2000/svg">
<path d="M55.2005 4.1703C54.1818 4.94861 53.6076 5.85105 52.9568 6.89197C52.2754 7.98033 51.6638 8.7759 50.1506 8.24974C49.401 7.98797 48.6107 7.06655 48.1664 6.52335C46.3396 4.30787 44.9742 1.21516 41.6722 0.629543C39.2541 0.204729 37.2598 1.60986 36.3827 3.57921C35.0832 6.48638 35.4058 9.80065 34.1255 12.7581C33.5617 14.0616 32.1081 17.8577 30.2071 17.6306C28.5877 17.4369 27.5741 15.1094 26.927 14.0022C25.6878 11.8781 23.8674 9.85677 21.0385 9.96618C18.0065 10.0837 15.9366 12.306 14.848 14.7077C13.4909 17.6904 12.5299 20.9012 11.5486 24.0284C10.1089 23.7224 8.85887 22.3014 7.48833 21.7823C6.29939 21.3309 5.01469 21.347 3.84917 21.7981C0.64927 23.0679 0.258348 26.2337 0.735607 29.1116C0.839155 29.7433 1.77735 29.8079 1.93134 29.1851C2.26051 27.9037 2.6333 26.544 3.38577 25.4225C4.65907 23.5282 6.308 23.794 8.0523 24.9627C9.52082 25.9527 10.8277 26.8456 12.6979 26.6278C13.1474 26.5732 13.6356 26.353 13.8087 25.9334C15.1404 22.6664 16.1269 19.2077 17.639 16.0148C18.3732 14.4574 20.1288 11.9559 22.4194 13.0152C23.7103 13.6124 24.3774 15.2223 25.0502 16.3078C26.2323 18.2015 28.1382 20.2657 30.6885 20.2964C33.5973 20.3352 35.3699 17.2116 36.4672 15.1442C37.9455 12.3574 38.2306 9.48426 38.8302 6.47109C39.1483 4.86817 39.8593 2.52141 42.2359 3.9629C43.6949 4.85133 44.4761 6.54275 45.4689 7.80189C46.8953 9.62219 49.1354 11.5567 51.7154 11.2405C54.8704 10.8536 54.842 8.00087 56.8818 6.4314C58.2978 5.34249 56.6409 3.06608 55.2017 4.16388L55.2005 4.1703Z" fill="#ED1C24"/>
</svg>
