<svg width="40" height="20" viewBox="0 0 40 20" fill="none" xmlns="http://www.w3.org/2000/svg">
<path d="M37.4912 12.3861C35.3671 11.9795 33.7625 13.7231 32.631 15.4501C32.2812 15.9849 32.0086 16.8038 31.376 15.996C30.9903 15.5058 30.9286 14.3415 30.7846 13.7287C30.3731 11.9906 29.9205 10.2581 29.4371 8.54226C28.8353 6.4142 28.0073 4.37528 25.6311 4.46998C23.147 4.56469 21.7686 6.96014 20.4931 8.94893C19.5828 10.3695 18.6724 11.79 17.7621 13.205C17.1604 14.1409 16.3117 16.1409 15.2934 16.6478C12.4544 18.0628 12.1612 11.5561 12.0841 9.72884C11.9863 7.42809 12.0944 4.91565 11.3589 2.72075C10.7006 0.754244 8.9776 -0.811157 7.09006 0.458991C6.12829 1.10521 5.3671 2.28622 4.66249 3.22212C3.78301 4.39199 2.99097 5.62314 2.24006 6.88215C1.96748 6.04096 2.06005 5.21647 1.90062 4.14688C1.8749 3.96304 1.76689 3.12184 1.43259 3.13299C-1.31386 3.19427 0.56854 8.33057 1.49431 9.4503C1.88004 9.92382 2.6618 9.97953 3.00125 9.38902C3.87045 7.87933 4.79621 6.41977 5.82484 5.03264C6.30316 4.38642 7.11063 2.94358 7.79982 2.59819C9.26047 1.85727 9.4662 3.47281 9.63592 4.33628C10.14 6.91558 9.87251 9.61742 10.1091 12.2301C10.3097 14.4306 10.8754 17.3943 12.6138 18.8204C14.3779 20.2688 16.3375 19.1435 17.6232 17.5893C19.7371 15.0378 21.3623 11.907 23.2344 9.14391C23.7436 8.38627 24.5099 7.06599 25.5077 7.06042C26.9118 7.05485 27.0764 9.09934 27.3438 10.1077C27.7964 11.8346 28.1873 13.5783 28.5885 15.3219C29.0308 17.2495 30.0748 20.0182 32.415 19.3497C33.4282 19.06 33.9785 18.1686 34.5134 17.2717C34.9197 16.5921 35.326 15.8122 35.9483 15.3219C36.6015 14.8094 37.985 14.6256 38.1907 15.8456C38.381 16.9598 39.8262 16.8372 39.9702 15.762C40.2017 14.0072 39.0548 12.6869 37.4964 12.3917L37.4912 12.3861Z" fill="#2BB457"/>
</svg>
