<svg width="58" height="30" viewBox="0 0 58 30" fill="none" xmlns="http://www.w3.org/2000/svg">
<path d="M55.2005 4.16615C54.1818 4.94446 53.6076 5.8469 52.9568 6.88782C52.2754 7.97618 51.6638 8.77175 50.1506 8.24559C49.401 7.98382 48.6107 7.0624 48.1664 6.5192C46.3396 4.30372 44.9742 1.21101 41.6722 0.625393C39.2541 0.200579 37.2598 1.60571 36.3827 3.57505C35.0832 6.48223 35.4058 9.7965 34.1255 12.7539C33.5617 14.0575 32.1081 17.8535 30.2071 17.6265C28.5877 17.4328 27.5741 15.1053 26.927 13.9981C25.6878 11.8739 23.8674 9.85262 21.0385 9.96203C18.0065 10.0795 15.9366 12.3019 14.848 14.7035C13.4909 17.6863 12.5299 20.8971 11.5486 24.0242C10.1089 23.7182 8.85887 22.2972 7.48833 21.7782C6.29939 21.3267 5.01469 21.3428 3.84917 21.7939C0.64927 23.0638 0.258348 26.2296 0.735607 29.1075C0.839155 29.7391 1.77735 29.8038 1.93134 29.181C2.26051 27.8995 2.6333 26.5398 3.38577 25.4183C4.65907 23.524 6.308 23.7899 8.0523 24.9585C9.52082 25.9486 10.8277 26.8415 12.6979 26.6236C13.1474 26.5691 13.6356 26.3489 13.8087 25.9293C15.1404 22.6623 16.1269 19.2035 17.639 16.0106C18.3732 14.4533 20.1288 11.9518 22.4194 13.0111C23.7103 13.6082 24.3774 15.2182 25.0502 16.3036C26.2323 18.1974 28.1382 20.2615 30.6885 20.2923C33.5973 20.331 35.3699 17.2074 36.4672 15.1401C37.9455 12.3533 38.2306 9.4801 38.8302 6.46694C39.1483 4.86402 39.8593 2.51726 42.2359 3.95875C43.6949 4.84718 44.4761 6.5386 45.4689 7.79774C46.8953 9.61804 49.1354 11.5526 51.7154 11.2363C54.8704 10.8494 54.842 7.99672 56.8818 6.42725C58.2978 5.33834 56.6409 3.06193 55.2017 4.15973L55.2005 4.16615Z" fill="white"/>
</svg>
